<svg xmlns="http://www.w3.org/2000/svg" viewBox="0 0 120 120" enable-background="new 0 0 120 120"><path d="M59 18.8c-22.6 0-40.9 18.4-40.9 40.9s18.4 40.9 40.9 40.9 40.9-18.4 40.9-40.9S81.6 18.8 59 18.8zm0 76.9c-3 0-5.9-.4-8.7-1.1l4.2-16.9c2.3 1.6 5.2 2.4 8.3 2.4 4.7 0 9.4-2.1 12.8-5.8 2.7-2.9 5.8-8.1 5.8-16.6 0-12.3-8.7-20.2-22.2-20.2-13 0-23.2 9.8-23.2 22.2 0 2.9.5 5.7 1.5 8.3l4.7-1.8c-.8-2.1-1.2-4.3-1.2-6.5 0-9.8 7.8-17.2 18.2-17.2 10.8 0 17.2 5.7 17.2 15.2 0 11.4-6.8 17.4-13.6 17.4-3.1 0-5.4-1.2-6.9-2.9l4.3-17.6-3.9-2.6c-6.5 4.3-9.4 11.4-7.4 18.2.3 1.2.8 2.2 1.4 3.2L45.5 93c-13.1-5.3-22.4-18.2-22.4-33.3 0-19.8 16.1-35.9 35.9-35.9s35.9 16.1 35.9 35.9-16.1 36-35.9 36z"/></svg>