<svg xmlns="http://www.w3.org/2000/svg" viewBox="0 0 120 120"><path d="M104 29h-9.2l-.2-.7c-1.5-6-6.8-10.2-13-10.2-3.3 0-6.6 1.3-9 3.6L11.8 78.4l4.7 1c.4.1 9.5 2 21.6 2 3.5 0 7.4-.2 11.3-.6l5.3 21.6 4.9-1.2-5.2-21.1c2.8-.5 5.6-1.1 8.4-1.9l6.2 24.2 4.8-1.2-6.3-24.6C74 74.1 80.1 70.5 85 65.2 95 54.6 96.7 43.1 95.7 34h8.3v-5zM63.9 55.5c-5 6.4-14.8 9.1-29 8.2l31.8-29.6c1 4.3 2.7 14.3-2.8 21.4zm17.5 6.3C70 73.9 51.5 76.4 38 76.4c-6.3 0-11.9-.6-15.6-1.1l7.5-7 .9.1c3.3.3 6.3.5 9.2.5 13.1 0 22.4-3.4 27.7-10.3 9-11.4 3.3-27.6 3-28.3l5.3-4.9c2-1.9 4.2-2.2 5.6-2.2 3.9 0 7.2 2.6 8.1 6.4 3.1 12.2.3 23.1-8.3 32.2z"/></svg>