<svg version="1.1" id="Layer_2" xmlns="http://www.w3.org/2000/svg" x="0" y="0" viewBox="0 0 120 120" xml:space="preserve"><path d="M102 91.6L90.8 52.1l.3-.3-.5-.5-.2-.6-.2.3-27.7-27.7-7-7c-2.8-2.8-6.4-4.3-10.3-4.3-3.9 0-7.6 1.5-10.3 4.3l-8.2 8.2c-5.7 5.7-5.7 15 0 20.6l7 7 .9.9 26.8 26.8-.2.2.3.1.7.7.4-.4L96.5 90H31v5h70v-3.7l1 .3zM73 68.2L48.8 44.1l5.5-5.5 24.1 24.1-5.4 5.5zm9-9L57.8 35.1l4.7-4.7 24.1 24.1-4.6 4.7zM30.2 41.7c-3.7-3.7-3.7-9.8 0-13.6l8.2-8.2c1.8-1.8 4.2-2.8 6.8-2.8s5 1 6.8 2.8l7 7-21.8 21.8-7-7zm10.5 10.5l4.6-4.6 24.1 24.1-4.6 4.6-24.1-24.1zm47.2 8.1l4.8 16.9-5.1 5.1-16.9-4.8 17.2-17.2z"/></svg>