<svg xmlns="http://www.w3.org/2000/svg" viewBox="0 0 120 120"><path d="M41 30.1c-8.7.2-14.7 6.2-14.7 14.8 0 8.7 6.3 14.8 15.3 14.8 1.2 0 2.4-.1 3.5-.3v5.9c-.9-.1-1.9-.1-2.8-.1-11.5 0-18.7 5.3-18.7 13.9 0 8.5 7.2 13.7 18.7 13.7S61 87.5 61 79.1c0-6.4-4-11-10.8-12.9v-8.7c4.2-2.5 6.8-7 6.8-12.6 0-4-1.3-7.4-3.6-9.9H61v-5H41v.1zm14.8 49c0 8.1-10.5 8.7-13.7 8.7-4.1 0-13.7-.9-13.7-8.7 0-8 9.6-8.9 13.7-8.9 3.3 0 13.7.7 13.7 8.9zM41.5 54.7c-6.2 0-10.3-3.9-10.3-9.8 0-6 4-9.8 10.3-9.8 6.2 0 10.3 3.9 10.3 9.8 0 6-4 9.8-10.3 9.8zM94 42H83V30h-5v12H66v5h12v13h5V47h11z"/></svg>