<svg xmlns="http://www.w3.org/2000/svg" viewBox="0 0 120 120" enable-background="new 0 0 120 120"><path d="M96 34.8c0-6-4.8-10.8-10.8-10.8H34.8c-6 0-10.8 4.8-10.8 10.8v50.5C24 91.2 28.8 96 34.8 96h50.5C91.2 96 96 91.2 96 85.2V34.8zM35 29h50.1c3.2 0 5.9 2.5 5.9 5.7V45H71v.1c-3.1-2.3-6.8-3.7-11-3.7s-8 1.4-11 3.8V45H29V34.7c0-3.2 2.8-5.7 6-5.7zm25 17.4c7.3 0 13.3 5.9 13.3 13.3S67.4 73 60 73s-13.2-6-13.2-13.3S52.7 46.4 60 46.4zM85.1 91H35c-3.2 0-6-3.1-6-6.2V50h15.6c-1.8 2.8-2.8 6.1-2.8 9.7C41.8 69.8 50 78 60 78s18.3-8.2 18.3-18.3c0-3.6-1-6.9-2.8-9.7H91v34.8c0 3.1-2.7 6.2-5.9 6.2z"/></svg>