<?xml version="1.0" encoding="utf-8"?>
<!-- Generator: Adobe Illustrator 19.2.1, SVG Export Plug-In . SVG Version: 6.00 Build 0)  -->
<svg version="1.1" id="Layer_1" xmlns="http://www.w3.org/2000/svg" xmlns:xlink="http://www.w3.org/1999/xlink" x="0px" y="0px"
	 width="2506.084px" height="1335.134px" viewBox="0 0 2506.084 1335.134" enable-background="new 0 0 2506.084 1335.134"
	 xml:space="preserve">
<rect x="-23.169" y="-27.003" display="none" width="2553.255" height="1380.138"/>
<g>
	<path fill="#E58AA3" d="M1517.157,1071.232c0,40.316-43.177,58.616-94.931,47.179v-17.728
		c34.884,10.293,89.498,2.287,89.498-34.026c0-42.032-72.628-42.032-72.628-64.05c0-20.873,64.336-14.297,64.336-52.04
		c0-21.159-20.016-28.879-38.315-28.879c-26.878,0-56.615,16.298-56.615,56.043v140.68h-43.462v-4.003
		c36.027,0,39.459-28.594,39.459-55.186v-81.491c0-44.605,25.734-76.631,60.618-76.631c29.451,0,43.462,22.875,43.462,44.892
		c0,47.752-65.193,39.174-65.193,56.901C1443.386,1021.765,1517.157,1018.62,1517.157,1071.232z"/>
</g>
<g>
	<path fill="#FFE64B" d="M428.603,250.709c0,51.978-30.212,90.96-75.043,90.96c-30.212,0-51.652-17.867-61.073-46.779h-1.624v38.009
		c0,55.551,1.299,74.393,47.429,74.393v3.898h-86.088v-3.898c33.136,0,34.761-20.466,34.761-81.54V154.549
		c0-46.454-12.021-62.048-48.404-62.048v-3.573l52.303-6.497v137.091h1.624c9.421-30.862,31.836-51.653,65.621-51.653
		C400.99,167.869,428.603,201.33,428.603,250.709z M424.379,255.256c0-45.806-31.511-67.896-68.87-67.896
		c-37.358,0-64.322,22.09-64.322,67.57c0,46.13,27.613,67.246,64.647,67.246S424.379,301.061,424.379,255.256z"/>
</g>
<g>
	<path fill="#FFFFFF" d="M1513.13,484.164v12.505h-47.338v-12.505c17.685,0,20.186-14.111,20.186-27.331v-11.254
		c-1.251-16.791-10.183-22.15-26.26-22.15h-32.512l0.179,33.404c0,13.22,3.216,27.331,23.58,27.331v12.505h-50.911v-12.505
		c17.686,0,20.186-14.111,20.186-27.331v-33.404h-58.413l0.179,33.404c0,13.22,3.037,27.331,23.401,27.331v12.505h-50.911v-12.505
		c17.685,0,20.186-14.111,20.186-27.331v-33.404h-21.614v-16.077h21.614v-16.435c0-22.865,6.609-42.515,27.152-42.515
		c16.971,0,25.366,13.576,25.366,32.333h-7.324c0-7.324-7.859-12.684-18.042-12.684c-14.29,0-20.007,10.54-20.007,26.081v13.219
		h58.413v-17.685c0-23.223,11.255-44.838,36.978-44.838c25.902,0,36.263,21.794,36.263,43.052h-8.038
		c-2.144-12.684-10.004-24.116-30.011-24.116c-19.828,0-28.046,11.075-28.225,27.152v16.435l65.917-0.179v49.66
		C1493.123,470.052,1495.802,484.164,1513.13,484.164z"/>
</g>
<g>
	<path fill="#FFE64B" d="M1265.801,192.366v59.95c0,17.466,2.36,36.111,27.851,36.111v21.242h-76.707v-21.242
		c35.639,0,37.056-16.758,37.056-33.279v-27.614h-104.559v27.614c0,16.521,1.416,33.279,37.056,33.279v21.242h-76.707v-21.242
		c25.49,0,27.851-18.646,27.851-36.111v-59.95c0-17.466-2.36-36.111-27.851-36.111v-21.242h76.707v21.242
		c-35.64,0-37.056,16.758-37.056,33.279v26.671H1254v-26.671c0-16.521-1.417-33.279-37.056-33.279v-21.242h76.707v21.242
		C1268.161,156.254,1265.801,174.9,1265.801,192.366z"/>
</g>
<g>
	<path fill="#E58AA3" d="M1731.464,170.655h-9.663c-0.967-13.045-12.079-18.118-23.191-18.118
		c-16.669,0-29.956,11.112-29.956,37.687v7.488c0,17.877,2.416,36.962,35.271,36.962v16.91h-72.231v-16.91
		c23.916,0,27.298-19.085,27.298-36.962v-11.112c0-27.057-12.32-38.894-35.753-38.894v-16.91l41.068-4.832l3.865,36.72
		c7.006-20.775,15.702-36.72,35.028-36.72C1724.942,125.963,1731.464,145.773,1731.464,170.655z M1680.733,119.441l-7.006-7.247
		l32.372-30.439l7.005,7.006L1680.733,119.441z"/>
</g>
<g>
	<path fill="#FFFFFF" d="M1740.737,1223.567c0,22.689-7.654,42.918-25.695,42.918c-19.409,0-24.057-24.056-24.057-52.485
		c0-19.683,2.188-39.911,5.194-58.227h-34.717c-3.28,54.399-15.582,110.712-44.285,110.712c-8.474,0-12.574-4.921-12.574-11.481
		c0-8.201,6.287-11.208,15.035-15.581c16.401-8.201,29.249-26.517,32.803-83.649h-5.467c-14.762,0-26.789,6.015-31.983,18.042
		l-9.021-1.64c2.187-15.582,14.761-46.472,47.564-46.472h82.282v30.069h-30.344c-3.007,16.949-4.646,34.718-4.646,48.112
		c0,20.229,3.827,32.803,15.308,32.803c7.654,0,13.668-6.014,13.668-13.121H1740.737z"/>
</g>
<g>
	<path fill="#F0432F" d="M1299.842,1240.746v17.628h-66.735v-17.628c24.931,0,28.457-19.895,28.457-38.53v-7.807
		c0-27.953-15.11-39.286-36.768-39.286s-37.02,11.333-37.02,39.286v7.807c0,18.636,3.777,38.53,28.205,38.53v17.628h-66.735v-17.628
		c24.932,0,28.457-19.895,28.457-38.53v-7.807c0-27.953-15.109-39.286-36.767-39.286c-21.658,0-37.02,11.333-37.02,39.286v7.807
		c0,18.636,3.777,38.53,28.205,38.53v17.628h-66.735v-17.628c24.932,0,28.457-19.895,28.457-38.53v-11.584
		c0-28.205-12.844-40.545-37.271-40.545v-17.629l42.812-5.036l4.029,38.278h0.252c7.303-22.665,23.42-38.278,46.337-38.278
		c22.665,0,32.99,15.361,36.012,38.278h1.511c7.556-23.168,23.673-38.278,46.337-38.278c30.22,0,37.775,26.442,37.775,64.217v10.577
		C1271.637,1220.851,1275.414,1240.746,1299.842,1240.746z"/>
</g>
<g>
	<path fill="#FFFFFF" d="M779.654,1227.512c0-11.333,8.059-19.14,19.139-19.14c11.081,0,18.888,7.807,18.888,19.14
		c0,11.332-7.807,19.139-18.888,19.139C787.712,1246.651,779.654,1238.844,779.654,1227.512z M847.9,1227.512
		c0-11.333,8.059-19.14,19.139-19.14c11.081,0,18.888,7.807,18.888,19.14c0,11.332-7.807,19.139-18.888,19.139
		C855.958,1246.651,847.9,1238.844,847.9,1227.512z M916.65,1227.512c0-11.333,8.059-19.14,19.139-19.14
		c11.081,0,18.888,7.807,18.888,19.14c0,11.332-7.807,19.139-18.888,19.139C924.708,1246.651,916.65,1238.844,916.65,1227.512z"/>
</g>
<g>
	<path fill="#FFFFFF" d="M1463.624,1221.358c-25.183,0-33.241-25.939-54.899-25.939c-13.347,0-22.413,10.073-22.413,23.421h-4.029
		c0-16.117,10.577-27.953,26.191-27.953c23.168,0,31.73,25.938,55.15,25.938c14.606,0,21.657-10.073,21.657-23.421h4.029
		C1489.311,1206.5,1482.512,1221.358,1463.624,1221.358z M1463.624,1259.887c-25.183,0-33.241-25.938-54.899-25.938
		c-13.347,0-22.413,10.073-22.413,23.421h-4.029c0-16.117,10.577-27.953,26.191-27.953c23.168,0,31.73,25.938,55.15,25.938
		c14.606,0,21.657-10.073,21.657-23.421h4.029C1489.311,1245.03,1482.512,1259.887,1463.624,1259.887z"/>
</g>
<g>
	<g>
		<path fill="#F0432F" d="M460.503,806.795h8.123c-3.61,18.503-16.021,35.652-39.939,36.781c2.257,19.18,4.738,32.944,4.738,44.001
			c0,9.025-1.579,14.667-8.349,14.667s-8.349-5.642-8.349-14.667c0-11.057,2.481-25.047,4.738-44.228
			c-26.175-2.481-43.55-24.595-43.55-54.381c0-29.785,17.601-52.35,44.227-54.381c-2.481-25.272-5.415-42.646-5.415-56.186
			c0-10.154,1.579-16.473,8.349-16.473s8.349,6.318,8.349,16.473c0,13.539-2.933,30.913-5.415,55.96
			c24.37,0.903,36.78,18.277,40.616,37.007h-8.123c-2.708-9.252-18.052-14.441-34.073-14.668
			c-0.451,5.642-0.677,11.734-0.902,18.052h-0.902c-0.226-6.317-0.451-12.41-0.902-18.052
			c-22.339,0.452-37.684,11.057-37.684,32.268s15.345,31.816,37.458,32.493c0.451-6.092,0.902-12.861,1.128-19.856h0.902
			c0.226,6.995,0.677,13.765,1.129,19.856C442.677,821.237,457.795,816.047,460.503,806.795z"/>
	</g>
</g>
<g>
	<path fill="#FFFFFF" d="M966.54,320.667c0-17.078,12.244-29,29-29c17.077,0,29,11.922,29,29c0,17.399-11.923,29.321-29,29.321
		C978.784,349.988,966.54,338.066,966.54,320.667z M995.54,100.268c10.955,0,19.011,8.377,19.011,26.744
		c0,22.555-11.922,76.366-16.111,144.677h-5.8c-3.866-67.988-16.433-121.478-16.433-144.354
		C976.207,108.001,985.229,100.268,995.54,100.268z"/>
</g>
<g>
	<path fill="#FFFFFF" d="M134.087,1188.163c-10.652,0-15.874-4.805-17.753-9.816h-0.627v33.418h-7.52v-37.387
		c28.614,0,48.665-7.729,48.665-26.316c0-14.621-12.113-22.349-31.12-22.349c-19.424,0-32.791,7.937-38.849,19.424h-7.31
		c4.595-26.734,20.468-44.487,46.576-44.487c28.196,0,40.937,20.469,40.937,45.323
		C167.087,1171.036,154.138,1188.163,134.087,1188.163z M93.359,1243.51c0-11.069,7.938-18.797,18.798-18.797
		c11.069,0,18.798,7.728,18.798,18.797c0,11.279-7.729,19.007-18.798,19.007C101.296,1262.517,93.359,1254.79,93.359,1243.51z"/>
</g>
<g>
	<path fill="#FFFFFF" d="M632.358,1113.952c0,14.028-10.059,23.822-23.822,23.822c-14.029,0-23.823-9.794-23.823-23.822
		c0-14.294,9.794-24.087,23.823-24.087C622.299,1089.865,632.358,1099.658,632.358,1113.952z M587.095,1289.708v-25.94
		c8.205-8.734,16.94-40.498,16.94-82.055v-25.676h9.528v25.676c0,41.557,7.147,73.32,16.411,82.055v25.94H587.095z"/>
</g>
<g>
	<g>
		<path fill="#E58AA3" d="M2386.721,767.004c0,26.734-16.13,42.422-39.108,44.631v-8.838c19.665-1.768,30.271-16.35,30.271-30.712
			c0-1.325,0-2.872-0.222-4.64c-2.209,3.756-7.732,6.85-14.582,6.85c-10.385,0-17.455-7.513-17.455-17.896
			c0-11.711,8.838-19.223,19.886-19.223C2380.092,737.176,2386.721,749.991,2386.721,767.004z M2439.085,767.004
			c0,26.734-16.129,42.422-39.107,44.631v-8.838c19.664-1.768,30.27-16.35,30.27-30.712c0-1.325,0-2.872-0.221-4.64
			c-2.21,3.756-7.733,6.85-14.583,6.85c-10.384,0-17.454-7.513-17.454-17.896c0-11.711,8.838-19.223,19.885-19.223
			C2432.456,737.176,2439.085,749.991,2439.085,767.004z"/>
	</g>
</g>
<g>
	<g>
		<path fill="#FFE64B" d="M1966.293,1201.014v48.846h-111.311v-22.778l45.792-38.982c27.006-23.014,43.444-41.331,43.444-61.292
			c0-17.847-13.15-27.24-37.339-27.24c-21.369,0-31.937,7.28-38.981,21.84h-11.742c5.166-29.354,23.483-50.02,54.716-50.02
			c32.407,0,47.672,22.309,47.672,48.845c0,30.528-19.961,53.308-50.02,78.669l-35.226,29.824h45.323
			c17.377,0,35.93-2.349,35.93-27.711H1966.293z"/>
	</g>
</g>
<g>
	<g>
		<path fill="#92DFC2" d="M1404.244,200.962c-15.008,0-23.584-9.005-28.516-19.511l6.003-3.645
			c5.36,6.432,13.508,8.146,21.655,8.146c15.437,0,22.083-6.217,22.083-14.579c0-9.862-9.434-14.579-23.37-14.579
			c-3.216,0-5.574,0-9.862,0.429v-13.936c14.365,0,29.159-3.431,29.159-15.223c0-8.147-7.29-11.149-16.08-11.149
			c-9.435,0-17.796,3.431-20.368,12.221h-7.075c1.5-12.221,10.72-27.229,28.301-27.229c14.579,0,24.441,10.506,24.441,23.37
			c0,11.792-7.933,19.725-18.01,23.584c12.864,2.572,20.583,11.148,20.583,23.584
			C1433.189,186.168,1423.54,200.962,1404.244,200.962z M1505.87,108.127l-94.551,153.726l-7.29-4.932l94.551-153.726
			L1505.87,108.127z M1523.237,231.835h-16.509c0.429,8.362,2.787,16.51,14.579,16.51v13.507h-37.734v-13.507
			c10.935,0,13.937-6.433,14.579-13.722v-2.788h-41.165v-13.507l42.023-52.313h7.504v52.313h16.723V231.835z M1498.152,218.329
			v-30.659h-4.931l-25.3,30.659H1498.152z"/>
	</g>
</g>
<g>
	<path fill="#92DFC2" d="M1888.226,942.961c13.212,6.605,25.662,11.179,39.636,14.736l-8.639,14.99
		c-10.417-10.163-20.326-19.056-32.521-27.187c0.763,14.482,3.303,27.44,7.114,41.414h-17.277
		c3.558-13.974,6.353-26.932,7.114-41.414c-12.195,8.131-22.358,16.77-32.521,27.187l-8.639-14.99
		c13.975-3.812,26.678-7.877,39.89-14.736c-13.212-6.353-25.661-10.926-39.636-14.482l8.639-14.99
		c10.417,10.163,20.072,19.056,32.521,27.186c-1.016-14.99-3.557-28.202-7.368-42.176h17.277
		c-3.557,14.228-6.352,27.186-7.368,42.176c12.449-8.13,22.612-16.769,32.775-27.186l8.639,14.99
		C1913.888,932.29,1901.438,936.354,1888.226,942.961z"/>
</g>
<g>
	<path fill="#92DFC2" d="M1466.716,695.523l-4.897,31.134h38.131v47.576h-45.478l-9.445,62.618h-13.643l9.445-62.618h-53.523
		l-9.445,62.618h-13.643l9.445-62.618h-39.53v-47.576h46.876l4.897-31.134h-40.929v-47.576h47.926l8.745-56.672h13.644
		l-8.746,56.672h53.523l8.745-56.672h13.644l-8.746,56.672h37.081v47.576H1466.716z M1453.073,695.523h-53.522l-4.897,31.134h53.522
		L1453.073,695.523z"/>
</g>
<g>
	<g>
		<path fill="#FFE64B" d="M1176.601,835.898c0,37.507-18.436,62.936-37.188,62.936c-10.172,0-17.482-7.629-19.707-16.211
			c-3.179,14.304-6.993,32.104-9.854,54.671h-5.086c-5.722-45.135-15.575-70.882-15.575-89.635c0-17.164,8.265-25.11,18.118-25.11
			s18.117,7.946,18.117,25.11c0,7.311-1.589,15.575-3.496,25.429c27.653-0.954,38.778-19.071,38.778-35.918
			c0-21.614-18.436-33.375-48.314-33.375c-29.242,0-48.313,11.125-58.167,29.561h-11.125c6.992-40.686,31.149-67.703,70.882-67.703
			C1156.894,765.652,1176.601,797.12,1176.601,835.898z M1134.962,983.065c0,17.164-11.761,28.925-28.607,28.925
			c-16.528,0-28.606-11.761-28.606-28.925c0-16.846,12.078-28.606,28.606-28.606
			C1123.201,954.459,1134.962,966.219,1134.962,983.065z"/>
	</g>
</g>
<g>
	<path fill="#F0432F" d="M94.942,693.893c-5.585,3.103-10.134,1.654-12.202-1.861s-0.828-8.479,4.55-11.582
		c6.825-4.136,17.579-3.516,26.473-6.618v0.207l0.206,0.207C106.73,680.656,101.974,689.963,94.942,693.893z M82.947,650.875
		c2.068-3.517,6.617-4.964,12.201-1.861c7.032,3.93,11.789,13.236,19.027,19.647l-0.207,0.207v0.206
		c-8.893-3.102-19.646-2.481-26.473-6.618C82.118,659.355,80.878,654.391,82.947,650.875z M110.659,640.327
		c0-6.411,3.516-9.928,7.652-9.928s7.652,3.517,7.652,9.928c0,7.859-5.584,16.752-7.445,26.059h-0.414
		C116.243,657.079,110.659,648.187,110.659,640.327z M125.964,702.373c0,6.411-3.516,9.928-7.652,9.928s-7.652-3.517-7.652-9.928
		c0-7.859,5.584-16.752,7.445-26.059h0.414C120.38,685.62,125.964,694.514,125.964,702.373z M141.683,649.014
		c5.584-3.103,10.133-1.655,12.201,1.861c2.068,3.516,0.828,8.479-4.549,11.581c-6.826,4.137-17.58,3.517-26.473,6.618v-0.206
		l-0.207-0.207C129.894,662.25,134.651,652.943,141.683,649.014z M153.884,692.031c-2.068,3.516-6.617,4.964-12.201,1.861
		c-7.032-3.93-11.789-13.236-19.027-19.647l0.207-0.207v-0.207c8.893,3.103,19.646,2.482,26.473,6.618
		C154.712,683.552,155.952,688.516,153.884,692.031z"/>
</g>
<g>
	<path fill="#FFFFFF" d="M2377.382,411.039l0.207,0.207c-13.65,9.927-19.441,15.925-24.197,18.407
		c-3.516,1.861-5.998,1.447-7.032-0.621c-1.448-2.688,0-4.55,2.896-6.411c5.17-3.31,12.409-4.964,28.127-11.789V411.039z
		 M2377.796,405.662l-0.207,0.207v0.206c-15.719-6.824-22.957-8.479-28.127-11.788c-2.896-1.861-4.344-3.516-2.896-6.411
		c1.034-2.068,3.723-2.482,7.032-0.621C2358.355,389.737,2364.146,395.734,2377.796,405.662z M2386.069,373.812
		c0,5.377-2.274,13.442-3.93,29.574h-0.413c-1.654-16.132-3.93-24.197-3.93-29.574c0-4.757,1.861-6.412,4.137-6.412
		C2384.207,367.4,2386.069,369.055,2386.069,373.812z M2386.069,442.889c0,4.756-1.861,6.411-4.136,6.411
		c-2.275,0-4.137-1.655-4.137-6.411c0-5.378,2.275-13.443,3.93-29.575h0.413C2383.794,429.446,2386.069,437.511,2386.069,442.889z
		 M2386.482,405.869l-0.206-0.207c13.649-9.928,19.44-15.925,24.197-18.407c3.517-1.861,5.998-1.447,7.032,0.621
		c1.447,2.688,0,4.55-2.896,6.411c-5.171,3.309-12.409,4.964-28.128,11.788V405.869z M2417.505,429.032
		c-1.034,2.068-3.723,2.482-7.032,0.621c-4.757-2.482-10.548-8.48-24.197-18.407l0.206-0.207v-0.207
		c15.719,6.825,22.957,8.479,28.128,11.789C2417.505,424.482,2418.952,426.136,2417.505,429.032z"/>
</g>
<g>
	<g>
		<path fill="#92DFC2" d="M2461.411,1205.309c0,18.82-13.856,30.402-29.367,30.402c-17.373,0-27.921-14.271-39.503-28.127
			c-11.375,13.856-22.337,28.127-39.915,28.127c-17.166,0-28.955-13.65-28.955-30.195c0-16.959,12.408-30.195,29.161-30.195
			c17.786,0,28.541,14.477,39.916,28.541c11.581-14.064,22.543-28.541,40.329-28.541
			C2450.036,1175.321,2461.411,1188.35,2461.411,1205.309z M2391.093,1205.723c-10.133-11.996-21.302-23.371-38.881-23.371
			c-18.2,0-26.473,12.202-26.473,23.164c0,13.443,12.408,23.37,28.127,23.37C2370.204,1228.886,2381.166,1217.925,2391.093,1205.723
			z M2459.343,1205.102c0-14.477-13.029-22.75-27.299-22.75c-16.547,0-27.508,11.168-37.848,23.164
			c10.133,12.202,21.095,23.37,37.641,23.37C2447.555,1228.886,2459.343,1218.752,2459.343,1205.102z"/>
	</g>
</g>
<g>
	<path fill="#92DFC2" d="M2247.36,471.764c0,15.511-7.238,27.507-23.37,27.507c-24.197,0-26.473-26.68-26.473-52.739v-44.465
		h-78.797v43.225c0,26.473,4.549,41.57,24.197,41.57c12.408,0,20.682-6.205,20.682-15.098h2.481c0,15.511-7.238,27.507-23.37,27.507
		c-24.197,0-26.473-26.68-26.473-52.739v-44.465h-27.714v-9.308c18.821,0,27.714-8.272,27.714-33.504h2.482v33.504h51.083
		c18.821,0,27.714-9.1,27.714-36.606h2.482v36.606h41.57v9.308h-41.57v43.225c0,26.473,4.549,41.57,24.197,41.57
		c12.408,0,20.682-6.205,20.682-15.098H2247.36z"/>
</g>
<g>
	<path fill="#FFFFFF" d="M2433.36,626.62l12.409,12.41l-6.647,6.647l-12.188-12.188c-9.086,7.978-21.495,12.631-35.899,12.631
		c-13.961,0-26.149-4.432-35.457-12.188l-11.523,11.745l-6.647-6.647l11.744-11.967c-7.534-9.308-11.966-21.717-11.966-35.899
		s4.432-26.371,11.966-35.679l-11.966-12.188l6.647-6.647l11.967,12.188c9.086-7.534,21.274-11.966,35.235-11.966
		c14.404,0,26.592,4.653,35.899,12.409l12.41-12.631l6.647,6.647l-12.631,12.854c7.312,9.086,11.523,21.273,11.523,35.014
		C2444.883,605.125,2440.672,617.09,2433.36,626.62z M2429.37,591.384c0-21.052-15.512-35.899-38.337-35.899
		s-38.338,14.848-38.338,35.899c0,21.053,15.513,36.122,38.338,36.122S2429.37,612.437,2429.37,591.384z"/>
</g>
<g>
	<path fill="#FFFFFF" d="M279.637,523.878c0,20.79,9.239,50.16,9.239,74.91c0,26.73-10.56,42.57-28.38,46.86
		c17.82,4.29,28.38,20.13,28.38,46.86c0,24.75-9.239,54.12-9.239,74.91c0,17.49,6.6,25.41,22.439,25.41h14.521v4.95h-13.2
		c-20.79,0-28.71-10.561-28.71-30.03c0-21.12,9.239-51.48,9.239-74.91c0-30.36-15.51-44.551-34.979-44.551v-5.28
		c19.47,0,34.979-14.189,34.979-44.55c0-23.43-9.239-53.79-9.239-74.91c0-19.471,7.92-30.03,28.71-30.03h13.2v4.95h-14.521
		C286.237,498.468,279.637,506.388,279.637,523.878z"/>
</g>
<g>
	<g>
		<path fill="#FFE64B" d="M1678.434,385.419v7.6h-95.001v-7.6H1678.434z M1616.793,354.258c0-7.979,5.7-13.68,13.681-13.68
			c7.979,0,13.68,5.7,13.68,13.68c0,8.171-5.7,13.871-13.68,13.871C1622.493,368.129,1616.793,362.429,1616.793,354.258z
			 M1616.793,424.56c0-7.98,5.7-13.681,13.681-13.681c7.979,0,13.68,5.7,13.68,13.681c0,8.17-5.7,13.87-13.68,13.87
			C1622.493,438.43,1616.793,432.73,1616.793,424.56z"/>
	</g>
</g>
<g>
	<path fill="#FFFFFF" d="M1687.315,963.327h-0.73c3.289,30.702,7.31,52.633,7.31,70.543c0,14.62-2.559,23.758-13.523,23.758
		s-13.523-9.138-13.523-23.758c0-17.91,4.021-40.206,7.676-71.274c-43.861-4.021-63.233-29.972-63.233-59.578h16.082
		c0,14.255,20.469,21.565,50.44,23.027c0.731-9.868,1.462-20.469,1.827-31.434h1.463c0.365,11.331,1.096,21.565,1.827,31.434h3.29
		c37.281,0,51.901-9.138,51.901-26.316c0-23.027-27.413-26.683-54.46-30.337c-38.744-5.117-67.254-7.676-67.254-45.689
		c0-33.261,21.931-53.729,58.847-56.288c-4.021-38.744-8.406-65.792-8.406-86.991c0-16.448,2.559-26.682,13.523-26.682
		s13.523,10.233,13.523,26.682c0,21.199-4.386,48.247-8.041,86.626c57.751,1.097,59.213,44.227,59.213,63.232h-16.083
		c0-16.082-17.544-25.951-46.419-26.682c-0.366,10.234-1.097,21.199-1.462,32.896h-1.463c-0.365-11.696-1.096-22.661-1.462-32.896
		c-20.468,0-46.419,4.752-46.419,25.22c0,21.2,28.144,22.662,56.653,26.317c32.896,4.021,65.061,9.868,65.061,52.633
		C1753.472,933.72,1741.41,963.327,1687.315,963.327z"/>
</g>
<g>
	<path fill="#FFFFFF" d="M1720.848,560.791c0,6.618-3.723,11.995-21.509,11.995c-21.923,0-55.841-8.065-127.4-8.479
		c29.782,6.412,59.15,15.305,59.15,37.435c0,9.514-5.584,15.511-14.271,15.511c-10.548,0-14.685-8.893-19.854-20.682
		c-6.411-13.236-15.512-32.47-53.359-32.47h-3.93v-6.205h3.93c37.848,0,46.948-19.233,53.359-32.47
		c5.17-11.789,9.307-20.683,19.854-20.683c8.687,0,14.271,5.998,14.271,15.512c0,22.336-30.195,31.229-60.184,37.641
		c72.386-0.413,105.684-9.1,128.434-9.1C1717.538,548.796,1720.848,554.38,1720.848,560.791z"/>
</g>
<g>
	<path fill="#FFFFFF" d="M592.537,995.407c0,6.191-5.733,8.484-14.447,11.694c-19.72,7.338-40.358,12.383-40.358,57.327v2.064
		h-2.751v-2.064c0-44.944-20.638-49.989-40.358-57.327c-8.714-3.21-14.447-5.503-14.447-11.694c0-5.045,3.898-8.255,10.549-8.255
		c16.739,0,37.147,19.949,44.027,54.805h0.229c0-97.915-6.88-123.368-6.88-141.483c0-8.943,1.605-14.218,8.026-14.218
		c6.42,0,8.025,5.274,8.025,14.218c0,17.427-6.191,43.568-6.191,141.483c6.88-34.855,27.288-54.805,44.027-54.805
		C588.639,987.152,592.537,990.362,592.537,995.407z"/>
</g>
<g>
	<path fill="#FFFFFF" d="M815.31,947.443c0-23.047,16.661-41.374,38.32-41.374s38.319,18.327,38.319,41.374
		c0,23.048-16.66,41.652-38.319,41.652S815.31,970.491,815.31,947.443z M888.34,947.166c0-17.494-14.162-29.712-34.71-29.712
		c-20.549,0-34.71,12.218-34.71,29.712c0,17.493,14.161,30.545,34.71,30.545C874.178,977.711,888.34,964.659,888.34,947.166z
		 M970.533,908.845h4.998l-132.176,194.376h-4.998L970.533,908.845z M921.384,1065.457c0-23.047,16.66-41.374,38.319-41.374
		s38.32,18.327,38.32,41.374c0,23.048-16.661,41.652-38.32,41.652S921.384,1088.504,921.384,1065.457z M994.413,1065.179
		c0-17.494-14.161-29.712-34.71-29.712c-20.548,0-34.71,12.218-34.71,29.712s14.162,30.545,34.71,30.545
		C980.252,1095.724,994.413,1082.673,994.413,1065.179z"/>
</g>
<g>
	<g>
		<path fill="#92DFC2" d="M2029.698,405.511c0,48.449-15.023,107.416-55.962,107.416c-26.29,0-43.567-24.037-44.693-60.093h-1.127
			c-12.395,38.309-38.31,59.717-61.971,59.717c-24.413,0-42.44-22.535-42.44-64.976c0-55.586,31.549-110.045,71.735-110.045
			c22.159,0,31.925,16.525,36.432,34.554h1.878l9.765-27.042h5.634c-8.263,34.554-14.271,48.45-14.271,80.374
			c0,42.065,10.516,68.355,40.562,68.355c39.436,0,49.201-45.069,49.201-83.003c0-93.895-59.718-134.833-128.449-134.833
			c-89.012,0-148.354,69.106-148.354,159.246c0,84.13,51.454,129.199,127.321,129.199c28.544,0,63.849-6.385,82.252-24.413
			l3.756,3.005c-21.783,22.535-50.327,40.562-90.515,40.562c-66.102,0-128.072-49.201-128.072-145.725
			c0-99.904,66.853-181.029,156.241-181.029C1971.108,256.782,2029.698,310.114,2029.698,405.511z M1929.418,413.398
			c0-30.422-12.394-55.961-41.313-55.961c-38.31,0-59.342,43.942-59.342,83.003c0,29.671,12.019,52.205,42.065,52.205
			C1912.142,492.645,1929.418,449.454,1929.418,413.398z"/>
	</g>
</g>
<g>
	<path fill="#E58AA3" d="M945.59,704.356c0,48.579-27.458,134.12-117.223,134.12c-26.93,0-50.691-7.921-72.868-21.649
		c-27.458,13.729-58.611,21.649-93.989,21.649c-97.158,0-134.648-59.668-134.648-117.751c0-52.275,30.626-82.373,66.532-99.27
		c-14.257-23.233-26.93-48.579-26.93-82.901c0-55.443,33.266-101.382,104.022-101.382c73.396,0,99.797,49.107,99.797,104.022
		c0,84.484-62.307,109.302-118.807,129.896c50.691,53.858,98.214,76.036,149.961,80.261c9.505-12.673,17.953-26.93,23.762-43.299
		c8.448-26.93,3.168-51.219-43.299-51.219v-73.396h146.792v73.396c-52.803,0-69.699,40.13-83.956,67.588h-0.528
		c-4.225,9.504-9.505,18.48-15.312,27.457c57.555-1.584,82.9-16.369,92.405-47.522H945.59z M732.266,800.458
		c-39.603-32.21-72.34-79.205-103.494-120.919c-37.49,14.257-67.588,30.626-67.588,66.532c0,42.77,43.826,66.003,102.438,66.003
		C686.855,812.074,710.616,808.378,732.266,800.458z M612.931,612.479c61.252-23.762,133.592-26.93,133.592-64.42
		c0-23.233-28.514-35.378-72.34-35.378c-47.523,0-80.261,14.257-80.261,50.69C593.922,581.853,602.37,597.166,612.931,612.479z"/>
</g>
<g>
	<path fill="#F0432F" d="M2208.973,225.999c0,8.504-8.504,32.707-34.888,32.707c-11.993,0-22.678-4.797-33.144-13.301
		c-12.429,9.376-28.128,15.481-46.662,15.481c-28.347,0-54.948-13.955-54.948-47.099c0-27.256,17.88-39.248,37.94-47.752
		c-6.105-9.595-14.827-20.933-14.827-36.851c0-18.534,11.774-39.685,38.158-39.685c28.564,0,36.196,24.857,36.196,40.557
		c0,28.782-25.512,37.723-50.151,46.881c22.895,31.398,39.902,51.896,58.001,61.707c10.902-9.812,18.534-22.677,22.24-36.632
		c2.399-13.083-0.436-24.857-25.511-24.857v-2.616h64.323v2.616c-19.842,0-30.744,10.685-35.105,22.677
		c-3.707,14.609-11.557,29.001-23.331,40.121c7.632,3.707,15.699,5.669,24.64,5.669c22.677,0,32.489-11.992,34.451-19.624H2208.973z
		 M2138.761,243.661c-17.226-14.609-34.233-38.595-54.512-65.851c-21.805,8.067-41.865,16.79-41.865,39.685
		c0,23.331,20.496,40.339,51.677,40.339C2111.723,257.834,2126.769,252.382,2138.761,243.661z M2079.67,165.164
		c25.729-10.249,54.294-15.046,54.294-37.723c0-14.173-11.12-24.422-34.233-24.422c-19.843,0-34.452,7.414-34.452,26.166
		C2065.279,142.705,2072.91,155.351,2079.67,165.164z"/>
</g>
<g>
	<path fill="#FFFFFF" d="M1942.051,131.509v2.914h-47.213v30.893h-2.914v-30.893h-47.019v-2.914h47.019v-29.338h2.914v29.338
		H1942.051z M1844.906,179.11h97.146v2.915h-97.146V179.11z"/>
</g>
<g>
	<path fill="#92DFC2" d="M751.732,938.427h-12.979v210.693h-4.143V938.427h-23.748v210.693h-4.142v-119.016
		c-33.413-0.276-64.064-15.74-64.064-53.295s30.928-53.295,63.788-53.295h45.287V938.427z"/>
</g>
<g>
	<g>
		<path fill="#92DFC2" d="M902.128,246.206c0,49.636-33.711,86.863-81.072,86.863s-81.072-37.228-81.072-86.863
			c0-49.843,33.711-86.243,81.072-86.243S902.128,196.363,902.128,246.206z M893.443,246.206c0-39.296-30.609-68.457-72.387-68.457
			s-72.387,29.161-72.387,68.457c0,39.295,30.609,69.077,72.387,69.077S893.443,285.501,893.443,246.206z M863.453,265.026h5.791
			c0,12.202-3.103,28.127-17.786,28.127c-13.65,0-16.546-13.443-18.407-20.268c-5.171-18.407-15.718-21.096-28.954-21.303v9.1
			c0,8.687,0.827,17.373,19.441,17.373v13.443h-41.364v-13.443c13.443,0,14.685-9.721,14.685-19.027v-30.195
			c0-7.238-1.241-16.339-14.685-16.339v-13.442h38.468c21.096,0,34.953,8.893,34.953,25.852c0,16.132-12.617,23.371-29.782,23.371
			h-1.448v0.827c4.758,2.896,9.928,6.825,14.064,15.925c2.481,5.17,3.723,10.961,13.029,10.961
			C859.111,275.987,862.833,272.057,863.453,265.026z M820.642,241.449c19.855,0,25.853-5.998,25.853-13.65
			c0-9.307-9.514-14.063-28.127-14.063h-14.271v27.714H820.642z"/>
	</g>
</g>
<g>
	<path fill="#FFFFFF" d="M588.05,310.731c-16.771-4.658-32.3-7.765-50.003-8.696c0.621,15.219,3.727,28.573,10.56,40.996
		c-8.386,28.263-10.249,59.631-10.87,90.379h-2.484c-0.621-30.748-2.485-62.116-10.87-90.379
		c6.832-12.423,9.938-25.777,10.56-40.996c-17.703,0.932-33.232,4.038-50.003,8.696v-21.119c16.771,4.348,32.3,7.454,49.692,8.696
		c-0.932-17.703-4.038-33.542-8.696-50.313h21.119c-4.349,16.771-7.765,32.61-8.696,50.313c17.393-1.242,32.921-4.349,49.692-8.696
		V310.731z"/>
</g>
<g>
	<path fill="#FFFFFF" d="M629.717,348.327c0-17.979,13.05-32.189,30.739-32.189c17.98,0,30.45,14.21,30.45,32.189
		c0,18.27-12.47,32.188-30.45,32.188C642.767,380.515,629.717,366.596,629.717,348.327z M687.136,348.327
		c0-13.92-11.02-22.91-26.68-22.91c-15.659,0-26.679,8.99-26.679,22.91c0,14.209,11.02,23.199,26.679,23.199
		C676.116,371.526,687.136,362.536,687.136,348.327z"/>
</g>
<g>
	<path fill="#FFFFFF" d="M173.354,148.824c-13.409-3.725-25.825-6.208-39.979-6.952c0.497,10.678,2.98,19.368,8.443,27.812
		c-5.463,8.443-7.946,17.383-8.443,28.061c14.154-0.745,26.57-3.229,39.979-6.953v16.886c-13.409-3.477-25.825-5.96-39.731-6.953
		c0.745,14.154,3.477,26.819,6.953,40.229H123.69c3.725-13.409,6.208-26.074,6.953-40.229c-13.906,0.993-26.322,3.477-39.731,6.953
		v-16.886c13.409,3.725,25.825,6.208,39.979,6.953c-0.496-10.678-2.979-19.617-8.442-28.061c5.463-8.443,7.946-17.134,8.442-27.812
		c-14.154,0.744-26.57,3.228-39.979,6.952v-16.886c13.409,3.477,25.825,5.96,39.731,6.953c-0.745-14.154-3.229-26.818-6.953-40.228
		h16.886c-3.477,13.409-6.208,26.073-6.953,40.228c13.906-0.993,26.322-3.477,39.731-6.953V148.824z"/>
</g>
<g>
	<path fill="#FFFFFF" d="M818.456,456.574c0-3.061,2.52-4.68,7.02-4.68c6.84,0,19.619,3.779,38.338,4.68v0.18
		c-18.719,0.9-31.498,4.32-38.338,4.32C820.976,461.074,818.456,459.633,818.456,456.574z M842.395,493.832
		c-1.62-1.8-1.08-3.959,1.079-6.119c3.601-3.78,12.961-8.82,23.76-18.72l0.18,0.181c-9.899,10.799-15.119,19.799-18.898,23.579
		C846.894,494.372,844.374,495.992,842.395,493.832z M842.574,419.495c1.8-1.619,3.96-1.079,6.12,1.08
		c3.779,3.601,8.819,12.96,18.719,23.759l-0.18,0.181c-10.799-9.899-19.799-15.119-23.579-18.899
		C842.034,423.995,840.415,421.475,842.574,419.495z M879.654,517.411c-3.061,0-4.68-2.52-4.68-7.02
		c0-6.84,3.779-19.619,4.68-38.338h0.18c0.9,18.719,4.32,31.498,4.32,38.338C884.154,514.891,882.713,517.411,879.654,517.411z
		 M879.654,395.556c3.06,0,4.68,2.52,4.68,7.02c0,6.84-3.78,19.619-4.68,38.339h-0.18c-0.9-18.72-4.32-31.499-4.32-38.339
		C875.154,398.076,876.593,395.556,879.654,395.556z M891.893,444.694l-0.181-0.18c9.9-10.8,14.939-20.159,18.72-23.759
		c2.7-2.7,4.86-2.34,6.12-1.08c1.799,1.619,1.08,3.96-1.08,6.119C911.692,429.575,902.693,434.794,891.893,444.694z
		 M916.552,493.652c-1.801,1.62-3.961,1.08-6.12-1.08c-3.78-3.6-8.819-12.959-18.72-23.759l0.181-0.18
		c10.8,9.899,19.799,15.119,23.579,18.899C917.091,489.152,918.712,491.672,916.552,493.652z M895.132,456.753v-0.18
		c18.72-0.9,31.499-4.68,38.339-4.68c4.5,0,7.02,1.619,7.02,4.68c0,3.06-2.52,4.5-7.02,4.5
		C926.631,461.074,913.852,457.654,895.132,456.753z"/>
</g>
<g>
	<path fill="#F0432F" d="M491.969,138.511c0-25.101,21.197-46.576,59.964-46.576c49.087,0,101.799,34.305,159.252,45.461v2.23
		c-57.453,11.156-110.165,45.461-159.252,45.461C513.166,185.087,491.969,163.612,491.969,138.511z"/>
</g>
<g>
	<path fill="#92DFC2" d="M199.19,515.155v27.303H59.644v-22.752c21.235,0,43.38-18.201,43.38-46.718
		c0-10.617-3.033-19.718-7.28-28.516H55.397v-12.135h33.977c-9.102-16.381-19.719-33.369-19.719-58.245
		c0-33.065,19.111-62.188,62.796-62.188c38.83,0,56.728,23.056,63.401,60.976h-10.921c-10.011-16.685-22.448-24.572-47.931-24.572
		c-32.156,0-48.841,12.438-48.841,34.279c0,17.596,10.617,32.764,19.415,49.751h69.166v12.135h-63.705
		c3.64,8.494,6.066,17.898,6.066,27.909c0,15.168-5.764,30.942-14.864,42.773H199.19z"/>
</g>
<g>
	<path fill="#F0432F" d="M2284.912,1141.93c0,67.308-40.97,116.639-94.063,116.639c-36.371,0-57.692-23.829-70.234-47.658h-1.672
		l-11.706,40.97h-18.812V986.412c-2.926-39.297-23.829-51.839-61.455-51.839v-29.265l78.178-8.779v202.76h1.672
		c12.542-37.626,40.552-64.382,85.284-64.382C2249.795,1034.907,2284.912,1079.221,2284.912,1141.93z M2269.445,1147.366
		c0-44.732-34.699-66.472-82.776-66.472s-78.595,21.739-78.595,66.053c0,45.151,31.354,65.636,79.013,65.636
		C2234.745,1212.583,2269.445,1192.098,2269.445,1147.366z"/>
</g>
<g>
	<path fill="#FFFFFF" d="M2418.858,991.24c-10.558-31.087-25.222-63.054-41.645-87.102l1.173,204.998h-12.024l1.173-204.705
		c-16.13,24.048-31.087,56.016-41.352,86.809l-39.592-33.727c29.621-18.476,61.295-43.99,85.93-72.145
		c24.635,28.154,56.309,53.669,85.929,72.145L2418.858,991.24z"/>
</g>
<g>
	<path fill="#E58AA3" d="M2257.985,762.191c0,54.244-36.782,96.228-97.343,96.228c-66.877,0-96.228-50.9-96.228-103.658h20.062
		c14.118,15.604,47.557,21.178,78.395,21.178c44.584,0,76.165-11.89,76.165-32.324c0-21.549-35.296-27.493-76.537-27.493
		c-32.695,0-59.817,3.715-85.453,8.917l16.719-147.129h147.872v70.592h-135.239l-5.944,54.987l2.229,1.115
		c13.376-13.004,34.553-27.865,68.734-27.865C2221.573,676.738,2257.985,708.318,2257.985,762.191z"/>
</g>
<g>
	<path fill="#FFFFFF" d="M1294.549,944.251c0,44.562-19.441,82.353-55.703,106.819l-1.748-2.621
		c25.776-18.786,53.737-49.806,53.737-104.198s-27.961-85.412-53.737-104.198l1.748-2.621
		C1275.108,861.897,1294.549,899.688,1294.549,944.251z"/>
</g>
<g>
	<path fill="#FFE64B" d="M2467.606,279.435v22.038h-83.432v-22.038c31.169,0,35.576-24.872,35.576-48.17v-9.76
		c0-34.947-20.778-49.114-51.317-49.114c-29.909,0-51.633,13.853-52.578,49.114v9.76c0,23.298,4.723,48.17,35.262,48.17v22.038
		h-83.431v-22.038c31.168,0,35.576-24.872,35.576-48.17v-14.482c0-35.262-16.057-50.688-46.596-50.688v-22.038l53.521-6.297
		l5.038,47.854h2.833c10.39-29.594,32.743-47.854,62.022-47.854c40.613,0,52.263,35.262,52.263,83.746v9.76
		C2432.344,254.563,2437.067,279.435,2467.606,279.435z M2333.486,114.776l-9.76-2.833c1.889-11.649,13.224-19.52,26.132-19.52
		c16.686,0,22.982,12.278,36.521,12.278c8.5,0,13.223-4.723,15.741-10.075l9.445,3.148c-1.574,9.131-10.704,19.52-26.446,19.52
		c-17.001,0-22.353-12.278-36.206-12.278C2340.097,105.016,2334.745,109.739,2333.486,114.776z"/>
</g>
<g>
	<path fill="#FFFFFF" d="M473.909,537.878c-0.413,31.229-20.061,55.841-48.395,55.841c-27.714,0-46.328-23.577-46.328-55.428
		c0-32.264,19.234-53.98,44.88-53.98c18.2,0,30.609,10.962,37.848,23.991l0.827-0.207c-4.137-16.338-11.582-30.195-22.129-41.363
		l-24.611,8.894l-2.896-7.652l21.095-7.652c-7.031-6.205-14.891-11.375-23.783-15.719l13.649-11.168
		c10.134,4.964,18.614,12.409,25.438,21.303l17.787-6.412l2.895,7.652l-15.925,5.791c13.65,21.716,19.44,49.844,19.647,75.075v0.413
		V537.878z M465.844,537.878c0-21.716-15.305-32.057-38.882-32.057c-22.543,0-39.709,9.514-39.709,32.264
		c0,22.129,16.339,32.884,39.502,32.677C450.539,570.554,465.844,559.593,465.844,537.878z"/>
</g>
<g>
	<g>
		<path fill="#FFFFFF" d="M1127.757,690.788c-71.697,0-118.896-59.448-118.896-140.153c0-81.785,48.278-139.071,114.572-139.071
			c46.838,0,72.418,28.463,85.028,51.521h2.883l11.89-44.316h18.015v108.088h-18.015c-18.375-24.14-49.721-32.427-91.515-32.427
			c-56.565,0-104.844,15.132-104.844,59.088c0,38.19,36.389,58.007,112.41,58.007c51.521,0,85.028-9.008,85.028-26.302
			c0-12.609-18.014-19.095-61.609-19.095v-17.294h120.697v17.294c-37.47,0-41.073,34.948-41.073,67.734v51.521h-18.015
			l-11.89-38.911h-2.882C1199.095,666.648,1173.514,690.788,1127.757,690.788z"/>
	</g>
</g>
<g>
	<path fill="#FFE64B" d="M1986.898,778.383v32.229h-63.585v-32.229c13.937,0,19.38-6.532,19.38-15.896
		c0-4.572-1.307-10.452-3.267-15.896h-69.029c-1.959,5.443-3.266,11.323-3.266,15.896c0,9.364,5.443,15.896,19.38,15.896v32.229
		h-63.585v-32.229c17.203,0,25.478-10.234,31.575-22.429l17.42-40.938h-0.218c6.533-16.332,10.453-33.317-13.065-33.317v-32.228
		h51.827l45.293,107.137C1961.856,768.585,1970.13,778.383,1986.898,778.383z M1874.534,736.138h60.755l-20.905-48.777h-18.944
		L1874.534,736.138z"/>
</g>
<g>
	<path fill="#E58AA3" d="M236.705,908.635c0,63.845-43.449,115.275-101.087,115.275c-20.691,0-39.312-6.503-54.978-17.734
		l-14.779,24.533l-4.138-2.661l14.778-25.124c-25.715-20.69-42.268-55.272-42.268-94.289c0-63.845,43.745-113.798,101.384-113.798
		c20.395,0,39.312,6.207,54.682,17.439l15.074-25.124l4.138,2.66l-15.074,25.42C220.448,835.628,236.705,869.324,236.705,908.635z
		 M83.301,991.989l100.2-167.889c-14.188-6.503-30.444-9.754-47.883-9.754c-53.204,0-96.95,29.854-96.95,94.289
		C38.668,949.72,56.403,977.21,83.301,991.989z M232.272,908.635c0-41.085-17.734-68.278-44.337-82.466l-100.2,168.184
		c14.188,6.798,30.444,10.05,47.588,10.05C188.822,1004.403,232.272,972.776,232.272,908.635z"/>
</g>
<g>
	<path fill="#FFE64B" d="M465.943,1203.669c0,35.515-10.147,62.996-35.938,62.996c-22.83,0-31.286-21.985-31.286-52.003v-2.96
		h-2.537c-8.456,25.79-32.978,54.963-80.753,54.963c-45.238,0-67.224-26.213-67.224-57.077c0-28.749,19.025-45.238,45.238-54.962
		c28.327-10.57,66.801-13.529,104.853-13.952c-2.537-39.32-26.213-53.694-63.842-53.694c-27.481,0-52.849,7.61-62.15,31.709h-16.911
		c4.65-46.507,34.246-78.216,83.713-78.216c54.117,0,75.256,38.051,75.256,102.737c0,12.684-0.845,43.548-0.845,51.581
		c0,19.871,5.073,29.172,16.911,29.172s18.603-9.301,18.603-20.294H465.943z M398.719,1156.74c-35.092,0-73.988,2.114-99.356,12.261
		c-16.488,6.766-25.367,16.489-25.367,30.019c0,14.798,10.57,24.099,38.052,24.099
		C355.594,1223.118,398.296,1199.865,398.719,1156.74z M305.705,993.543c0-20.716,15.22-35.091,35.937-35.091
		s34.669,14.797,34.669,35.514s-14.375,35.092-34.669,35.092C320.925,1029.057,305.705,1014.682,305.705,993.543z M320.079,993.965
		c0,11.839,9.302,18.604,21.14,18.604c12.684,0,21.14-7.188,21.14-18.604c0-11.838-8.879-19.025-21.14-19.025
		C329.804,974.94,320.079,981.705,320.079,993.965z"/>
</g>
</svg>
