<?xml version="1.0" encoding="utf-8"?>
<!-- Generator: Adobe Illustrator 19.2.1, SVG Export Plug-In . SVG Version: 6.00 Build 0)  -->
<svg version="1.1" id="Layer_1" xmlns="http://www.w3.org/2000/svg" xmlns:xlink="http://www.w3.org/1999/xlink" x="0px" y="0px"
	 viewBox="0 0 80.333 79.545" enable-background="new 0 0 80.333 79.545" xml:space="preserve">
<g>
	<path d="M22.625,51.3c0-2.968,2.128-5.04,5.04-5.04c2.969,0,5.04,2.072,5.04,5.04c0,3.023-2.071,5.096-5.04,5.096
		C24.753,56.396,22.625,54.324,22.625,51.3z M27.666,12.997c1.904,0,3.305,1.456,3.305,4.647c0,3.92-2.072,13.272-2.801,25.145
		h-1.008c-0.672-11.816-2.855-21.112-2.855-25.088C24.306,14.341,25.874,12.997,27.666,12.997z"/>
	<path d="M55.721,35.789c-2.8,1.344-5.824,2.352-5.824,7.111h-1.12c0-1.231-1.063-3.863-1.063-5.655
		c0-2.576,2.184-3.864,5.712-5.656c2.912-1.512,6.216-2.968,6.216-6.216c0-3.36-3.528-5.656-9.184-5.656
		c-5.208,0-8.064,1.96-9.632,5.208h-1.961c1.232-7.168,4.929-11.928,11.984-11.928c7.56,0,11.48,5.432,11.48,12.432
		C62.33,31.925,58.914,34.276,55.721,35.789z M44.521,51.3c0-2.968,2.128-5.04,5.04-5.04c2.968,0,5.04,2.072,5.04,5.04
		c0,3.023-2.072,5.096-5.04,5.096C46.649,56.396,44.521,54.324,44.521,51.3z"/>
</g>
</svg>
