<?xml version="1.0" encoding="utf-8"?>
<!-- Generator: Adobe Illustrator 19.2.1, SVG Export Plug-In . SVG Version: 6.00 Build 0)  -->
<svg version="1.1" id="Layer_1" xmlns="http://www.w3.org/2000/svg" xmlns:xlink="http://www.w3.org/1999/xlink" x="0px" y="0px"
	 viewBox="0 0 247.901 79.545" enable-background="new 0 0 247.901 79.545" xml:space="preserve">
<g>
	<path d="M40.375,55.084v4.983h-2.239v-4.703c-0.561,0.056-1.12,0.056-1.736,0.056h-1.064v4.647h-2.239v-4.872
		c-7.673-1.176-11.257-6.495-11.257-12.6H23.8c0,3.472,3.808,5.488,9.296,6.104V33.636c-5.992-1.231-10.192-3.08-10.192-9.52
		c0-6.272,4.032-10.641,10.192-11.872V7.54h2.239v4.424c0.504-0.056,1.008-0.056,1.513-0.056c0.447,0,0.896,0,1.288,0.056V7.54
		h2.239v4.704c7.952,1.624,8.849,8.792,8.849,11.872h-1.96c0-2.856-2.801-4.648-6.889-5.32v13.496
		c5.152,1.231,10.192,3.808,10.192,10.584C50.567,47.636,48.104,53.571,40.375,55.084z M33.096,31.06V18.74
		c-3.528,0.56-7.057,2.184-7.057,6.439C26.039,29.268,29.231,30.388,33.096,31.06z M35.335,18.572v12.823l2.24,0.336
		c0.168,0.057,0.392,0.057,0.561,0.112V18.572c-0.505-0.057-1.009-0.057-1.513-0.057C36.231,18.516,35.783,18.516,35.335,18.572z
		 M38.136,48.812V34.588c-0.505-0.112-1.009-0.168-1.513-0.28c-0.448-0.056-0.84-0.168-1.288-0.224v14.784h1.345
		C37.184,48.868,37.688,48.868,38.136,48.812z M47.375,42.036c0-4.368-2.912-5.992-7-6.944v13.552
		C45.191,47.972,47.375,45.844,47.375,42.036z"/>
	<path d="M70.167,55.308v3.472h-1.904V55.42h-0.168c-0.616,0-1.176,0-1.736-0.056v3.415h-1.903v-3.695
		c-5.488-1.12-8.008-4.76-8.008-8.904h2.464c0,1.792,2.184,2.912,5.544,3.304V40.58c-4.313-0.672-7.225-1.792-7.225-6.552
		c0-4.536,2.688-7.505,7.225-8.4V21.26h1.903v4.145c0.393-0.057,0.729-0.057,1.12-0.057h0.784V21.26h1.904v4.312
		c6.607,1.176,6.775,6.832,6.775,9.464h-2.464c0-1.904-1.567-3.248-4.312-3.809v7.896c4.312,0.672,8.063,2.072,8.063,7.784
		C78.23,50.548,76.719,54.636,70.167,55.308z M64.455,38.34v-7.224c-2.521,0.336-4.872,1.288-4.872,3.695
		C59.583,37.107,61.711,37.892,64.455,38.34z M66.358,30.948v7.672l1.904,0.224v-7.84c-0.448-0.056-0.896-0.056-1.399-0.056H66.358z
		 M68.263,49.708V41.14c-0.224-0.056-0.504-0.056-0.728-0.111l-1.177-0.169v8.792c0.505,0.057,1.009,0.057,1.568,0.057H68.263z
		 M75.879,45.676c0-2.744-2.576-3.696-5.712-4.256v8.176C74.255,49.26,75.879,47.916,75.879,45.676z"/>
	<path d="M115.359,55.364v4.144h-2.24V55.42c-9.24-0.393-13.608-6.104-13.608-12.824h1.961c0,4.2,5.544,6.272,12.88,6.272
		c7.392,0,10.695-2.128,10.695-6.832c0-5.656-4.872-6.664-10.752-7.729c-7.952-1.456-13.72-2.632-13.72-10.136
		c0-7.056,5.096-11.704,12.544-12.208V7.54h2.24v4.368c10.416,0.448,11.536,8.848,11.536,12.208h-1.96
		c0-3.696-4.648-5.601-10.641-5.601c-4.256,0-10.584,0.952-10.584,6.664c0,5.601,5.992,5.601,11.536,6.552
		c5.936,1.009,12.992,3.137,12.992,11.145C128.239,48.14,125.215,54.859,115.359,55.364z"/>
	<path d="M146.215,55.42v3.359h-2.24v-3.415c-6.832-0.616-9.855-4.593-9.855-9.185h2.464c0,2.353,3.752,3.528,9.016,3.528
		c5.712,0,7.952-1.4,7.952-4.032c0-3.528-4.2-4.088-8.344-4.647c-5.937-0.784-10.305-1.177-10.305-7
		c0-5.152,3.416-8.288,9.072-8.624V21.26h2.24v4.145c8.176,0.447,8.399,6.775,8.399,9.632h-2.464c0-2.576-2.912-4.088-7.615-4.088
		c-3.137,0-7.28,0.672-7.28,3.863c0,3.248,4.312,3.473,8.68,4.032c5.04,0.616,9.968,1.512,9.968,8.064
		C155.902,50.828,154.11,55.252,146.215,55.42z"/>
	<path d="M189.671,55.42h-0.112c0.505,4.704,1.12,8.063,1.12,10.808c0,2.24-0.392,3.641-2.071,3.641c-1.681,0-2.072-1.4-2.072-3.641
		c0-2.744,0.616-6.16,1.176-10.92c-6.72-0.616-9.688-4.592-9.688-9.128h2.464c0,2.185,3.136,3.304,7.728,3.528
		c0.112-1.512,0.225-3.136,0.28-4.816h0.224c0.057,1.736,0.168,3.305,0.28,4.816h0.504c5.712,0,7.952-1.4,7.952-4.032
		c0-3.528-4.2-4.088-8.344-4.647c-5.937-0.784-10.305-1.177-10.305-7c0-5.097,3.36-8.232,9.017-8.624
		c-0.616-5.937-1.288-10.08-1.288-13.328c0-2.521,0.392-4.088,2.072-4.088c1.68,0,2.071,1.567,2.071,4.088
		c0,3.248-0.672,7.392-1.231,13.271c8.848,0.168,9.071,6.776,9.071,9.688h-2.464c0-2.464-2.688-3.977-7.111-4.088
		c-0.057,1.567-0.168,3.248-0.225,5.04h-0.224c-0.056-1.792-0.168-3.473-0.224-5.04c-3.137,0-7.112,0.728-7.112,3.863
		c0,3.248,4.312,3.473,8.68,4.032c5.04,0.616,9.968,1.512,9.968,8.064C199.807,50.884,197.959,55.42,189.671,55.42z"/>
	<path d="M225.902,44.892h2.017c-0.896,4.592-3.977,8.849-9.912,9.128c0.56,4.76,1.176,8.176,1.176,10.92
		c0,2.24-0.392,3.641-2.072,3.641c-1.68,0-2.071-1.4-2.071-3.641c0-2.744,0.615-6.216,1.176-10.976
		c-6.496-0.616-10.809-6.104-10.809-13.496s4.368-12.992,10.977-13.496c-0.616-6.271-1.344-10.584-1.344-13.943
		c0-2.521,0.392-4.088,2.071-4.088c1.681,0,2.072,1.567,2.072,4.088c0,3.359-0.728,7.672-1.344,13.888
		c6.048,0.224,9.128,4.536,10.08,9.184h-2.017c-0.672-2.296-4.479-3.584-8.456-3.64c-0.111,1.4-0.168,2.912-0.224,4.479h-0.224
		c-0.057-1.567-0.112-3.079-0.225-4.479c-5.544,0.112-9.352,2.744-9.352,8.008s3.808,7.896,9.296,8.064
		c0.112-1.513,0.224-3.192,0.28-4.929h0.224c0.056,1.736,0.168,3.416,0.28,4.929C221.479,48.476,225.23,47.188,225.902,44.892z"/>
</g>
</svg>
