<?xml version="1.0" encoding="utf-8"?>
<!-- Generator: Adobe Illustrator 19.2.1, SVG Export Plug-In . SVG Version: 6.00 Build 0)  -->
<svg version="1.1" id="Layer_1" xmlns="http://www.w3.org/2000/svg" xmlns:xlink="http://www.w3.org/1999/xlink" x="0px" y="0px"
	 viewBox="0 0 1726.14 1606.108" enable-background="new 0 0 1726.14 1606.108" xml:space="preserve">
<defs>
	<filter id="Adobe_OpacityMaskFilter" filterUnits="userSpaceOnUse" x="24.535" y="18.2" width="1827.704" height="1707.889">
		<feFlood  style="flood-color:white;flood-opacity:1" result="back"/>
		<feBlend  in="SourceGraphic" in2="back" mode="normal"/>
	</filter>
</defs>
<mask maskUnits="userSpaceOnUse" x="24.535" y="18.2" width="1827.704" height="1707.889" id="SVGID_1_">
</mask>
<g mask="url(#SVGID_1_)">
	<defs>
		<filter id="Adobe_OpacityMaskFilter_1_" filterUnits="userSpaceOnUse" x="24.535" y="23.546" width="1827.704" height="1702.544">
			<feFlood  style="flood-color:white;flood-opacity:1" result="back"/>
			<feBlend  in="SourceGraphic" in2="back" mode="normal"/>
		</filter>
	</defs>
	<mask maskUnits="userSpaceOnUse" x="24.535" y="23.546" width="1827.704" height="1702.544" id="SVGID_1_">
	</mask>
	<g>
		<polygon fill="#92DFC2" points="1772.474,1683.977 101.757,23.633 64.14,88.874 64.14,190.179 24.881,223.217 1505.26,1693.333 		
			"/>
		<polygon fill="#F0432F" points="1649.69,1704.256 187.729,245.635 40.868,273.163 24.535,326.553 86.294,388.312 67.427,445.216 
			1329.394,1706.276 		"/>
		<polygon fill="#E58AA3" points="1838.179,1539.524 343.487,43.175 197.14,86.373 197.14,150.743 215.732,201.974 
			1720.011,1707.073 1851.982,1685.948 		"/>
		<polygon fill="#F0432F" points="1836.343,1321.266 539.129,23.546 529.915,65.006 501.571,36.661 406.021,75.91 402.63,109.312 
			471.642,178.559 408.616,178.207 391.832,223.217 1840.297,1672.504 		"/>
		<polygon fill="#FFE64B" points="1820.549,1115.27 723.623,23.596 576.452,75.921 560.418,104.524 638.892,177.268 
			603.311,223.218 1831.494,1445.866 		"/>
		<polygon fill="#FFE64B" points="1851.345,1717.047 384.672,245.635 309.153,277.796 276.344,244.987 198.545,302.244 
			279.603,382.755 252.281,445.216 1502.542,1695.477 		"/>
		<polygon fill="#92DFC2" points="1843.612,1576.281 531.141,262.662 399.511,302.188 433.067,335.359 432.199,419.365 
			399.511,445.252 1644.792,1693.108 1843.436,1693.108 		"/>
		<polygon fill="#E58AA3" points="1852.239,1383.808 715.298,245.635 561.37,302.206 601.216,341.231 561.429,445.216 
			1842.302,1726.09 		"/>
	</g>
	<g>
		<g>
			<path fill="#FFFFFF" d="M173.055,142.02v81.198H24.956v-56.649c24.818,0,30.483-15.377,31.562-32.102v-22.12
				c-1.079-16.726-6.744-32.102-31.562-32.102V23.596h76.882v56.649c-24.278,0-30.213,15.376-31.292,32.371v59.077h47.748
				c19.962,0,41.273-2.428,41.273-29.674H173.055z"/>
			<path fill="#FFFFFF" d="M186.538,122.058c0-62.314,36.688-103.857,92.798-103.857c56.11,0,92.527,41.543,92.527,103.857
				s-36.417,105.207-92.527,105.207C223.226,227.265,186.538,184.372,186.538,122.058z M279.336,167.917
				c45.319,0,78.5-13.758,78.5-45.859c0-31.832-33.181-44.511-78.5-44.511c-45.32,0-78.77,12.679-78.77,44.511
				C200.566,154.159,234.016,167.917,279.336,167.917z"/>
			<path fill="#FFFFFF" d="M415.561,190.577h-2.158l-8.363,32.641h-13.218v-82.276h11.87c12.679,18.883,45.32,26.976,80.388,26.976
				c32.102,0,42.353-6.744,42.353-16.186c0-14.567-24.278-19.423-55.031-23.469c-42.083-5.665-80.658-7.554-80.658-49.637
				c0-36.417,29.134-60.426,65.282-60.426c34.26,0,50.176,21.311,58.269,35.608h2.157l9.442-30.213h13.218v78.23h-11.869
				c-12.14-13.758-33.721-24.279-70.947-24.279c-20.771,0-43.431,3.237-43.431,15.107c0,10.521,18.344,15.376,53.143,20.501
				c42.622,6.205,82.276,9.442,82.276,56.92c0,34.529-21.311,57.189-61.235,57.189C449.011,227.265,427.43,206.492,415.561,190.577z
				"/>
			<path fill="#FFFFFF" d="M723.623,104.524h-13.488c0-15.916-12.139-29.404-32.101-29.404H648.63v50.176
				c0,19.962,2.968,41.273,31.562,41.273v56.649h-76.881v-56.649c29.134,0,31.831-21.312,31.831-41.273V75.119h-29.403
				c-21.042,0-31.832,12.949-31.832,29.404h-13.488V23.596h163.205V104.524z"/>
		</g>
		<g>
			<path fill="#FFFFFF" d="M187.756,326.523h-13.488c0-15.916-12.139-29.404-32.102-29.404h-29.404v50.176
				c0,19.962,2.967,41.273,31.562,41.273v56.649H67.443v-56.649c29.134,0,31.832-21.312,31.832-41.273v-50.176H69.87
				c-21.041,0-31.832,12.949-31.832,29.404H24.551v-80.928h163.205V326.523z"/>
			<path fill="#FFFFFF" d="M297.817,350.801h-0.27c0.54,18.883,4.586,37.767,31.562,37.767v56.649h-76.882v-56.649
				c27.516,0,31.562-18.884,31.832-37.767l-24.008-19.423c-21.851-14.837-39.385-29.134-61.505-29.134v-56.649h76.881v56.649
				c-10.251,0-11.869,5.125-11.869,8.902c0,5.935,4.046,10.25,11.06,15.915l16.455,13.488l17.535-13.488
				c7.284-5.665,11.06-10.521,11.06-16.186c0-3.507-1.619-8.632-11.869-8.632v-56.649h76.881v56.649
				c-21.581,0-38.845,14.027-60.426,28.324L297.817,350.801z"/>
			<path fill="#FFFFFF" d="M549.228,308.989c0,39.385-19.423,55.84-59.617,55.84H446.18c2.697,14.027,11.6,24.009,37.496,24.009
				v56.649h-84.165v-56.649c29.134,0,31.832-17.804,31.832-39.654v-5.665c0-19.963-2.698-41.273-31.832-41.273v-56.649h81.198
				C521.983,245.595,549.228,262.32,549.228,308.989z M532.773,324.634c0-17.265-14.567-25.088-49.097-25.088h-38.845v49.637v1.888
				h46.668C526.029,351.071,532.773,336.234,532.773,324.634z"/>
			<path fill="#FFFFFF" d="M720.792,359.433v85.784H561.363v-56.649c29.135,0,31.832-21.312,31.832-41.273v-3.776
				c0-19.963-2.697-41.273-31.832-41.273v-56.649h154.033v80.928h-13.488c0-27.246-21.311-29.674-41.273-29.674h-53.951v41.812
				h38.575l11.33-23.738h13.488v60.966h-13.488l-11.33-23.739h-38.575v41.812h52.333c19.962,0,48.287-2.967,48.287-34.529H720.792z"
				/>
		</g>
	</g>
</g>
</svg>
