<?xml version="1.0" encoding="utf-8"?>
<!-- Generator: Adobe Illustrator 19.2.1, SVG Export Plug-In . SVG Version: 6.00 Build 0)  -->
<svg version="1.1" id="Layer_1" xmlns="http://www.w3.org/2000/svg" xmlns:xlink="http://www.w3.org/1999/xlink" x="0px" y="0px"
	 viewBox="0 0 64 79.545" enable-background="new 0 0 64 79.545" xml:space="preserve">
<g>
	<path d="M26.543,29.909c-1.512,0.84-2.743,0.447-3.304-0.505c-0.56-0.951-0.224-2.296,1.232-3.136
		c1.848-1.12,4.76-0.952,7.168-1.792v0.057l0.056,0.056C29.735,26.325,28.447,28.844,26.543,29.909z M23.295,18.26
		c0.561-0.952,1.792-1.344,3.305-0.504c1.903,1.063,3.191,3.584,5.151,5.32l-0.056,0.056v0.056c-2.408-0.84-5.32-0.672-7.168-1.792
		C23.071,20.556,22.735,19.213,23.295,18.26z M30.799,15.405c0-1.736,0.952-2.688,2.072-2.688s2.072,0.952,2.072,2.688
		c0,2.128-1.512,4.535-2.016,7.056h-0.112C32.312,19.94,30.799,17.533,30.799,15.405z M34.943,32.205
		c0,1.735-0.952,2.688-2.072,2.688s-2.072-0.952-2.072-2.688c0-2.128,1.513-4.536,2.017-7.057h0.112
		C33.432,27.669,34.943,30.077,34.943,32.205z M39.199,17.757c1.512-0.84,2.744-0.448,3.304,0.504
		c0.561,0.952,0.225,2.296-1.231,3.136c-1.849,1.12-4.76,0.952-7.168,1.792v-0.056l-0.057-0.056
		C36.007,21.341,37.295,18.82,39.199,17.757z M42.503,29.404c-0.56,0.952-1.792,1.345-3.304,0.505
		c-1.904-1.064-3.192-3.584-5.152-5.32l0.057-0.056v-0.057c2.408,0.84,5.319,0.672,7.168,1.792
		C42.728,27.108,43.063,28.453,42.503,29.404z"/>
</g>
</svg>
