<svg xmlns="http://www.w3.org/2000/svg" width="253.333" height="244.758" viewBox="0 0 253.333 244.758"><path d="M27.593 122.525c0-4.968 4.091-7.599 11.397-7.599 11.105 0 31.856 6.137 62.25 7.599v.292c-30.394 1.461-51.144 7.014-62.25 7.014-7.306 0-11.397-2.338-11.397-7.306zm38.869 60.496c-2.631-2.922-1.753-6.429 1.753-9.936 5.845-6.138 21.043-14.321 38.577-30.395l.293.292c-16.074 17.535-24.55 32.148-30.687 38.285-2.63 2.631-6.721 5.262-9.936 1.754zm.293-120.7c2.922-2.631 6.429-1.753 9.937 1.753 6.137 5.845 14.32 21.043 30.394 38.577l-.293.293c-17.535-16.074-32.148-24.55-38.285-30.687-2.631-2.63-5.261-6.721-1.753-9.936zm60.203 158.986c-4.968 0-7.599-4.092-7.599-11.398 0-11.105 6.137-31.855 7.599-62.25h.293c1.461 30.395 7.013 51.144 7.013 62.25 0 7.305-2.337 11.398-7.306 11.398zm0-197.856c4.968 0 7.599 4.091 7.599 11.398 0 11.105-6.137 31.856-7.599 62.25h-.292c-1.462-30.394-7.014-51.144-7.014-62.25 0-7.307 2.338-11.398 7.306-11.398zm19.873 79.785l-.292-.292c16.074-17.535 24.257-32.732 30.394-38.578 4.384-4.384 7.89-3.799 9.937-1.753 2.922 2.63 1.753 6.429-1.753 9.937-6.137 6.136-20.75 14.612-38.286 30.686zm40.039 79.493c-2.922 2.631-6.43 1.753-9.937-1.753-6.137-5.845-14.32-21.043-30.394-38.578l.292-.292c17.535 16.074 32.149 24.549 38.286 30.687 2.631 2.63 5.26 6.721 1.753 9.936zm-34.778-59.912v-.292c30.394-1.462 51.144-7.599 62.25-7.599 7.306 0 11.398 2.631 11.398 7.599s-4.092 7.306-11.398 7.306c-11.105 0-31.855-5.553-62.25-7.014z"/></svg>