<svg xmlns="http://www.w3.org/2000/svg" width="1968.897" height="1011.463" viewBox="0 0 1968.897 1011.463"><g fill="#fff"><path d="M527.489 538.234c0 66.231-54.369 97.864-133.945 97.864h-150.257v-44.483c53.38 0 58.323-39.047 58.323-75.622v-125.542c0-36.575-4.943-75.622-58.323-75.622v-44.484h138.888c82.542 0 125.543 34.598 125.543 94.404 0 40.036-18.782 70.186-53.875 78.094v2.472c35.587 5.435 73.646 37.562 73.646 92.919zm-201.166-104.288h45.966c79.577 0 109.232-19.276 109.232-54.863 0-36.575-31.139-59.312-93.91-59.312h-61.288v114.175zm174.475 90.45c0-46.46-44.978-65.737-117.141-65.737h-57.334v128.014h72.162c70.68 0 102.313-23.725 102.313-62.277zM864.572 601.5v34.599l-76.611 7.414v-75.128h-3.46c-16.311 46.461-51.403 75.128-97.369 75.128-63.761 0-82.048-55.357-82.048-131.474v-26.69c-3.46-46.46-28.173-61.289-72.657-61.289v-34.598l92.428-10.38v132.957c0 54.862 32.621 77.104 80.564 77.104 46.955 0 81.06-21.747 82.542-77.104v-25.208c-3.954-47.449-33.609-62.771-87.484-62.771v-34.598l107.255-10.38v156.681c-.001 34.104 6.919 65.737 56.84 65.737zM1112.69 342.507v46.461h101.817v44.483h-101.817l.494 92.426c0 36.575 8.402 75.622 64.748 75.622v34.599h-140.865v-34.598c48.933 0 55.852-39.047 55.852-75.622v-92.426h-161.13l.494 92.426c0 36.575 8.402 75.622 64.748 75.622v34.599h-140.864v-34.599c48.932 0 55.852-39.047 55.852-75.622v-92.426h-59.806v-44.483h59.806v-45.473c0-63.266 18.287-117.635 75.128-117.635 46.955 0 70.186 37.564 70.186 89.462h-20.266c0-20.265-21.747-35.093-49.92-35.093-39.541 0-55.357 29.161-55.357 72.162v36.576h161.129v-55.357c0-63.266 18.288-117.635 75.129-117.635 46.954 0 70.185 37.563 70.185 89.461h-20.265c0-20.265-21.747-35.093-49.92-35.093-39.542.001-55.358 29.162-55.358 72.163zM1229.333 510.556c0-77.104 47.449-131.473 116.151-131.473s116.151 54.369 116.151 131.473c0 77.105-47.449 132.957-116.151 132.957s-116.151-55.852-116.151-132.957zm116.152 78.588c56.84 0 96.381-25.701 96.381-78.588 0-52.885-39.541-77.104-96.381-77.104s-96.381 24.219-96.381 77.104c0 52.886 39.541 78.588 96.381 78.588zM1817.505 601.5v34.599h-130.979v-34.599c48.933 0 55.852-39.047 55.852-75.622v-15.322c0-54.863-32.621-77.104-80.564-77.104-46.955 0-81.059 21.747-82.542 77.104v15.322c0 36.575 7.414 75.622 55.357 75.622v34.599h-130.979v-34.599c48.932 0 55.852-39.047 55.852-75.622v-22.736c0-55.357-25.207-79.576-73.15-79.576v-34.598l84.024-9.886 7.908 75.128h4.448c16.311-46.461 51.403-75.128 97.37-75.128 63.76 0 82.047 55.357 82.047 131.473v15.322c-.001 36.576 7.413 75.623 55.356 75.623z"/></g><path fill="#F0432F" d="M1680.949 922.099c-18.933 31.287-61.9 41.854-109.175 13.243-62.571-37.869-101.007-119.547-164.894-177.21l1.683-2.78c80.717 29.853 170.905 26.016 233.476 63.885 47.276 28.611 57.843 71.577 38.91 102.862z"/><path fill="#fff" d="M435.461 914.612c-40.625 23.44-76.566 12.501-92.193-14.062-15.627-26.566-6.249-64.065 34.376-87.505 53.129-31.253 129.695-26.563 200.012-50.003v1.562l1.564 1.564c-56.254 48.439-90.63 117.194-143.759 148.444z"/><path fill="#FFE64B" d="M441.061 52.182c20.007-23.082 57.007-27.281 92.394 2.874 46.167 40.017 67.31 113.219 113.432 170.552l-1.806 1.243-.281 1.522c-64.326-35.492-139.805-44.694-185.969-84.713-35.386-30.152-37.78-68.394-17.77-91.478z"/><path fill="#92DFC2" d="M1051.884 933.064c-4.336 33.781-25.937 50.467-48.459 47.577-22.518-2.89-39.205-24.491-34.869-58.272 5.781-45.042 42.108-87.306 58.894-137.805l2.251.289c3.486 53.1 27.965 103.169 22.183 148.211z"/><path fill="#E58AA3" d="M13.613 551.195c0-3.56 2.933-5.444 8.168-5.444 7.958 0 22.827 4.397 44.607 5.444v.21c-21.78 1.047-36.649 5.026-44.607 5.026-5.236.001-8.168-1.675-8.168-5.236zm27.853 43.352c-1.885-2.094-1.256-4.607 1.257-7.12 4.188-4.398 15.079-10.262 27.645-21.78l.209.209c-11.518 12.565-17.592 23.037-21.989 27.436-1.886 1.884-4.818 3.769-7.122 1.255zm.21-86.493c2.094-1.885 4.607-1.257 7.12 1.257 4.398 4.188 10.263 15.078 21.78 27.645l-.209.209c-12.565-11.519-23.037-17.592-27.435-21.989-1.884-1.887-3.77-4.819-1.256-7.122zm43.142 113.928c-3.56 0-5.445-2.933-5.445-8.168 0-7.958 4.398-22.827 5.445-44.608h.21c1.047 21.781 5.026 36.65 5.026 44.608 0 5.236-1.676 8.168-5.236 8.168zm0-141.781c3.561 0 5.445 2.932 5.445 8.167 0 7.958-4.397 22.827-5.445 44.607h-.209c-1.047-21.78-5.026-36.649-5.026-44.607-.001-5.236 1.675-8.167 5.235-8.167zm14.241 57.173l-.209-.21c11.519-12.565 17.382-23.456 21.78-27.645 3.142-3.142 5.654-2.723 7.12-1.256 2.095 1.885 1.257 4.607-1.257 7.12-4.397 4.398-14.869 10.472-27.434 21.991zm28.691 56.964c-2.094 1.885-4.607 1.257-7.12-1.257-4.398-4.188-10.262-15.079-21.78-27.645l.209-.209c12.565 11.519 23.037 17.592 27.435 21.989 1.885 1.886 3.77 4.818 1.256 7.122zm-24.922-42.933v-.21c21.78-1.047 36.65-5.444 44.608-5.444 5.235 0 8.167 1.885 8.167 5.444 0 3.561-2.932 5.236-8.167 5.236-7.957.001-22.827-3.979-44.608-5.026z"/><path fill="#92DFC2" d="M1767.03 257.807c0-4.309 3.548-6.59 9.884-6.59 9.631 0 27.626 5.322 53.984 6.59v.253c-26.358 1.267-44.354 6.083-53.984 6.083-6.337 0-9.884-2.028-9.884-6.336zm33.708 52.463c-2.281-2.534-1.521-5.576 1.521-8.617 5.069-5.323 18.249-12.419 33.455-26.359l.254.253c-13.939 15.207-21.29 27.879-26.612 33.202-2.283 2.282-5.83 4.563-8.618 1.521zm.253-104.674c2.534-2.281 5.575-1.521 8.617 1.521 5.322 5.069 12.419 18.249 26.358 33.455l-.254.254c-15.206-13.94-27.879-21.29-33.201-26.612-2.28-2.282-4.562-5.83-1.52-8.618zm52.21 137.876c-4.309 0-6.59-3.549-6.59-9.885 0-9.631 5.322-27.625 6.59-53.984h.254c1.267 26.359 6.082 44.354 6.082 53.984 0 6.336-2.027 9.885-6.336 9.885zm0-171.584c4.309 0 6.59 3.548 6.59 9.884 0 9.631-5.322 27.626-6.59 53.984h-.253c-1.268-26.358-6.083-44.354-6.083-53.984 0-6.336 2.028-9.884 6.336-9.884zm17.235 69.191l-.253-.253c13.939-15.207 21.036-28.386 26.358-33.456 3.802-3.802 6.843-3.294 8.617-1.521 2.534 2.281 1.521 5.576-1.521 8.617-5.321 5.323-17.994 12.673-33.201 26.613zm34.722 68.938c-2.534 2.281-5.576 1.521-8.617-1.521-5.322-5.069-12.419-18.249-26.358-33.456l.253-.253c15.207 13.939 27.88 21.29 33.202 26.612 2.281 2.282 4.561 5.83 1.52 8.618zm-30.16-51.957v-.253c26.358-1.268 44.354-6.59 53.984-6.59 6.336 0 9.885 2.281 9.885 6.59s-3.549 6.336-9.885 6.336c-9.63 0-27.625-4.816-53.984-6.083z"/><path fill="#E58AA3" d="M1519.17 100.628c22.998-21.563 48.195-19.91 62.49-4.919 14.292 14.993 13.901 40.972-9.097 62.533-29.98 28.591-80.808 37.252-123.236 63.361l-.239-1.022-1.26-.785c29.396-40.317 41.362-90.579 71.342-119.168z"/></svg>