<svg xmlns="http://www.w3.org/2000/svg" width="2506.084" height="1335.134" viewBox="0 0 2506.084 1335.134"><path fill="#E58AA3" d="M1517.157 1071.232c0 40.316-43.177 58.616-94.931 47.179v-17.728c34.884 10.293 89.498 2.287 89.498-34.026 0-42.032-72.628-42.032-72.628-64.05 0-20.873 64.336-14.297 64.336-52.04 0-21.159-20.016-28.879-38.315-28.879-26.878 0-56.615 16.298-56.615 56.043v140.68h-43.462v-4.003c36.027 0 39.459-28.594 39.459-55.186v-81.491c0-44.605 25.734-76.631 60.618-76.631 29.451 0 43.462 22.875 43.462 44.892 0 47.752-65.193 39.174-65.193 56.901 0 18.872 73.771 15.727 73.771 68.339z"/><path fill="#FFE64B" d="M428.603 250.709c0 51.978-30.212 90.96-75.043 90.96-30.212 0-51.652-17.867-61.073-46.779h-1.624v38.009c0 55.551 1.299 74.393 47.429 74.393v3.898h-86.088v-3.898c33.136 0 34.761-20.466 34.761-81.54v-171.203c0-46.454-12.021-62.048-48.404-62.048v-3.573l52.303-6.497v137.091h1.624c9.421-30.862 31.836-51.653 65.621-51.653 42.881 0 70.494 33.461 70.494 82.84zm-4.224 4.547c0-45.806-31.511-67.896-68.87-67.896-37.358 0-64.322 22.09-64.322 67.57 0 46.13 27.613 67.246 64.647 67.246s68.545-21.115 68.545-66.92z"/><path fill="#fff" d="M1513.13 484.164v12.505h-47.338v-12.505c17.685 0 20.186-14.111 20.186-27.331v-11.254c-1.251-16.791-10.183-22.15-26.26-22.15h-32.512l.179 33.404c0 13.22 3.216 27.331 23.58 27.331v12.505h-50.911v-12.505c17.686 0 20.186-14.111 20.186-27.331v-33.404h-58.413l.179 33.404c0 13.22 3.037 27.331 23.401 27.331v12.505h-50.911v-12.505c17.685 0 20.186-14.111 20.186-27.331v-33.404h-21.614v-16.077h21.614v-16.435c0-22.865 6.609-42.515 27.152-42.515 16.971 0 25.366 13.576 25.366 32.333h-7.324c0-7.324-7.859-12.684-18.042-12.684-14.29 0-20.007 10.54-20.007 26.081v13.219h58.413v-17.685c0-23.223 11.255-44.838 36.978-44.838 25.902 0 36.263 21.794 36.263 43.052h-8.038c-2.144-12.684-10.004-24.116-30.011-24.116-19.828 0-28.046 11.075-28.225 27.152v16.435l65.917-.179v49.66c-.001 13.22 2.678 27.332 20.006 27.332z"/><path fill="#FFE64B" d="M1265.801 192.366v59.95c0 17.466 2.36 36.111 27.851 36.111v21.242h-76.707v-21.242c35.639 0 37.056-16.758 37.056-33.279v-27.614h-104.559v27.614c0 16.521 1.416 33.279 37.056 33.279v21.242h-76.707v-21.242c25.49 0 27.851-18.646 27.851-36.111v-59.95c0-17.466-2.36-36.111-27.851-36.111v-21.242h76.707v21.242c-35.64 0-37.056 16.758-37.056 33.279v26.671h104.558v-26.671c0-16.521-1.417-33.279-37.056-33.279v-21.242h76.707v21.242c-25.49-.001-27.85 18.645-27.85 36.111z"/><path fill="#E58AA3" d="M1731.464 170.655h-9.663c-.967-13.045-12.079-18.118-23.191-18.118-16.669 0-29.956 11.112-29.956 37.687v7.488c0 17.877 2.416 36.962 35.271 36.962v16.91h-72.231v-16.91c23.916 0 27.298-19.085 27.298-36.962v-11.112c0-27.057-12.32-38.894-35.753-38.894v-16.91l41.068-4.832 3.865 36.72c7.006-20.775 15.702-36.72 35.028-36.72 21.742-.001 28.264 19.809 28.264 44.691zm-50.731-51.214l-7.006-7.247 32.372-30.439 7.005 7.006-32.371 30.68z"/><path fill="#fff" d="M1740.737 1223.567c0 22.689-7.654 42.918-25.695 42.918-19.409 0-24.057-24.056-24.057-52.485 0-19.683 2.188-39.911 5.194-58.227h-34.717c-3.28 54.399-15.582 110.712-44.285 110.712-8.474 0-12.574-4.921-12.574-11.481 0-8.201 6.287-11.208 15.035-15.581 16.401-8.201 29.249-26.517 32.803-83.649h-5.467c-14.762 0-26.789 6.015-31.983 18.042l-9.021-1.64c2.187-15.582 14.761-46.472 47.564-46.472h82.282v30.069h-30.344c-3.007 16.949-4.646 34.718-4.646 48.112 0 20.229 3.827 32.803 15.308 32.803 7.654 0 13.668-6.014 13.668-13.121h10.935z"/><path fill="#F0432F" d="M1299.842 1240.746v17.628h-66.735v-17.628c24.931 0 28.457-19.895 28.457-38.53v-7.807c0-27.953-15.11-39.286-36.768-39.286s-37.02 11.333-37.02 39.286v7.807c0 18.636 3.777 38.53 28.205 38.53v17.628h-66.735v-17.628c24.932 0 28.457-19.895 28.457-38.53v-7.807c0-27.953-15.109-39.286-36.767-39.286s-37.02 11.333-37.02 39.286v7.807c0 18.636 3.777 38.53 28.205 38.53v17.628h-66.735v-17.628c24.932 0 28.457-19.895 28.457-38.53v-11.584c0-28.205-12.844-40.545-37.271-40.545v-17.629l42.812-5.036 4.029 38.278h.252c7.303-22.665 23.42-38.278 46.337-38.278 22.665 0 32.99 15.361 36.012 38.278h1.511c7.556-23.168 23.673-38.278 46.337-38.278 30.22 0 37.775 26.442 37.775 64.217v10.577c0 18.635 3.777 38.53 28.205 38.53z"/><path fill="#fff" d="M779.654 1227.512c0-11.333 8.059-19.14 19.139-19.14 11.081 0 18.888 7.807 18.888 19.14 0 11.332-7.807 19.139-18.888 19.139-11.081 0-19.139-7.807-19.139-19.139zm68.246 0c0-11.333 8.059-19.14 19.139-19.14 11.081 0 18.888 7.807 18.888 19.14 0 11.332-7.807 19.139-18.888 19.139-11.081 0-19.139-7.807-19.139-19.139zm68.75 0c0-11.333 8.059-19.14 19.139-19.14 11.081 0 18.888 7.807 18.888 19.14 0 11.332-7.807 19.139-18.888 19.139-11.081 0-19.139-7.807-19.139-19.139zM1463.624 1221.358c-25.183 0-33.241-25.939-54.899-25.939-13.347 0-22.413 10.073-22.413 23.421h-4.029c0-16.117 10.577-27.953 26.191-27.953 23.168 0 31.73 25.938 55.15 25.938 14.606 0 21.657-10.073 21.657-23.421h4.029c.001 13.096-6.798 27.954-25.686 27.954zm0 38.529c-25.183 0-33.241-25.938-54.899-25.938-13.347 0-22.413 10.073-22.413 23.421h-4.029c0-16.117 10.577-27.953 26.191-27.953 23.168 0 31.73 25.938 55.15 25.938 14.606 0 21.657-10.073 21.657-23.421h4.029c.001 13.096-6.798 27.953-25.686 27.953z"/><path fill="#F0432F" d="M460.503 806.795h8.123c-3.61 18.503-16.021 35.652-39.939 36.781 2.257 19.18 4.738 32.944 4.738 44.001 0 9.025-1.579 14.667-8.349 14.667s-8.349-5.642-8.349-14.667c0-11.057 2.481-25.047 4.738-44.228-26.175-2.481-43.55-24.595-43.55-54.381 0-29.785 17.601-52.35 44.227-54.381-2.481-25.272-5.415-42.646-5.415-56.186 0-10.154 1.579-16.473 8.349-16.473s8.349 6.318 8.349 16.473c0 13.539-2.933 30.913-5.415 55.96 24.37.903 36.78 18.277 40.616 37.007h-8.123c-2.708-9.252-18.052-14.441-34.073-14.668-.451 5.642-.677 11.734-.902 18.052h-.902c-.226-6.317-.451-12.41-.902-18.052-22.339.452-37.684 11.057-37.684 32.268s15.345 31.816 37.458 32.493c.451-6.092.902-12.861 1.128-19.856h.902c.226 6.995.677 13.765 1.129 19.856 16.02-.224 31.138-5.414 33.846-14.666z"/><path fill="#fff" d="M966.54 320.667c0-17.078 12.244-29 29-29 17.077 0 29 11.922 29 29 0 17.399-11.923 29.321-29 29.321-16.756 0-29-11.922-29-29.321zm29-220.399c10.955 0 19.011 8.377 19.011 26.744 0 22.555-11.922 76.366-16.111 144.677h-5.8c-3.866-67.988-16.433-121.478-16.433-144.354 0-19.334 9.022-27.067 19.333-27.067zM134.087 1188.163c-10.652 0-15.874-4.805-17.753-9.816h-.627v33.418h-7.52v-37.387c28.614 0 48.665-7.729 48.665-26.316 0-14.621-12.113-22.349-31.12-22.349-19.424 0-32.791 7.937-38.849 19.424h-7.31c4.595-26.734 20.468-44.487 46.576-44.487 28.196 0 40.937 20.469 40.937 45.323.001 25.063-12.948 42.19-32.999 42.19zm-40.728 55.347c0-11.069 7.938-18.797 18.798-18.797 11.069 0 18.798 7.728 18.798 18.797 0 11.279-7.729 19.007-18.798 19.007-10.861 0-18.798-7.727-18.798-19.007zM632.358 1113.952c0 14.028-10.059 23.822-23.822 23.822-14.029 0-23.823-9.794-23.823-23.822 0-14.294 9.794-24.087 23.823-24.087 13.763 0 23.822 9.793 23.822 24.087zm-45.263 175.756v-25.94c8.205-8.734 16.94-40.498 16.94-82.055v-25.676h9.528v25.676c0 41.557 7.147 73.32 16.411 82.055v25.94h-42.879z"/><path fill="#E58AA3" d="M2386.721 767.004c0 26.734-16.13 42.422-39.108 44.631v-8.838c19.665-1.768 30.271-16.35 30.271-30.712 0-1.325 0-2.872-.222-4.64-2.209 3.756-7.732 6.85-14.582 6.85-10.385 0-17.455-7.513-17.455-17.896 0-11.711 8.838-19.223 19.886-19.223 14.581 0 21.21 12.815 21.21 29.828zm52.364 0c0 26.734-16.129 42.422-39.107 44.631v-8.838c19.664-1.768 30.27-16.35 30.27-30.712 0-1.325 0-2.872-.221-4.64-2.21 3.756-7.733 6.85-14.583 6.85-10.384 0-17.454-7.513-17.454-17.896 0-11.711 8.838-19.223 19.885-19.223 14.581 0 21.21 12.815 21.21 29.828z"/><path fill="#FFE64B" d="M1966.293 1201.014v48.846h-111.311v-22.778l45.792-38.982c27.006-23.014 43.444-41.331 43.444-61.292 0-17.847-13.15-27.24-37.339-27.24-21.369 0-31.937 7.28-38.981 21.84h-11.742c5.166-29.354 23.483-50.02 54.716-50.02 32.407 0 47.672 22.309 47.672 48.845 0 30.528-19.961 53.308-50.02 78.669l-35.226 29.824h45.323c17.377 0 35.93-2.349 35.93-27.711h11.742z"/><path fill="#92DFC2" d="M1404.244 200.962c-15.008 0-23.584-9.005-28.516-19.511l6.003-3.645c5.36 6.432 13.508 8.146 21.655 8.146 15.437 0 22.083-6.217 22.083-14.579 0-9.862-9.434-14.579-23.37-14.579-3.216 0-5.574 0-9.862.429v-13.936c14.365 0 29.159-3.431 29.159-15.223 0-8.147-7.29-11.149-16.08-11.149-9.435 0-17.796 3.431-20.368 12.221h-7.075c1.5-12.221 10.72-27.229 28.301-27.229 14.579 0 24.441 10.506 24.441 23.37 0 11.792-7.933 19.725-18.01 23.584 12.864 2.572 20.583 11.148 20.583 23.584.001 13.723-9.648 28.517-28.944 28.517zm101.626-92.835l-94.551 153.726-7.29-4.932 94.551-153.726 7.29 4.932zm17.367 123.708h-16.509c.429 8.362 2.787 16.51 14.579 16.51v13.507h-37.734v-13.507c10.935 0 13.937-6.433 14.579-13.722v-2.788h-41.165v-13.507l42.023-52.313h7.504v52.313h16.723v13.507zm-25.085-13.506v-30.659h-4.931l-25.3 30.659h30.231zM1888.226 942.961c13.212 6.605 25.662 11.179 39.636 14.736l-8.639 14.99c-10.417-10.163-20.326-19.056-32.521-27.187.763 14.482 3.303 27.44 7.114 41.414h-17.277c3.558-13.974 6.353-26.932 7.114-41.414-12.195 8.131-22.358 16.77-32.521 27.187l-8.639-14.99c13.975-3.812 26.678-7.877 39.89-14.736-13.212-6.353-25.661-10.926-39.636-14.482l8.639-14.99c10.417 10.163 20.072 19.056 32.521 27.186-1.016-14.99-3.557-28.202-7.368-42.176h17.277c-3.557 14.228-6.352 27.186-7.368 42.176 12.449-8.13 22.612-16.769 32.775-27.186l8.639 14.99c-13.974 3.811-26.424 7.875-39.636 14.482zM1466.716 695.523l-4.897 31.134h38.131v47.576h-45.478l-9.445 62.618h-13.643l9.445-62.618h-53.523l-9.445 62.618h-13.643l9.445-62.618h-39.53v-47.576h46.876l4.897-31.134h-40.929v-47.576h47.926l8.745-56.672h13.644l-8.746 56.672h53.523l8.745-56.672h13.644l-8.746 56.672h37.081v47.576h-44.077zm-13.643 0h-53.522l-4.897 31.134h53.522l4.897-31.134z"/><path fill="#FFE64B" d="M1176.601 835.898c0 37.507-18.436 62.936-37.188 62.936-10.172 0-17.482-7.629-19.707-16.211-3.179 14.304-6.993 32.104-9.854 54.671h-5.086c-5.722-45.135-15.575-70.882-15.575-89.635 0-17.164 8.265-25.11 18.118-25.11s18.117 7.946 18.117 25.11c0 7.311-1.589 15.575-3.496 25.429 27.653-.954 38.778-19.071 38.778-35.918 0-21.614-18.436-33.375-48.314-33.375-29.242 0-48.313 11.125-58.167 29.561h-11.125c6.992-40.686 31.149-67.703 70.882-67.703 42.91-.001 62.617 31.467 62.617 70.245zm-41.639 147.167c0 17.164-11.761 28.925-28.607 28.925-16.528 0-28.606-11.761-28.606-28.925 0-16.846 12.078-28.606 28.606-28.606 16.846 0 28.607 11.76 28.607 28.606z"/><path fill="#F0432F" d="M94.942 693.893c-5.585 3.103-10.134 1.654-12.202-1.861s-.828-8.479 4.55-11.582c6.825-4.136 17.579-3.516 26.473-6.618v.207l.206.207c-7.239 6.41-11.995 15.717-19.027 19.647zm-11.995-43.018c2.068-3.517 6.617-4.964 12.201-1.861 7.032 3.93 11.789 13.236 19.027 19.647l-.207.207v.206c-8.893-3.102-19.646-2.481-26.473-6.618-5.377-3.101-6.617-8.065-4.548-11.581zm27.712-10.548c0-6.411 3.516-9.928 7.652-9.928s7.652 3.517 7.652 9.928c0 7.859-5.584 16.752-7.445 26.059h-.414c-1.861-9.307-7.445-18.199-7.445-26.059zm15.305 62.046c0 6.411-3.516 9.928-7.652 9.928s-7.652-3.517-7.652-9.928c0-7.859 5.584-16.752 7.445-26.059h.414c1.861 9.306 7.445 18.2 7.445 26.059zm15.719-53.359c5.584-3.103 10.133-1.655 12.201 1.861 2.068 3.516.828 8.479-4.549 11.581-6.826 4.137-17.58 3.517-26.473 6.618v-.206l-.207-.207c7.239-6.411 11.996-15.718 19.028-19.647zm12.201 43.017c-2.068 3.516-6.617 4.964-12.201 1.861-7.032-3.93-11.789-13.236-19.027-19.647l.207-.207v-.207c8.893 3.103 19.646 2.482 26.473 6.618 5.376 3.103 6.616 8.067 4.548 11.582z"/><path fill="#fff" d="M2377.382 411.039l.207.207c-13.65 9.927-19.441 15.925-24.197 18.407-3.516 1.861-5.998 1.447-7.032-.621-1.448-2.688 0-4.55 2.896-6.411 5.17-3.31 12.409-4.964 28.127-11.789v.207zm.414-5.377l-.207.207v.206c-15.719-6.824-22.957-8.479-28.127-11.788-2.896-1.861-4.344-3.516-2.896-6.411 1.034-2.068 3.723-2.482 7.032-.621 4.757 2.482 10.548 8.479 24.198 18.407zm8.273-31.85c0 5.377-2.274 13.442-3.93 29.574h-.413c-1.654-16.132-3.93-24.197-3.93-29.574 0-4.757 1.861-6.412 4.137-6.412 2.274 0 4.136 1.655 4.136 6.412zm0 69.077c0 4.756-1.861 6.411-4.136 6.411-2.275 0-4.137-1.655-4.137-6.411 0-5.378 2.275-13.443 3.93-29.575h.413c1.655 16.132 3.93 24.197 3.93 29.575zm.413-37.02l-.206-.207c13.649-9.928 19.44-15.925 24.197-18.407 3.517-1.861 5.998-1.447 7.032.621 1.447 2.688 0 4.55-2.896 6.411-5.171 3.309-12.409 4.964-28.128 11.788v-.206zm31.023 23.163c-1.034 2.068-3.723 2.482-7.032.621-4.757-2.482-10.548-8.48-24.197-18.407l.206-.207v-.207c15.719 6.825 22.957 8.479 28.128 11.789 2.895 1.861 4.342 3.515 2.895 6.411z"/><path fill="#92DFC2" d="M2461.411 1205.309c0 18.82-13.856 30.402-29.367 30.402-17.373 0-27.921-14.271-39.503-28.127-11.375 13.856-22.337 28.127-39.915 28.127-17.166 0-28.955-13.65-28.955-30.195 0-16.959 12.408-30.195 29.161-30.195 17.786 0 28.541 14.477 39.916 28.541 11.581-14.064 22.543-28.541 40.329-28.541 16.959 0 28.334 13.029 28.334 29.988zm-70.318.414c-10.133-11.996-21.302-23.371-38.881-23.371-18.2 0-26.473 12.202-26.473 23.164 0 13.443 12.408 23.37 28.127 23.37 16.338 0 27.3-10.961 37.227-23.163zm68.25-.621c0-14.477-13.029-22.75-27.299-22.75-16.547 0-27.508 11.168-37.848 23.164 10.133 12.202 21.095 23.37 37.641 23.37 15.718 0 27.506-10.134 27.506-23.784zM2247.36 471.764c0 15.511-7.238 27.507-23.37 27.507-24.197 0-26.473-26.68-26.473-52.739v-44.465h-78.797v43.225c0 26.473 4.549 41.57 24.197 41.57 12.408 0 20.682-6.205 20.682-15.098h2.481c0 15.511-7.238 27.507-23.37 27.507-24.197 0-26.473-26.68-26.473-52.739v-44.465h-27.714v-9.308c18.821 0 27.714-8.272 27.714-33.504h2.482v33.504h51.083c18.821 0 27.714-9.1 27.714-36.606h2.482v36.606h41.57v9.308h-41.57v43.225c0 26.473 4.549 41.57 24.197 41.57 12.408 0 20.682-6.205 20.682-15.098h2.483z"/><path fill="#fff" d="M2433.36 626.62l12.409 12.41-6.647 6.647-12.188-12.188c-9.086 7.978-21.495 12.631-35.899 12.631-13.961 0-26.149-4.432-35.457-12.188l-11.523 11.745-6.647-6.647 11.744-11.967c-7.534-9.308-11.966-21.717-11.966-35.899s4.432-26.371 11.966-35.679l-11.966-12.188 6.647-6.647 11.967 12.188c9.086-7.534 21.274-11.966 35.235-11.966 14.404 0 26.592 4.653 35.899 12.409l12.41-12.631 6.647 6.647-12.631 12.854c7.312 9.086 11.523 21.273 11.523 35.014 0 13.96-4.211 25.925-11.523 35.455zm-3.99-35.236c0-21.052-15.512-35.899-38.337-35.899s-38.338 14.848-38.338 35.899c0 21.053 15.513 36.122 38.338 36.122s38.337-15.069 38.337-36.122zM279.637 523.878c0 20.79 9.239 50.16 9.239 74.91 0 26.73-10.56 42.57-28.38 46.86 17.82 4.29 28.38 20.13 28.38 46.86 0 24.75-9.239 54.12-9.239 74.91 0 17.49 6.6 25.41 22.439 25.41h14.521v4.95h-13.2c-20.79 0-28.71-10.561-28.71-30.03 0-21.12 9.239-51.48 9.239-74.91 0-30.36-15.51-44.551-34.979-44.551v-5.28c19.47 0 34.979-14.189 34.979-44.55 0-23.43-9.239-53.79-9.239-74.91 0-19.471 7.92-30.03 28.71-30.03h13.2v4.95h-14.521c-15.839.001-22.439 7.921-22.439 25.411z"/><path fill="#FFE64B" d="M1678.434 385.419v7.6h-95.001v-7.6h95.001zm-61.641-31.161c0-7.979 5.7-13.68 13.681-13.68 7.979 0 13.68 5.7 13.68 13.68 0 8.171-5.7 13.871-13.68 13.871-7.981 0-13.681-5.7-13.681-13.871zm0 70.302c0-7.98 5.7-13.681 13.681-13.681 7.979 0 13.68 5.7 13.68 13.681 0 8.17-5.7 13.87-13.68 13.87-7.981 0-13.681-5.7-13.681-13.87z"/><path fill="#fff" d="M1687.315 963.327h-.73c3.289 30.702 7.31 52.633 7.31 70.543 0 14.62-2.559 23.758-13.523 23.758s-13.523-9.138-13.523-23.758c0-17.91 4.021-40.206 7.676-71.274-43.861-4.021-63.233-29.972-63.233-59.578h16.082c0 14.255 20.469 21.565 50.44 23.027.731-9.868 1.462-20.469 1.827-31.434h1.463c.365 11.331 1.096 21.565 1.827 31.434h3.29c37.281 0 51.901-9.138 51.901-26.316 0-23.027-27.413-26.683-54.46-30.337-38.744-5.117-67.254-7.676-67.254-45.689 0-33.261 21.931-53.729 58.847-56.288-4.021-38.744-8.406-65.792-8.406-86.991 0-16.448 2.559-26.682 13.523-26.682s13.523 10.233 13.523 26.682c0 21.199-4.386 48.247-8.041 86.626 57.751 1.097 59.213 44.227 59.213 63.232h-16.083c0-16.082-17.544-25.951-46.419-26.682-.366 10.234-1.097 21.199-1.462 32.896h-1.463c-.365-11.696-1.096-22.661-1.462-32.896-20.468 0-46.419 4.752-46.419 25.22 0 21.2 28.144 22.662 56.653 26.317 32.896 4.021 65.061 9.868 65.061 52.633-.001 25.95-12.063 55.557-66.158 55.557zM1720.848 560.791c0 6.618-3.723 11.995-21.509 11.995-21.923 0-55.841-8.065-127.4-8.479 29.782 6.412 59.15 15.305 59.15 37.435 0 9.514-5.584 15.511-14.271 15.511-10.548 0-14.685-8.893-19.854-20.682-6.411-13.236-15.512-32.47-53.359-32.47h-3.93v-6.205h3.93c37.848 0 46.948-19.233 53.359-32.47 5.17-11.789 9.307-20.683 19.854-20.683 8.687 0 14.271 5.998 14.271 15.512 0 22.336-30.195 31.229-60.184 37.641 72.386-.413 105.684-9.1 128.434-9.1 18.199 0 21.509 5.584 21.509 11.995zM592.537 995.407c0 6.191-5.733 8.484-14.447 11.694-19.72 7.338-40.358 12.383-40.358 57.327v2.064h-2.751v-2.064c0-44.944-20.638-49.989-40.358-57.327-8.714-3.21-14.447-5.503-14.447-11.694 0-5.045 3.898-8.255 10.549-8.255 16.739 0 37.147 19.949 44.027 54.805h.229c0-97.915-6.88-123.368-6.88-141.483 0-8.943 1.605-14.218 8.026-14.218 6.42 0 8.025 5.274 8.025 14.218 0 17.427-6.191 43.568-6.191 141.483 6.88-34.855 27.288-54.805 44.027-54.805 6.651 0 10.549 3.21 10.549 8.255zM815.31 947.443c0-23.047 16.661-41.374 38.32-41.374s38.319 18.327 38.319 41.374c0 23.048-16.66 41.652-38.319 41.652s-38.32-18.604-38.32-41.652zm73.03-.277c0-17.494-14.162-29.712-34.71-29.712-20.549 0-34.71 12.218-34.71 29.712 0 17.493 14.161 30.545 34.71 30.545 20.548 0 34.71-13.052 34.71-30.545zm82.193-38.321h4.998l-132.176 194.376h-4.998l132.176-194.376zm-49.149 156.612c0-23.047 16.66-41.374 38.319-41.374s38.32 18.327 38.32 41.374c0 23.048-16.661 41.652-38.32 41.652s-38.319-18.605-38.319-41.652zm73.029-.278c0-17.494-14.161-29.712-34.71-29.712-20.548 0-34.71 12.218-34.71 29.712s14.162 30.545 34.71 30.545c20.549 0 34.71-13.051 34.71-30.545z"/><path fill="#92DFC2" d="M2029.698 405.511c0 48.449-15.023 107.416-55.962 107.416-26.29 0-43.567-24.037-44.693-60.093h-1.127c-12.395 38.309-38.31 59.717-61.971 59.717-24.413 0-42.44-22.535-42.44-64.976 0-55.586 31.549-110.045 71.735-110.045 22.159 0 31.925 16.525 36.432 34.554h1.878l9.765-27.042h5.634c-8.263 34.554-14.271 48.45-14.271 80.374 0 42.065 10.516 68.355 40.562 68.355 39.436 0 49.201-45.069 49.201-83.003 0-93.895-59.718-134.833-128.449-134.833-89.012 0-148.354 69.106-148.354 159.246 0 84.13 51.454 129.199 127.321 129.199 28.544 0 63.849-6.385 82.252-24.413l3.756 3.005c-21.783 22.535-50.327 40.562-90.515 40.562-66.102 0-128.072-49.201-128.072-145.725 0-99.904 66.853-181.029 156.241-181.029 72.487.002 131.077 53.334 131.077 148.731zm-100.28 7.887c0-30.422-12.394-55.961-41.313-55.961-38.31 0-59.342 43.942-59.342 83.003 0 29.671 12.019 52.205 42.065 52.205 41.314 0 58.59-43.191 58.59-79.247z"/><path fill="#E58AA3" d="M945.59 704.356c0 48.579-27.458 134.12-117.223 134.12-26.93 0-50.691-7.921-72.868-21.649-27.458 13.729-58.611 21.649-93.989 21.649-97.158 0-134.648-59.668-134.648-117.751 0-52.275 30.626-82.373 66.532-99.27-14.257-23.233-26.93-48.579-26.93-82.901 0-55.443 33.266-101.382 104.022-101.382 73.396 0 99.797 49.107 99.797 104.022 0 84.484-62.307 109.302-118.807 129.896 50.691 53.858 98.214 76.036 149.961 80.261 9.505-12.673 17.953-26.93 23.762-43.299 8.448-26.93 3.168-51.219-43.299-51.219v-73.396h146.792v73.396c-52.803 0-69.699 40.13-83.956 67.588h-.528c-4.225 9.504-9.505 18.48-15.312 27.457 57.555-1.584 82.9-16.369 92.405-47.522h24.289zm-213.324 96.102c-39.603-32.21-72.34-79.205-103.494-120.919-37.49 14.257-67.588 30.626-67.588 66.532 0 42.77 43.826 66.003 102.438 66.003 23.233 0 46.994-3.696 68.644-11.616zm-119.335-187.979c61.252-23.762 133.592-26.93 133.592-64.42 0-23.233-28.514-35.378-72.34-35.378-47.523 0-80.261 14.257-80.261 50.69 0 18.482 8.448 33.795 19.009 49.108z"/><path fill="#F0432F" d="M2208.973 225.999c0 8.504-8.504 32.707-34.888 32.707-11.993 0-22.678-4.797-33.144-13.301-12.429 9.376-28.128 15.481-46.662 15.481-28.347 0-54.948-13.955-54.948-47.099 0-27.256 17.88-39.248 37.94-47.752-6.105-9.595-14.827-20.933-14.827-36.851 0-18.534 11.774-39.685 38.158-39.685 28.564 0 36.196 24.857 36.196 40.557 0 28.782-25.512 37.723-50.151 46.881 22.895 31.398 39.902 51.895 58.001 61.707 10.902-9.812 18.534-22.677 22.24-36.632 2.399-13.083-.436-24.857-25.511-24.857v-2.616h64.323v2.616c-19.842 0-30.744 10.685-35.105 22.677-3.707 14.609-11.557 29.001-23.331 40.121 7.632 3.707 15.699 5.669 24.64 5.669 22.677 0 32.489-11.992 34.451-19.624h2.618zm-70.212 17.662c-17.226-14.609-34.233-38.595-54.512-65.851-21.805 8.067-41.865 16.79-41.865 39.685 0 23.331 20.496 40.339 51.677 40.339 17.662 0 32.708-5.452 44.7-14.173zm-59.091-78.497c25.729-10.249 54.294-15.046 54.294-37.723 0-14.173-11.12-24.422-34.233-24.422-19.843 0-34.452 7.414-34.452 26.166 0 13.52 7.631 26.166 14.391 35.979z"/><path fill="#fff" d="M1942.051 131.509v2.914h-47.213v30.893h-2.914v-30.893h-47.019v-2.914h47.019v-29.338h2.914v29.338h47.213zm-97.145 47.601h97.146v2.915h-97.146v-2.915z"/><path fill="#92DFC2" d="M751.732 938.427h-12.979v210.693h-4.143v-210.693h-23.748v210.693h-4.142v-119.016c-33.413-.276-64.064-15.74-64.064-53.295s30.928-53.295 63.788-53.295h45.287v14.913zM902.128 246.206c0 49.636-33.711 86.863-81.072 86.863s-81.072-37.228-81.072-86.863c0-49.843 33.711-86.243 81.072-86.243s81.072 36.4 81.072 86.243zm-8.685 0c0-39.296-30.609-68.457-72.387-68.457s-72.387 29.161-72.387 68.457c0 39.295 30.609 69.077 72.387 69.077s72.387-29.782 72.387-69.077zm-29.99 18.82h5.791c0 12.202-3.103 28.127-17.786 28.127-13.65 0-16.546-13.443-18.407-20.268-5.171-18.407-15.718-21.096-28.954-21.303v9.1c0 8.687.827 17.373 19.441 17.373v13.443h-41.364v-13.443c13.443 0 14.685-9.721 14.685-19.027v-30.195c0-7.238-1.241-16.339-14.685-16.339v-13.442h38.468c21.096 0 34.953 8.893 34.953 25.852 0 16.132-12.617 23.371-29.782 23.371h-1.448v.827c4.758 2.896 9.928 6.825 14.064 15.925 2.481 5.17 3.723 10.961 13.029 10.961 7.653-.001 11.375-3.931 11.995-10.962zm-42.811-23.577c19.855 0 25.853-5.998 25.853-13.65 0-9.307-9.514-14.063-28.127-14.063h-14.271v27.714h16.545z"/><path fill="#fff" d="M588.05 310.731c-16.771-4.658-32.3-7.765-50.003-8.696.621 15.219 3.727 28.573 10.56 40.996-8.386 28.263-10.249 59.631-10.87 90.379h-2.484c-.621-30.748-2.485-62.116-10.87-90.379 6.832-12.423 9.938-25.777 10.56-40.996-17.703.932-33.232 4.038-50.003 8.696v-21.119c16.771 4.348 32.3 7.454 49.692 8.696-.932-17.703-4.038-33.542-8.696-50.313h21.119c-4.349 16.771-7.765 32.61-8.696 50.313 17.393-1.242 32.921-4.349 49.692-8.696v21.119zM629.717 348.327c0-17.979 13.05-32.189 30.739-32.189 17.98 0 30.45 14.21 30.45 32.189 0 18.27-12.47 32.188-30.45 32.188-17.689 0-30.739-13.919-30.739-32.188zm57.419 0c0-13.92-11.02-22.91-26.68-22.91-15.659 0-26.679 8.99-26.679 22.91 0 14.209 11.02 23.199 26.679 23.199 15.66 0 26.68-8.99 26.68-23.199zM173.354 148.824c-13.409-3.725-25.825-6.208-39.979-6.952.497 10.678 2.98 19.368 8.443 27.812-5.463 8.443-7.946 17.383-8.443 28.061 14.154-.745 26.57-3.229 39.979-6.953v16.886c-13.409-3.477-25.825-5.96-39.731-6.953.745 14.154 3.477 26.819 6.953 40.229h-16.886c3.725-13.409 6.208-26.074 6.953-40.229-13.906.993-26.322 3.477-39.731 6.953v-16.886c13.409 3.725 25.825 6.208 39.979 6.953-.496-10.678-2.979-19.617-8.442-28.061 5.463-8.443 7.946-17.134 8.442-27.812-14.154.744-26.57 3.228-39.979 6.952v-16.886c13.409 3.477 25.825 5.96 39.731 6.953-.745-14.154-3.229-26.818-6.953-40.228h16.886c-3.477 13.409-6.208 26.073-6.953 40.228 13.906-.993 26.322-3.477 39.731-6.953v16.886zM818.456 456.574c0-3.061 2.52-4.68 7.02-4.68 6.84 0 19.619 3.779 38.338 4.68v.18c-18.719.9-31.498 4.32-38.338 4.32-4.5 0-7.02-1.441-7.02-4.5zm23.939 37.258c-1.62-1.8-1.08-3.959 1.079-6.119 3.601-3.78 12.961-8.82 23.76-18.72l.18.181c-9.899 10.799-15.119 19.799-18.898 23.579-1.622 1.619-4.142 3.239-6.121 1.079zm.179-74.337c1.8-1.619 3.96-1.079 6.12 1.08 3.779 3.601 8.819 12.96 18.719 23.759l-.18.181c-10.799-9.899-19.799-15.119-23.579-18.899-1.62-1.621-3.239-4.141-1.08-6.121zm37.08 97.916c-3.061 0-4.68-2.52-4.68-7.02 0-6.84 3.779-19.619 4.68-38.338h.18c.9 18.719 4.32 31.498 4.32 38.338 0 4.5-1.441 7.02-4.5 7.02zm0-121.855c3.06 0 4.68 2.52 4.68 7.02 0 6.84-3.78 19.619-4.68 38.339h-.18c-.9-18.72-4.32-31.499-4.32-38.339 0-4.5 1.439-7.02 4.5-7.02zm12.239 49.138l-.181-.18c9.9-10.8 14.939-20.159 18.72-23.759 2.7-2.7 4.86-2.34 6.12-1.08 1.799 1.619 1.08 3.96-1.08 6.119-3.78 3.781-12.779 9-23.579 18.9zm24.659 48.958c-1.801 1.62-3.961 1.08-6.12-1.08-3.78-3.6-8.819-12.959-18.72-23.759l.181-.18c10.8 9.899 19.799 15.119 23.579 18.899 1.619 1.62 3.24 4.14 1.08 6.12zm-21.42-36.899v-.18c18.72-.9 31.499-4.68 38.339-4.68 4.5 0 7.02 1.619 7.02 4.68 0 3.06-2.52 4.5-7.02 4.5-6.84.001-19.619-3.419-38.339-4.32z"/><path fill="#F0432F" d="M491.969 138.511c0-25.101 21.197-46.576 59.964-46.576 49.087 0 101.799 34.305 159.252 45.461v2.23c-57.453 11.156-110.165 45.461-159.252 45.461-38.767 0-59.964-21.475-59.964-46.576z"/><path fill="#92DFC2" d="M199.19 515.155v27.303h-139.546v-22.752c21.235 0 43.38-18.201 43.38-46.718 0-10.617-3.033-19.718-7.28-28.516h-40.347v-12.135h33.977c-9.102-16.381-19.719-33.369-19.719-58.245 0-33.065 19.111-62.188 62.796-62.188 38.83 0 56.728 23.056 63.401 60.976h-10.921c-10.011-16.685-22.448-24.572-47.931-24.572-32.156 0-48.841 12.438-48.841 34.279 0 17.596 10.617 32.764 19.415 49.751h69.166v12.135h-63.705c3.64 8.494 6.066 17.898 6.066 27.909 0 15.168-5.764 30.942-14.864 42.773h94.953z"/><path fill="#F0432F" d="M2284.912 1141.93c0 67.308-40.97 116.639-94.063 116.639-36.371 0-57.692-23.829-70.234-47.658h-1.672l-11.706 40.97h-18.812v-265.469c-2.926-39.297-23.829-51.839-61.455-51.839v-29.265l78.178-8.779v202.76h1.672c12.542-37.626 40.552-64.382 85.284-64.382 57.691 0 92.808 44.314 92.808 107.023zm-15.467 5.436c0-44.732-34.699-66.472-82.776-66.472s-78.595 21.739-78.595 66.053c0 45.151 31.354 65.636 79.013 65.636 47.658 0 82.358-20.485 82.358-65.217z"/><path fill="#fff" d="M2418.858 991.24c-10.558-31.087-25.222-63.054-41.645-87.102l1.173 204.998h-12.024l1.173-204.705c-16.13 24.048-31.087 56.016-41.352 86.809l-39.592-33.727c29.621-18.476 61.295-43.99 85.93-72.145 24.635 28.154 56.309 53.669 85.929 72.145l-39.592 33.727z"/><path fill="#E58AA3" d="M2257.985 762.191c0 54.244-36.782 96.228-97.343 96.228-66.877 0-96.228-50.9-96.228-103.658h20.062c14.118 15.604 47.557 21.178 78.395 21.178 44.584 0 76.165-11.89 76.165-32.324 0-21.549-35.296-27.493-76.537-27.493-32.695 0-59.817 3.715-85.453 8.917l16.719-147.129h147.872v70.592h-135.239l-5.944 54.987 2.229 1.115c13.376-13.004 34.553-27.865 68.734-27.865 50.156-.001 86.568 31.579 86.568 85.452z"/><path fill="#fff" d="M1294.549 944.251c0 44.562-19.441 82.353-55.703 106.819l-1.748-2.621c25.776-18.786 53.737-49.806 53.737-104.198s-27.961-85.412-53.737-104.198l1.748-2.621c36.262 24.465 55.703 62.256 55.703 106.819z"/><path fill="#FFE64B" d="M2467.606 279.435v22.038h-83.432v-22.038c31.169 0 35.576-24.872 35.576-48.17v-9.76c0-34.947-20.778-49.114-51.317-49.114-29.909 0-51.633 13.853-52.578 49.114v9.76c0 23.298 4.723 48.17 35.262 48.17v22.038h-83.431v-22.038c31.168 0 35.576-24.872 35.576-48.17v-14.482c0-35.262-16.057-50.688-46.596-50.688v-22.038l53.521-6.297 5.038 47.854h2.833c10.39-29.594 32.743-47.854 62.022-47.854 40.613 0 52.263 35.262 52.263 83.746v9.76c.001 23.297 4.724 48.169 35.263 48.169zm-134.12-164.659l-9.76-2.833c1.889-11.649 13.224-19.52 26.132-19.52 16.686 0 22.982 12.278 36.521 12.278 8.5 0 13.223-4.723 15.741-10.075l9.445 3.148c-1.574 9.131-10.704 19.52-26.446 19.52-17.001 0-22.353-12.278-36.206-12.278-8.816 0-14.168 4.723-15.427 9.76z"/><path fill="#fff" d="M473.909 537.878c-.413 31.229-20.061 55.841-48.395 55.841-27.714 0-46.328-23.577-46.328-55.428 0-32.264 19.234-53.98 44.88-53.98 18.2 0 30.609 10.962 37.848 23.991l.827-.207c-4.137-16.338-11.582-30.195-22.129-41.363l-24.611 8.894-2.896-7.652 21.095-7.652c-7.031-6.205-14.891-11.375-23.783-15.719l13.649-11.168c10.134 4.964 18.614 12.409 25.438 21.303l17.787-6.412 2.895 7.652-15.925 5.791c13.65 21.716 19.44 49.844 19.647 75.075v1.034zm-8.065 0c0-21.716-15.305-32.057-38.882-32.057-22.543 0-39.709 9.514-39.709 32.264 0 22.129 16.339 32.884 39.502 32.677 23.784-.208 39.089-11.169 39.089-32.884zM1127.757 690.788c-71.697 0-118.896-59.448-118.896-140.153 0-81.785 48.278-139.071 114.572-139.071 46.838 0 72.418 28.463 85.028 51.521h2.883l11.89-44.316h18.015v108.088h-18.015c-18.375-24.14-49.721-32.427-91.515-32.427-56.565 0-104.844 15.132-104.844 59.088 0 38.19 36.389 58.007 112.41 58.007 51.521 0 85.028-9.008 85.028-26.302 0-12.609-18.014-19.095-61.609-19.095v-17.294h120.697v17.294c-37.47 0-41.073 34.948-41.073 67.734v51.521h-18.015l-11.89-38.911h-2.882c-10.446 20.176-36.027 44.316-81.784 44.316z"/><path fill="#FFE64B" d="M1986.898 778.383v32.229h-63.585v-32.229c13.937 0 19.38-6.532 19.38-15.896 0-4.572-1.307-10.452-3.267-15.896h-69.029c-1.959 5.443-3.266 11.323-3.266 15.896 0 9.364 5.443 15.896 19.38 15.896v32.229h-63.585v-32.229c17.203 0 25.478-10.234 31.575-22.429l17.42-40.938h-.218c6.533-16.332 10.453-33.317-13.065-33.317v-32.228h51.827l45.293 107.137c6.098 11.977 14.372 21.775 31.14 21.775zm-112.364-42.245h60.755l-20.905-48.777h-18.944l-20.906 48.777z"/><path fill="#E58AA3" d="M236.705 908.635c0 63.845-43.449 115.275-101.087 115.275-20.691 0-39.312-6.503-54.978-17.734l-14.779 24.533-4.138-2.661 14.778-25.124c-25.715-20.69-42.268-55.272-42.268-94.289 0-63.845 43.745-113.798 101.384-113.798 20.395 0 39.312 6.207 54.682 17.439l15.074-25.124 4.138 2.66-15.074 25.42c26.011 20.396 42.268 54.092 42.268 93.403zm-153.404 83.354l100.2-167.889c-14.188-6.503-30.444-9.754-47.883-9.754-53.204 0-96.95 29.854-96.95 94.289 0 41.085 17.735 68.575 44.633 83.354zm148.971-83.354c0-41.085-17.734-68.278-44.337-82.466l-100.2 168.184c14.188 6.798 30.444 10.05 47.588 10.05 53.499 0 96.949-31.627 96.949-95.768z"/><path fill="#FFE64B" d="M465.943 1203.669c0 35.515-10.147 62.996-35.938 62.996-22.83 0-31.286-21.985-31.286-52.003v-2.96h-2.537c-8.456 25.79-32.978 54.963-80.753 54.963-45.238 0-67.224-26.213-67.224-57.077 0-28.749 19.025-45.238 45.238-54.962 28.327-10.57 66.801-13.529 104.853-13.952-2.537-39.32-26.213-53.694-63.842-53.694-27.481 0-52.849 7.61-62.15 31.709h-16.911c4.65-46.507 34.246-78.216 83.713-78.216 54.117 0 75.256 38.051 75.256 102.737 0 12.684-.845 43.548-.845 51.581 0 19.871 5.073 29.172 16.911 29.172s18.603-9.301 18.603-20.294h16.912zm-67.224-46.929c-35.092 0-73.988 2.114-99.356 12.261-16.488 6.766-25.367 16.489-25.367 30.019 0 14.798 10.57 24.099 38.052 24.099 43.546-.001 86.248-23.254 86.671-66.379zm-93.014-163.197c0-20.716 15.22-35.091 35.937-35.091s34.669 14.797 34.669 35.514-14.375 35.092-34.669 35.092c-20.717-.001-35.937-14.376-35.937-35.515zm14.374.422c0 11.839 9.302 18.604 21.14 18.604 12.684 0 21.14-7.188 21.14-18.604 0-11.838-8.879-19.025-21.14-19.025-11.415 0-21.14 6.765-21.14 19.025z"/></svg>