<?xml version="1.0" encoding="utf-8"?>
<!-- Generator: Adobe Illustrator 19.2.1, SVG Export Plug-In . SVG Version: 6.00 Build 0)  -->
<svg version="1.1" id="Layer_1" xmlns="http://www.w3.org/2000/svg" xmlns:xlink="http://www.w3.org/1999/xlink" x="0px" y="0px"
	 viewBox="0 0 253.333 244.758" enable-background="new 0 0 253.333 244.758" xml:space="preserve">
<g>
	<path d="M17.593,122.525c0-4.968,4.091-7.599,11.397-7.599c11.105,0,31.856,6.137,62.25,7.599v0.292
		c-30.394,1.461-51.144,7.014-62.25,7.014C21.684,129.831,17.593,127.493,17.593,122.525z M56.462,183.021
		c-2.631-2.922-1.753-6.429,1.753-9.936c5.845-6.138,21.043-14.321,38.577-30.395l0.293,0.292
		c-16.074,17.535-24.55,32.148-30.687,38.285C63.768,183.898,59.677,186.529,56.462,183.021z M56.755,62.321
		c2.922-2.631,6.429-1.753,9.937,1.753c6.137,5.845,14.32,21.043,30.394,38.577l-0.293,0.293
		C79.258,86.87,64.645,78.394,58.508,72.257C55.877,69.627,53.247,65.536,56.755,62.321z M116.958,221.307
		c-4.968,0-7.599-4.092-7.599-11.398c0-11.105,6.137-31.855,7.599-62.25h0.293c1.461,30.395,7.013,51.144,7.013,62.25
		C124.264,217.214,121.927,221.307,116.958,221.307z M116.958,23.451c4.968,0,7.599,4.091,7.599,11.398
		c0,11.105-6.137,31.856-7.599,62.25h-0.292c-1.462-30.394-7.014-51.144-7.014-62.25C109.652,27.542,111.99,23.451,116.958,23.451z
		 M136.831,103.236l-0.292-0.292c16.074-17.535,24.257-32.732,30.394-38.578c4.384-4.384,7.89-3.799,9.937-1.753
		c2.922,2.63,1.753,6.429-1.753,9.937C168.98,78.686,154.367,87.162,136.831,103.236z M176.87,182.729
		c-2.922,2.631-6.43,1.753-9.937-1.753c-6.137-5.845-14.32-21.043-30.394-38.578l0.292-0.292
		c17.535,16.074,32.149,24.549,38.286,30.687C177.748,175.423,180.377,179.514,176.87,182.729z M142.092,122.817v-0.292
		c30.394-1.462,51.144-7.599,62.25-7.599c7.306,0,11.398,2.631,11.398,7.599s-4.092,7.306-11.398,7.306
		C193.237,129.831,172.487,124.278,142.092,122.817z"/>
</g>
</svg>
