<?xml version="1.0" encoding="utf-8"?>
<!-- Generator: Adobe Illustrator 19.2.1, SVG Export Plug-In . SVG Version: 6.00 Build 0)  -->
<svg version="1.1" id="Layer_1" xmlns="http://www.w3.org/2000/svg" xmlns:xlink="http://www.w3.org/1999/xlink" x="0px" y="0px"
	 viewBox="0 0 97.901 79.545" enable-background="new 0 0 97.901 79.545" xml:space="preserve">
<g>
	<path d="M22.081,46.724h2.464c0,2.353,3.752,3.528,9.016,3.528c5.712,0,7.952-1.4,7.952-4.032c0-3.528-4.2-4.088-8.344-4.647
		c-5.937-0.784-10.305-1.177-10.305-7c0-5.488,3.864-8.681,10.248-8.681c9.24,0,9.464,6.72,9.464,9.688h-2.464
		c0-2.576-2.912-4.088-7.615-4.088c-3.137,0-7.28,0.672-7.28,3.863c0,3.248,4.312,3.473,8.68,4.032
		c5.04,0.616,9.968,1.512,9.968,8.064c0,3.976-1.848,8.512-10.136,8.512C25.665,55.964,22.081,51.708,22.081,46.724z"/>
	<path d="M72.2,45.66h2.24c-1.064,5.319-4.648,10.191-11.648,10.191c-8.008,0-13.328-6.384-13.328-15.063
		c0-8.681,5.32-15.064,13.328-15.064c7,0,10.584,4.872,11.648,10.192H72.2c-0.728-2.632-5.096-4.032-9.576-4.032
		c-6.439,0-10.92,2.912-10.92,8.904c0,5.991,4.48,8.903,10.92,8.903C67.104,49.691,71.472,48.292,72.2,45.66z"/>
</g>
</svg>
