<?xml version="1.0" encoding="utf-8"?>
<!-- Generator: Adobe Illustrator 19.2.1, SVG Export Plug-In . SVG Version: 6.00 Build 0)  -->
<svg version="1.1" id="Layer_1" xmlns="http://www.w3.org/2000/svg" xmlns:xlink="http://www.w3.org/1999/xlink" x="0px" y="0px"
	 viewBox="0 0 332.333 79.545" enable-background="new 0 0 332.333 79.545" xml:space="preserve">
<g>
	<path d="M21.784,41.213c0-8.4,5.712-14.896,14-14.896c8.288,0,14,6.496,14,14.896c0,8.399-5.712,15.063-14,15.063
		C27.496,56.276,21.784,49.612,21.784,41.213z M35.784,50.173c6.552,0,11.368-3.248,11.368-8.96s-4.816-8.904-11.368-8.904
		c-6.552,0-11.368,3.192-11.368,8.904S29.232,50.173,35.784,50.173z"/>
	<path d="M64.792,39.925v3.023c0,4.145,0.84,8.568,6.272,8.568v3.92h-15.12v-3.92c5.544,0,6.328-4.424,6.328-8.568v-3.023
		c0-4.145-0.784-8.568-6.328-8.568v-3.92h15.12v3.92C65.631,31.356,64.792,35.78,64.792,39.925z"/>
	<path d="M100.575,44.908v10.528H76.664v-5.04l8.68-4.704c4.816-2.632,10.08-4.704,10.08-8.456c0-2.52-2.464-4.479-7.056-4.479
		c-3.864,0-7.616,1.399-8.736,5.319h-2.8c1.008-6.048,5.096-11.76,12.152-11.76c5.88,0,9.912,3.92,9.912,9.072
		c0,6.16-5.712,9.464-11.648,12.488l-4.928,2.52h6.888c4.144,0,8.568-0.448,8.568-5.488H100.575z"/>
	<path d="M131.655,57.173c0,5.991-3.976,12.487-12.432,12.487c-6.552,0-10.36-3.92-12.488-8.512l2.408-1.456
		c2.352,2.632,6.048,3.416,9.744,3.416c6.776,0,9.968-2.688,9.968-6.607c0-4.704-4.48-6.721-10.584-6.721
		c-1.4,0-2.408,0-4.256,0.225v-5.376c6.16,0,13.16-1.624,13.16-6.832c0-3.696-3.528-5.04-7.504-5.04
		c-4.256,0-8.064,1.567-9.24,5.376h-2.8c0.728-5.32,4.76-11.872,12.488-11.872c6.384,0,10.472,4.536,10.472,10.191
		c0,5.152-3.36,8.624-7.728,10.36C128.407,47.932,131.655,51.74,131.655,57.173z"/>
	<path d="M166.374,56.444h-8.232c0.168,3.752,1.176,7.336,6.552,7.336v5.04h-15.96v-5.04c5.152,0,6.328-3.191,6.552-6.664v-0.672
		h-18.312v-5.04l18.592-25.144h2.52v25.144h8.288V56.444z M155.286,51.404V34.997h-2.52L140.39,51.404H155.286z"/>
	<path d="M196.053,54.932c0,6.664-3.752,14.784-12.712,14.784c-6.888,0-11.424-4.704-12.768-8.624l2.464-1.456
		c2.296,2.576,6.16,3.472,9.744,3.472c7.504,0,10.64-3.92,10.64-7.952c0-5.096-4.984-7.952-11.76-7.952
		c-2.968,0-6.16,0.561-8.456,1.288l2.52-21.056h19.712v5.656h-17.472l-1.4,12.208l0.28,0.056c1.512-1.568,4.2-3.136,7.896-3.136
		C191.573,42.22,196.053,47.596,196.053,54.932z"/>
	<path d="M205.461,36.06c1.456-3.528,5.264-7.336,10.64-7.336c6.216,0,11.816,5.152,11.816,13.384c0,7.168-4.2,14.168-12.432,14.168
		c-8.288,0-12.992-7.168-12.992-19.04c0-11.479,4.368-24.359,14.84-24.359c5.712,0,9.24,3.808,10.136,7l-2.296,1.399
		c-1.848-1.231-4.368-1.96-7.28-1.96c-8.848,0-12.544,6.552-12.768,16.688L205.461,36.06z M225.509,41.997
		c0-4.593-3.976-7.841-9.912-7.841s-9.856,3.248-9.856,7.841c0,4.535,3.864,7.783,9.856,7.783
		C221.589,49.78,225.509,46.532,225.509,41.997z"/>
	<path d="M244.381,58.012c-0.504,1.063-0.952,2.072-0.952,3.023c0,1.792,1.4,2.912,3.584,2.912v4.984h-9.8v-4.984l17.92-31.416
		h-11.088c-4.144,0-8.568,0.561-8.568,6.608h-2.8V27.492h25.984v5.04L244.381,58.012z"/>
	<path d="M287.557,43.173c0,7.056-5.265,13.104-12.88,13.104c-7.616,0-12.937-5.992-12.937-13.216c0-4.424,2.016-7.672,5.32-9.52
		c-2.464-2.017-3.92-5.208-3.92-9.017c0-6.832,4.76-11.704,11.536-11.704c6.775,0,11.535,4.816,11.535,11.872
		c0,4.032-1.567,6.944-4.144,8.681C285.484,35.333,287.557,38.804,287.557,43.173z M284.98,43.116c0-4.424-4.256-7-10.304-7
		c-6.049,0-10.304,2.576-10.304,7c0,4.425,4.255,6.664,10.304,6.664C280.725,49.78,284.98,47.541,284.98,43.116z M274.677,31.413
		c5.208,0,8.848-2.297,8.848-6.104s-3.64-5.992-8.848-5.992c-5.209,0-8.848,2.185-8.848,5.992S269.468,31.413,274.677,31.413z"/>
	<path d="M315.052,46.589c-1.456,3.527-5.264,7.336-10.64,7.336c-6.216,0-11.816-5.152-11.816-13.384
		c0-7.168,4.2-14.168,12.433-14.168c8.287,0,12.991,7.168,12.991,19.039c0,11.48-4.368,24.36-14.84,24.36
		c-5.712,0-9.24-3.808-10.136-7l2.296-1.4c1.848,1.232,4.368,1.96,7.28,1.96c8.848,0,12.544-6.552,12.768-16.688L315.052,46.589z
		 M295.004,40.652c0,4.592,3.976,7.84,9.912,7.84c5.936,0,9.855-3.248,9.855-7.84c0-4.536-3.863-7.784-9.855-7.784
		S295.004,36.116,295.004,40.652z"/>
</g>
</svg>
