<?xml version="1.0" encoding="utf-8"?>
<!-- Generator: Adobe Illustrator 19.2.1, SVG Export Plug-In . SVG Version: 6.00 Build 0)  -->
<svg version="1.1" id="Layer_1" xmlns="http://www.w3.org/2000/svg" xmlns:xlink="http://www.w3.org/1999/xlink" x="0px" y="0px"
	 viewBox="0 0 230.333 79.545" enable-background="new 0 0 230.333 79.545" xml:space="preserve">
<g>
	<path d="M48.508,31.955c-2.016-5.937-4.815-12.04-7.951-16.632l0.224,39.144h-2.296l0.224-39.088
		c-3.08,4.592-5.936,10.696-7.896,16.576l-7.561-6.44c5.656-3.527,11.704-8.399,16.408-13.775
		c4.704,5.376,10.752,10.248,16.408,13.775L48.508,31.955z"/>
	<path d="M109.996,36.883c-5.376,4.704-10.248,10.752-13.776,16.408l-6.439-7.561c5.88-1.96,11.983-4.815,16.575-7.896
		l-39.088,0.224v-2.296l39.145,0.225c-4.593-3.137-10.696-5.937-16.632-7.952l6.439-7.561
		C99.748,26.131,104.62,32.179,109.996,36.883z"/>
	<path d="M154.012,40.691c-5.656,3.528-11.704,8.4-16.408,13.776c-4.704-5.376-10.752-10.248-16.408-13.776l7.561-6.439
		c1.96,5.88,4.815,11.983,7.896,16.576l-0.224-39.088h2.296L138.5,50.883c3.136-4.592,5.936-10.696,7.951-16.632L154.012,40.691z"/>
	<path d="M207.94,38.059l-39.088-0.224c4.592,3.08,10.695,5.936,16.575,7.896l-6.439,7.561c-3.528-5.656-8.4-11.704-13.776-16.408
		c5.376-4.704,10.248-10.752,13.776-16.408l6.439,7.561c-5.936,2.016-12.039,4.815-16.632,7.952l39.145-0.225V38.059z"/>
</g>
</svg>
