<?xml version="1.0" encoding="utf-8"?>
<!-- Generator: Adobe Illustrator 19.2.1, SVG Export Plug-In . SVG Version: 6.00 Build 0)  -->
<svg version="1.1" id="Layer_1" xmlns="http://www.w3.org/2000/svg" xmlns:xlink="http://www.w3.org/1999/xlink" x="0px" y="0px"
	 viewBox="0 0 245.369 245.369" enable-background="new 0 0 245.369 245.369" xml:space="preserve">
<g>
	<path d="M58.39,58.52l0.197-0.196C47.759,46.51,42.246,36.273,38.112,32.335c-2.363-2.362-4.726-2.953-6.694-1.181
		c-2.362,2.165-0.591,4.922,1.181,6.694C36.733,41.982,46.577,47.692,58.39,58.52z"/>
	<path d="M76.975,54.456c0.984-20,5.119-34.391,5.119-41.872c0-4.923-1.772-7.647-5.119-7.647s-4.922,2.708-4.922,7.631
		c0,7.481,3.741,21.888,4.725,41.888H76.975z"/>
	<path d="M121.156,38.045c2.362-2.362,3.15-4.922,1.181-6.694c-1.378-1.378-3.741-1.771-6.694,1.182
		c-4.135,3.938-9.647,14.176-20.476,25.988l0.197,0.197C107.177,47.889,117.021,42.179,121.156,38.045z"/>
	<path d="M37.914,121.286c4.135-4.135,9.844-13.979,20.673-25.792l-0.197-0.197c-11.813,10.829-22.051,16.342-25.989,20.477
		c-2.362,2.362-2.953,4.725-1.181,6.693C33.386,124.83,36.142,123.057,37.914,121.286z"/>
	<path d="M54.369,76.712c-20-0.984-34.314-5.119-41.796-5.119c-4.922,0-7.608,1.772-7.608,5.119c0,3.348,2.651,4.923,7.573,4.923
		c7.482,0,21.831-3.741,41.831-4.726V76.712z"/>
	<path d="M109.043,145.221c-15.479-5.76-31.674-9.72-31.674-44.998v-1.767h-2v1.767c0,35.278-16.284,39.238-31.763,44.998
		c-6.84,2.521-11.382,4.32-11.382,9.18c0,3.96,3.039,6.479,8.259,6.479c13.14,0,29.148-15.659,34.548-43.018
		c0,76.856-4.865,97.376-4.865,111.055c0,7.021,1.258,11.16,6.297,11.16s6.298-4.343,6.298-11.363
		c0-14.219-5.401-34.258-5.401-111.258h0.18c5.4,28,21.419,43.221,34.559,43.221c5.22,0,8.282-2.418,8.282-6.378
		C120.381,149.44,115.883,147.741,109.043,145.221z"/>
	<path d="M229.362,68.239c-14.219,0-33.993,5.4-110.993,5.4v-0.181c27-5.399,42.956-21.419,42.956-34.559
		c0-5.22-2.55-8.28-6.51-8.28c-4.859,0-6.675,4.408-9.195,11.248c-5.76,15.48-9.735,31.588-45.013,31.588h-1.237v2h1.237
		c35.278,0,39.238,16.372,44.998,31.85c2.521,6.84,4.32,11.426,9.18,11.426c3.96,0,6.479-3.018,6.479-8.236
		c0-13.141-15.659-29.138-43.018-34.537c76.856,0,97.376,4.87,111.055,4.87c7.021,0,11.191-1.254,11.191-6.294
		S236.383,68.239,229.362,68.239z"/>
	<path d="M76.309,87.882c7.043,0,11.959-4.916,11.959-12.092c0-7.042-4.916-11.958-11.959-11.958
		c-6.909,0-11.958,4.916-11.958,11.958C64.351,82.966,69.4,87.882,76.309,87.882z"/>
</g>
</svg>
