<?xml version="1.0" encoding="utf-8"?>
<!-- Generator: Adobe Illustrator 19.2.1, SVG Export Plug-In . SVG Version: 6.00 Build 0)  -->
<svg version="1.1" id="Layer_1" xmlns="http://www.w3.org/2000/svg" xmlns:xlink="http://www.w3.org/1999/xlink" x="0px" y="0px"
	 viewBox="0 0 1984.897 1011.463" enable-background="new 0 0 1984.897 1011.463" xml:space="preserve">
<g>
	<g>
		<path fill="#FFFFFF" d="M517.489,538.234c0,66.231-54.369,97.864-133.945,97.864H233.287v-44.483
			c53.38,0,58.323-39.047,58.323-75.622V390.451c0-36.575-4.943-75.622-58.323-75.622v-44.484h138.888
			c82.542,0,125.543,34.598,125.543,94.404c0,40.036-18.782,70.186-53.875,78.094v2.472
			C479.43,450.75,517.489,482.877,517.489,538.234z M316.323,433.946h45.966c79.577,0,109.232-19.276,109.232-54.863
			c0-36.575-31.139-59.312-93.91-59.312h-61.288V433.946z M490.798,524.396c0-46.46-44.978-65.737-117.141-65.737h-57.334v128.014
			h72.162C459.165,586.673,490.798,562.948,490.798,524.396z"/>
		<path fill="#FFFFFF" d="M854.572,601.5v34.599l-76.611,7.414v-75.128h-3.46c-16.311,46.461-51.403,75.128-97.369,75.128
			c-63.761,0-82.048-55.357-82.048-131.474v-26.69c-3.46-46.46-28.173-61.289-72.657-61.289v-34.598l92.428-10.38v132.957
			c0,54.862,32.621,77.104,80.564,77.104c46.955,0,81.06-21.747,82.542-77.104v-25.208c-3.954-47.449-33.609-62.771-87.484-62.771
			v-34.598l107.255-10.38v156.681C797.731,569.867,804.651,601.5,854.572,601.5z"/>
		<path fill="#FFFFFF" d="M1102.69,342.507v46.461h101.817v44.483H1102.69l0.494,92.426c0,36.575,8.402,75.622,64.748,75.622v34.599
			h-140.865V601.5c48.933,0,55.852-39.047,55.852-75.622v-92.426H921.789l0.494,92.426c0,36.575,8.402,75.622,64.748,75.622v34.599
			H846.167V601.5c48.932,0,55.852-39.047,55.852-75.622v-92.426h-59.806v-44.483h59.806v-45.473
			c0-63.266,18.287-117.635,75.128-117.635c46.955,0,70.186,37.564,70.186,89.462h-20.266c0-20.265-21.747-35.093-49.92-35.093
			c-39.541,0-55.357,29.161-55.357,72.162v36.576h161.129v-55.357c0-63.266,18.288-117.635,75.129-117.635
			c46.954,0,70.185,37.563,70.185,89.461h-20.265c0-20.265-21.747-35.093-49.92-35.093
			C1118.506,270.345,1102.69,299.506,1102.69,342.507z"/>
		<path fill="#FFFFFF" d="M1219.333,510.556c0-77.104,47.449-131.473,116.151-131.473s116.151,54.369,116.151,131.473
			c0,77.105-47.449,132.957-116.151,132.957S1219.333,587.661,1219.333,510.556z M1335.485,589.144
			c56.84,0,96.381-25.701,96.381-78.588c0-52.885-39.541-77.104-96.381-77.104s-96.381,24.219-96.381,77.104
			C1239.104,563.442,1278.645,589.144,1335.485,589.144z"/>
		<path fill="#FFFFFF" d="M1807.505,601.5v34.599h-130.979V601.5c48.933,0,55.852-39.047,55.852-75.622v-15.322
			c0-54.863-32.621-77.104-80.564-77.104c-46.955,0-81.059,21.747-82.542,77.104v15.322c0,36.575,7.414,75.622,55.357,75.622v34.599
			h-130.979V601.5c48.932,0,55.852-39.047,55.852-75.622v-22.736c0-55.357-25.207-79.576-73.15-79.576v-34.598l84.024-9.886
			l7.908,75.128h4.448c16.311-46.461,51.403-75.128,97.37-75.128c63.76,0,82.047,55.357,82.047,131.473v15.322
			C1752.148,562.453,1759.562,601.5,1807.505,601.5z"/>
	</g>
	<g>
		<g>
			<path fill="#F0432F" d="M1670.949,922.099c-18.933,31.287-61.9,41.854-109.175,13.243
				c-62.571-37.869-101.007-119.547-164.894-177.21l1.683-2.78c80.717,29.853,170.905,26.016,233.476,63.885
				C1679.315,847.848,1689.882,890.814,1670.949,922.099z"/>
		</g>
	</g>
	<path fill="#FFFFFF" d="M425.461,914.612c-40.625,23.44-76.566,12.501-92.193-14.062c-15.627-26.566-6.249-64.065,34.376-87.505
		c53.129-31.253,129.695-26.563,200.012-50.003v1.562l1.564,1.564C512.966,814.607,478.59,883.362,425.461,914.612z"/>
	<path fill="#FFE64B" d="M431.061,52.182c20.007-23.082,57.007-27.281,92.394,2.874c46.167,40.017,67.31,113.219,113.432,170.552
		l-1.806,1.243l-0.281,1.522c-64.326-35.492-139.805-44.694-185.969-84.713C413.445,113.508,411.051,75.266,431.061,52.182z"/>
	<path fill="#92DFC2" d="M1041.884,933.064c-4.336,33.781-25.937,50.467-48.459,47.577c-22.518-2.89-39.205-24.491-34.869-58.272
		c5.781-45.042,42.108-87.306,58.894-137.805l2.251,0.289C1023.187,837.953,1047.666,888.022,1041.884,933.064z"/>
	<g>
		<path fill="#E58AA3" d="M3.613,551.195c0-3.56,2.933-5.444,8.168-5.444c7.958,0,22.827,4.397,44.607,5.444v0.21
			c-21.78,1.047-36.649,5.026-44.607,5.026C6.545,556.432,3.613,554.756,3.613,551.195z M31.466,594.547
			c-1.885-2.094-1.256-4.607,1.257-7.12c4.188-4.398,15.079-10.262,27.645-21.78l0.209,0.209
			c-11.518,12.565-17.592,23.037-21.989,27.436C36.702,595.176,33.77,597.061,31.466,594.547z M31.676,508.054
			c2.094-1.885,4.607-1.257,7.12,1.257c4.398,4.188,10.263,15.078,21.78,27.645l-0.209,0.209
			c-12.565-11.519-23.037-17.592-27.435-21.989C31.048,513.289,29.162,510.357,31.676,508.054z M74.818,621.982
			c-3.56,0-5.445-2.933-5.445-8.168c0-7.958,4.398-22.827,5.445-44.608h0.21c1.047,21.781,5.026,36.65,5.026,44.608
			C80.054,619.05,78.378,621.982,74.818,621.982z M74.818,480.201c3.561,0,5.445,2.932,5.445,8.167
			c0,7.958-4.397,22.827-5.445,44.607h-0.209c-1.047-21.78-5.026-36.649-5.026-44.607C69.582,483.132,71.258,480.201,74.818,480.201
			z M89.059,537.374l-0.209-0.21c11.519-12.565,17.382-23.456,21.78-27.645c3.142-3.142,5.654-2.723,7.12-1.256
			c2.095,1.885,1.257,4.607-1.257,7.12C112.096,519.781,101.624,525.855,89.059,537.374z M117.75,594.338
			c-2.094,1.885-4.607,1.257-7.12-1.257c-4.398-4.188-10.262-15.079-21.78-27.645l0.209-0.209
			c12.565,11.519,23.037,17.592,27.435,21.989C118.379,589.102,120.264,592.034,117.75,594.338z M92.828,551.405v-0.21
			c21.78-1.047,36.65-5.444,44.608-5.444c5.235,0,8.167,1.885,8.167,5.444c0,3.561-2.932,5.236-8.167,5.236
			C129.479,556.432,114.609,552.452,92.828,551.405z"/>
	</g>
	<g>
		<path fill="#92DFC2" d="M1757.03,257.807c0-4.309,3.548-6.59,9.884-6.59c9.631,0,27.626,5.322,53.984,6.59v0.253
			c-26.358,1.267-44.354,6.083-53.984,6.083C1760.577,264.143,1757.03,262.115,1757.03,257.807z M1790.738,310.27
			c-2.281-2.534-1.521-5.576,1.521-8.617c5.069-5.323,18.249-12.419,33.455-26.359l0.254,0.253
			c-13.939,15.207-21.29,27.879-26.612,33.202C1797.073,311.031,1793.526,313.312,1790.738,310.27z M1790.991,205.596
			c2.534-2.281,5.575-1.521,8.617,1.521c5.322,5.069,12.419,18.249,26.358,33.455l-0.254,0.254
			c-15.206-13.94-27.879-21.29-33.201-26.612C1790.231,211.932,1787.949,208.384,1790.991,205.596z M1843.201,343.472
			c-4.309,0-6.59-3.549-6.59-9.885c0-9.631,5.322-27.625,6.59-53.984h0.254c1.267,26.359,6.082,44.354,6.082,53.984
			C1849.537,339.923,1847.51,343.472,1843.201,343.472z M1843.201,171.888c4.309,0,6.59,3.548,6.59,9.884
			c0,9.631-5.322,27.626-6.59,53.984h-0.253c-1.268-26.358-6.083-44.354-6.083-53.984
			C1836.865,175.436,1838.893,171.888,1843.201,171.888z M1860.436,241.079l-0.253-0.253c13.939-15.207,21.036-28.386,26.358-33.456
			c3.802-3.802,6.843-3.294,8.617-1.521c2.534,2.281,1.521,5.576-1.521,8.617C1888.316,219.789,1875.643,227.139,1860.436,241.079z
			 M1895.158,310.017c-2.534,2.281-5.576,1.521-8.617-1.521c-5.322-5.069-12.419-18.249-26.358-33.456l0.253-0.253
			c15.207,13.939,27.88,21.29,33.202,26.612C1895.919,303.681,1898.199,307.229,1895.158,310.017z M1864.998,258.06v-0.253
			c26.358-1.268,44.354-6.59,53.984-6.59c6.336,0,9.885,2.281,9.885,6.59s-3.549,6.336-9.885,6.336
			C1909.352,264.143,1891.357,259.327,1864.998,258.06z"/>
	</g>
	<path fill="#E58AA3" d="M1509.17,100.628c22.998-21.563,48.195-19.91,62.49-4.919c14.292,14.993,13.901,40.972-9.097,62.533
		c-29.98,28.591-80.808,37.252-123.236,63.361l-0.239-1.022l-1.26-0.785C1467.224,179.479,1479.19,129.217,1509.17,100.628z"/>
</g>
</svg>
