<svg xmlns="http://www.w3.org/2000/svg" viewBox="0 0 782.717 391.197">
  <title>icons</title>
  <g>
    <path d="M337.291,60.211a93.328,93.328,0,0,0-11.15,6.015L321.354,69l0.05,7.356s5.437-2.815,6.344,1.4l0.561,82.652h0.034c-0.6,14-10.667,16.321-10.667,16.321l0.054,7.623,40.386-19.015L358.061,157c-7.313,3.611-10.118-6.53-10.541-9.88l-0.253-37,20.2,31.253-0.084.031c5.1,6.993-2.732,12.6-2.732,12.6l0.316,7.654,21.944-9.007v0.05c15-5.411,26.63-9.218,26.63-9.218l-0.028-7.075c-6.935.968-9.113-1.335-7.869-6.977l4.082-19.156c9.556-3.007,23.05-7.381,32.9-8.311l5.476,13.436h0c1.6,4,4.265,9.745-2.921,11.738l0.677,7.512s19.054-5.053,36.054-7.891v-0.049a467.855,467.855,0,0,1,66.091-4.88L547.817,95.1l-8.035.055s0.663,18.908-14.169,19.665c-11.464.586-16.549-7.971-16.627-19.455l-0.034.016-0.458-65.512c-0.005-2.317.272-7.813,9.589-8.434l-0.052-7.585-41.308,4.908,0.05,7.893s11.243-2.949,11.309,6.613l0.04-.006,0.5,72.113-0.242.055c0.087,12.778-8.466,13.822-8.466,13.822v0.013c-8,1.465-10.191-2.922-10.191-2.922L440.464,44.379c-3.489-11.129,3.887-10.864,3.887-10.864l-0.9-7.287L409,35.38s0.814,4.685,1.414,7.5c3.52-2.148,7.265,1.025,6.129,5.959-1.117,4.853-2.223,7.5-19.56,82.25-0.6,1.846-1.223,5.3-3.538,7.689a19.584,19.584,0,0,1-5.8,2.5l0.049-.025a8.893,8.893,0,0,1-9.026-3.763l-21.628-32.653c12.794-4.812,27.141-14.843,25.833-37.4C382.027,52.815,367.664,45.6,337.291,60.211Zm85.663-8.342,16.4,42.469c-10.431,1.9-19.4,3.832-27.817,6.768Zm-74.3,48.619a10.383,10.383,0,0,1-1.452.332l-0.263-38.414q0.643-.209,1.331-0.415c7.54-2.257,17.852.742,18.128,12.967C366.74,90.023,358.641,97.453,348.656,100.489Z"/>
    <path d="M36.853,226.64c-8.245-2.049-9.3-4.646-6.752-9.868L38.344,199.9a128.434,128.434,0,0,0,35.189,5.3l3.018,15.1h0c0.534,4.273,2.28,11.792-5.87,11.653l-0.894,7.547s21.69,2.582,40.676,1.638l0.188-7.765s-9.735.342-10.735-5.976v0.017H99.759L83.261,146.3c-1.384-11.337,7.026-9.757,7.026-9.757l0.289-7.281-38.915-2.614s-0.046,4.476,0,7.444a6.49,6.49,0,0,1,5.761,9.438c-2.239,4.478-2.287,3.413-36.912,72.356-1.7,2.719-3.408,5.62-12.546,2.973l-2.247,7.2a279.082,279.082,0,0,0,29.4,8.086Zm26.27-77.025L71.665,196.5A120.149,120.149,0,0,1,42,191.974Z"/>
    <path d="M187.717,125.942l-0.055-7.992-29.719,6.464,0.049,7.082s11.1-.542,11.122,6.623l0.046-.019c0.033,11.59.121,39.911,0.223,54.8,0.111,16.258.788,36.329-17.748,35.262-11.918-.686-12.572-16.7-12.631-25.27-0.089-13.042-.225-49.659-0.26-59.3,0.134-2.478,1.978-10.3,9.618-10.567l-0.05-7.309-44.618,3.435,0.05,7.358s12.192-1.292,12.217,9.657l0.117-.012,1.626,65.883c0.138,20.1,12.392,30.612,30.323,29.283,23.2-1.721,31.2-14.453,31.046-37.237L178.338,134.3l0.212-.088C178.52,131.034,179.726,126.224,187.717,125.942Z"/>
    <path d="M219.168,225.774c25.619-2.38,36.239-25.688,28.992-50.911-5.769-20.08-25.531-22.087-36.826-29.238-14.364-9.094-7.486-31.293,8.716-30.142,13.484,0.958,12.035,17.741,12.035,17.741l9.7-3.018c0-.5-0.019-0.987-0.039-1.468l0.007,0.01-0.182-26.655-7.426,2.672s0.37,4.439-1.663,5.547c-5.522-3.083-12.793-2.955-19.8-.987A32.255,32.255,0,0,0,189.25,138.3c-1.3,20.988,11.388,30.46,32.279,38.125,22.995,8.437,20.747,34.861.217,39.289-21.276,4.589-23.54-15.863-23.54-15.863l-8.772,2.642q0.082,0.727.2,1.431l0.2,29.62,8.524-2.63s-0.767-7.392.27-10.886A28.474,28.474,0,0,0,219.168,225.774Z"/>
    <path d="M565.824,29.019l0.491,71.747-0.065,0c0.105,15.4-12.8,13.845-12.8,13.845l0.055,7.992,42.456,1.246-0.05-7.293c-6.14-.4-7.886-5.236-8.328-9.075l-0.5-73.56,0.027,0c0.089-3.806-1.5-13.227,13.936-13.333l-0.05-7.516-48.244-.856,0.048,7.3S564.957,17.828,565.824,29.019Z"/>
    <path d="M315.176,106.8l-0.171-24.914,0.075-.031L314.99,73.75,249.923,99.64l0.04,0.324-0.147.008,0.2,28.662,8.012-2.811s-2.077-17.758,8.493-24.731l5.463-2.269c0.142-.031.283-0.064,0.428-0.092l0.582,83.345c-1.015,12.73-12.555,18.059-12.555,18.059l0.054,7.9L308.856,187.4l-0.055-7.988c-11.889,6.778-14.469-4.8-14.659-7.6l-0.573-81.021,1.668-.693c14.061-4.582,12.244,20.154,12.244,20.154ZM272.205,98.73l0.2-.084v0.073Z"/>
    <path d="M782.667,55.555l-29.1-11.43-0.043,7.645c9.7,3.311,11.15,11.362,11.109,13.555l0.113,0.059-0.527,54.972L722.375,35.032l-23.714-6.7,0.052,7.633s8.018,0.982,8.623,11.507l-0.093,72.931c0.014,9.862-4.684,12.959-10.43,12.407-6.963-.67-8.969-6.137-9.507-9.239-3.348-19.282-14.992-84.709-14.992-84.709-1.278-9.761,6.368-7.455,6.368-7.455l0.209-7.3L640.15,17.7s-0.178,4.106-.34,7.127c6.187,0.072,7.946,8,5.868,12.681-2.044,4.606-.538,2.3-32.144,73.214-2.26,4.306-3.339,7.553-11.918,6.415l-0.018,7.207c16.083,1.621,28.365,3.243,28.365,3.243l0.077-7.484c-6.605-.68-9.224-3.565-6.9-8.933l7.52-17.348s18.531,1.838,31.461,3.68l2.961,15.032c0.536,4.272,3.08,13.851-6.191,12.2l-0.375,7.628a627,627,0,0,1,69.66,16.8l-0.055-8.067c-9.386-2.145-11.656-13.051-11.671-15.245l-0.009-.006-0.413-57.83,50.045,96.7,5.189,1.894,1.789-98.927c1.2-9.65,9.671-4.79,9.671-4.79ZM632.418,85.989L651.6,42.88l8.45,46.3C646.466,87.286,632.418,85.989,632.418,85.989Z"/>
    <path d="M602.016,238.458c5.689-.329,10.831-3.287,14.87-8.553,4.954-6.459,7.292-14.839,8.381-20.732,1.337-7.237,1.485-14.7.4-19.952-1.672-8.068-5.2-13.853-10.214-16.731a15.437,15.437,0,0,0-12.926-.976,22.778,22.778,0,0,0-10.178,7.542l0.551-3.631a3.013,3.013,0,0,0-5.955-.92c-3.668,23.319-9.656,37.9-14.033,46.033-5.835,10.837-10.688,13.97-12.066,14.264a3.333,3.333,0,0,1-.682.085c-0.171-.354-0.556-1.567-0.427-5.18,0.125-3.514.67-8.339,1.359-14.448q0.15-1.323.307-2.727c1.443-12.884,3.244-24.869,4.244-31.187q0.386-2.3.764-4.7a3.013,3.013,0,0,0-5.946-.975c-0.009.053-.3,1.742-0.751,4.617-3.785,22.507-8.291,38.134-13.412,46.491-2.615,4.268-5.859,8.092-11.828,7.184-1.819-.277-3.759-1.352-4.351-7.231-0.524-5.2.232-12.389,1.033-20q0.106-1.008.212-2.027a185,185,0,0,1,4.317-26.139,3.013,3.013,0,0,0-5.815-1.578c-0.111.408-2.735,10.189-4.495,27.094q-0.106,1.015-.212,2.02c-0.834,7.93-1.621,15.42-1.035,21.236a18.127,18.127,0,0,0,2.446,8.093,9.718,9.718,0,0,0,6.994,4.491,14.993,14.993,0,0,0,9.027-1.187c3.291-1.583,6.184-4.463,8.845-8.806A49.606,49.606,0,0,0,554,225.141c-0.669,7.8-.373,12,2.16,14.3A6.4,6.4,0,0,0,562.1,240.7c4.81-1.023,10.835-7.491,16.117-17.3q0.97-1.8,1.867-3.665l-7.57,49.9c-16.12,2.629-38.514,7.9-38.749,7.954a3.013,3.013,0,1,0,1.384,5.865c0.224-.053,20.711-4.874,36.415-7.551l-3.368,22.2a3.013,3.013,0,1,0,5.957.9l3.888-25.63a2.994,2.994,0,0,0,.208-1.371l6.661-43.913a17.931,17.931,0,0,0,3.5,5.6c3,3.192,7.087,4.8,12.151,4.8Q601.275,238.5,602.016,238.458Zm-9.22-8.892c-5.8-6.161-4.405-21.426-3.108-32.567a3.012,3.012,0,0,0,.444-0.91,46.145,46.145,0,0,1,3.7-8.5c2.154-3.826,5.743-8.729,10.609-10.362a9.464,9.464,0,0,1,8.008.489c3.423,1.966,6.021,6.487,7.315,12.729,0.925,4.465.764,11.222-.421,17.635-1.369,7.411-3.939,13.86-7.237,18.159-2.983,3.889-6.494,5.976-10.437,6.2S594.833,231.73,592.8,229.567Z"/>
    <path d="M642.068,173.675a3.013,3.013,0,0,0-3.555,2.348l-18.541,90.664a3.013,3.013,0,1,0,5.9,1.207l8.248-40.333c0.85,5.332,2.591,9.353,5.269,12.2,3,3.192,7.087,4.8,12.151,4.8q0.715,0,1.456-.043c5.689-.329,10.831-3.287,14.87-8.553,4.954-6.459,7.292-14.839,8.381-20.732,1.337-7.237,1.485-14.7.4-19.952-1.672-8.068-5.2-13.853-10.214-16.731a15.437,15.437,0,0,0-12.926-.976c-4.535,1.522-8.132,4.817-10.888,8.445l1.8-8.792A3.013,3.013,0,0,0,642.068,173.675Zm2.747,19.977c2.154-3.826,5.743-8.729,10.609-10.362a9.464,9.464,0,0,1,8.008.489c3.423,1.966,6.021,6.487,7.315,12.729,0.925,4.465.764,11.222-.421,17.634-1.37,7.411-3.94,13.861-7.237,18.159-2.983,3.889-6.494,5.976-10.437,6.2s-6.835-.713-8.871-2.876c-5.8-6.162-4.405-21.426-3.108-32.567a3.01,3.01,0,0,0,.444-0.91A46.133,46.133,0,0,1,644.815,193.652Z"/>
    <path d="M545.255,159.851a3.013,3.013,0,0,0,3.958,1.578c0.605-.26,1.182-0.5,1.74-0.726,0.872-.358,1.771-0.728,2.75-1.175a4.255,4.255,0,0,0,1.726-.406c1.062-.5,2.066-0.965,3.3-1.428,7.13-2.19,12.854-3.83,19.289-5.23,20.08-3.909,41.013-1.194,63.992,8.3l0.025,0.01c3.839,1.546,7.582,3.151,11.2,4.7,14.306,6.134,27.872,11.949,44.312,12.866-0.737,3.3-1.284,6.638-1.823,9.929q-0.185,1.132-.37,2.249c-0.287,1.718-.571,3.462-0.845,5.149-0.537,3.3-1.093,6.718-1.692,10.056-0.646,3.6-1.435,7.252-2.2,10.788-0.367,1.7-.746,3.454-1.106,5.191-0.531,2.557-1.009,5.165-1.472,7.688a144.294,144.294,0,0,1-3.862,17.115c-1.7,5.4-3.833,8-7.142,8.7a3.8,3.8,0,0,1-4.3-1.521,7.233,7.233,0,0,1-1.019-2.911,3.013,3.013,0,1,0-5.982.727,13.2,13.2,0,0,0,1.894,5.384,9.393,9.393,0,0,0,8.184,4.481,11.926,11.926,0,0,0,2.468-.265c7.32-1.547,10.151-8.038,11.644-12.786a148.811,148.811,0,0,0,4.041-17.835c0.457-2.489.929-5.063,1.445-7.551,0.356-1.713.732-3.458,1.1-5.144,0.774-3.586,1.574-7.294,2.239-10.994,0.608-3.387,1.168-6.826,1.709-10.153,0.273-1.681.556-3.419,0.841-5.124q0.188-1.126.374-2.269c1.2-7.32,2.436-14.889,5.772-21.187,3.061-5.78,6.8-6.026,8.269-5.865a4.875,4.875,0,0,1,3.917,2.658,3.345,3.345,0,0,1-.963,3.879,10.477,10.477,0,0,1-4.047,2.178,3.013,3.013,0,1,0,1.839,5.738,16.124,16.124,0,0,0,6.362-3.55,9.372,9.372,0,0,0,2.3-10.724,10.852,10.852,0,0,0-8.747-6.169c-5.6-.62-10.932,2.757-14.256,9.033a44.1,44.1,0,0,0-2.973,7.15,81.382,81.382,0,0,1-21.3-3.809,226.15,226.15,0,0,1-22.233-8.64c-3.646-1.563-7.416-3.18-11.313-4.749-24.114-9.961-46.182-12.786-67.466-8.635l-0.063.013c-6.679,1.452-12.564,3.139-19.894,5.391q-0.083.026-.164,0.056c-1.353.5-2.45,1-3.492,1.488a4.252,4.252,0,0,0-1.722.406c-0.986.46-1.884,0.829-2.835,1.22-0.58.238-1.179,0.485-1.829,0.764A3.013,3.013,0,0,0,545.255,159.851Z"/>
    <path d="M719.492,300.462a3.01,3.01,0,0,0,3.82-1.888l23.464-69.326a154.587,154.587,0,0,0,7.58-22.419,3.013,3.013,0,0,0-5.768-1.732l-7.461,22.045a68.7,68.7,0,0,1-8.5,14.726c-5.58,7.106-11.6,10.386-17.9,9.748a2.859,2.859,0,0,1-2.367-1.2c-1.323-1.965-1.283-6.552.118-13.633,1.461-7.382,4.276-17,7.536-28.132,1.217-4.155,2.475-8.452,3.771-13A3.013,3.013,0,1,0,717.992,194c-1.291,4.527-2.546,8.813-3.76,12.958-3.3,11.273-6.152,21.009-7.664,28.656-1.821,9.2-1.583,14.636.795,18.168a8.845,8.845,0,0,0,6.758,3.825,21.52,21.52,0,0,0,12.341-2.481,30.336,30.336,0,0,0,6.917-5.1l-6.987,20.643a183.535,183.535,0,0,0-27.686-4.732,3.013,3.013,0,1,0-.536,6,180.478,180.478,0,0,1,26.283,4.458l-6.85,20.238A3.013,3.013,0,0,0,719.492,300.462Z"/>
    <path d="M722.883,310.726a8.462,8.462,0,0,0-6.317,2.681h0c-4.882,0-9.275,2.271-13.066,7a45.882,45.882,0,0,0-6.778,12.621c-0.525,1.4-1,2.8-1.42,4.245a2.935,2.935,0,0,0-.661.907,99.689,99.689,0,0,1-5.06,9.6,68.916,68.916,0,0,1-13.939,16.93,46.367,46.367,0,0,1-15.138,8.828,40.268,40.268,0,0,1-15.234,2.1,41.1,41.1,0,0,1-14.295-3.5,43.474,43.474,0,0,1-12.15-8.061,42,42,0,0,1-8.715-11.523,37.986,37.986,0,0,1-4.061-13.85c-0.548-5.938.575-11.868,2.429-18.945a84.769,84.769,0,0,1,8.9-22.1A53.167,53.167,0,0,1,629.9,283.019a46.219,46.219,0,0,1,15.653-8.1,59.534,59.534,0,0,1,18.558-2.247c8.32,0.225,14.317,1.695,18.873,4.625a18.42,18.42,0,0,1,8.233,11.518,21.274,21.274,0,0,1-2.286,14.395,31.866,31.866,0,0,1-13.255,12.806,58.329,58.329,0,0,1-28.819,6.59,60.064,60.064,0,0,1-25.508-6.453,3.013,3.013,0,0,0-2.726,5.374,66.127,66.127,0,0,0,28.083,7.1,64.467,64.467,0,0,0,31.839-7.315,37.852,37.852,0,0,0,15.711-15.284,27.293,27.293,0,0,0,2.849-18.5,24.4,24.4,0,0,0-10.861-15.3c-3.474-2.235-9.532-5.245-21.97-5.581a65.567,65.567,0,0,0-20.436,2.494,52.215,52.215,0,0,0-17.682,9.151,59.153,59.153,0,0,0-13.961,16.28,82.328,82.328,0,0,0-6.646,14.241c-9.709-10.517-10.063-26.745-6.874-39.123a3.013,3.013,0,0,0-5.835-1.5,58.47,58.47,0,0,0-1.058,25.545,38.154,38.154,0,0,0,11.694,21.486q-0.429,1.48-.831,3.01c-1.625,6.2-3.3,13.451-2.6,21.026a43.984,43.984,0,0,0,4.7,16.039,48,48,0,0,0,9.959,13.175,49.483,49.483,0,0,0,13.831,9.174,47.1,47.1,0,0,0,16.385,4q1.286,0.075,2.581.075a46.53,46.53,0,0,0,14.953-2.485,52.363,52.363,0,0,0,17.11-9.957A72.527,72.527,0,0,0,692.774,354a37.883,37.883,0,0,0,2.323,14.576,21.747,21.747,0,0,0,11.292,12.05,20.008,20.008,0,0,0,8.167,1.777h0.191a16.8,16.8,0,0,0,8.173-1.968c4.271-2.332,7.847-6.327,10.933-12.281a64.114,64.114,0,0,0,5.715-17.244c1.83-9.26,3.474-22.665-3.354-32.733C732.825,313.184,727.841,310.44,722.883,310.726Zm10.773,39.036a58.369,58.369,0,0,1-5.153,15.656c-2.516,4.854-5.287,8.059-8.47,9.8a12.662,12.662,0,0,1-11.166-.013,15.883,15.883,0,0,1-8.161-8.826c-1.581-4.024-2.173-8.862-1.812-14.79a56.974,56.974,0,0,1,3.467-16.507,40.464,40.464,0,0,1,5.837-11.027,15.03,15.03,0,0,1,3.957-3.61c-0.128.441-.232,0.858-0.316,1.242a20,20,0,0,0,3.458,16.026c4.02,5.661,10.569,9.477,18.587,10.876Q733.77,349.184,733.656,349.762Zm1.134-7.136c-6.38-1.14-11.513-4.086-14.581-8.406a14.053,14.053,0,0,1-2.487-11.238c0.317-1.437,1.651-6.144,5.506-6.365,0.116-.007.231-0.01,0.347-0.01,3.182,0,6.022,2.5,7.651,4.9C735.317,327.542,735.581,335.549,734.79,342.626Z"/>
    <path d="M367.221,197.468L366.095,210.7a3.013,3.013,0,0,0,2.746,3.258c0.087,0.007.173,0.011,0.259,0.011a3.013,3.013,0,0,0,3-2.757l1.126-13.228A3.013,3.013,0,1,0,367.221,197.468Z"/>
    <path d="M138,349.957a38.368,38.368,0,0,0,13.445-10.007c4.455-5.355,5.024-11.193,1.522-15.618a10.816,10.816,0,0,0-8.822-4.239c-3.84.16-7.028,2.34-9.092,3.965-7.247,5.706-11.979,13.518-16.555,21.072-0.817,1.35-1.65,2.723-2.495,4.08a56.111,56.111,0,0,1-10.991-.458,47.547,47.547,0,0,1-15.435-4.842,27.212,27.212,0,0,1-10.47-9.064c-2.766-4.326-3.485-9.948-3.85-15.379a57.36,57.36,0,0,1,7.18-32.137,74.314,74.314,0,0,1,21.576-23.322,47.321,47.321,0,0,1,14.559-7.125,37.873,37.873,0,0,1,15.889-1.19c3.633,0.524,8.726,1.946,12.353,5.742a19.344,19.344,0,0,1,4.887,11.542,30.674,30.674,0,0,1-2.316,14.822,41.135,41.135,0,0,1-8.606,12.8c-6.91,7.133-16.144,13.082-27.446,17.682a110.912,110.912,0,0,1-26.443,7.065,3.013,3.013,0,0,0,.835,5.968,116.95,116.95,0,0,0,27.88-7.452c12.08-4.917,22.006-11.333,29.5-19.07,9.216-9.512,13.688-21.015,12.592-32.39a25.026,25.026,0,0,0-6.529-15.127c-4.815-5.039-11.277-6.883-15.849-7.543a43.857,43.857,0,0,0-18.4,1.36,53.326,53.326,0,0,0-16.414,8.021A80.36,80.36,0,0,0,77.186,284.37a63.367,63.367,0,0,0-7.944,35.5c0.146,2.172.347,4.38,0.695,6.565a107.776,107.776,0,0,1-25.85-2.638c-10.492-2.4-18.7-5.653-25.08-9.957-5.45-3.675-9.388-8.174-11.39-13.011a21.1,21.1,0,0,1-.939-13.257,23.966,23.966,0,0,1,6.793-11.287,24.928,24.928,0,0,1,12.2-6.3,26.3,26.3,0,0,1,15.25,1.674,36.3,36.3,0,0,1,9.2,5.667,3.013,3.013,0,1,0,3.849-4.636,42.3,42.3,0,0,0-10.734-6.6,32.3,32.3,0,0,0-18.74-2.019A30.946,30.946,0,0,0,9.346,271.9a29.652,29.652,0,0,0-8.5,14.173A27.165,27.165,0,0,0,2.05,303.135c2.456,5.934,7.155,11.364,13.589,15.7,7.011,4.727,15.878,8.272,27.106,10.836A113.418,113.418,0,0,0,68,332.483q1.678,0,3.363-.05a25.383,25.383,0,0,0,2.663,5.659A32.747,32.747,0,0,0,86.781,349.25a55.93,55.93,0,0,0,25.162,6.076,95.3,95.3,0,0,1-5.936,7.5A179.564,179.564,0,0,0,73.6,361.485a77.434,77.434,0,0,0-18.617,2.6c-7.375,2.153-12.1,5.831-14.053,10.932-1.756,4.593-.607,7.778.666,9.642,3.826,5.6,13.522,6.5,18.962,6.539l0.451,0a59.263,59.263,0,0,0,33.827-10.315,91.526,91.526,0,0,0,23.851-24.711q0.4-.595.791-1.2,1.394-.148,2.791-0.357A57.839,57.839,0,0,0,138,349.957Zm-14.349-1.7c4.3-7.094,8.742-14.43,15.129-19.46,1.407-1.108,3.521-2.592,5.616-2.679q0.077,0,.155,0a4.839,4.839,0,0,1,3.691,1.961,4.2,4.2,0,0,1,.869,3.638,10.311,10.311,0,0,1-2.3,4.387c-4.912,5.9-13.274,10.278-23.173,12.175ZM91.415,375.92a53.263,53.263,0,0,1-30.409,9.252H60.6c-6.932-.049-12.439-1.585-14.029-3.913-0.25-.366-1.011-1.48-0.013-4.091,1.241-3.247,4.644-5.7,10.113-7.3a68.629,68.629,0,0,1,17.14-2.36c3.4-.119,6.426-0.183,9.277-0.183a158.61,158.61,0,0,1,17.688.963A76.264,76.264,0,0,1,91.415,375.92Z"/>
    <path d="M214.121,353.107a14.26,14.26,0,0,0-6.967-2.611,10.684,10.684,0,0,0-7.684,2.057,3.013,3.013,0,1,0,3.693,4.762c1.94-1.5,5.361-.824,7.419.67,2.754,2,2.153,5.4.8,7.7-1.849,3.151-5.4,5.407-10.556,6.7A65.725,65.725,0,0,1,183.869,374c-12.873-.156-25.915-2.349-36.975-4.473-6.576-1.263-14.359-2.72-22.221-3.948a3.013,3.013,0,1,0-.929,5.954c7.77,1.213,15.489,2.658,22.014,3.912,11.32,2.175,24.693,4.42,38.039,4.581q0.75,0.009,1.478.009a69.034,69.034,0,0,0,17.025-1.8c6.78-1.706,11.585-4.9,14.282-9.5C219.935,363.018,218.924,356.592,214.121,353.107Z"/>
    <path d="M562.962,315.968c-10.336-1.174-22.5,1.855-35.185,8.759a3.013,3.013,0,0,0,2.881,5.292c11.589-6.31,22.525-9.1,31.624-8.064,7.464,0.848,13.413,4.263,16.752,9.615a19.041,19.041,0,0,1,2.077,15.1c-1.572,5.959-5.633,11.4-11.744,15.731-5.191,3.681-12.833,5.954-22.715,6.757-9.087.738-19.943,0.285-33.189-1.388-24.589-3.1-53.159-9.989-78.365-16.064-10.945-2.638-21.409-5.159-31-7.255,5.754-3.233,10.868-6.26,15.123-8.854,9.923-6.051,17.007-10.856,19.652-12.684a58.4,58.4,0,0,0,15.091,4.74,73.008,73.008,0,0,0,12.69,1.093,77.631,77.631,0,0,0,15.172-1.5c10.151-2.029,19-5.821,25.592-10.965a41.521,41.521,0,0,0,14.291-21.969c2.17-7.851,2.646-16.517,1.454-26.494a113.789,113.789,0,0,0-6.38-25.8c-2.169-5.875-4.749-11.65-7.243-17.235-1.077-2.411-2.191-4.9-3.25-7.36-4.432-10.269-7.169-18.355-8.875-26.219-2.439-11.237-3-21.388-1.661-30.17,1.09-7.163,3.566-12.318,7.357-15.322a12.987,12.987,0,0,1,10.047-2.609c3.229,0.5,5.772,1.974,6.8,3.934,1.581,3.005,1.3,7.6-.743,12.291a27.76,27.76,0,0,1-13.662,13.6,3.013,3.013,0,1,0,2.612,5.43,33.774,33.774,0,0,0,16.573-16.618c1.33-3.05,4.047-10.862.552-17.505-1.942-3.692-6.026-6.274-11.206-7.082a19.032,19.032,0,0,0-14.718,3.839c-5.025,3.981-8.246,10.42-9.573,19.138a76.21,76.21,0,0,0-.557,16.763c-6.678,1.109-12.186.569-18.464-.047-2.936-.288-5.972-0.586-9.374-0.748h-0.028a139.892,139.892,0,0,0-21.67.567c-1.322.147-2.624,0.364-3.884,0.574-1.234.206-2.4,0.4-3.558,0.529q-0.1.011-.206,0.03c-16.293,2.962-30.453,9.3-42.087,18.823a3.013,3.013,0,1,0,3.818,4.662,79.614,79.614,0,0,1,18.4-11.252,93.652,93.652,0,0,1,20.852-6.286c1.285-.147,2.551-0.358,3.776-0.562s2.4-.4,3.571-0.53a134.277,134.277,0,0,1,20.745-.534c3.246,0.155,6.2.445,9.059,0.726,6.338,0.622,12.366,1.212,19.661.056q0.613,4.667,1.68,9.587a148.087,148.087,0,0,0,9.232,27.329c1.075,2.49,2.2,5,3.281,7.43,2.454,5.5,4.993,11.178,7.093,16.865a107.765,107.765,0,0,1,6.05,24.427,72.539,72.539,0,0,1,.369,14.836,310.016,310.016,0,0,0-65.021,26.489,3.013,3.013,0,1,0,2.9,5.28,302.043,302.043,0,0,1,61.148-25.208q-0.3,1.41-.679,2.777a35.544,35.544,0,0,1-12.191,18.824c-5.855,4.57-13.831,7.961-23.065,9.807a69.956,69.956,0,0,1-25.632.385c-8.391-1.484-15.634-4.554-20.944-8.877a34.81,34.81,0,0,1-10.012-14.345,44.406,44.406,0,0,1-3.3-18.212,31.454,31.454,0,0,1,6.391-18.091,33.972,33.972,0,0,1,17.859-12.068c6.628-1.642,13.765-1.144,19.09,1.331a13.406,13.406,0,0,1,7.676,8.725,3.013,3.013,0,0,0,5.835-1.5,19.319,19.319,0,0,0-10.97-12.685c-6.629-3.081-15.04-3.707-23.079-1.716a39.622,39.622,0,0,0-18.63,11.261,2.994,2.994,0,0,0-1.234.966,47.79,47.79,0,0,1-10.266,9.844c-4.378,3.075-8.6,4.778-11.885,4.793a7.367,7.367,0,0,1-6.232-3.11,27.33,27.33,0,0,1-4.893-11.6c0-.079,0-0.13,0-0.151a3.008,3.008,0,0,0-.2-1.024A50.865,50.865,0,0,1,394.3,227.7a31.763,31.763,0,0,1,6.323-9.486c2.248-2.193,4.609-3.425,6.825-3.564a11.868,11.868,0,0,1,9.285,3.4l-1.648,14.641a3.013,3.013,0,1,0,5.988.674l1.8-15.95a3.012,3.012,0,0,0-.533-2.075,17.738,17.738,0,0,0-15.265-6.708c-7,.439-13.648,6.475-18.253,16.561a58.03,58.03,0,0,0-5.111,23.6,47.544,47.544,0,0,0,.685,8.186,71.874,71.874,0,0,1-1.4,13.651,28.414,28.414,0,0,1-3.523,9.476c-1.595,2.447-3.454,3.722-5.684,3.9a3.557,3.557,0,0,1-2.848-.882c-1.517-1.4-2.351-4.573-2.35-8.929,0-17.575,2.62-47.1,2.646-47.4a3.013,3.013,0,0,0-5.987-.672c-1.656,12.224-2.635,22.9-3.5,32.326-1.019,11.119-1.823,19.9-3.306,26.212-1.789,7.614-4.126,9.266-5.728,9.847-0.556.2-1.907,0.624-2.446,0.205-0.281-.219-1.21-1.262-1.363-5.517a86.077,86.077,0,0,1,.618-10.77c0.2-2.042.391-3.97,0.467-5.611,0.062-1.342.234-3.017,0.432-4.956,0.858-8.38,2.032-19.857-3.448-25.758a11.742,11.742,0,0,0-9.373-3.579c-4.893.137-9.082,3.262-12.524,9.318q0.491-6.472.985-13.131c0-.029,0-0.058.005-0.087,0.092-2.022.154-4.03,0.214-5.973,0.124-4.014.241-7.806,0.6-11.765,0.958-8.082,3.146-8.673,4.367-8.637,0.059,0.025.123,0.051,0.191,0.077,2.858,2.05,3.206,5.978,2.538,9.162a15.166,15.166,0,0,0-.824,1.99q-0.037.11-.065,0.222a3.907,3.907,0,0,1-1.052,1.509,3.013,3.013,0,1,0,4.152,4.367,9.781,9.781,0,0,0,2.71-4.279,10.8,10.8,0,0,1,.634-1.448,3.015,3.015,0,0,0,.238-0.657,17.845,17.845,0,0,0-.023-8.672A12.487,12.487,0,0,0,334.307,203a3.012,3.012,0,0,0-.828-0.358,3.8,3.8,0,0,0-1.4-.37c-3.862-.322-7.036,1.568-8.945,5.33a26.159,26.159,0,0,0-2.235,8.625q0,0.04-.008.079c-0.312,3.437-.452,6.818-0.56,10.115a40.817,40.817,0,0,1-6.453.642c-2.008.094-4.057,0.175-6.038,0.253q-1.947.077-3.895,0.157c-6.515.277-15.089,0.733-23.64,1.821a144.947,144.947,0,0,0-26.335,5.666,103.141,103.141,0,0,0-26.258,12.592,92.358,92.358,0,0,0-12.187,9.851,3.013,3.013,0,1,0,4.174,4.346,86.324,86.324,0,0,1,11.39-9.206A97.129,97.129,0,0,1,255.815,240.7a139,139,0,0,1,25.25-5.424c8.328-1.059,16.738-1.507,23.135-1.778q1.938-.082,3.876-0.157c1.992-.078,4.052-0.16,6.083-0.255a53.92,53.92,0,0,0,5.968-.508q-0.033.869-.071,1.738c-1.124,15.094-2.206,29.368-3.385,43.327-0.219,1.7-.319,2.752-0.331,2.88a3.019,3.019,0,0,0,.022.74c-0.859,9.983-1.775,19.825-2.8,29.711a3.013,3.013,0,0,0,2.686,3.307,3.046,3.046,0,0,0,.314.016,3.013,3.013,0,0,0,2.993-2.7c1.146-11.056,2.156-22.051,3.1-33.242a119.924,119.924,0,0,1,3.227-16.21c3.152-11.215,7.375-17.46,11.89-17.587a6,6,0,0,1,4.788,1.656c3.623,3.9,2.568,14.218,1.869,21.045-0.2,1.944-.387,3.78-0.457,5.29-0.069,1.485-.252,3.338-0.445,5.3-0.827,8.39-1.764,17.9,3.044,21.636a6.941,6.941,0,0,0,4.364,1.437,11.438,11.438,0,0,0,3.833-.734c6.026-2.184,8.264-8.7,9.541-14.134q0.165-.7.319-1.434a10.843,10.843,0,0,0,2.219,2.939,9.521,9.521,0,0,0,7.411,2.465c4.1-.323,7.65-2.61,10.26-6.615a34.242,34.242,0,0,0,4.368-11.513c0.141-.664.269-1.325,0.386-1.981,0.395,0.61.81,1.322,1.245,1.893a13.489,13.489,0,0,0,10.978,5.6h0.074c5.289,0,10.553-2.822,14.323-5.329a39.5,39.5,0,0,0-1.158,8.011,50.328,50.328,0,0,0,3.725,20.679,40.674,40.674,0,0,0,11.8,16.76c0.886,0.722,1.818,1.4,2.79,2.062-6.191,4.174-20.171,13.284-38,22.968-27.206-5.5-49.3-9.474-68.343-10.985-21.228-1.685-37.263-.149-50.464,4.835a3.013,3.013,0,1,0,2.128,5.637c12.34-4.659,27.547-6.078,47.859-4.466,17.041,1.352,36.687,4.727,60.4,9.435-6.314,3.259-12.99,6.506-19.88,9.58-17.491,7.8-45.052,15.235-70.216,18.933-12.907,1.9-24.322,2.662-33.009,2.212-11.9-.616-15.715-3.289-16.93-4.827a9.72,9.72,0,0,1-1.9-9.176c1.593-5.432,7.379-10.778,15.109-14.138l-1.2,8.661a3.013,3.013,0,1,0,5.969.825l6.72-48.643a17.031,17.031,0,0,0,5.068,7.79,11.323,11.323,0,0,0,7.323,2.539,17.412,17.412,0,0,0,5.83-1.1,24.246,24.246,0,0,0,11.72-9.5,44.858,44.858,0,0,0,6.216-14.416c2.493-9.838,2.651-21.075.4-28.627a25.029,25.029,0,0,0-4.329-8.663,14.513,14.513,0,0,0-6.721-4.816c-4.676-1.552-10.019-.343-15.044,3.4a23.532,23.532,0,0,0-3.654,3.425,3.013,3.013,0,0,0-5.979-.08l-1.322,9.567a3,3,0,0,0-.368,1.074c-0.229,1.636-.5,3.75-0.753,6.176-0.019.073-.031,0.123-0.037,0.148a3.009,3.009,0,0,0-.075.959c-0.054.552-.106,1.12-0.157,1.7l-3.213,23.259a54.67,54.67,0,0,1-3.271,11.221c-1.962,4.713-4.285,8.1-6.374,9.29a2.242,2.242,0,0,1-2.294.188c-0.016-.008-1.644-0.965-2.026-8.593a128.175,128.175,0,0,1,1-19.659q0.541-3.6.969-7.659c1.551-11.1,3.431-20.367,3.454-20.479a3.013,3.013,0,0,0-5.9-1.2c-0.012.061-.561,2.763-1.309,6.983-2.838-2.427-6.837-3.8-11.92-4.089-5.453-.308-10.608,2.127-14.91,7.044-3.878,4.433-6.95,10.785-8.882,18.37-2.135,8.38-3.75,19.527-.483,27.9a31.649,31.649,0,0,1-6.848,12.239c-2.327,2.365-4.7,3.442-6.5,2.955a4.072,4.072,0,0,1-2.732-2.22,13.023,13.023,0,0,1-1.122-5.462c-0.16-4.882,1-11.071,2.029-16.532,0.29-1.542.563-3,.8-4.4a90.767,90.767,0,0,1,3.9-14.619c1.685-4.982,2.9-8.581.924-11.671-2.058-3.215-6.619-4.248-14.86-5.126a29.194,29.194,0,0,1-6.451-1.389c1.247-4.97,2.27-9.353,2.854-13,0.758-4.733,1.137-9.932-1.8-12.595-1.891-1.717-4.556-1.969-7.921-.75-6.374,2.31-10.215,8.958-9.34,16.167a18.539,18.539,0,0,0,9.137,13.509l-0.4,1.539c-4.536,17.662-10.749,41.99-10.206,65.1a3.136,3.136,0,0,0,3.011,3.082h0.072a3.113,3.113,0,0,0,2.941-3.223c-0.523-22.276,5.57-46.069,10.019-63.39,0.043-.168.086-0.371,0.129-0.538a35.788,35.788,0,0,0,7.308,1.5,51.663,51.663,0,0,1,8.246,1.34c1.81,0.525,2.145.978,2.177,1.029a2.631,2.631,0,0,1-.035,1.409,42.023,42.023,0,0,1-1.522,5.08,97.267,97.267,0,0,0-4.135,15.528c-0.233,1.357-.5,2.79-0.788,4.308-1.083,5.765-2.311,12.3-2.129,17.841a18.54,18.54,0,0,0,1.8,8.052,10.036,10.036,0,0,0,6.5,5.25c6.837,1.847,14.329-4.174,18.953-14.692a17.936,17.936,0,0,0,9.785,4.876,12.13,12.13,0,0,0,2.147.192,13.59,13.59,0,0,0,8.347-3.063c2.562-1.982,5.423-5.329,8.055-10.954,0.758,5.188,2.421,8.242,5.124,9.486a8.25,8.25,0,0,0,3.471.784,8.691,8.691,0,0,0,4.328-1.211,14.088,14.088,0,0,0,3.512-2.961l-2.309,16.713c-11.121,3.871-19.481,11.248-21.835,19.276a15.646,15.646,0,0,0,2.95,14.606c3.327,4.214,10.31,6.54,21.348,7.111q2.567,0.133,5.417.133a203.291,203.291,0,0,0,28.78-2.4c25.663-3.771,53.844-11.383,71.8-19.392,9.531-4.252,18.618-8.817,26.785-13.2,11.284,2.305,24.113,5.4,37.685,8.667,25.359,6.112,54.1,13.038,79.022,16.184a201.272,201.272,0,0,0,25.014,1.777c3.323,0,6.455-.121,9.417-0.361,11.13-.9,19.54-3.472,25.712-7.848,7.277-5.16,12.147-11.768,14.084-19.109a25.006,25.006,0,0,0-2.79-19.823C579.814,321.436,572.291,317.028,562.962,315.968ZM275.416,280.711l0.43-3.114c0.929-3.09,3.883-11.516,9.529-15.725,4.36-3.25,7.6-3.162,9.545-2.516,3.113,1.033,5.66,4.4,7.173,9.48,1.607,5.4,2.085,15.351-.468,25.428-1.524,6.014-5.387,16.575-14.14,19.732-4.681,1.689-6.66.082-7.31-.446-2.085-1.693-4.679-6.115-5.194-17.568A119.571,119.571,0,0,1,275.416,280.711Zm-95.179-17.8c-0.5,2.986-1.316,6.536-2.306,10.537q-0.283-.222-0.55-0.454a11.78,11.78,0,0,1-4.184-7.548c-0.535-4.407,1.69-8.427,5.411-9.775a5.364,5.364,0,0,1,1.734-.4c0.046,0,.084,0,0.113,0C180.651,255.643,181.194,257.24,180.237,262.914Zm68.506,18.774q-0.22,2.892-.506,5.627c-0.342,2.448-.667,4.983-0.955,7.529l-0.009.076a98.339,98.339,0,0,1-4.164,17.71c-2.854,8.119-6.044,11.828-8.217,13.509a7.167,7.167,0,0,1-5.741,1.705,11.378,11.378,0,0,1-8.058-5.041c-3.37-5.237-3.55-14.7-.508-26.64,1.7-6.671,4.32-12.166,7.578-15.89,2.912-3.329,6.09-5.012,9.457-5.012,0.192,0,.384.005,0.577,0.016,4.673,0.265,7.988,1.66,9.586,4.033a6.552,6.552,0,0,1,.966,2.3C248.747,281.637,248.745,281.662,248.743,281.688Z"/>
    <path d="M759.164,283.164a62.361,62.361,0,0,0-17.32-7.507,3.013,3.013,0,0,0-1.376,5.866,57.213,57.213,0,0,1,15.6,6.814c9.861,6.3,14.861,14.435,14.861,24.177,0,15.782-8.137,27.268-20.729,29.261a3.013,3.013,0,1,0,.942,5.952,28.324,28.324,0,0,0,18.923-11.751c4.507-6.277,6.889-14.39,6.889-23.462C776.956,300.7,770.8,290.548,759.164,283.164Z"/>
    <path d="M60.532,98.686A33.668,33.668,0,0,0,77.86,103.3a39.229,39.229,0,0,0,8.068-.852c6.684-1.406,15.974-4.693,22.272-12.374A29.247,29.247,0,0,0,114.735,71.8a26.933,26.933,0,0,0-4.481-15.662,3.013,3.013,0,1,0-4.924,3.474,20.9,20.9,0,0,1,3.379,12.139,23.2,23.2,0,0,1-5.168,14.5c-5.187,6.325-13.115,9.091-18.852,10.3a29.217,29.217,0,0,1-21.067-3.041A29.81,29.81,0,0,1,51.3,78.4a34.379,34.379,0,0,1-1.138-20.564,60.744,60.744,0,0,1,7.112-16A58.816,58.816,0,0,1,67.783,28.939,65.77,65.77,0,0,1,83.317,18.5a103.428,103.428,0,0,1,22.189-7.659,191.191,191.191,0,0,1,30.238-4.353q5.644-.4,11.377-0.451L125,104.575a3.013,3.013,0,1,0,5.879,1.32l22.256-99.12a3.016,3.016,0,0,0,.073-0.7q6.615,0.154,13.254.77,2.021,0.188,4.075.424a3.036,3.036,0,0,0-.124.429L151.445,98a3.013,3.013,0,0,0,5.857,1.406c0.037-.136,3.729-13.72,8.813-27.713a163.95,163.95,0,0,1,8.446-19.843c4.131-7.836,6.708-9.534,7.624-9.9,3.477-1.391,5.943-1.446,7.329-.163,1.29,1.194,2.027,3.713,2.074,7.095a34.352,34.352,0,0,1-1.539,10.125,94.131,94.131,0,0,0-3.467,16.1c-0.9,7.833-.041,12.992,2.616,15.773,1.36,1.423,3.827,2.9,7.854,1.838,5.588-1.471,10.35-6.435,14.153-14.756,0.123-.27.243-0.539,0.36-0.806a14.476,14.476,0,0,0,8.706,5.258,17.976,17.976,0,0,0,3.62.363,21.15,21.15,0,0,0,8.082-1.675,30.655,30.655,0,0,0,11.912-9.31,3.013,3.013,0,1,0-4.678-3.8c-5.3,6.525-11.924,9.71-17.723,8.518-3.058-.628-5.37-2.47-6.034-4.807-0.533-1.878-.414-4.861.281-8.312a45.036,45.036,0,0,0,18.3-2.757,26.461,26.461,0,0,0,9.5-5.987,18.069,18.069,0,0,0,5.155-10.676,9.95,9.95,0,0,0-6-10.707,16.279,16.279,0,0,0-11.252-.388,25.589,25.589,0,0,0-11.705,7.719c-3.2,3.6-6.345,9.545-8.4,15.9a47.645,47.645,0,0,0-1.955,8.29,3.029,3.029,0,0,0-.119.4,58.223,58.223,0,0,1-3.528,10.269c-3.757,8.218-7.624,10.754-10.206,11.433-1.437.378-1.807-.008-1.964-0.173-0.966-1.011-1.732-4.412-.987-10.925A88.171,88.171,0,0,1,195.8,60.8c1.928-6.169,3.635-18.047-2.194-23.44a9.5,9.5,0,0,0-5.976-2.492,17.79,17.79,0,0,0-7.683,1.483c-3.483,1.393-6.889,5.424-10.717,12.685q-1.151,2.184-2.344,4.75l9.419-44.852a3.011,3.011,0,0,0,.05-0.919c6,0.856,12.154,1.991,18.4,3.4,8,1.8,16.629,4.141,26.395,7.161,6.706,2.074,13.494,4.325,20.059,6.5q2.459,0.815,4.918,1.629c7.6,2.511,15.719,5.155,24.049,7.454A186.7,186.7,0,0,0,293.8,39.248c1.632,0.23,2.717.423,3.674,0.593l0.672,0.119-0.225.234c-3.445,3.629-6.469,7.1-9.247,10.612-3.015,3.813-5.6,6.906-9.128,9.133A18.7,18.7,0,0,1,272.1,62.7c-0.949.106-3.838,0.429-5.5-1.829-1.611-2.182-.528-5.634.26-7.5a3.013,3.013,0,0,0-5.549-2.349c-2.225,5.257-2.069,10.025.441,13.425a11,11,0,0,0,9.222,4.341,16.213,16.213,0,0,0,1.8-.1,25.017,25.017,0,0,0,10-3.652c4.325-2.731,7.376-6.367,10.637-10.49,2.664-3.369,5.572-6.706,8.891-10.2q2.1-2.216,4.247-4.329a3.028,3.028,0,0,0,.984-0.963,161.154,161.154,0,0,1,16.9-14.36c5.9-4.324,13.781-9.616,22.484-12.169,2.9-.852,7.091-1.536,10.552.04,0.7,0.319,2.958,1.532,2.6,3.747-0.151.934-.612,3.778-7.573,7.894-6.53,3.862-17.5,7.284-29.341,9.154a3.013,3.013,0,0,0,.94,5.952c12.554-1.982,24.318-5.691,31.469-9.919,4.031-2.384,9.5-6.234,10.454-12.117,0.682-4.209-1.692-8.21-6.05-10.195C354.81,4.734,349.1,5.6,345.212,6.74c-9.6,2.817-18.057,8.477-24.351,13.092a166.881,166.881,0,0,0-17.211,14.584,25.4,25.4,0,0,1-5.116-.508c-0.958-.171-2.15-0.383-3.891-0.628a180.8,180.8,0,0,1-22.863-4.926c-8.2-2.262-16.233-4.88-23.762-7.367q-2.456-.811-4.911-1.627c-6.593-2.187-13.411-4.448-20.176-6.54-9.918-3.067-18.7-5.45-26.853-7.283A230.378,230.378,0,0,0,167.016.848a194.614,194.614,0,0,0-31.7-.374,197.113,197.113,0,0,0-31.186,4.5,109.34,109.34,0,0,0-23.469,8.117A71.784,71.784,0,0,0,63.709,24.5,64.837,64.837,0,0,0,52.117,38.71a66.678,66.678,0,0,0-7.794,17.624,40.457,40.457,0,0,0,1.341,24.2A35.854,35.854,0,0,0,60.532,98.686ZM224.23,44.6a19.39,19.39,0,0,1,8.912-5.946,10.466,10.466,0,0,1,7.065.1,3.982,3.982,0,0,1,2.5,4.489c-0.64,5.275-4.289,9.234-10.844,11.768a39.42,39.42,0,0,1-14.5,2.427C219.148,52.256,221.738,47.4,224.23,44.6Z"/>
  </g>
</svg>
