<svg xmlns="http://www.w3.org/2000/svg" viewBox="0 0 120 120" enable-background="new 0 0 120 120"><path d="M96 34.8c0-6-4.8-10.8-10.8-10.8h-50.4c-6 0-10.8 4.8-10.8 10.8v50.5c0 5.9 4.8 10.7 10.8 10.7h50.5c5.9 0 10.7-4.8 10.7-10.8v-50.4zm-61-5.8h50.1c3.2 0 5.9 2.5 5.9 5.7v10.3h-20v.1c-3.1-2.3-6.8-3.7-11-3.7s-8 1.4-11 3.8v-.2h-20v-10.3c0-3.2 2.8-5.7 6-5.7zm25 17.4c7.3 0 13.3 5.9 13.3 13.3s-5.9 13.3-13.3 13.3-13.2-6-13.2-13.3 5.9-13.3 13.2-13.3zm25.1 44.6h-50.1c-3.2 0-6-3.1-6-6.2v-34.8h15.6c-1.8 2.8-2.8 6.1-2.8 9.7 0 10.1 8.2 18.3 18.2 18.3s18.3-8.2 18.3-18.3c0-3.6-1-6.9-2.8-9.7h15.5v34.8c0 3.1-2.7 6.2-5.9 6.2z"/></svg>