<?xml version="1.0" encoding="utf-8"?>
<!-- Generator: Adobe Illustrator 19.2.1, SVG Export Plug-In . SVG Version: 6.00 Build 0)  -->
<svg version="1.1" id="Layer_2" xmlns="http://www.w3.org/2000/svg" xmlns:xlink="http://www.w3.org/1999/xlink" x="0px" y="0px"
	 viewBox="0 0 273.8 59.2" enable-background="new 0 0 273.8 59.2" xml:space="preserve">
<g>
	<path d="M142.2,1c-16.9,0-28.1,10-28.1,28.6c0,18.7,11.2,28.3,28.1,28.3c9.7,0,18.1-8.3,18.1,0.7h4.5V39.3v-3.5h-4.5h-20.5v4.4
		c14,0,11.8,14.9,2.8,14.9c-7.5,0-13.5-11.3-13.5-25.3c0-14,6-25.3,13.5-25.3c8.9,0,16.2,8,17.2,18.8v0.4h5v-23h-4.6
		C160.2,10.7,153.3,1,142.2,1z"/>
	<path d="M187.1,10.9c0-4.4,3.1-6.5,7.4-6.5c5.7,0,15.6,4.3,15.6,13.3h4.7v-17h-4.7c0,10-4.8,0.2-16.9,0.2
		c-15.1,0-22.5,9.4-20.9,18.9c3.2,19.5,28.4,13.2,28.9,28.5c0.2,4.3-2.6,6.7-8.3,6.7c-7.3,0-17.7-5.2-17.7-19.3l-4.5,0v0.1v23.3
		l4.5,0c0-9.7,7.4-0.6,17.8-0.6c10.3,0,25.2-3.7,23.7-18.9C214.7,18.9,187.1,27.1,187.1,10.9z"/>
	<path d="M269.2,0.7c0,10-7,0.2-17.6,0.2c-12.6,0-28.2,7.5-28.2,28.7c0,18.7,10.1,28.4,28.2,28.4c9.4,0,17.6-8.4,17.6,0.6h4.3
		l0.1-23h-4.3c-1.3,11-8.5,19.4-16.9,19.4c-10.9,0-13.7-11.3-13.7-25.3c0-14,5.9-25.3,13.5-25.3c8.4,0,15.7,8,16.7,18.9v0.3h5v-0.2
		v0V0.7H269.2z"/>
	<path d="M109.4,47.6c0,0-10.3-32.1-12-36.9c-1.2-3.3-0.8-6.5,2.4-7.1L99,0L74.8,3.5l0.9,3.7c3-0.5,4.4,0.7,3,5.5L67.1,47.6
		c-1.2,4.3-3.4,7.3-8,7.3l0,3.8H75l0-3.8c-3.4,0-5.7-0.3-4.5-4.1l3.9-11h17.1c2,6,3.4,11.5,3.4,11.5c0.9,2.7-0.2,3.9-4.2,3.9v3.6h26
		v-3.6C112.8,55.1,111.1,52.1,109.4,47.6z M75.4,35.7c3-9,6.2-19.1,7.5-23c1.8,4.8,5,14,7.6,23H75.4z"/>
	<path d="M44.8,38.7c3.5,0,8.5-1.5,11.3-4.1c1.7-1.5,2.5-3.3,2.5-5.2c0-2.4-1.5-4.3-3.8-5.2c-2.8-1-7-0.3-10.1,3.6
		c-1.3,1.7-2.5,4.3-3.1,7.3c-0.2,0.9-0.3,1.7-0.4,2.5c-0.2,0.4-0.8,2-1.9,3.6c-1.2,1.8-2.4,3-3.5,3.3c0-0.2,0-0.5,0.1-0.9
		c0.1-0.9,0.4-2.1,0.7-3.7c0.4-1.7,0.8-3.8,1.2-6.3c0.7-4.2,0.5-6.8-0.9-8.4c-0.6-0.7-1.7-1.5-3.5-1.5c-1.3,0-3.2,0.6-5.3,3.1l2-9.9
		c0.7,0.3,1.3,0.5,2,0.8c3.8,1.6,7.5,2.6,11,2.8c2.9,0.2,5.6-0.1,8.2-0.8c4.5-1.3,6.9-3.5,7-3.6l-2.4-2.5l0,0c0,0-2,1.8-5.7,2.9
		c-2.2,0.6-4.5,0.8-7,0.6c-3.1-0.2-6.4-1.1-9.7-2.5c-5.2-2.3-10.4-3.6-15-4c-4.9-0.4-9.2,0.4-12.3,2.3c-3.8,2.2-6,6-6.5,10.8
		l3.5,0.3c0.3-3.7,1.9-6.4,4.8-8.1c2.6-1.5,6.1-2.1,10.3-1.8c0.1,0,0.2,0,0.3,0l-7.2,33l3.4,0.7l7.3-33.2c1.6,0.3,3.2,0.7,4.8,1.2
		l-6.4,31.3l3.4,0.7c1.7-7.9,3.7-13.7,5.9-17.2c1.5-2.5,2.9-3.4,3.7-3.4c0.6,0,0.8,0.2,0.9,0.3c0.3,0.3,0.8,1.5,0.1,5.5
		c-0.4,2.4-0.8,4.5-1.2,6.1c-0.4,1.9-0.7,3.3-0.8,4.5c-0.1,1.2-0.2,2.5,0.7,3.5c0.4,0.4,1,0.9,2.1,0.9c0.1,0,0.2,0,0.3,0
		c2.3-0.2,4.4-1.7,6.3-4.6c1.1,2.1,3.3,3.7,5.8,4c0.3,0,0.6,0.1,1,0.1c1.3,0,2.7-0.3,4-1c1.8-0.9,3.4-2.4,4.9-4.4L55,40.1
		c-2.1,2.9-4.5,4.3-6.6,4c-1.7-0.2-2.8-1.3-3.3-2.4C44.8,40.9,44.7,39.7,44.8,38.7C44.8,38.7,44.8,38.7,44.8,38.7z M47.6,30
		c1.5-1.9,3.4-2.7,4.9-2.7c0.5,0,0.9,0.1,1.3,0.2c1.2,0.4,1.4,1.2,1.4,1.9c0,0.9-0.5,1.7-1.4,2.5c-1.1,1-2.9,1.9-4.9,2.5
		c-1.2,0.4-2.5,0.6-3.6,0.7C45.9,33.1,46.7,31.2,47.6,30z"/>
</g>
</svg>
