<?xml version="1.0" encoding="utf-8"?>
<!-- Generator: Adobe Illustrator 18.1.1, SVG Export Plug-In . SVG Version: 6.00 Build 0)  -->
<!DOCTYPE svg PUBLIC "-//W3C//DTD SVG 1.1//EN" "http://www.w3.org/Graphics/SVG/1.1/DTD/svg11.dtd">
<svg version="1.1" id="Layer_2" xmlns="http://www.w3.org/2000/svg" xmlns:xlink="http://www.w3.org/1999/xlink" x="0px" y="0px"
	 viewBox="0 0 120 120" enable-background="new 0 0 120 120" xml:space="preserve">
<path d="M102,91.6L90.8,52.1l0.3-0.3l-0.5-0.5l-0.2-0.6L90.2,51L62.5,23.3l0,0l-7-7c-2.8-2.8-6.4-4.3-10.3-4.3
	c-3.9,0-7.6,1.5-10.3,4.3l-8.2,8.2c-5.7,5.7-5.7,15,0,20.6l7,7l0.9,0.9l26.8,26.8L61.2,80l0.3,0.1l0.7,0.7l0.4-0.4L96.5,90H31v5h70
	v-3.7L102,91.6z M73,68.2L48.8,44.1l5.5-5.5l24.1,24.1L73,68.2z M82,59.2L57.8,35.1l4.7-4.7l24.1,24.1L82,59.2z M30.2,41.7
	c-3.7-3.7-3.7-9.8,0-13.6l8.2-8.2c1.8-1.8,4.2-2.8,6.8-2.8s5,1,6.8,2.8l7,7L37.2,48.7L30.2,41.7z M40.7,52.2l4.6-4.6l24.1,24.1
	l-4.6,4.6L40.7,52.2z M87.9,60.3l4.8,16.9l-5.1,5.1l-16.9-4.8L87.9,60.3z"/>
</svg>
