<?xml version="1.0" encoding="utf-8"?>
<!-- Generator: Adobe Illustrator 19.2.1, SVG Export Plug-In . SVG Version: 6.00 Build 0)  -->
<svg version="1.1" id="Layer_1" xmlns="http://www.w3.org/2000/svg" xmlns:xlink="http://www.w3.org/1999/xlink" x="0px" y="0px"
	 viewBox="0 0 880.9 3275.3" enable-background="new 0 0 880.9 3275.3" xml:space="preserve">
<g>
	<g>
		<path fill="#FFD6DB" d="M817,502.9c0.1,206.1-168.4,324.6-376.4,324.8S64,720,63.9,503.3c-0.1-208.6,168.4-325,376.4-325.1
			C648.2,178.1,816.9,285.8,817,502.9z"/>
	</g>
	<g>
		<g>
			<path fill="#FF5029" d="M188.9,434.1l-0.2,34.8l36.7,0l0,31.2l-37,0L188,566l-37.2,0l-1.3-168.1l39.6,0l49.5,0l0,36.3
				L188.9,434.1z"/>
		</g>
		<g>
			<path fill="#FFFFFF" d="M374.9,576.5l-40.3,0c-11.5-16.1-3.6-66.8-37.5-69.1l-0.4,69.2l-37.2,0l-1.5-168.1
				c7.9-0.7,21.1-1.2,27.9-1.2c41.8,0,81.2,10.5,81.2,51.1c0,22.1-12.5,35.8-28.8,41.6C363.3,513.9,362.6,559.5,374.9,576.5z
				 M327.3,461c0-12-8.9-19.4-23.3-19.4l-7.4,0l-0.5,38.9l8.9,0C318.2,480.5,327.3,473,327.3,461z"/>
		</g>
		<g>
			<path fill="#FF5029" d="M485.8,529.5l0,36.3l-61.7,0l-28.6,0l-1.3-168.1l39.6,0l49.5,0l0,36.3l-49.7,0l-0.2,29.3l36.7,0l0,31.2
				l-37,0l-0.2,35.1L485.8,529.5z"/>
		</g>
		<g>
			<path fill="#FFFFFF" d="M597.2,424.1L581.1,452c-5.3-6.7-13-12.2-23.5-12.2c-12.5,0-17.5,7.9-17.5,15.1c0,7.9,6.5,13.7,21.1,22.3
				c18,10.8,40.4,23,40.4,53.5c0,30.3-21.6,49.5-52.3,49.5c-23.5,0-43.7-11.3-51.4-21.1l16.6-31.5c8.4,8.4,20.9,14.2,32.2,14.2
				c11,0,17.3-5.5,17.3-14.4c0-11.3-10.1-15.4-23.1-23c-19.9-11.8-37.7-26.2-37.7-52.3c0-27.1,18.9-47.6,49.2-47.6
				C570.3,404.5,586.1,411.7,597.2,424.1z"/>
		</g>
		<g>
			<path fill="#FF5029" d="M729,397.5l-1.1,168.1l-37.2,0l-0.5-60.5l-31.5,0l-0.4,60.5l-37.2,0l-1.3-168.1l39.6,0l-0.4,76.4l31,0
				l-0.5-76.4L729,397.5z"/>
		</g>
	</g>
	<g>
		<g>
			<path fill="#FF5029" d="M353.1,283.9c0,4.8-6.7,27-11.1,45.9c-1.8,0-3.1-1.5-3.1-3.8c0-5,5.8-22,9.5-35.5
				c-8.5,17.7-15.7,29.4-20.3,39.3c-3.8-0.4-4.4-4-4.9-9.3c-0.7-7.5-1.3-19.2-1.5-30c-2.2,9.8-6.2,24.5-9.5,39.3
				c-2,0-2.6-1.7-2.6-3.3c0-5.5,6.2-23.8,11.4-45.4c2.3,0,3.2,0.7,3.7,3.2c0.7,4,2,24.7,2.9,39.3c5.5-11.3,12.8-22.6,22.3-42.5
				C352,281.1,353.1,282.1,353.1,283.9z"/>
		</g>
		<g>
			<path fill="#FF5029" d="M385.5,310.1c-3.2,11.3-6.8,20.7-13.3,20.7c-2.9,0-4.9-1.9-4.8-7.6c-1.8,4.7-4.3,7.6-8.2,7.6
				c-3.7,0-6.9-2.7-6.9-9.6c0-9.6,6.2-22.7,13.4-22.7c3,0,5.3,2.2,5.9,5.5c0.4-1.6,0.7-3.2,1-4.7c2.1-0.2,3,0.9,3,2.5
				c0,3.8-5.3,18.5-5.3,24.5c0,1.7,0.4,2.3,1.5,2.3c4.3,0,8.4-9.1,11.4-19.3c0.2-0.5,0.7-0.8,1.1-0.8
				C385.1,308.6,385.7,309.3,385.5,310.1z M370.6,308c-0.6-4.1-1.6-7.1-3.8-7.1c-4.6,0-10.5,12.6-10.5,22.7c0,3.5,0.7,5.1,2.6,5.1
				C363.6,328.8,367.7,318.9,370.6,308z"/>
		</g>
		<g>
			<path fill="#FF5029" d="M414.6,310c-3.6,11.8-7.1,20.7-13.4,20.7c-2.7,0-4.6-2-4.6-7.6c-1.7,4.6-4.3,7.7-8.2,7.7
				c-3.8,0-7.5-3.1-7.5-10.7c0-10.3,6.7-21.6,13.7-21.6c3.1,0,5.5,2.2,6.2,5.6c3.5-13.6,4.3-16.6,6.6-26.6c1.5,0,2.6,0.6,2.6,2.5
				c0,5.7-10.5,38.8-10.4,46.5c0,1.5,0.4,2.2,1.4,2.2c4.1,0,8.1-9,11.5-19.3c0.2-0.5,0.7-0.8,1.1-0.8
				C414.2,308.6,414.8,309.2,414.6,310z M399.6,308.4c0.1-0.2,0.1-0.4,0.1-0.6c-0.5-4.2-1.9-6.9-4.1-6.9c-4.6,0-10.8,11.1-10.8,21.9
				c0,3.2,0.6,6,3.2,6C393.5,328.7,397.5,316.7,399.6,308.4z"/>
		</g>
		<g>
			<path fill="#FF5029" d="M439.1,310c-3.3,11.9-9.8,20.7-18,20.7c-5.2,0-10.8-3.9-10.8-12.5c0-10.5,7.5-19.8,14-19.8
				c4.1,0,6,3.7,6,7.2c0,6.2-5.8,12.3-11.6,12.3c-1.3,0-2.9-0.3-4.1-1c-0.1,1-0.2,2.1-0.2,3.2c0,5.5,2.1,8.6,5.5,8.6
				c5.4,0,12.4-6.7,16.8-19.3c0.2-0.8,0.8-1,1.2-1C438.7,308.6,439.3,309.1,439.1,310z M414.8,315.3c0.9,0.3,1.7,0.4,2.6,0.4
				c5.7,0,9.6-7.1,9.6-12.5c0-2.3-0.7-2.9-1.8-2.9C421.8,300.4,416.3,306.2,414.8,315.3z"/>
		</g>
		<g>
			<path fill="#FF5029" d="M497.3,310c-2.3,7.2-6,20.7-13.3,20.7c-3.3,0-5.4-2.8-5.4-6.6c0-5.4,4-14.7,4-17.7c0-2.4-2.4-3.3-4.8-4.8
				c-2.3,8-6.9,15.7-13.9,15.7c-1.5,0-3.2,0-5.1-1.8c3,4.7,5.7,8.2,5.7,16.1c0,10.2-4.5,17.4-10,17.4c-10.1,0-4.5-24.1-1-38.6
				c6.2-25.8,8.1-33.9,13-33.9c3.1,0,5.5,3.3,5.5,8c0,7.1-5.2,19.2-14.7,27.4c1.8,2.6,4.1,2.9,6.2,2.9c5.4,0,10.5-7,12.4-14.6
				c-1.5-1.2-2.6-2.9-2.6-5.5c0-3,1.6-4.1,3.2-4.1c1.8,0,2.6,1.3,2.6,4c0,1.6-0.3,3.2-0.6,4.6c2.8,2.5,8,2.9,8,8.8
				c0,5.2-4.3,13.2-4.3,18.3c0,1.7,0.5,2.3,1.5,2.3c4.7,0,9.1-12.7,11.4-19.3c0.2-0.5,0.6-0.8,1.1-0.8
				C497,308.5,497.5,309.3,497.3,310z M461.5,330.2c0-4.9-1.2-8.8-5.3-16.1c-2.2,10-4.4,21-4.4,27.5c0,3.2,0.5,5.1,2,5.1
				C456.6,346.7,461.5,340.5,461.5,330.2z M457.2,309.9c0,0.1,0,0.1-0.1,0.2c7.2-7.4,11.9-20.5,11.9-28.3c0-1.9-0.3-3-1.2-3
				C465.1,278.8,461.8,289.6,457.2,309.9z"/>
		</g>
		<g>
			<path fill="#FF5029" d="M527.1,310c-2.8,9.4-6.9,15.2-14,15.2c-0.4,0-0.9,0-1.2-0.1c-2.3,3.3-5.5,5.5-9.6,5.5
				c-5.7,0-9.6-4.4-9.6-11.6c0-10.3,7.8-20.6,12.5-19.6c0.9-0.7,1.9-1.1,3.2-1.1c4,0,7.9,4.6,7.9,12.2c0,4-1,8.5-3.1,12.4
				c7.7-0.5,10.3-9.7,11.7-13.7c0.2-0.5,0.7-0.8,1.1-0.8C526.8,308.5,527.3,309.2,527.1,310z M508.3,324.1c-4.1-2-7-6.7-7-13.3
				c0-3.9,1-7.9,2.9-10.2c-5.3,4.1-7.4,12.9-7.4,19.1c0,6.2,2.1,9.1,5.1,9.1C504.4,328.7,506.6,326.9,508.3,324.1z M504.8,312.5
				c0,4.4,1.3,8.2,4.5,9.8c1.9-4,3.2-9.3,3.2-14.2c0-6.3-2-7.9-3.2-7.9C506.5,300.2,504.8,307.5,504.8,312.5z"/>
		</g>
		<g>
			<path fill="#FF5029" d="M567.5,309.9c-3.6,11.8-7.1,20.7-13.5,20.7c-2.6,0-5.4-1.8-5.4-6.5c0-6.2,4.7-16.5,4.7-21.1
				c0-1.7-0.7-2.5-1.8-2.5c-3.1,0-7.3,5.9-10,14.9c-1.2,4.1-2.3,9.7-3.5,14.3c-2.3,0.3-3-1.5-3-3.5c0-5.7,5.4-18.2,5.4-23.4
				c0-1.6-0.5-2.3-1.6-2.3c-3.2,0-8.2,5.6-10.8,14.2c-0.7,2.4-2.2,8.2-3.8,15c-2.7,0-3-2.8-3-4.1c0-4.2,3-12.7,6.3-26.3
				c1.8-0.1,2.9,0.7,2.9,2.9c0,0.9-0.2,2.1-0.5,3.5c2.4-4.1,5.3-7.3,9.1-7.3c3,0,4.9,2,5.1,6c1.8-3.8,4.1-6,7.7-6
				c2.6,0,5.3,1.2,5.3,5.6c0,5.9-4.9,17.3-4.9,22.4c0,1.2,0.4,2.1,1.5,2.1c4.1,0,8.2-9,11.6-19.3c0.2-0.5,0.7-0.8,1.1-0.8
				C567.1,308.5,567.7,309.2,567.5,309.9z"/>
		</g>
	</g>
	<g>
		<g>
			<g>
				<path fill="#FF5338" d="M258.9,619.8c0.1,0.3,0.1,0.6,0.1,1c0,6.8-9.4,39.1-16.6,65.7c1.2,0.1,2.4,0.1,3.4,0.2
					c3.7,0.4,6.2,1.8,6.8,5.4c-6-1.3-13.7-0.8-18.1-1.4c-4.7-0.7-6.3-2.8-6.6-5.9c3.7,0.9,7,1.3,9.9,1.5c-0.1-0.4-0.1-0.8-0.1-1.1
					c0-8.1,7.7-32.6,15.7-65.4c-1,0-2.1,0-2.9-0.1c-4.7-0.5-6.3-2.5-6.6-5.6c8,1.7,14,0.9,17.9,1.2c3.7,0.3,6.2,1.6,6.8,5.2
					C265.6,619.9,262.1,619.8,258.9,619.8z"/>
			</g>
			<g>
				<path fill="#FF5338" d="M312.5,663.8c-5.7,18.4-11.1,32.2-21,31.8c-4.3-0.1-8.1-3.9-8.1-10.5c0-9.1,7.3-25.4,7.3-32.5
					c0-2.3-0.8-3.9-2.8-4c-4.6-0.2-13.8,7.8-18.1,17.7c-2.5,5.8-5.6,17.2-7.3,26c-3.2,0-4.6-3.6-4.6-6.6c0-6.2,6-24.2,9.8-40.6
					c2.8,0.2,4.5,2,4.5,4.8c0,2-0.9,5.3-2,9.1c4.1-7.1,9.6-14.3,17.3-14c5.5,0.2,9,4.2,9,10c0,8.4-7.5,25.9-7.5,33.6
					c0,2.9,1.1,3.5,2.1,3.5c6.4,0.2,12.6-13.6,17.9-29.6c0.3-0.9,1-1.2,1.7-1.2C311.9,661.5,312.8,662.6,312.5,663.8z"/>
			</g>
			<g>
				<path fill="#FF5338" d="M355.4,662.8c-5.2,16.9-11.8,26.8-25,34.1c-0.2,0.1-0.4,0.2-0.5,0.3c-3.4,12.8-8.2,27.3-18.6,27.3
					c-6.2,0-10.4-4.8-10.4-10.7c0-10.5,13.4-12.9,25.2-18.5c0.9-3.4,1.7-6.8,2.4-9.9c-2.7,6.2-6.8,10.8-12.7,10.8
					c-5.8,0-10.7-4.4-10.7-15.6c0-16.2,10.3-34.6,21-34.8c4.8-0.1,8.1,3.7,9,8c0.6-2.3,1-4.6,1.6-6.9c2.7-0.6,4.6,1.1,4.6,3.3
					c0,4.1-6.8,28.7-9.8,40.9c-0.1,0.5-0.2,1-0.4,1.4c11.6-7.3,17-18.7,20.8-30.6c0.3-0.9,1-1.3,1.7-1.3
					C354.8,660.5,355.7,661.5,355.4,662.8z M324.8,699.8c-10.1,5.1-19.2,8.7-19.2,16.2c0,3.5,2.1,5.1,4.6,5.2
					C316.6,721.2,321.4,711,324.8,699.8z M333.5,660.1c-0.8-5.7-2.3-10.6-5.9-10.6c-6.9,0.1-16.5,18.4-16.5,35.7
					c0,3.9,0.5,7.7,4.3,7.7C322.9,692.9,328.7,677.4,333.5,660.1z"/>
			</g>
			<g>
				<path fill="#FF5338" d="M389.7,660.7c-3.7,11.8-9.3,32.9-20.8,33.6c-5.1,0.3-8.2-3.9-8.2-9.9c0-8.3,6.2-23.3,6.2-27.8
					c0-3.8-4.2-5.1-8.2-7.1c-0.9,3.8-1.8,8-3.3,13.3c-0.2,0.8-0.9,1.2-1.7,1.2c-0.9,0-2.2-0.7-1.8-2.1c1.4-4.8,2.7-9.9,3.8-14.4
					c-2.4-1.8-4.1-4.2-4.1-8.1c0-4.7,2.5-6.6,4.9-6.7c2.7-0.1,4,1.9,4,6.1c0,2.6-0.5,5-0.9,7.2c4.5,3.7,13.4,3.5,13.4,12.8
					c0,8.2-6.7,21-6.7,28.9c0,2.7,0.8,3.5,2.2,3.4c7.4-0.4,14.2-20.3,17.8-31.1c0.3-0.8,0.9-1.3,1.7-1.4
					C389.3,658.4,390,659.6,389.7,660.7z"/>
			</g>
			<g>
				<path fill="#FF5338" d="M427.8,657.7c-5.2,19-15.2,33.5-27.9,34.4c-8.1,0.6-16.9-4.8-16.9-18.2c0-16.3,11.6-31.6,21.8-32.4
					c6.4-0.5,9.4,5,9.4,10.5c0,9.6-9.1,19.9-18.1,20.5c-2.1,0.2-4.5-0.1-6.3-1.1c-0.2,1.6-0.3,3.3-0.3,5c0,8.6,3.2,13.1,8.6,12.7
					c8.4-0.6,19.3-11.9,26.1-32c0.4-1.3,1.2-1.6,1.9-1.7C427.1,655.5,428.1,656.2,427.8,657.7z M390,668.9c1.4,0.4,2.7,0.5,4,0.4
					c8.9-0.7,14.9-12.2,14.9-20.6c0-3.6-1.1-4.4-2.7-4.2C400.9,644.9,392.4,654.5,390,668.9z"/>
			</g>
			<g>
				<path fill="#FF5338" d="M473.1,654.1c-5.7,18.8-11.1,33-20.9,33.8c-4.2,0.3-7.2-2.5-7.1-11.3c-2.6,7.3-6.7,12.5-12.8,13
					c-6,0.5-11.7-3.9-11.7-15.7c0-16,10.4-34.5,21.3-35.4c4.8-0.4,8.5,2.8,9.6,7.9c5.4-21.6,6.6-26.4,10.2-42.2
					c2.3-0.2,4.1,0.6,4.1,3.6c0,8.8-16.3,61.6-16.3,73.6c0,2.4,0.7,3.4,2.2,3.2c6.4-0.5,12.6-14.9,17.9-31.3c0.3-0.9,1-1.3,1.7-1.4
					C472.4,651.9,473.4,652.9,473.1,654.1z M449.8,653.3c0.1-0.3,0.2-0.6,0.2-1c-0.8-6.5-2.9-10.5-6.4-10.2
					c-7.2,0.6-16.9,18.6-16.8,35.4c0,5,0.9,9.2,5,8.9C440.3,685.8,446.5,666.6,449.8,653.3z"/>
			</g>
			<g>
				<path fill="#FF5338" d="M464.7,677.2c0-8.1,7.3-34.1,9.6-41.2c2.7-0.2,4.5,0.1,4.5,3.1c0,6.9-8.6,31.9-8.6,40.5
					c0,2.6,0.8,3.5,2.4,3.4c7.2-0.5,14.3-20.7,17.7-31.1c0.3-0.9,1-1.3,1.7-1.3c0.9-0.1,2.1,0.7,1.8,2.2
					c-4.3,13.9-9.8,32.8-20.8,33.6C467.5,686.7,464.7,682.2,464.7,677.2z M475.1,622.9c0-4.8,5.5-6.9,8.9-4.9c1.4,3,0.8,8.9-4.2,9.2
					C477.3,627.4,475.1,626,475.1,622.9z"/>
			</g>
			<g>
				<path fill="#FF5338" d="M531.8,651.1c-5.2,18.7-15.2,32.6-27.9,33.3c-8.1,0.4-16.9-5.1-16.9-18.4c0-16.3,11.6-31.6,21.8-32
					c6.4-0.3,9.4,5.4,9.4,10.9c0,9.6-9.1,19.5-18.1,20c-2.1,0.1-4.5-0.2-6.3-1.2c-0.2,1.6-0.3,3.3-0.3,5c0,8.6,3.2,13.2,8.6,12.9
					c8.4-0.5,19.3-11.3,26.1-31c0.4-1.2,1.2-1.6,1.9-1.6C531.2,648.8,532.1,649.6,531.8,651.1z M494,660.9c1.4,0.4,2.7,0.5,4,0.4
					c8.9-0.5,14.9-11.8,14.9-20.2c0-3.6-1.1-4.4-2.7-4.3C504.9,637.1,496.4,646.6,494,660.9z"/>
			</g>
			<g>
				<path fill="#FF5338" d="M577.1,651.3c-5.7,18.2-11.1,31.8-21,31.7c-4.3,0-8.1-3.6-8.1-10.1c0-9.1,7.3-25.7,7.3-32.8
					c0-2.3-0.8-3.9-2.8-3.9c-4.6,0-13.8,8.5-18.1,18.9c-2.5,6-5.6,17.8-7.3,26.8c-3.2,0.4-4.6-3-4.6-6c0-6.2,6-24.9,9.8-41.7
					c2.8-0.1,4.5,1.6,4.5,4.4c0,2-0.9,5.4-2,9.3c4.1-7.5,9.6-15.1,17.3-15.1c5.5,0,9,4,9,9.7c0,8.3-7.5,26.1-7.5,33.8
					c0,2.9,1.1,3.4,2.1,3.4c6.4,0,12.6-13.7,17.9-29.6c0.3-0.8,1-1.2,1.7-1.2C576.5,649,577.4,650.1,577.1,651.3z"/>
			</g>
			<g>
				<path fill="#FF5338" d="M601.1,652.8c-4.1,13.2-11.3,31.3-23.9,30.7c-5.4-0.2-8.5-4-8.5-9.7c0-5.8,3.1-17.5,7.8-35.6
					c-0.2,0-0.4,0-0.6,0c-4.2-0.2-6.1-2.3-5.9-5.2c2.3,0.5,5,0.7,7.6,0.8c1.5-5.7,3.1-12.1,4.8-19c1.8,0.1,4.2,0.7,4.2,4
					c0,2.5-1.3,8.2-3.1,15.1c2,0,3.6,0,4.5,0.1c4.3,0.3,6.6,2.4,6.3,5.1c-3.5-0.7-8.1-0.9-11.8-0.9c-3.7,14-8.5,31.4-8.5,38.2
					c0,2.8,0.9,3.7,2.8,3.8c8.5,0.3,16.6-15.2,20.7-28.5c0.4-1.2,1.1-1.4,1.8-1.4C600.7,650.5,601.4,652,601.1,652.8z"/>
			</g>
			<g>
				<path fill="#FF5338" d="M637,657.2c-3.8,12.4-9.5,20.2-18.6,20.8c-2.7,5.4-7.8,7.9-13.4,7.4c-7.3-0.7-13-6.3-13-13
					c0-3.4,1.5-5.4,4.4-5.2c4.1,0.3,10.1,5.4,16.5,6.8c0.7-2,1-4.4,1-7.3c0-12.6-7.2-16.6-10.6-22.2c-0.7,2.4-1.3,5.1-2.3,8.2
					c-0.2,0.7-0.9,1.1-1.7,1c-0.9-0.1-2.2-0.9-1.8-2.3c1.6-5.1,2.9-10.4,4-15c0.7-4,2.9-7.3,5.7-7.1c1.8,0.2,3.4,2,3.4,5.2
					c0,3.3-1.7,6.8-4.3,8.9c3.5,4.2,13.8,12.2,13.8,25.8c0,1.7-0.2,3.3-0.5,4.8c6.7-1.9,10.9-9.4,13.7-18.4c0.3-0.8,1-1.1,1.7-1
					C636.3,654.8,637.3,656,637,657.2z M611.5,677.1c-5.9-1.7-10.3-5.3-13.9-5.6c-1.4-0.1-2.1,0.4-2.1,1.9c0,3.2,2.8,7.5,7.8,7.9
					C606.4,681.6,609.4,680.3,611.5,677.1z"/>
			</g>
		</g>
		<g>
			<g>
				<path fill="#FF5029" d="M486.6,709.5c30.6-2,63.3-3.7,100.3-2c4.7,5.7-23.6,3.1-45.1,3.6c-46.1,0-107.7,7.4-183.1,11.1
					C355.7,720,417.3,715.1,486.6,709.5z"/>
			</g>
		</g>
	</g>
</g>
<g>
	<g>
		<rect x="111.4" y="2326.7" fill="#11BD75" width="658" height="903.4"/>
	</g>
	<g>
		<path fill="#FFFFFF" d="M742.4,3203.6H138.5v-850.6h603.8V3203.6z M141.9,3200.3H739v-843.9H141.9V3200.3z"/>
	</g>
	<g>
		<g>
			<g>
				<g>
					<path fill="#FFEE5F" d="M261.4,2656.1c14.2,37.7,30.3,74.4,46.6,110.7c-10,0.8-15.5-3.6-21.6-11.9
						c-12.1-16.6-21.9-41.3-34.5-90.5c-4.5,3.6-9,7.5-13.4,11.3c-8.2,31.1-16.8,64.7-24,95.5c-7.6,0.1-11.1-6.8-11.1-14.9
						c0-21.3,23.2-103.2,45.5-196.5c7.9,1.5,12.6,5,12.6,12.9c0,11.1-8.7,46.3-19.7,88.8c25.3-27.4,59.2-63,94-111.5
						c2.1,0.9,9.2,3.6,9.2,8.9C345.1,2571,307.2,2615.1,261.4,2656.1z"/>
				</g>
				<g>
					<path fill="#FFEE5F" d="M380.9,2564c0.3,0.8,0.3,1.6,0.3,2.6c0,10.8-8.2,44.3-18.7,85.2c13.2-1.9,30.5-5.4,39-6.3
						c12.6-1.4,19,1.5,20.5,11.3c-13.2,0.5-38.7,5.5-52.1,6.9c-4.5,0.5-7.9,0.6-10.5,0.6c-7.6,29.2-16.1,61.1-23.2,90.7
						c14.7-2.7,30.5-7.7,44.5-9.3c20-2.2,24,4.2,26.9,11.5c-18.2,0.8-49.5,8.1-59.8,9c-19.7,1.9-23.2-12.3-23.2-21.3
						c0-21.8,19.7-85.2,41.6-180.7c-5.8-1-8.7-4.1-10-11.1c26.3-1,62.9-12.2,78.4-14c14.7-1.7,21.1,3.6,22.1,13.5
						C419.3,2554.7,400.1,2561.4,380.9,2564z"/>
				</g>
				<g>
					<path fill="#FFEE5F" d="M495.1,2550.8c0.3,0.8,0.3,1.5,0.3,2.6c0,10.8-8.2,44.4-18.7,85.3c13.2-2.1,30.5-5.6,39-6.5
						c12.6-1.4,19,1.7,20.5,11.5c-13.2,0.3-38.7,5.2-52.1,6.8c-4.5,0.5-7.9,0.7-10.5,0.7c-7.6,29.3-16.1,61.4-23.2,91.2
						c14.7-3.1,30.5-8.3,44.5-9.9c20-2.3,24,4.2,26.9,11.5c-18.2,0.6-49.5,8.2-59.8,9.4c-19.7,2.3-23.2-11.8-23.2-20.7
						c0-21.8,19.7-85.8,41.6-181.5c-5.8-0.9-8.7-4-10-10.9c26.3-1.5,62.9-12.4,78.4-13.9c14.7-1.4,21.1,4.1,22.1,14
						C533.6,2541.4,514.4,2548.1,495.1,2550.8z"/>
				</g>
				<g>
					<path fill="#FFEE5F" d="M598.9,2663.4c-6.6,26-13.2,52.6-18.2,74.6c-4.2,0.3-10.5-0.1-10.5-14.1c0-22.6,16.3-77.6,40.5-175.9
						c7.9-0.5,11.6,4.3,11.6,10.6c0,10.5-10,50.9-21.1,95.1c48.2-8.2,76.9-51.3,76.9-86.7c0-27.1-17.1-36.7-39.2-35.6
						c-24,1.1-54.8,15.1-65.3,41.9c-3.4-3.4-5.3-6.9-5.3-12.4c0-22.1,29-39.1,61.1-40.8c42.6-2.2,65,23,65,55.8
						C694.4,2623.9,646.8,2659,598.9,2663.4z"/>
				</g>
			</g>
			<g>
				<g>
					<path fill="#FFEE5F" d="M239.4,2964.6c0-59.2,37.6-146,86.9-150.5c27.4-2.4,49.5,21.2,49.5,66.5c0,54.6-32.4,151.1-85,154.9
						C262.3,3037.4,239.4,3010.9,239.4,2964.6z M358.4,2873.9c0-36.3-11.3-50.7-27.4-49.2c-36.6,3.5-74.2,86.3-74.2,148.1
						c0,37.9,14.2,51.8,29.7,50.7C322.9,3021.2,358.4,2937.9,358.4,2873.9z"/>
				</g>
				<g>
					<path fill="#FFEE5F" d="M439.7,2820.6c0.3,0.8,0.3,1.8,0.3,3.1c0,11.6-9.2,49.5-20.3,95c13.2-2.1,30-5.6,38.2-6.6
						c12.6-1.5,19,1.5,20.5,11.3c-13.2,0.5-38.7,5.6-52.1,7.2c-3.9,0.5-7.1,0.6-9.7,0.6c-7.1,29.3-15,60.7-21.6,90.4
						c-7.6,0.9-11.1-5.6-11.1-14c0-20.5,20.5-94.4,42.4-186.5c-6.6-0.5-9.7-3.9-11.3-11.1c26.3-1.5,62.9-12.7,78.4-14.4
						c14.7-1.7,21.1,3.7,22.1,13.6C478.2,2811,459,2818.1,439.7,2820.6z"/>
				</g>
				<g>
					<path fill="#FFEE5F" d="M553.5,2808c0.3,0.8,0.3,1.8,0.3,3.1c0,11.6-9.2,49.3-20.3,94.7c13.2-1.9,30-5.1,38.2-5.8
						c12.6-1.1,19,2.1,20.5,12c-13.2-0.1-38.7,4.4-52.1,5.8c-3.9,0.4-7.1,0.5-9.7,0.5c-7.1,29.2-15,60.6-21.6,90.3
						c-7.6,0.8-11.1-5.6-11.1-14c0-20.5,20.5-94.5,42.4-186.2c-6.6-0.6-9.7-4-11.3-11.2c26.3-1.3,62.9-11.3,78.4-12.3
						c14.7-1,21.1,4.8,22.1,14.7C591.9,2799.3,572.7,2805.9,553.5,2808z"/>
				</g>
			</g>
		</g>
		<g>
			<g>
				<g>
					<path fill="#11BD75" d="M256.4,2651.1c14.2,37.7,30.3,74.4,46.6,110.7c-10,0.8-15.5-3.6-21.6-11.9
						c-12.1-16.6-21.9-41.3-34.5-90.5c-4.5,3.6-9,7.5-13.4,11.3c-8.2,31.1-16.8,64.7-24,95.5c-7.6,0.1-11.1-6.8-11.1-14.9
						c0-21.3,23.2-103.2,45.5-196.5c7.9,1.5,12.6,5,12.6,12.9c0,11.1-8.7,46.3-19.7,88.8c25.3-27.4,59.2-63,94-111.5
						c2.1,0.9,9.2,3.6,9.2,8.9C340.1,2566,302.2,2610.1,256.4,2651.1z"/>
				</g>
				<g>
					<path fill="#11BD75" d="M375.9,2559c0.3,0.8,0.3,1.6,0.3,2.6c0,10.8-8.2,44.3-18.7,85.2c13.2-1.9,30.5-5.4,39-6.3
						c12.6-1.4,19,1.5,20.5,11.3c-13.2,0.5-38.7,5.5-52.1,6.9c-4.5,0.5-7.9,0.6-10.5,0.6c-7.6,29.2-16.1,61.1-23.2,90.7
						c14.7-2.7,30.5-7.7,44.5-9.3c20-2.2,24,4.2,26.9,11.5c-18.2,0.8-49.5,8.1-59.8,9c-19.7,1.9-23.2-12.3-23.2-21.3
						c0-21.8,19.7-85.2,41.6-180.7c-5.8-1-8.7-4.1-10-11.1c26.3-1,62.9-12.2,78.4-14c14.7-1.7,21.1,3.6,22.1,13.5
						C414.3,2549.6,395.1,2556.3,375.9,2559z"/>
				</g>
				<g>
					<path fill="#11BD75" d="M490.1,2545.8c0.3,0.8,0.3,1.5,0.3,2.6c0,10.8-8.2,44.4-18.7,85.3c13.2-2.1,30.5-5.6,39-6.5
						c12.6-1.4,19,1.7,20.5,11.5c-13.2,0.3-38.7,5.2-52.1,6.8c-4.5,0.5-7.9,0.7-10.5,0.7c-7.6,29.3-16.1,61.4-23.2,91.2
						c14.7-3.1,30.5-8.3,44.5-9.9c20-2.3,24,4.2,26.9,11.5c-18.2,0.6-49.5,8.2-59.8,9.4c-19.7,2.3-23.2-11.8-23.2-20.7
						c0-21.8,19.7-85.8,41.6-181.5c-5.8-0.9-8.7-4-10-10.9c26.3-1.5,62.9-12.4,78.4-13.9c14.7-1.4,21.1,4.1,22.1,14
						C528.6,2536.4,509.3,2543.1,490.1,2545.8z"/>
				</g>
				<g>
					<path fill="#11BD75" d="M593.9,2658.4c-6.6,26-13.2,52.6-18.2,74.6c-4.2,0.3-10.5-0.1-10.5-14.1c0-22.6,16.3-77.6,40.5-175.9
						c7.9-0.5,11.6,4.3,11.6,10.6c0,10.5-10,50.9-21.1,95.1c48.2-8.2,76.9-51.3,76.9-86.7c0-27.1-17.1-36.7-39.2-35.6
						c-24,1.1-54.8,15.1-65.3,41.9c-3.4-3.4-5.3-6.9-5.3-12.4c0-22.1,29-39.1,61.1-40.8c42.6-2.2,65,23,65,55.8
						C689.4,2618.9,641.8,2654,593.9,2658.4z"/>
				</g>
			</g>
			<g>
				<g>
					<path fill="#11BD75" d="M234.4,2959.6c0-59.2,37.6-146,86.9-150.5c27.4-2.4,49.5,21.2,49.5,66.5c0,54.6-32.4,151.1-85,154.9
						C257.3,3032.4,234.4,3005.9,234.4,2959.6z M353.4,2868.9c0-36.3-11.3-50.7-27.4-49.2c-36.6,3.5-74.2,86.3-74.2,148.1
						c0,37.9,14.2,51.8,29.7,50.7C317.8,3016.2,353.4,2932.9,353.4,2868.9z"/>
				</g>
				<g>
					<path fill="#11BD75" d="M434.7,2815.6c0.3,0.8,0.3,1.8,0.3,3.1c0,11.6-9.2,49.5-20.3,95c13.2-2.1,30-5.6,38.2-6.6
						c12.6-1.5,19,1.5,20.5,11.3c-13.2,0.5-38.7,5.6-52.1,7.2c-3.9,0.5-7.1,0.6-9.7,0.6c-7.1,29.3-15,60.7-21.6,90.4
						c-7.6,0.9-11.1-5.6-11.1-14c0-20.5,20.5-94.4,42.4-186.5c-6.6-0.5-9.7-3.9-11.3-11.1c26.3-1.5,62.9-12.7,78.4-14.4
						c14.7-1.7,21.1,3.7,22.1,13.6C473.2,2806,453.9,2813.1,434.7,2815.6z"/>
				</g>
				<g>
					<path fill="#11BD75" d="M548.5,2803c0.3,0.8,0.3,1.8,0.3,3.1c0,11.6-9.2,49.3-20.3,94.7c13.2-1.9,30-5.1,38.2-5.8
						c12.6-1.1,19,2.1,20.5,12c-13.2-0.1-38.7,4.4-52.1,5.8c-3.9,0.4-7.1,0.5-9.7,0.5c-7.1,29.2-15,60.6-21.6,90.3
						c-7.6,0.8-11.1-5.6-11.1-14c0-20.5,20.5-94.5,42.4-186.2c-6.6-0.6-9.7-4-11.3-11.2c26.3-1.3,62.9-11.3,78.4-12.3
						c14.7-1,21.1,4.8,22.1,14.7C586.9,2794.2,567.7,2800.9,548.5,2803z"/>
				</g>
			</g>
		</g>
	</g>
	<g>
		<g>
			<g>
				<path fill="#FFFFFF" d="M252.5,2647.2c14.2,37.7,30.3,74.4,46.6,110.7c-10,0.8-15.5-3.6-21.6-11.9
					c-12.1-16.6-21.9-41.3-34.5-90.5c-4.5,3.6-9,7.5-13.4,11.3c-8.2,31.1-16.8,64.7-24,95.5c-7.6,0.1-11.1-6.8-11.1-14.9
					c0-21.3,23.2-103.2,45.5-196.5c7.9,1.5,12.6,5,12.6,12.9c0,11.1-8.7,46.3-19.7,88.8c25.3-27.4,59.2-63,94-111.5
					c2.1,0.9,9.2,3.6,9.2,8.9C336.2,2562.1,298.3,2606.2,252.5,2647.2z"/>
			</g>
			<g>
				<path fill="#FFFFFF" d="M372,2555.1c0.3,0.8,0.3,1.6,0.3,2.6c0,10.8-8.2,44.3-18.7,85.2c13.2-1.9,30.5-5.4,39-6.3
					c12.6-1.4,19,1.5,20.5,11.3c-13.2,0.5-38.7,5.5-52.1,6.9c-4.5,0.5-7.9,0.6-10.5,0.6c-7.6,29.2-16.1,61.1-23.2,90.7
					c14.7-2.7,30.5-7.7,44.5-9.3c20-2.2,24,4.2,26.9,11.5c-18.2,0.8-49.5,8.1-59.8,9c-19.7,1.9-23.2-12.3-23.2-21.3
					c0-21.8,19.7-85.2,41.6-180.7c-5.8-1-8.7-4.1-10-11.1c26.3-1,62.9-12.2,78.4-14c14.7-1.7,21.1,3.6,22.1,13.5
					C410.4,2545.7,391.2,2552.4,372,2555.1z"/>
			</g>
			<g>
				<path fill="#FFFFFF" d="M486.2,2541.9c0.3,0.8,0.3,1.5,0.3,2.6c0,10.8-8.2,44.4-18.7,85.3c13.2-2.1,30.5-5.6,39-6.5
					c12.6-1.4,19,1.7,20.5,11.5c-13.2,0.3-38.7,5.2-52.1,6.8c-4.5,0.5-7.9,0.7-10.5,0.7c-7.6,29.3-16.1,61.4-23.2,91.2
					c14.7-3.1,30.5-8.3,44.5-9.9c20-2.3,24,4.2,26.9,11.5c-18.2,0.6-49.5,8.2-59.8,9.4c-19.7,2.3-23.2-11.8-23.2-20.7
					c0-21.8,19.7-85.8,41.6-181.5c-5.8-0.9-8.7-4-10-10.9c26.3-1.5,62.9-12.4,78.4-13.9c14.7-1.4,21.1,4.1,22.1,14
					C524.7,2532.5,505.4,2539.2,486.2,2541.9z"/>
			</g>
			<g>
				<path fill="#FFFFFF" d="M589.9,2654.5c-6.6,26-13.2,52.6-18.2,74.6c-4.2,0.4-10.5-0.1-10.5-14.1c0-22.6,16.3-77.6,40.5-175.9
					c7.9-0.5,11.6,4.3,11.6,10.6c0,10.5-10,50.9-21.1,95.1c48.2-8.2,76.9-51.3,76.9-86.7c0-27.1-17.1-36.7-39.2-35.6
					c-24,1.1-54.8,15.1-65.3,41.9c-3.4-3.4-5.3-6.9-5.3-12.4c0-22.1,29-39.1,61.1-40.8c42.6-2.2,65,23,65,55.8
					C685.5,2615,637.9,2650.1,589.9,2654.5z"/>
			</g>
		</g>
		<g>
			<g>
				<path fill="#FFFFFF" d="M230.5,2955.7c0-59.2,37.6-146,86.9-150.5c27.4-2.4,49.5,21.2,49.5,66.5c0,54.6-32.4,151.1-85,154.9
					C253.4,3028.5,230.5,3002,230.5,2955.7z M349.5,2865c0-36.3-11.3-50.7-27.4-49.2c-36.6,3.5-74.2,86.3-74.2,148.1
					c0,37.9,14.2,51.8,29.7,50.7C313.9,3012.3,349.5,2929,349.5,2865z"/>
			</g>
			<g>
				<path fill="#FFFFFF" d="M430.8,2811.7c0.3,0.8,0.3,1.8,0.3,3.1c0,11.6-9.2,49.5-20.3,95c13.2-2.1,30-5.6,38.2-6.6
					c12.6-1.5,19,1.5,20.5,11.3c-13.2,0.5-38.7,5.6-52.1,7.2c-3.9,0.5-7.1,0.6-9.7,0.6c-7.1,29.3-15,60.7-21.6,90.4
					c-7.6,0.9-11.1-5.6-11.1-14c0-20.5,20.5-94.4,42.4-186.5c-6.6-0.5-9.7-3.9-11.3-11.1c26.3-1.5,62.9-12.7,78.4-14.4
					c14.7-1.7,21.1,3.7,22.1,13.6C469.3,2802.1,450,2809.2,430.8,2811.7z"/>
			</g>
			<g>
				<path fill="#FFFFFF" d="M544.6,2799.1c0.3,0.8,0.3,1.8,0.3,3.1c0,11.6-9.2,49.3-20.3,94.7c13.2-1.9,30-5.1,38.2-5.8
					c12.6-1.1,19,2.1,20.5,12c-13.2-0.1-38.7,4.4-52.1,5.8c-3.9,0.4-7.1,0.5-9.7,0.5c-7.1,29.2-15,60.6-21.6,90.3
					c-7.6,0.8-11.1-5.6-11.1-14c0-20.5,20.5-94.5,42.4-186.2c-6.6-0.6-9.7-4-11.3-11.2c26.3-1.3,62.9-11.3,78.4-12.3
					c14.7-1,21.1,4.8,22.1,14.7C583,2790.3,563.8,2797,544.6,2799.1z"/>
			</g>
		</g>
	</g>
	<g>
		<g>
			<path fill="#FFEE5F" d="M367.8,2470.2h-8.6l-0.3-38.7c3.8-0.9,6.6-1.2,9.1-1.2c9.6,0,16.2,4.9,16.2,13.4
				c0,9.1-8.4,13.4-16.2,12.2L367.8,2470.2z M367.6,2449.2c4.7,0.4,7.1-1.8,7.1-5.7c0-3.4-2.1-6.3-7-5.5L367.6,2449.2z"/>
		</g>
		<g>
			<path fill="#FFEE5F" d="M408.6,2463l-0.1,7.2h-19.4l-0.1-7.2l-0.2-31.8h9.2l-0.2,31.8H408.6z"/>
		</g>
		<g>
			<path fill="#FFEE5F" d="M433.5,2461.8v8.4h-21l-0.3-39h20.7v8.4h-11.5l-0.1,6.8h8.5v7.2h-8.6l-0.1,8.1H433.5z"/>
		</g>
		<g>
			<path fill="#FFEE5F" d="M454.7,2462.5h-8.4l-1.6,7.8h-9l9.8-39h10.1l9.8,39h-9.2L454.7,2462.5z M453.2,2455.2l-2.1-10.2l-0.6-4.7
				l-0.6,4.7l-2.1,10.2H453.2z"/>
		</g>
		<g>
			<path fill="#FFEE5F" d="M490.3,2434.9l-3.7,6.5c-1.2-1.6-3-2.8-5.5-2.8c-2.9,0-4.1,1.8-4.1,3.5c0,1.8,1.5,3.2,4.9,5.2
				c4.2,2.5,9.4,5.4,9.4,12.4c0,7-5,11.5-12.2,11.5c-5.5,0-10.1-2.6-11.9-4.9l3.8-7.3c2,2,4.9,3.3,7.5,3.3c2.6,0,4-1.3,4-3.3
				c0-2.6-2.3-3.6-5.4-5.4c-4.6-2.7-8.8-6.1-8.8-12.2c0-6.3,4.4-11,11.4-11C484.1,2430.3,487.8,2432,490.3,2434.9z"/>
		</g>
		<g>
			<path fill="#FFEE5F" d="M516.8,2461.8v8.4h-21l-0.3-39h20.7v8.4h-11.5l-0.1,6.8h8.5v7.2h-8.6l-0.1,8.1H516.8z"/>
		</g>
	</g>
	<g>
		<g>
			<path fill="#FFEE5F" d="M341.4,3083.3h-8.8l-0.2,31.8h-8.6l-0.2-31.8h-8.8l-0.1-7.2h26.8L341.4,3083.3z"/>
		</g>
		<g>
			<path fill="#FFEE5F" d="M370.5,3076.1l-0.3,39h-8.6l-0.1-14.1h-7.3l-0.1,14.1h-8.6l-0.3-39h9.2l-0.1,17.7h7.2l-0.1-17.7H370.5z"
				/>
		</g>
		<g>
			<path fill="#FFEE5F" d="M398,3106.7v8.4h-21l-0.3-39h20.7v8.4h-11.5l-0.1,6.8h8.5v7.2h-8.6l-0.1,8.1H398z"/>
		</g>
		<g>
			<path fill="#FFEE5F" d="M426.9,3116c-7.6,0-13.2-8.8-13.2-20.4c0-11.7,5.9-20.5,14.4-20.5c6.1,0,10.9,4.1,12.4,10.9l-7.4,3.3
				c-0.7-3.3-2.2-5.6-5.1-5.6c-3.6,0-6.2,4.8-6.2,11.8c0,7.2,2.5,12.3,6.5,12.3c2.3,0,4.2-2.1,5-5.3h-5.5v-6.4H441v18.8h-5.7
				l-0.2-7.5C434.2,3112.1,431.5,3116,426.9,3116z"/>
		</g>
		<g>
			<path fill="#FFEE5F" d="M475.1,3115.1h-9.4c-1.7-2.4-1.1-7.2-2.3-10.9c-0.8-2.3-2.4-4-5.3-4.4l-0.2,15.2h-8.5l-0.3-38.7
				c3.8-0.9,6.6-1.2,9.1-1.2c9.5,0,15.9,4.1,15.9,12.2c0,5.1-3.9,8.9-8.4,9.9c2.5,0.7,4.4,2.8,5.4,4.5
				C473.5,3106.1,472.9,3112.1,475.1,3115.1z M465,3087.9c0-3.6-2.8-5.7-6.9-5l-0.1,10.7C462.2,3093.9,465,3091.6,465,3087.9z"/>
		</g>
		<g>
			<path fill="#FFEE5F" d="M496.1,3107.4h-8.4l-1.6,7.8h-9l9.8-39h10.1l9.8,39h-9.2L496.1,3107.4z M494.6,3100.1l-2.1-10.2l-0.6-4.7
				l-0.6,4.7l-2.1,10.2H494.6z"/>
		</g>
		<g>
			<path fill="#FFEE5F" d="M531.6,3079.8l-3.7,6.5c-1.2-1.6-3-2.8-5.5-2.8c-2.9,0-4.1,1.8-4.1,3.5c0,1.8,1.5,3.2,4.9,5.2
				c4.2,2.5,9.4,5.4,9.4,12.4c0,7-5,11.5-12.2,11.5c-5.5,0-10.1-2.6-11.9-4.9l3.8-7.3c2,2,4.9,3.3,7.5,3.3c2.6,0,4-1.3,4-3.3
				c0-2.6-2.3-3.6-5.4-5.4c-4.6-2.7-8.8-6.1-8.8-12.2c0-6.3,4.4-11,11.4-11C525.4,3075.2,529.1,3076.9,531.6,3079.8z"/>
		</g>
		<g>
			<path fill="#FFEE5F" d="M558,3079.8l-3.7,6.5c-1.2-1.6-3-2.8-5.5-2.8c-2.9,0-4.1,1.8-4.1,3.5c0,1.8,1.5,3.2,4.9,5.2
				c4.2,2.5,9.4,5.4,9.4,12.4c0,7-5,11.5-12.2,11.5c-5.5,0-10.1-2.6-11.9-4.9l3.8-7.3c2,2,4.9,3.3,7.5,3.3c2.6,0,4-1.3,4-3.3
				c0-2.6-2.3-3.6-5.4-5.4c-4.6-2.7-8.8-6.1-8.8-12.2c0-6.3,4.4-11,11.4-11C551.7,3075.2,555.4,3076.9,558,3079.8z"/>
		</g>
	</g>
</g>
<g>
	<g>
		<g id="XMLID_6_">
			<g>
				<g>
					<path fill="#B4ECFA" d="M738,975.7l16.4,259.4c-27.3,1.7-48,25.3-46.3,52.6l-512.7,32.4c-1.7-27.3-25.3-48-52.6-46.3
						l-16.4-259.4c27.3-1.7,48-25.3,46.3-52.6l512.7-32.4C687.2,956.7,710.7,977.5,738,975.7z"/>
				</g>
			</g>
		</g>
		<g>
			<path fill="#FFFFFF" d="M753.9,1226.3c-3.3,0.2-6.2-2.3-6.4-5.6l-0.1-1.2c-0.2-3.3,2.3-6.2,5.6-6.4c3.3-0.2,6.2,2.3,6.4,5.6
				l0.1,1.2C759.7,1223.2,757.2,1226.1,753.9,1226.3z M752.4,1203.4c-3.3,0.2-6.2-2.3-6.4-5.6l-0.1-1.2c-0.2-3.3,2.3-6.2,5.6-6.4
				c3.3-0.2,6.2,2.3,6.4,5.6l0.1,1.2C758.3,1200.4,755.8,1203.2,752.4,1203.4z M751,1180.6c-3.3,0.2-6.2-2.3-6.4-5.6l-0.1-1.2
				c-0.2-3.3,2.3-6.2,5.6-6.4s6.2,2.3,6.4,5.6l0.1,1.2C756.8,1177.5,754.3,1180.4,751,1180.6z M749.5,1157.7
				c-3.3,0.2-6.2-2.3-6.4-5.6l-0.1-1.2c-0.2-3.3,2.3-6.2,5.6-6.4c3.3-0.2,6.2,2.3,6.4,5.6l0.1,1.2
				C755.4,1154.7,752.9,1157.5,749.5,1157.7z M748.1,1134.9c-3.3,0.2-6.2-2.3-6.4-5.6l-0.1-1.2c-0.2-3.3,2.3-6.2,5.6-6.4
				c3.3-0.2,6.2,2.3,6.4,5.6l0.1,1.2C753.9,1131.8,751.4,1134.7,748.1,1134.9z M746.7,1112c-3.3,0.2-6.2-2.3-6.4-5.6l-0.1-1.2
				c-0.2-3.3,2.3-6.2,5.6-6.4c3.3-0.2,6.2,2.3,6.4,5.6l0.1,1.2C752.5,1109,750,1111.8,746.7,1112z M745.2,1089.2
				c-3.3,0.2-6.2-2.3-6.4-5.6l-0.1-1.2c-0.2-3.3,2.3-6.2,5.6-6.4c3.3-0.2,6.2,2.3,6.4,5.6l0.1,1.2
				C751.1,1086.1,748.5,1089,745.2,1089.2z M743.8,1066.3c-3.3,0.2-6.2-2.3-6.4-5.6l-0.1-1.2c-0.2-3.3,2.3-6.2,5.6-6.4
				c3.3-0.2,6.2,2.3,6.4,5.6l0.1,1.2C749.6,1063.3,747.1,1066.1,743.8,1066.3z M742.3,1043.5c-3.3,0.2-6.2-2.3-6.4-5.6l-0.1-1.2
				c-0.2-3.3,2.3-6.2,5.6-6.4c3.3-0.2,6.2,2.3,6.4,5.6l0.1,1.2C748.2,1040.4,745.6,1043.3,742.3,1043.5z M740.9,1020.7
				c-3.3,0.2-6.2-2.3-6.4-5.6l-0.1-1.2c-0.2-3.3,2.3-6.2,5.6-6.4c3.3-0.2,6.2,2.3,6.4,5.6l0.1,1.2
				C746.7,1017.6,744.2,1020.4,740.9,1020.7z M739.4,997.8c-3.3,0.2-6.2-2.3-6.4-5.6L733,991c-0.2-3.3,2.3-6.2,5.6-6.4
				c3.3-0.2,6.2,2.3,6.4,5.6l0.1,1.2C745.3,994.7,742.8,997.6,739.4,997.8z"/>
		</g>
		<g>
			<path fill="#FFFFFF" d="M142.3,1264.9c-3.3,0.2-6.2-2.3-6.4-5.6l-0.1-1.2c-0.2-3.3,2.3-6.2,5.6-6.4c3.3-0.2,6.2,2.3,6.4,5.6
				l0.1,1.2C148.1,1261.8,145.6,1264.7,142.3,1264.9z M140.8,1242.1c-3.3,0.2-6.2-2.3-6.4-5.6l-0.1-1.2c-0.2-3.3,2.3-6.2,5.6-6.4
				c3.3-0.2,6.2,2.3,6.4,5.6l0.1,1.2C146.7,1239,144.1,1241.9,140.8,1242.1z M139.4,1219.2c-3.3,0.2-6.2-2.3-6.4-5.6l-0.1-1.2
				c-0.2-3.3,2.3-6.2,5.6-6.4c3.3-0.2,6.2,2.3,6.4,5.6l0.1,1.2C145.2,1216.1,142.7,1219,139.4,1219.2z M137.9,1196.4
				c-3.3,0.2-6.2-2.3-6.4-5.6l-0.1-1.2c-0.2-3.3,2.3-6.2,5.6-6.4c3.3-0.2,6.2,2.3,6.4,5.6l0.1,1.2
				C143.8,1193.3,141.3,1196.2,137.9,1196.4z M136.5,1173.5c-3.3,0.2-6.2-2.3-6.4-5.6l-0.1-1.2c-0.2-3.3,2.3-6.2,5.6-6.4
				c3.3-0.2,6.2,2.3,6.4,5.6l0.1,1.2C142.3,1170.5,139.8,1173.3,136.5,1173.5z M135.1,1150.7c-3.3,0.2-6.2-2.3-6.4-5.6l-0.1-1.2
				c-0.2-3.3,2.3-6.2,5.6-6.4c3.3-0.2,6.2,2.3,6.4,5.6l0.1,1.2C140.9,1147.6,138.4,1150.5,135.1,1150.7z M133.6,1127.8
				c-3.3,0.2-6.2-2.3-6.4-5.6l-0.1-1.2c-0.2-3.3,2.3-6.2,5.6-6.4c3.3-0.2,6.2,2.3,6.4,5.6l0.1,1.2
				C139.5,1124.8,136.9,1127.6,133.6,1127.8z M132.2,1105c-3.3,0.2-6.2-2.3-6.4-5.6l-0.1-1.2c-0.2-3.3,2.3-6.2,5.6-6.4
				c3.3-0.2,6.2,2.3,6.4,5.6l0.1,1.2C138,1101.9,135.5,1104.8,132.2,1105z M130.7,1082.1c-3.3,0.2-6.2-2.3-6.4-5.6l-0.1-1.2
				c-0.2-3.3,2.3-6.2,5.6-6.4c3.3-0.2,6.2,2.3,6.4,5.6l0.1,1.2C136.6,1079.1,134,1081.9,130.7,1082.1z M129.3,1059.3
				c-3.3,0.2-6.2-2.3-6.4-5.6l-0.1-1.2c-0.2-3.3,2.3-6.2,5.6-6.4c3.3-0.2,6.2,2.3,6.4,5.6l0.1,1.2
				C135.1,1056.2,132.6,1059.1,129.3,1059.3z M127.8,1036.4c-3.3,0.2-6.2-2.3-6.4-5.6l-0.1-1.2c-0.2-3.3,2.3-6.2,5.6-6.4
				c3.3-0.2,6.2,2.3,6.4,5.6l0.1,1.2C133.7,1033.4,131.2,1036.2,127.8,1036.4z"/>
		</g>
	</g>
	<g>
		<path fill="#FF5029" d="M678.3,1239.8l-459.4,29c-8.2,0.5-15.2-5.7-15.7-13.9l-14.5-229.4c-0.5-8.2,5.7-15.2,13.9-15.7l459.4-29
			c8.2-0.5,15.2,5.7,15.7,13.9l14.5,229.4C692.7,1232.2,686.5,1239.2,678.3,1239.8z M202.8,1013.4c-6.2,0.4-10.9,5.7-10.5,11.9
			l14.5,229.4c0.4,6.2,5.7,10.9,11.9,10.5l459.4-29c6.2-0.4,10.9-5.7,10.5-11.9l-14.5-229.4c-0.4-6.2-5.7-10.9-11.9-10.5
			L202.8,1013.4z"/>
	</g>
	<g>
		<g>
			<path fill="#FF5338" d="M327.2,1124.4c-6.8-0.4-7.7-7-8.3-17.5c-0.3-4.7-0.5-9.6-0.7-14.8c-8,0.7-16.7,2.2-20.4,2.4
				c-4.6,11.1-8.9,22.3-12.5,32.5c-2.3,0.1-3.3-3.8-3.5-6.2c-0.4-5.6,3.4-15.8,8.7-28c-1.3-1.3-1.9-3.1-2.1-5.3
				c1.4,0.1,2.8,0.3,4.2,0.3c8-17.6,18.5-38.3,25-54.8c4.2,1.3,6.2,4.1,6.7,10.7C324.7,1051.7,325.1,1095.9,327.2,1124.4z
				 M318.1,1089.3c-0.4-13.3-0.5-28.2-0.2-43.7c-4.7,12.2-11.2,27.1-17.4,42.2c4-0.1,7.3-0.5,9-0.6
				C314.8,1086.9,316.9,1087.9,318.1,1089.3z"/>
		</g>
		<g>
			<path fill="#FF5338" d="M399.4,1082.5c-5.5,22.6-10.9,39.7-22.8,40.5c-5,0.3-8.9-3.2-9.5-13.8c-2.7,8.8-7.2,14.9-14.5,15.4
				c-7.2,0.5-14.4-4.9-15.3-19.2c-1.2-19.3,10-41.4,23.2-42.2c5.8-0.4,10.6,3.6,12.2,9.8c4.9-25.9,6-31.7,9.2-50.8
				c2.7-0.2,5,0.8,5.2,4.4c0.7,10.6-15.1,74.1-14.2,88.5c0.2,2.9,1.1,4.1,2.9,4c7.8-0.5,14.2-17.8,19.3-37.5c0.3-1.1,1.2-1.6,2-1.6
				C398.4,1079.8,399.6,1081,399.4,1082.5z M371,1081.2c0.1-0.4,0.2-0.7,0.2-1.2c-1.4-7.8-4.4-12.7-8.6-12.4
				c-8.7,0.5-19,22.1-17.8,42.4c0.4,6.1,1.7,11.1,6.8,10.8C362,1120.1,368,1097.1,371,1081.2z"/>
		</g>
		<g>
			<path fill="#FF5338" d="M475.2,1077.7c-5.5,22.6-10.9,39.7-22.9,40.5c-4.9,0.3-10.4-2.7-11-11.6c-0.7-11.7,6.9-31.6,6.3-40.1
				c-0.2-3.2-1.6-4.6-3.7-4.5c-5.8,0.4-13,12-17,29.2c-1.8,7.9-3.2,18.6-4.9,27.2c-4.3,0.8-5.8-2.4-6-6.2c-0.7-10.8,8-34.9,7.4-44.7
				c-0.2-3.1-1.3-4.2-3.2-4c-6.1,0.4-14.7,11.5-18.7,27.9c-1.1,4.5-3.3,15.6-5.3,28.6c-5,0.3-5.9-4.9-6.1-7.4
				c-0.5-7.9,4.1-24.3,8.8-50.2c3.3-0.3,5.5,0.9,5.7,5c0.1,1.7-0.1,4-0.5,6.6c4-8.1,9.1-14.2,16.2-14.7c5.7-0.4,9.4,3.2,10.3,10.7
				c3-7.3,7.1-11.8,13.7-12.2c4.9-0.3,10.1,1.7,10.6,9.9c0.7,11.1-7.1,33.1-6.5,42.7c0.1,2.2,0.9,4,3.1,3.8
				c7.8-0.5,14.3-17.8,19.5-37.5c0.3-1.1,1.2-1.6,2-1.6C474.2,1075,475.5,1076.2,475.2,1077.7z"/>
		</g>
		<g>
			<path fill="#FF5338" d="M466.7,1105.4c-0.6-9.7,6.3-41.1,8.6-49.6c3.3-0.2,5.4,0.1,5.6,3.8c0.5,8.4-8,38.4-7.4,48.8
				c0.2,3.1,1.2,4.3,3.1,4.2c8.7-0.5,15.8-24.9,19.1-37.5c0.3-1.1,1.2-1.6,2-1.6c1.1-0.1,2.6,0.9,2.3,2.6
				c-4.2,16.8-9.4,39.7-22.7,40.5C470.9,1117,467.1,1111.5,466.7,1105.4z M475.2,1040c-0.4-5.8,6.1-8.3,10.4-5.8
				c2,3.7,1.6,10.7-4.4,11.1C478.3,1045.4,475.5,1043.8,475.2,1040z"/>
		</g>
		<g>
			<path fill="#FF5338" d="M529.1,1074.3c-3.9,16.7-11.2,39.8-26.4,40.7c-6.5,0.4-10.6-3.8-11-10.7c-0.4-7,2.4-21.4,6.8-44l-0.7,0
				c-5,0.3-7.5-2.1-7.5-5.6c2.8,0.4,6.1,0.3,9.2,0.1c1.4-7.1,2.8-15,4.4-23.6c2.2-0.1,5.1,0.3,5.3,4.3c0.2,3-1,10.1-2.6,18.7
				c2.4-0.3,4.3-0.5,5.5-0.6c5.1-0.3,8.2,1.9,7.9,5.2c-4.3-0.3-9.8,0.2-14.3,0.7c-3.4,17.4-7.9,39-7.4,47.2c0.2,3.4,1.3,4.4,3.6,4.3
				c10.3-0.7,18.8-20.7,22.8-37.4c0.4-1.5,1.3-1.9,2.1-2C528.5,1071.6,529.4,1073.2,529.1,1074.3z"/>
		</g>
		<g>
			<path fill="#FF5338" d="M328.7,1200.8c-1.6-25.7,12.4-64.1,33.8-65.4c11.9-0.8,22.2,10,23.5,29.6c1.5,23.8-10,64.8-32.9,66.3
				C340.6,1232.1,329.9,1220.9,328.7,1200.8z M378.1,1161.8c-1-15.8-6.3-22.2-13.3-21.8c-15.9,1-30,37.3-28.3,64.2
				c1,16.5,7.6,22.4,14.4,22C366.6,1225.2,379.9,1189.6,378.1,1161.8z"/>
		</g>
		<g>
			<path fill="#FF5338" d="M452.9,1185.9c-5.5,22.6-10.9,39.7-22.9,40.5c-5.1,0.3-10-3.7-10.5-11.6c-0.7-11,6.9-31.6,6.3-40.1
				c-0.2-2.7-1.2-4.6-3.7-4.5c-5.6,0.4-16.1,11.2-20.4,24c-2.5,7.4-5.4,21.7-6.8,32.7c-3.9,0.6-5.8-3.4-6.1-7.1
				c-0.5-7.4,5.4-30.3,8.7-50.7c3.4-0.2,5.5,1.7,5.7,5c0.2,2.4-0.7,6.6-1.7,11.4c4.4-9.2,10.4-18.8,19.8-19.4
				c6.6-0.4,11.2,4,11.6,11c0.6,10.1-7,32.1-6.5,41.4c0.2,3.5,1.6,4,2.8,4c7.8-0.5,14.2-17.8,19.3-37.5c0.3-1.1,1.2-1.6,2-1.6
				C452,1183.2,453.2,1184.4,452.9,1185.9z"/>
		</g>
		<g>
			<path fill="#FF5338" d="M498.9,1183c-4.9,22.8-16,40.1-31.3,41c-9.8,0.6-20.8-6-21.8-22.2c-1.2-19.7,11.7-38.1,24-38.8
				c7.8-0.5,11.8,6.3,12.2,12.9c0.7,11.6-9.5,23.8-20.4,24.5c-2.5,0.2-5.4-0.2-7.8-1.5c-0.1,2-0.1,4,0,6.1
				c0.7,10.4,4.9,15.9,11.4,15.5c10.2-0.6,22.5-14.1,29.3-38.1c0.4-1.5,1.4-1.9,2.2-2C497.9,1180.3,499.2,1181.3,498.9,1183z
				 M453.9,1195.9c1.8,0.5,3.3,0.6,4.9,0.5c10.8-0.7,17.1-14.5,16.5-24.6c-0.3-4.3-1.7-5.3-3.7-5.2
				C465.3,1167,455.7,1178.5,453.9,1195.9z"/>
		</g>
	</g>
	<g>
		
			<rect x="613.9" y="985.7" transform="matrix(0.998 -6.303673e-02 6.303673e-02 0.998 -68.9789 41.0259)" fill="#FF5029" width="3.6" height="255.9"/>
	</g>
	<g>
		<g>
			<path fill="#FFFFFF" d="M627.6,1039c0-5.8-1-10.1-1.1-11.9c-0.1-2.2,0.9-2.9,2-3c5.4-0.3,16.7,15.3,26.7,14.7
				c2.2-0.1,3.5-1,3.3-3.1c-0.2-3.8-4.9-7.4-9.6-8.8c0.8-0.6,1.4-0.8,2.3-0.9c4.5-0.3,8.7,4,9,8.4c0.2,3.9-2.9,6.2-6.4,6.4
				c-9.5,0.6-20.4-13.1-25.5-15.3c0.4,4.6,1.3,8,1.4,10C629.9,1038.1,628.9,1038.8,627.6,1039z"/>
		</g>
		<g>
			<path fill="#FFFFFF" d="M659.8,1057.7c-2.3,0.1-15.5-7.4-31.7-14.1c0.4-0.7,1-1.3,2-1.3c3.9-0.2,16.2,7.1,29.5,13.4
				c-0.3-2.9-1.4-6.4-1.6-9.1c-0.1-1.6,0.1-2.8,2.1-3.2c0,3.9,1.2,8.9,1.3,11C661.6,1056.7,660.6,1057.7,659.8,1057.7z"/>
		</g>
		<g>
			<path fill="#FFFFFF" d="M660.8,1072.5c-2.3,0.1-15.5-7.4-31.7-14.1c0.4-0.7,1-1.3,2-1.3c3.9-0.2,16.2,7.1,29.5,13.4
				c-0.3-2.9-1.4-6.4-1.6-9.1c-0.1-1.6,0.1-2.8,2.1-3.2c0,3.9,1.2,8.9,1.3,11C662.6,1071.5,661.5,1072.5,660.8,1072.5z"/>
		</g>
		<g>
			<path fill="#FFFFFF" d="M648.8,1076.1c1,1.2,1.5,2.3,1.6,3.7c0.2,3.8-3.2,6.5-7.5,6.7c-6.3,0.4-12.9-4.4-13.3-10.1
				c-0.2-2.5,0.8-5.3,3.8-5.2c-1.3,0.8-1.9,2.2-1.8,4c0.4,5.5,7.2,9.4,12.2,9.1c3.3-0.2,4.5-2.2,4.3-5c-0.1-1.4-0.5-3.1-1.5-4.8
				c0.6-0.6,1.2-0.8,1.5-0.9c2.4-0.2,6.9,6.7,13.2,12.6c-0.1-2.9-1.2-6.4-1.3-8.9c-0.1-2.1,0.5-2.9,2-3.3c0,3.6,1.3,9.1,1.4,11.1
				c0.1,2.1-0.8,2.8-1.7,2.8C658.8,1088.4,654.4,1081.9,648.8,1076.1z"/>
		</g>
		<g>
			<path fill="#FFFFFF" d="M643.1,1091.3c0.1,4,0.7,8.9,0.8,10.6c0.1,2-0.4,2.8-1.7,3.2l-0.7-10.4
				C641.4,1092.9,641.7,1091.7,643.1,1091.3z"/>
		</g>
		<g>
			<path fill="#FFFFFF" d="M648.1,1120.6c-2.3,2.3-4.8,3.3-7.2,3.5c-4.4,0.3-8.5-2.8-8.8-6.9c-0.2-3.3,2.1-6.6,6-6.9
				c4.3-0.3,7.9,3.4,9.8,7c1.3-1.5,3.7-4.3,8-4.6c5.1-0.3,9.3,3.2,9.6,7.9c0.2,3.8-2.2,6.6-6.4,6.9
				C655,1127.7,651.2,1125,648.1,1120.6z M640.3,1121.5c2.4-0.2,4.9-1.5,6.7-3.2c-2.2-3.1-5.2-5.6-9.2-5.3c-3.1,0.2-4.2,1.9-4.1,3.7
				C633.9,1119.4,636.8,1121.7,640.3,1121.5z M659.8,1124.8c2.7-0.2,4.4-1.2,4.3-3.6c-0.2-3.4-4.4-6.1-8.4-5.8
				c-3.2,0.2-5,2.3-6.4,3.9C652,1123.5,656.1,1125.1,659.8,1124.8z"/>
		</g>
		<g>
			<path fill="#FFFFFF" d="M644.6,1141.3c-3.1-0.8-6.7-1.9-10.4-2.9c0-0.8,0.8-1.3,1.4-1.3c0.8-0.1,4.2,0.7,8.8,1.8
				c-0.3-2.4-0.6-4.3-0.7-5.6c-0.2-2.9,0.8-3.8,2.1-3.9c3.4-0.2,10.2,5.9,20.6,10.6c-0.1,0.8-0.9,1.3-1.6,1.4
				c-2.8,0.2-11.3-6.3-19.6-10.2c0.1,2.7,0.8,5.8,1.3,8.3c4.1,1,8.8,2.3,13.1,3.5c-0.1,0.8-0.9,1.3-1.8,1.3
				c-1.4,0.1-5.3-0.7-10.8-2.2c0,0.4,0.1,0.8,0.1,1.2c0.1,2.2-0.7,3.2-2.2,3.5C644.8,1144.7,644.7,1142.9,644.6,1141.3z"/>
		</g>
		<g>
			<path fill="#FFFFFF" d="M647.1,1164.7c-5.6,0.4-12-2.6-12.3-8.2c-0.3-4.4,3.4-7.2,9-7.6c8.9-0.6,24,4.9,24.5,12.6
				c0.1,2-0.7,3.4-1.6,3.8c1.8-6.3-7.7-11.6-16.8-13.3c3,1.2,5,3.2,5.1,5.8C655.2,1161.1,652.5,1164.4,647.1,1164.7z M648.1,1162.2
				c3.7-0.2,5.3-1.7,5.2-3.8c-0.2-3-3.8-6.1-8.6-7c-0.7,0-1.4,0-2.1,0.1c-4,0.2-6.3,1.6-6.1,4.2
				C636.7,1159.4,642.1,1162.6,648.1,1162.2z"/>
		</g>
		<g>
			<path fill="#FFFFFF" d="M654.8,1171.9c1,1.2,1.5,2.3,1.6,3.7c0.2,3.8-3.2,6.5-7.5,6.7c-6.3,0.4-12.9-4.4-13.3-10.1
				c-0.2-2.5,0.8-5.3,3.8-5.2c-1.3,0.8-1.9,2.2-1.8,4c0.4,5.5,7.2,9.4,12.2,9.1c3.3-0.2,4.5-2.2,4.3-5c-0.1-1.4-0.5-3.1-1.5-4.8
				c0.6-0.6,1.2-0.8,1.5-0.9c2.4-0.2,6.9,6.7,13.2,12.6c-0.1-2.9-1.2-6.4-1.3-8.9c-0.1-2.1,0.5-2.9,2-3.3c0,3.6,1.3,9.1,1.4,11.1
				c0.1,2.1-0.8,2.8-1.7,2.8C664.9,1184.2,660.4,1177.8,654.8,1171.9z"/>
		</g>
		<g>
			<path fill="#FFFFFF" d="M661.4,1202.5c-8.9,0.6-24-4.9-24.5-12.6c-0.1-2,0.7-3.4,1.6-3.8c-1.8,6.3,7.7,11.6,16.8,13.3
				c-3-1.3-5-3.2-5.1-5.8c-0.2-3.3,2.5-6.6,7.9-6.9c5.6-0.4,12,2.6,12.3,8.2C670.6,1199.3,666.9,1202.1,661.4,1202.5z M660.4,1200
				c0.7,0,1.4,0,2.1-0.1c4-0.2,6.3-1.6,6.1-4.2c-0.2-3.8-5.6-7-11.6-6.6c-3.7,0.2-5.3,1.7-5.2,3.8
				C652,1195.9,655.7,1199.1,660.4,1200z"/>
		</g>
	</g>
</g>
<g>
	<g>
		<path fill="#FFEE5F" d="M696.6,1697.7c-2.4,26-37.4,43.5-47.2,66.2c-10.2,23.6,0.9,60.9-15.8,79.8c-16.8,19.1-55.3,12.8-77.1,25.8
			c-21.6,12.9-34.5,49.7-59.6,55.3c-24.2,5.4-51.5-22.1-77.6-24.5c-26-2.4-58,19.6-80.8,9.7c-23.6-10.2-29.5-48.8-48.3-65.4
			c-19.1-16.8-58.1-17.8-71-39.6c-12.9-21.6,4.9-56.2-0.8-81.3c-5.4-24.2-36.5-47.8-34.1-73.8c2.4-26,37.4-43.5,47.2-66.2
			c10.2-23.6-0.9-60.9,15.8-79.8c16.8-19.1,55.3-12.8,77.1-25.8c21.6-12.9,34.5-49.7,59.6-55.3c24.2-5.4,51.5,22.1,77.6,24.5
			c26,2.4,58-19.6,80.8-9.7c23.6,10.2,29.5,48.8,48.3,65.4c19.1,16.8,58.1,17.8,71,39.6c12.9,21.6-4.9,56.2,0.8,81.3
			C667.9,1648.1,699,1671.7,696.6,1697.7z"/>
	</g>
	<g>
		<g>
			<g>
				<path fill="#FFFFFF" d="M336.5,1557.5c1.5,3.2,1.2,6.5-1.1,8.7c-3.3,3.2-8.7,2-12.9-2.3c-4.3-4.3-5.2-9.7-2-12.8
					c2.2-2.2,5.5-2.4,8.5-0.4l-1.6,3.9c-1.5-1-2.8-1.3-3.8-0.3c-1.3,1.3-0.5,4,2,6.6c2.5,2.5,5.2,3.4,6.7,2c1.1-1.1,0.9-2.5,0.4-4.1
					L336.5,1557.5z"/>
			</g>
			<g>
				<path fill="#FFFFFF" d="M337.8,1549.5c-3.8-5.1-3.8-10.3-0.2-13c3.6-2.7,8.5-1.2,12.3,3.9c3.8,5.1,4,10.4,0.4,13.1
					C346.7,1556.2,341.6,1554.6,337.8,1549.5z M346.3,1543.2c-2.2-2.9-4.5-4.2-6.1-3c-1.6,1.2-1,3.8,1.2,6.7
					c2.2,2.9,4.6,4.3,6.1,3.1C349.1,1548.8,348.5,1546.1,346.3,1543.2z"/>
			</g>
			<g>
				<path fill="#FFFFFF" d="M364.5,1531.8l2.1,1.8l-1.7-2.1l-4.8-8.7l4-2.2l9.7,17.9l-3.2,1.8l-9.6-6.6l-1.9-1.8l1.5,2.1l4.8,9.1
					l-3.7,2l-10-17.7l3.5-1.9L364.5,1531.8z"/>
			</g>
			<g>
				<path fill="#FFFFFF" d="M386.3,1533.5c-3.7,1.4-8-1.8-10.2-7.4c-2.2-5.7-0.9-11.1,3.2-12.6c3-1.1,6.1,0,8.1,3l-3,3
					c-1-1.5-2.1-2.3-3.5-1.8c-1.7,0.7-2.1,3.5-0.8,6.9c1.3,3.5,3.5,5.5,5.4,4.8c1.1-0.4,1.7-1.8,1.5-3.5l-2.7,1l-1.2-3.1l6.4-2.4
					l3.5,9.2l-2.8,1.1l-1.5-3.6C389.2,1530.3,388.6,1532.7,386.3,1533.5z"/>
			</g>
			<g>
				<path fill="#FFFFFF" d="M413,1525.3l-4.7,1.1c-1.2-1-1.4-3.5-2.5-5.2c-0.7-1.1-1.7-1.7-3.2-1.6l1.7,7.7l-4.3,1l-4.8-19.6
					c1.8-0.9,3.2-1.4,4.5-1.7c4.8-1.1,8.6,0.2,9.5,4.3c0.6,2.6-0.9,5-3.1,6c1.4,0.1,2.6,0.9,3.2,1.6
					C411.1,1521,411.5,1524,413,1525.3z M404.6,1512.7c-0.4-1.8-2.1-2.6-4.1-1.7l1.2,5.4C403.9,1516.1,405.1,1514.6,404.6,1512.7z"
					/>
			</g>
			<g>
				<path fill="#FFFFFF" d="M427.4,1519.5l-4.3,0.4l-0.4,4.1l-4.7,0.5l3.1-20.7l5.3-0.5l7.1,19.7l-4.8,0.5L427.4,1519.5z
					 M426.3,1515.8l-1.6-5.2l-0.5-2.4l-0.1,2.5l-0.6,5.4L426.3,1515.8z"/>
			</g>
			<g>
				<path fill="#FFFFFF" d="M452.5,1506.8l-4.6-0.1l-0.6,16.5l-4.5-0.1l0.4-16.5l-4.6-0.1l0.1-3.8l14,0.4L452.5,1506.8z"/>
			</g>
			<g>
				<path fill="#FFFFFF" d="M460.9,1503.7l4.5,0.7l-2,12c-0.5,2.9,0.2,4.3,1.9,4.5c1.7,0.3,2.8-0.8,3.2-3.7l1.9-12l4.5,0.7
					l-2.1,11.8c-1.1,6-4.5,8.2-8.3,7.5c-3.7-0.6-6.4-3.7-5.5-9.8L460.9,1503.7z"/>
			</g>
			<g>
				<path fill="#FFFFFF" d="M489.5,1527.1l-1.1,3.6l-9.7-2.8l1-3.6l4.5-15.9l4.6,1.3l-4.7,15.8L489.5,1527.1z"/>
			</g>
			<g>
				<path fill="#FFFFFF" d="M503.5,1532.4l-4-1.7l-2.3,3.4l-4.3-1.9l12.7-16.7l4.9,2.1l-3.3,20.7l-4.4-1.9L503.5,1532.4z
					 M504.3,1528.6l1.1-5.3l0.7-2.4l-1.3,2.1l-3.1,4.5L504.3,1528.6z"/>
			</g>
			<g>
				<path fill="#FFFFFF" d="M531.6,1533.3l-3.9-2.3l-8.5,14.2l-3.9-2.3l8.3-14.3l-3.9-2.3l1.9-3.3l12,7.1L531.6,1533.3z"/>
			</g>
			<g>
				<path fill="#FFFFFF" d="M544.1,1537.6l-12.2,16.2l-3.6-2.7l12-16.4L544.1,1537.6z"/>
			</g>
			<g>
				<path fill="#FFFFFF" d="M544.2,1550.4c4.3-4.7,9.4-5.6,12.7-2.6c3.3,3,2.7,8.2-1.6,12.8c-4.3,4.7-9.6,5.8-12.8,2.8
					S539.9,1555.1,544.2,1550.4z M552,1557.7c2.5-2.7,3.4-5.2,1.9-6.6c-1.4-1.3-3.9-0.3-6.4,2.4c-2.4,2.6-3.4,5.3-1.9,6.6
					S549.5,1560.4,552,1557.7z"/>
			</g>
			<g>
				<path fill="#FFFFFF" d="M566.4,1573.5l-1.4,2.4l1.8-2l7.7-6.3l2.9,3.5l-15.9,12.7l-2.3-2.8l4.7-10.6l1.4-2.2l-1.8,1.9l-8.1,6.3
					l-2.7-3.3l15.6-13l2.5,3.1L566.4,1573.5z"/>
			</g>
			<g>
				<path fill="#FFFFFF" d="M587.3,1589.5l-3.9,0.1c0.4-1,0.4-2.1-0.2-3.2c-0.8-1.3-1.9-1.3-2.7-0.8c-0.8,0.5-1,1.5-0.9,3.6
					c0,2.5,0.2,5.6-2.9,7.6c-3.1,1.9-6.5,0.9-8.4-2.2c-1.5-2.4-1.6-5.2-1.1-6.6l4.3-0.3c-0.3,1.4-0.1,3,0.6,4.2
					c0.7,1.1,1.7,1.4,2.6,0.9c1.2-0.7,0.9-2,0.9-3.8c-0.1-2.8,0.3-5.5,3-7.2c2.8-1.7,6.1-1.1,8,2
					C587.6,1585.5,587.9,1587.6,587.3,1589.5z"/>
			</g>
		</g>
		<g>
			<g>
				<path fill="#FFFFFF" d="M547,1787.6c-1.5-3.2-1.3-6.4,0.9-8.7c3.2-3.3,8.7-2.2,13,2c4.4,4.2,5.4,9.6,2.3,12.7
					c-2.2,2.2-5.4,2.5-8.5,0.6l1.5-4c1.5,0.9,2.9,1.2,3.8,0.2c1.3-1.3,0.5-4.1-2.1-6.6c-2.6-2.5-5.3-3.3-6.8-1.8
					c-1.1,1.1-0.9,2.5-0.3,4.2L547,1787.6z"/>
			</g>
			<g>
				<path fill="#FFFFFF" d="M545.9,1795.7c4,5,4.1,10.2,0.5,12.9c-3.5,2.8-8.5,1.4-12.4-3.6c-3.9-5-4.2-10.3-0.7-13.1
					C536.9,1789.2,542,1790.7,545.9,1795.7z M537.5,1802.2c2.3,2.9,4.6,4.1,6.2,2.9c1.5-1.2,0.9-3.8-1.4-6.7c-2.2-2.8-4.7-4.2-6.2-3
					C534.6,1796.7,535.3,1799.3,537.5,1802.2z"/>
			</g>
			<g>
				<path fill="#FFFFFF" d="M519.7,1814l-2.1-1.8l1.7,2.1l5,8.6l-3.9,2.3l-10.1-17.7l3.1-1.8l9.7,6.3l2,1.7l-1.6-2.1l-5-9l3.6-2.1
					l10.4,17.5l-3.4,2L519.7,1814z"/>
			</g>
			<g>
				<path fill="#FFFFFF" d="M497.8,1812.8c3.7-1.5,8.1,1.6,10.4,7.2c2.3,5.6,1.2,11-2.9,12.7c-3,1.2-6.1,0.2-8.1-2.8l2.9-3
					c1,1.4,2.2,2.2,3.6,1.7c1.7-0.7,2-3.5,0.7-6.9c-1.4-3.5-3.6-5.4-5.5-4.7c-1.1,0.5-1.6,1.9-1.4,3.5l2.6-1.1l1.3,3.1l-6.3,2.6
					l-3.7-9.1l2.8-1.1l1.6,3.6C495,1816.1,495.5,1813.7,497.8,1812.8z"/>
			</g>
			<g>
				<path fill="#FFFFFF" d="M471.3,1821.6l4.7-1.2c1.2,1,1.5,3.5,2.6,5.2c0.7,1.1,1.7,1.7,3.2,1.5l-1.9-7.7l4.3-1.1l5.2,19.5
					c-1.8,1-3.2,1.5-4.4,1.8c-4.8,1.2-8.6,0-9.6-4c-0.7-2.6,0.8-5,2.9-6.1c-1.4,0-2.6-0.8-3.3-1.5
					C473.3,1825.9,472.8,1822.9,471.3,1821.6z M480,1834c0.5,1.8,2.1,2.5,4.1,1.6l-1.3-5.4C480.6,1830.6,479.5,1832.1,480,1834z"/>
			</g>
			<g>
				<path fill="#FFFFFF" d="M457,1827.8l4.3-0.5l0.3-4.1l4.7-0.6l-2.6,20.8l-5.2,0.6l-7.5-19.6l4.8-0.6L457,1827.8z M458.3,1831.4
					l1.7,5.1l0.6,2.4l0-2.5l0.4-5.4L458.3,1831.4z"/>
			</g>
			<g>
				<path fill="#FFFFFF" d="M432.3,1841.1l4.6,0l0.2-16.5l4.5,0l0,16.5l4.6,0l0,3.8l-14-0.1L432.3,1841.1z"/>
			</g>
			<g>
				<path fill="#FFFFFF" d="M423.9,1844.3l-4.5-0.6l1.8-12c0.4-3-0.3-4.3-2-4.5s-2.8,0.8-3.2,3.8l-1.6,12l-4.5-0.6l1.8-11.9
					c0.9-6.1,4.3-8.3,8.1-7.7c3.7,0.5,6.5,3.5,5.7,9.6L423.9,1844.3z"/>
			</g>
			<g>
				<path fill="#FFFFFF" d="M394.8,1821.6l1-3.6l9.8,2.6l-0.9,3.7l-4.2,16l-4.6-1.2l4.4-16L394.8,1821.6z"/>
			</g>
			<g>
				<path fill="#FFFFFF" d="M380.7,1816.7l4,1.6l2.3-3.4l4.4,1.8l-12.3,17l-4.9-2l2.8-20.8l4.4,1.8L380.7,1816.7z M380,1820.5
					l-1,5.3l-0.7,2.4l1.2-2.2l3-4.5L380,1820.5z"/>
			</g>
			<g>
				<path fill="#FFFFFF" d="M352.6,1816.4l4,2.2l8.2-14.4l3.9,2.2l-8,14.5l4,2.2l-1.8,3.3l-12.2-6.8L352.6,1816.4z"/>
			</g>
			<g>
				<path fill="#FFFFFF" d="M340,1812.4l11.8-16.5l3.7,2.6l-11.6,16.7L340,1812.4z"/>
			</g>
			<g>
				<path fill="#FFFFFF" d="M339.5,1799.6c-4.2,4.8-9.3,5.8-12.6,2.9c-3.4-3-2.9-8.1,1.3-12.9c4.2-4.8,9.4-6,12.8-3.1
					C344.3,1789.5,343.8,1794.8,339.5,1799.6z M331.6,1792.5c-2.4,2.8-3.2,5.3-1.7,6.6c1.5,1.3,3.9,0.2,6.3-2.6
					c2.4-2.7,3.2-5.3,1.8-6.6C336.6,1788.6,334.1,1789.7,331.6,1792.5z"/>
			</g>
			<g>
				<path fill="#FFFFFF" d="M316.8,1777l1.3-2.4l-1.7,2.1l-7.6,6.5l-3-3.5l15.6-13.1l2.4,2.8l-4.5,10.7l-1.4,2.3l1.8-1.9l8-6.5
					l2.7,3.2l-15.3,13.3l-2.6-3L316.8,1777z"/>
			</g>
			<g>
				<path fill="#FFFFFF" d="M295.6,1761.5l3.9-0.2c-0.3,1-0.4,2.1,0.3,3.2c0.8,1.3,2,1.2,2.7,0.8c0.8-0.5,1-1.6,0.9-3.6
					c-0.1-2.5-0.3-5.6,2.8-7.6c3.1-2,6.4-1.1,8.5,2c1.6,2.4,1.7,5.2,1.3,6.6l-4.3,0.4c0.3-1.4,0.1-3.1-0.7-4.2
					c-0.7-1.1-1.7-1.4-2.6-0.8c-1.1,0.7-0.9,2-0.8,3.9c0.1,2.8-0.2,5.5-2.8,7.3c-2.7,1.8-6.1,1.2-8.1-1.8
					C295.4,1765.5,295.1,1763.4,295.6,1761.5z"/>
			</g>
		</g>
	</g>
	<g>
		<g>
			<path fill="#FF5338" d="M361,1617.3c-1.4,14.8-32.5,56.5-50.1,85c-4.6-2.5-5.8-5-5-13.7c0.7-7.3,4.1-32.6,8.5-63.1
				c-10.1,21.8-27,49.4-41.8,73.2c-4.4-2.2-5.8-5.4-5.1-12.5c0.7-7.4,6.9-54.2,10.1-83.4c7.5,1.4,7.7,7.4,6.8,17.1
				c-1.7,17.8-6.6,41.4-10.5,67.6c12.5-22,30.8-54.6,42.5-81.1c7,1.5,6.7,8.1,6,15.6c-1.9,19.8-6.6,44-10.7,69.9
				c12.7-22.1,32.9-55,46.7-81.6C360.7,1610.5,361.2,1614.8,361,1617.3z"/>
		</g>
		<g>
			<path fill="#FF5338" d="M346.8,1695c0.9-10.2,13.1-41.4,16.9-49.9c3.5,0.3,5.6,1,5.2,4.8c-0.8,8.7-14.6,38.4-15.6,49.3
				c-0.3,3.2,0.5,4.6,2.6,4.8c9.1,0.8,20.4-23.2,25.9-35.7c0.5-1,1.5-1.4,2.3-1.4c1.2,0.1,2.5,1.3,2,3.1
				c-7.1,16.7-16.2,39.5-30.1,38.2C349.3,1707.7,346.2,1701.4,346.8,1695z M366.3,1628.8c0.6-6.1,7.7-7.6,11.7-4.3
				c1.4,4.1-0.1,11.3-6.3,10.7C368.6,1634.9,365.9,1632.7,366.3,1628.8z"/>
		</g>
		<g>
			<path fill="#FF5338" d="M443.3,1675.5c-9.3,22.5-17.8,39.3-30.3,38.1c-5.4-0.5-9.7-5.5-9-13.7c1.1-11.5,12.2-31.5,13.1-40.5
				c0.3-2.9-0.5-5-3.1-5.2c-5.9-0.5-18.4,9-25,21.5c-3.8,7.2-9.1,21.6-12.3,32.7c-4.1,0-5.5-4.5-5.1-8.3c0.7-7.8,10.6-30.5,17.3-51
				c3.6,0.3,5.4,2.7,5.1,6.1c-0.2,2.5-1.8,6.7-3.6,11.5c6-8.8,13.8-17.7,23.6-16.8c6.9,0.6,10.9,6,10.2,13.2
				c-1,10.5-12.5,32.1-13.4,41.8c-0.3,3.7,1,4.4,2.2,4.5c8.1,0.8,17.5-16.1,26.1-35.6c0.5-1,1.5-1.4,2.3-1.4
				C442.7,1672.5,443.8,1673.9,443.3,1675.5z"/>
		</g>
		<g>
			<path fill="#FF5338" d="M500.4,1680.8c-9.3,22.5-17.8,39.3-30.3,38.1c-5.4-0.5-9.7-5.5-9-13.7c1.1-11.5,12.2-31.5,13.1-40.5
				c0.3-2.9-0.5-5-3.1-5.2c-5.9-0.5-18.4,9-25,21.5c-3.8,7.2-9.1,21.6-12.3,32.7c-4.1,0-5.5-4.5-5.1-8.3c0.7-7.8,10.6-30.5,17.3-51
				c3.6,0.3,5.4,2.7,5.1,6.1c-0.2,2.5-1.8,6.7-3.6,11.5c6-8.8,13.8-17.7,23.6-16.8c6.9,0.6,10.9,6,10.2,13.2
				c-1,10.5-12.5,32.1-13.4,41.8c-0.3,3.7,1,4.4,2.2,4.5c8.1,0.8,17.5-16.1,26.1-35.6c0.5-1,1.5-1.4,2.3-1.4
				C499.8,1677.8,500.9,1679.3,500.4,1680.8z"/>
		</g>
		<g>
			<path fill="#FF5338" d="M548.4,1685.3c-8.8,22.8-23,38.8-39,37.3c-10.3-1-20.6-9.6-19-26.5c1.9-20.5,18.3-37.5,31.1-36.3
				c8.1,0.8,11.1,8.4,10.5,15.3c-1.1,12.1-13.7,23.1-25.1,22c-2.6-0.2-5.6-1.1-7.8-2.8c-0.4,2-0.7,4.1-0.9,6.3
				c-1,10.9,2.5,17.2,9.3,17.9c10.6,1,25.6-10.9,36.5-34.7c0.6-1.5,1.7-1.8,2.6-1.7C547.8,1682.3,548.9,1683.5,548.4,1685.3z
				 M499.8,1691.2c1.7,0.8,3.3,1.1,4.9,1.3c11.2,1,20.1-12.2,21-22.7c0.4-4.5-0.9-5.7-2.9-5.9
				C516.2,1663.2,504.4,1673.6,499.8,1691.2z"/>
		</g>
		<g>
			<path fill="#FF5338" d="M591.6,1689.3c-6,14.1-15.5,39.5-30.1,38.2c-6.5-0.6-9.9-6.5-9.2-14c1-10.5,10.6-28.2,11.1-33.9
				c0.4-4.8-4.6-7.2-9.4-10.5c-1.5,4.7-3.2,9.7-5.7,16.2c-0.3,0.9-1.3,1.3-2.3,1.2c-1.2-0.1-2.7-1.2-2-3c2.3-5.8,4.6-12,6.4-17.5
				c-2.8-2.7-4.6-6-4.2-11c0.6-6,3.9-7.8,7-7.5c3.5,0.3,4.8,3.1,4.3,8.4c-0.3,3.2-1.2,6.2-2,8.8c5.3,5.4,16.3,6.9,15.2,18.7
				c-1,10.3-10.9,25.1-11.8,35.2c-0.3,3.3,0.5,4.5,2.3,4.7c9.3,0.9,20.2-22.8,26-35.7c0.4-0.9,1.3-1.4,2.3-1.4
				C591.3,1686.4,592.1,1688,591.6,1689.3z"/>
		</g>
		<g>
			<path fill="#FF5338" d="M585.7,1723.6c0.3-3.3,3.4-5.9,6.9-5.6c2.3,0.2,3.8,1.6,5,2.9c1.7,4.1-1.3,9.8-6.3,9.3
				C587.9,1729.8,585.3,1727,585.7,1723.6z M598,1703.6c0.5-5.7,9.4-26,26-64.5c4.7,0.4,5.2,3.1,5,5.9c-1,8.9-12.4,28.6-28.9,62.1
				C598.2,1706.9,597.9,1705.1,598,1703.6z"/>
		</g>
	</g>
</g>
<g>
	<g>
		<path fill="#262626" d="M29.6,2204.2c259.7-16.3,520.1-17.3,779.8-2.8c16.9-24.3,34-48.5,51.3-72.6
			c-14.1-26.1-28.4-52.2-42.9-78.2c-265.7-14.8-532.1-13.9-797.8,2.8C43.5,2129.3,29.5,2204.2,29.6,2204.2z"/>
	</g>
	<g>
		<g>
			<path fill="#FFFFFF" d="M150.5,2120c-3.2,12.2-6.7,22.5-13.4,22.8c-3.4,0.2-5.9-2.3-6.1-6.7c-0.3-6.3,4.3-17.8,4-22.9
				c-0.1-1.6-0.6-2.6-2.2-2.5c-6.4,0.3-14.5,15.8-16.2,32.1c-2.2,0.4-3.1-1.9-3.1-3.6c-0.2-4.7,4.6-25.4,9.5-46.8
				c-4.3,0.2-8.9,0.8-13.2,1.3c0,0.1,0,0.2,0,0.3c0.2,4.9-5.7,30.1-9.8,49.8c-2,0-2.6-1.2-2.7-3c-0.3-5.5,4.1-23.3,8.5-46.6
				c-3.4,0.5-6.3,0.8-8.3,0.9c-3.3,0.2-4.9-0.4-5.5-3c7.2,0,26.7-2.7,29.8-2.8c3.4-0.2,4.4,1.7,4.5,3c0.1,2.5-3.3,15.9-6.2,29.1
				c2.7-5.8,6.5-12.6,12.6-12.9c3.8-0.2,6.4,2.4,6.6,6.4c0.3,5.7-4.4,18.2-4.1,23.5c0.1,2,0.9,2.3,1.7,2.3
				c4.4-0.2,8.4-10.6,11.4-21.2c0.2-0.6,0.7-0.9,1.2-0.9C150,2118.4,150.7,2119.1,150.5,2120z"/>
		</g>
		<g>
			<path fill="#FFFFFF" d="M145.3,2135.7c-0.3-5.5,4-23.3,5.5-28.1c1.9-0.1,3.1,0.1,3.2,2.2c0.2,4.8-5.1,21.8-4.8,27.7
				c0.1,1.8,0.6,2.5,1.8,2.4c5-0.2,9.4-14,11.4-21.1c0.2-0.6,0.7-0.9,1.2-0.9c0.7,0,1.5,0.5,1.3,1.5c-2.6,9.5-5.9,22.5-13.5,22.8
				C147.6,2142.3,145.5,2139.2,145.3,2135.7z M150.9,2098.5c-0.1-3.3,3.6-4.7,6.1-3.2c1.1,2.1,0.8,6.1-2.6,6.3
				C152.7,2101.7,151,2100.7,150.9,2098.5z"/>
		</g>
		<g>
			<path fill="#FFFFFF" d="M189.9,2118.4c-2.3,9-6,15.2-12.3,16.6c-1.7,4-5.2,6.3-9,6.4c-5.1,0.2-9.2-3.3-9.4-7.8
				c-0.1-2.3,0.9-3.8,2.9-3.9c2.8-0.1,7.2,2.8,11.6,3.2c0.4-1.5,0.6-3.2,0.5-5.1c-0.3-8.7-5.5-10.7-8-14.2c-0.4,1.7-0.8,3.6-1.3,5.9
				c-0.1,0.5-0.6,0.8-1.2,0.8c-0.7,0-1.5-0.5-1.3-1.4c1-3.6,1.7-7.4,2.3-10.7c0.3-2.8,1.8-5.3,3.8-5.4c1.3-0.1,2.4,1,2.5,3.2
				c0.1,2.3-1,4.9-2.7,6.5c2.6,2.6,9.9,7,10.3,16.3c0,1.2,0,2.3-0.2,3.3c4.6-2.1,7.3-7.8,9-14.3c0.2-0.6,0.7-0.9,1.2-0.9
				C189.4,2116.8,190.1,2117.5,189.9,2118.4z M172.8,2135.1c-4.1-0.6-7.3-2.7-9.8-2.6c-1,0-1.4,0.5-1.4,1.5c0.1,2.2,2.2,4.9,5.6,4.8
				C169.4,2138.7,171.4,2137.5,172.8,2135.1z"/>
		</g>
		<g>
			<path fill="#FFFFFF" d="M253.8,2116.2c-2.2,9.5-7.1,13.6-12.3,13.8c-1.4,0-2.7-0.2-3.9-0.7c-3.6,5.6-8.5,9.9-13.4,10
				c-3.5,0.1-6.1-1.8-6.4-7c-1.3,4.2-4.2,7.4-8.2,7.5c-3.6,0.1-6.2-2.1-6.4-6.4c-0.2-5.2,3-18.7,5.7-27.2c2-0.1,2.9,0.9,3,2.4
				c0.1,3.8-5,20.5-4.8,26.3c0,1.2,0.4,2.7,2.1,2.6c5.1-0.2,9.7-12,12.7-25.8c2-0.1,2.9,0.8,3,2.6c0.1,3.6-3.4,14.7-3.2,20.2
				c0.1,1.6,0.4,2.5,1.7,2.5c2.9-0.1,7.2-4.5,10.6-10.3c-2.5-2.8-4.1-7-4.3-11.7c-0.2-7.4,3.1-11.9,7.1-12c3.7-0.1,6.1,3.7,6.3,8.9
				c0.1,4.7-1.6,10.4-4.4,15.4c0.7,0.2,1.3,0.3,2.1,0.3c4.7-0.1,8.3-3.8,10.5-12c0.2-0.7,0.7-0.9,1.2-0.9
				C253.2,2114.7,254,2115.3,253.8,2116.2z M235.2,2124.6c2.6-4.9,4.4-10.6,4.2-15.6c-0.1-3.1-0.9-4.1-2-4.1
				c-2.1,0.1-4.6,4-4.4,11.1C233.1,2119.4,233.8,2122.5,235.2,2124.6z"/>
		</g>
		<g>
			<path fill="#FFFFFF" d="M284.4,2115.5c-3.1,12.2-6.8,22.4-13.8,22.5c-3.1,0.1-5.3-1.9-5.4-8c-1.8,5.1-4.5,8.3-8.7,8.4
				c-4,0.1-7.6-2.7-7.8-10c-0.3-10.2,6-24.5,13.8-24.7c3.2-0.1,5.8,2.2,6.6,5.8c0.4-1.7,0.7-3.4,1-5.1c2.2-0.3,3.3,0.9,3.3,2.6
				c0.1,4-5.3,19.9-5.1,26.4c0,1.8,0.5,2.4,1.7,2.4c4.7-0.1,8.8-10,11.9-20.9c0.2-0.6,0.7-0.9,1.2-0.9
				C283.9,2113.9,284.6,2114.6,284.4,2115.5z M268.2,2113.6c-0.7-4.4-2-7.5-4.4-7.5c-5,0.1-11.1,13.8-10.7,24.6
				c0.1,3.8,0.9,5.5,3,5.4C261.2,2136.1,265.3,2125.4,268.2,2113.6z"/>
		</g>
		<g>
			<path fill="#FFFFFF" d="M315,2114.8c-3.3,11.4-8.4,18-17.1,23c-2.3,9-6,19.3-13.3,19.4c-4.3,0.1-7.3-3-7.4-7.1
				c-0.2-7.4,9.4-9.4,17.5-13.3c0.8-3.1,1.4-6,2-8.6c-2.6,5.6-6.4,9.3-11.3,9.5c-3.7,0.1-6.4-1.9-6.5-6.5c-0.1-5,2.7-15.5,6.1-28.1
				c2.8-0.3,3.1,1.1,3.2,2.3c0.1,5.3-5.5,21-5.4,27.3c0.1,2.2,0.8,2.7,1.9,2.7c3.7-0.1,9.9-6.2,12.8-15.6c0.9-3,2.5-9.7,4.3-17.2
				c1.9,0,3.1,0.4,3.2,2.5c0.1,3.8-3.7,17.8-6.2,29c-0.1,0.1-0.1,0.3-0.1,0.5c7.5-5,11.5-12.6,13.9-20.4c0.2-0.6,0.7-0.9,1.2-0.9
				C314.5,2113.2,315.2,2113.9,315,2114.8z M293.8,2140c-7,3.6-13.5,6.4-13.3,11.6c0.1,2.4,1.5,3.5,3.3,3.4
				C288.3,2154.9,291.5,2147.7,293.8,2140z"/>
		</g>
		<g>
			<path fill="#FFFFFF" d="M350.2,2114.2c-2.7,9.4-7.5,22.3-16.3,22.4c-3.8,0.1-6-2.4-6-6.4c-0.1-4,2-12.1,5.1-24.8
				c-0.1,0-0.3,0-0.4,0c-2.9,0-4.3-1.4-4.2-3.4c1.6,0.3,3.5,0.3,5.3,0.3c1-4,2-8.5,3.2-13.3c1.3,0,2.9,0.3,3,2.6
				c0,1.7-0.8,5.7-2,10.5c1.4-0.1,2.5-0.2,3.2-0.2c3,0,4.7,1.3,4.4,3.2c-2.5-0.3-5.6-0.2-8.3,0c-2.4,9.8-5.6,22-5.5,26.7
				c0,2,0.6,2.5,2,2.5c5.9-0.1,11.4-11.3,14.1-20.6c0.3-0.9,0.8-1.1,1.2-1.1C349.9,2112.6,350.4,2113.6,350.2,2114.2z"/>
		</g>
		<g>
			<path fill="#FFFFFF" d="M382.6,2113.8c-2.9,10.1-7.3,16.4-15,16.5c-0.5,0-0.9,0-1.3,0c-2.5,3.6-5.9,6-10.3,6.1
				c-6.1,0.1-10.4-4.6-10.5-12.3c-0.2-11,8.2-22.2,13.3-21.1c1-0.7,2.1-1.2,3.4-1.2c4.4-0.1,8.6,4.9,8.7,13c0,4.2-1,9.1-3.2,13.3
				c8.4-0.6,11.1-10.6,12.5-14.8c0.2-0.6,0.7-0.9,1.2-0.9C382.2,2112.3,382.8,2113.1,382.6,2113.8z M362.3,2129.2
				c-4.5-2.1-7.7-7.1-7.8-14.2c-0.1-4.2,0.9-8.4,3-10.9c-5.7,4.5-7.9,13.9-7.8,20.5c0.1,6.7,2.4,9.7,5.7,9.6
				C358.1,2134.2,360.5,2132.2,362.3,2129.2z M358.4,2116.8c0.1,4.7,1.6,8.8,5,10.4c2.1-4.3,3.3-10,3.3-15.2
				c-0.1-6.7-2.2-8.5-3.6-8.4C360.1,2103.6,358.3,2111.4,358.4,2116.8z"/>
		</g>
		<g>
			<path fill="#FFFFFF" d="M417.8,2113.6c-2.8,9.3-7.8,22.2-16.5,22.3c-3.8,0-5.9-2.5-6-6.4c0-4,2.1-12.1,5.3-24.8
				c-0.1,0-0.3,0-0.4,0c-2.9,0-4.2-1.4-4.1-3.4c1.6,0.3,3.5,0.4,5.3,0.4c1-4,2.1-8.4,3.3-13.3c1.3,0,2.9,0.3,2.9,2.6
				c0,1.7-0.9,5.7-2.1,10.5c1.4-0.1,2.5-0.1,3.2-0.1c3,0,4.6,1.3,4.4,3.2c-2.4-0.3-5.6-0.2-8.3-0.1c-2.5,9.8-5.8,21.9-5.8,26.6
				c0,2,0.6,2.5,1.9,2.5c5.9,0,11.5-11.2,14.3-20.5c0.3-0.8,0.8-1,1.3-1C417.5,2112,418,2113,417.8,2113.6z"/>
		</g>
		<g>
			<path fill="#FFFFFF" d="M449.2,2113.6c-3.8,12.1-7.7,22.2-14.4,22.2c-3.4,0-5.8-2.6-5.8-7c0-6.3,5-17.6,5-22.7
				c0-1.6-0.5-2.6-2.1-2.6c-6.4,0-15.2,15.2-17.6,31.3c-2.2,0.3-3-2.2-3-3.7c0-4.8,7.3-30.9,12.6-52.4c2,0,2.9,1.2,2.9,2.8
				c0,3.7-4.6,18.8-8.2,32c2.9-5.7,7-12.3,13.1-12.3c3.8,0,6.3,2.7,6.3,6.6c0,5.7-5.2,18-5.2,23.3c0,2,0.8,2.3,1.6,2.3
				c4.4,0,8.8-10.2,12.3-20.6c0.2-0.6,0.7-0.8,1.2-0.8C448.8,2112,449.4,2112.7,449.2,2113.6z"/>
		</g>
		<g>
			<path fill="#FFFFFF" d="M475.8,2113.6c-3.7,12.8-10.7,22.1-19.5,22.1c-5.7,0-11.7-4.2-11.7-13.4c0-11.2,8.1-21.2,15.2-21.2
				c4.5,0,6.5,4,6.5,7.8c0,6.6-6.4,13.2-12.6,13.1c-1.5,0-3.1-0.3-4.4-1.1c-0.1,1.1-0.2,2.3-0.2,3.5c0,5.9,2.2,9.2,6,9.2
				c5.9,0,13.5-7.1,18.3-20.6c0.3-0.8,0.9-1,1.3-1C475.3,2112.1,476,2112.7,475.8,2113.6z M449.4,2119.2c1,0.3,1.8,0.5,2.8,0.5
				c6.2,0,10.4-7.6,10.4-13.4c0-2.5-0.8-3.1-1.9-3.1C457,2103.3,451.1,2109.5,449.4,2119.2z"/>
		</g>
		<g>
			<path fill="#FFFFFF" d="M507.1,2112.3c5.1,1.1,9.5,5.1,9.4,10c-0.1,6.3-7.5,13.7-17.2,13.7c-4.2,0-7.8-1.4-7.8-5.5
				c0-4.6,5-21.1,10.7-42.6c2,0,2.9,1.2,2.9,2.8c0,2.4-2.3,11.4-4.9,21.4c13.6-4.3,18.5-13.8,18.5-19.5c0.1-5-3.6-7.7-9.5-7.7
				c-7.3-0.1-14,3.9-16.6,8.6c-0.8-0.8-1.2-1.8-1.2-3c0-5,7.4-8.6,15.6-8.5c11.2,0.1,15.8,7,15.8,12.8
				C522.7,2101.5,516.3,2108.7,507.1,2112.3z M504.9,2114.6c-1.6,0-3.8,0.2-5.6,0.7c-1.6,6.3-3.3,12.8-4.6,18.2
				c1,0.1,1.9,0.2,2.6,0.2c9.8,0.1,15-8,15-13.3C512.4,2117.1,510.4,2114.7,504.9,2114.6z"/>
		</g>
		<g>
			<path fill="#FFFFFF" d="M557.7,2114.6c-3.6,12-7.8,22.1-14.7,22c-3.1,0-5.2-2.1-5-8.2c-2,5-4.8,8.1-9,8c-4-0.1-7.5-3-7.4-10.3
				c0.1-10.2,7-24.3,14.8-24.1c3.2,0,5.7,2.4,6.3,6c0.4-1.7,0.8-3.4,1.2-5c2.3-0.2,3.2,1,3.2,2.7c-0.1,4-6.1,19.7-6.2,26.2
				c0,1.8,0.4,2.4,1.6,2.4c4.7,0.1,9.2-9.6,12.7-20.4c0.2-0.6,0.7-0.8,1.2-0.8C557.3,2113,557.9,2113.7,557.7,2114.6z M541.6,2112.1
				c-0.5-4.4-1.7-7.6-4.1-7.6c-5-0.1-11.6,13.3-11.7,24.2c0,3.8,0.7,5.5,2.8,5.5C533.7,2134.2,538.2,2123.7,541.6,2112.1z"/>
		</g>
		<g>
			<path fill="#FFFFFF" d="M574.4,2114.9c-3,9.3-8.3,22-17,21.9c-3.8-0.1-5.9-2.6-5.8-6.6c0.1-4,2.4-12,5.9-24.6c-0.1,0-0.3,0-0.4,0
				c-2.9,0-4.2-1.5-4-3.5c1.6,0.4,3.5,0.4,5.3,0.5c1.1-4,2.3-8.4,3.6-13.2c1.3,0,2.9,0.4,2.9,2.7c0,1.7-1,5.7-2.4,10.5
				c1.4,0,2.5-0.1,3.2-0.1c3,0.1,4.6,1.5,4.3,3.3c-2.4-0.4-5.6-0.4-8.3-0.3c-2.8,9.7-6.3,21.8-6.4,26.5c0,2,0.5,2.6,1.9,2.6
				c5.9,0.1,11.7-10.9,14.8-20.2c0.3-0.8,0.8-1,1.3-1C574.2,2113.3,574.6,2114.3,574.4,2114.9z"/>
		</g>
		<g>
			<path fill="#FFFFFF" d="M605.9,2115.6c-4.1,12-8.2,22-15,21.8c-3.4-0.1-5.7-2.7-5.6-7.1c0.1-6.3,5.5-17.5,5.6-22.5
				c0-1.6-0.5-2.6-2.1-2.7c-6.4-0.1-15.5,14.8-18.3,30.9c-2.2,0.2-2.9-2.3-2.9-3.8c0.1-4.8,8-30.7,13.9-52.1c2,0,2.8,1.2,2.8,2.9
				c-0.1,3.7-5,18.7-8.9,31.8c3.1-5.6,7.3-12.1,13.4-12c3.8,0.1,6.2,2.8,6.1,6.8c-0.1,5.7-5.6,17.9-5.7,23.2c0,2,0.7,2.4,1.5,2.4
				c4.4,0.1,9.1-10,12.8-20.3c0.2-0.6,0.7-0.8,1.2-0.8C605.4,2114,606.1,2114.7,605.9,2115.6z"/>
		</g>
		<g>
			<path fill="#FFFFFF" d="M629.8,2116.2c-2.8,7.9-7.1,22-15.1,21.8c-3.6-0.1-5.6-3.1-5.5-7.3c0.1-5.7,4.8-15.7,4.8-18.8
				c0.1-2.6-2.8-3.7-5.6-5.4c-0.7,2.6-1.4,5.4-2.5,9c-0.1,0.5-0.7,0.8-1.2,0.8c-0.7,0-1.5-0.6-1.2-1.5c1.1-3.2,2.1-6.7,2.9-9.7
				c-1.6-1.3-2.8-3.1-2.7-5.8c0.1-3.3,1.8-4.4,3.6-4.4c1.9,0,2.7,1.5,2.7,4.4c0,1.8-0.4,3.4-0.8,4.9c3.1,2.8,9.3,3.2,9.1,9.6
				c-0.2,5.6-5.1,14-5.2,19.5c0,1.8,0.5,2.4,1.5,2.5c5.1,0.1,10.2-13.1,12.9-20.3c0.2-0.5,0.7-0.8,1.2-0.8
				C629.5,2114.6,630,2115.5,629.8,2116.2z"/>
		</g>
		<g>
			<path fill="#FFFFFF" d="M662.1,2117.2c-3.4,9.9-8,16.1-15.7,15.8c-0.5,0-0.9,0-1.3-0.1c-2.6,3.4-6.2,5.8-10.5,5.6
				c-6.1-0.2-10.2-5.1-10-12.7c0.3-11,9.1-21.8,14.1-20.6c1-0.7,2.2-1.1,3.5-1.1c4.4,0.1,8.4,5.2,8.1,13.4
				c-0.1,4.2-1.4,9.1-3.8,13.1c8.4-0.3,11.5-10.1,13.1-14.3c0.2-0.6,0.8-0.8,1.2-0.8C661.8,2115.6,662.3,2116.4,662.1,2117.2z
				 M641.3,2131.7c-4.4-2.3-7.4-7.4-7.2-14.5c0.1-4.2,1.3-8.4,3.5-10.8c-5.9,4.3-8.5,13.5-8.6,20.2c-0.2,6.7,2,9.8,5.3,9.9
				C636.8,2136.5,639.3,2134.6,641.3,2131.7z M637.8,2119.2c-0.1,4.7,1.2,8.8,4.6,10.6c2.2-4.2,3.7-9.8,3.9-15.1
				c0.2-6.7-1.9-8.5-3.2-8.6C640.1,2106,638,2113.8,637.8,2119.2z"/>
		</g>
		<g>
			<path fill="#FFFFFF" d="M694.5,2118.3c-3.4,9.9-8.1,16-15.8,15.7c-0.5,0-0.9,0-1.3-0.1c-2.6,3.4-6.2,5.7-10.5,5.6
				c-6.1-0.2-10.2-5.1-9.9-12.8c0.3-11,9.2-21.8,14.2-20.5c1-0.7,2.2-1.1,3.5-1.1c4.4,0.2,8.4,5.3,8.1,13.4
				c-0.2,4.2-1.5,9.1-3.8,13.1c8.4-0.2,11.6-10,13.2-14.2c0.2-0.6,0.8-0.8,1.2-0.8C694.1,2116.7,694.7,2117.5,694.5,2118.3z
				 M673.5,2132.7c-4.4-2.3-7.3-7.4-7.1-14.5c0.1-4.2,1.3-8.4,3.5-10.8c-5.9,4.2-8.5,13.5-8.7,20.1c-0.2,6.7,1.9,9.8,5.2,9.9
				C669.1,2137.5,671.5,2135.6,673.5,2132.7z M670.1,2120.2c-0.2,4.7,1.1,8.9,4.5,10.7c2.3-4.2,3.8-9.8,4-15.1
				c0.2-6.7-1.8-8.6-3.2-8.6C672.5,2107.1,670.3,2114.8,670.1,2120.2z"/>
		</g>
		<g>
			<path fill="#FFFFFF" d="M738.2,2120.1c-4.5,12.5-8.7,21.8-15.6,21.5c-2.8-0.1-5.8-2.1-5.6-7.2c0.3-6.7,5.8-17.5,6-22.3
				c0.1-1.8-0.6-2.7-1.9-2.8c-3.4-0.1-8.2,6-11.5,15.5c-1.5,4.4-2.9,10.3-4.4,15.1c-2.5,0.2-3.2-1.7-3.1-3.8
				c0.2-6.1,6.6-19.3,6.9-24.9c0.1-1.8-0.5-2.4-1.6-2.5c-3.5-0.1-9.1,5.7-12.3,14.7c-0.9,2.5-2.8,8.6-4.7,15.9
				c-2.9-0.1-3.1-3.1-3.1-4.6c0.2-4.5,3.7-13.5,7.9-27.9c1.9,0,3.1,0.8,3,3.2c0,1-0.3,2.3-0.7,3.7c2.7-4.3,6-7.5,10.2-7.4
				c3.3,0.1,5.2,2.4,5.3,6.7c2.1-4,4.8-6.3,8.6-6.1c2.8,0.1,5.7,1.5,5.5,6.2c-0.3,6.3-6.1,18.3-6.3,23.8c-0.1,1.2,0.3,2.3,1.6,2.4
				c4.5,0.2,9.2-9.2,13.4-20.1c0.2-0.6,0.8-0.8,1.2-0.8C737.8,2118.5,738.5,2119.3,738.2,2120.1z"/>
		</g>
		<g>
			<path fill="#FFFFFF" d="M802.4,2128.2c-4.2,2.3-10.5,6-12.9,8.1c-0.8-0.2-1.1-1.1-1.1-1.7c0.1-2.7,7-5.1,10.5-6.8
				c-6.9-0.1-28.7-0.4-33.3-0.6c-4.2-0.2-6.2-0.9-6.7-3.2c14.8,0.6,32.1,1.6,40.2,2.1c-2.4-2.2-7.2-3.8-7.1-6.3c0-0.7,0.4-1.5,0.9-2
				C797.3,2122.9,802.8,2125.7,802.4,2128.2z"/>
		</g>
	</g>
</g>
<g>
	<g>
		<circle fill="#FF5029" cx="188.4" cy="178.6" r="86.7"/>
	</g>
	<g>
		<path fill="#FF5029" d="M201.4,314.6l-2.5-26.2c1-0.1,1.9-0.2,2.8-0.3l3.1,26.1C203.8,314.4,202.6,314.5,201.4,314.6z M172,314.2
			c-1.2-0.1-2.3-0.3-3.5-0.5l3.8-26c0.9,0.1,1.9,0.3,2.8,0.4L172,314.2z M233.6,307.6l-8.7-24.8c0.9-0.3,1.8-0.6,2.7-1l9.3,24.6
			C235.8,306.8,234.7,307.2,233.6,307.6z M140,306.4c-1.1-0.4-2.2-0.9-3.3-1.3l10-24.3c0.9,0.4,1.8,0.7,2.7,1L140,306.4z M263.2,293
			l-14.4-22c0.8-0.5,1.6-1.1,2.4-1.6l15,21.6C265.1,291.7,264.2,292.3,263.2,293z M110.9,291.1c-1-0.7-1.9-1.4-2.9-2l15.5-21.2
			c0.8,0.6,1.5,1.1,2.3,1.7L110.9,291.1z M288.3,271.8l-19.2-17.9c0.6-0.7,1.3-1.4,1.9-2.1l19.7,17.4
			C289.9,270,289.2,270.9,288.3,271.8z M86.2,269.2c-0.8-0.9-1.6-1.8-2.3-2.7l20.1-16.9c0.6,0.7,1.2,1.4,1.9,2.2L86.2,269.2z
			 M307.8,245.2l-22.9-12.8c0.5-0.8,0.9-1.7,1.4-2.5l23.3,12.2C308.9,243.1,308.3,244.2,307.8,245.2z M67.5,242.2
			c-0.5-1-1.1-2.1-1.6-3.1l23.6-11.7c0.4,0.9,0.9,1.7,1.3,2.5L67.5,242.2z M320.3,214.7l-25.4-6.9c0.3-0.9,0.5-1.8,0.7-2.8l25.5,6.3
			C320.9,212.4,320.6,213.5,320.3,214.7z M55.7,211.4c-0.3-1.1-0.5-2.3-0.8-3.4l25.7-5.6c0.2,0.9,0.4,1.9,0.6,2.8L55.7,211.4z
			 M325,182.1l-26.3-0.7c0-0.9,0-1.9,0-2.9v-0.3h26.3v0.3C325.1,179.7,325.1,180.9,325,182.1z M51.8,178.9l0-0.3c0-1.1,0-2.3,0-3.4
			l26.3,0.7c0,0.9,0,1.8,0,2.7c0,0.1,0,0.1,0,0.2H51.8h11.7L51.8,178.9z M296.2,154.7c-0.2-0.9-0.4-1.9-0.7-2.8l25.5-6.3
			c0.3,1.1,0.6,2.3,0.8,3.4L296.2,154.7z M81.2,152.3L55.7,146c0.3-1.1,0.6-2.3,0.9-3.4l25.4,6.9C81.7,150.4,81.4,151.3,81.2,152.3z
			 M287.4,129.6c-0.4-0.9-0.9-1.7-1.3-2.5l23.2-12.3c0.5,1,1.1,2.1,1.6,3.1L287.4,129.6z M90.6,127.4l-23.3-12.2
			c0.5-1,1.1-2.1,1.7-3.1L92,124.9C91.5,125.7,91.1,126.5,90.6,127.4z M272.8,107.4c-0.6-0.7-1.2-1.4-1.9-2.1l19.6-17.5
			c0.8,0.9,1.6,1.8,2.3,2.7L272.8,107.4z M105.7,105.5L86,88.1c0.8-0.9,1.6-1.8,2.4-2.6l19.2,17.9
			C107,104.1,106.4,104.8,105.7,105.5z M253.3,89.3c-0.8-0.6-1.6-1.1-2.3-1.7L265.9,66c1,0.7,1.9,1.4,2.9,2L253.3,89.3z M125.6,87.8
			l-15-21.6c1-0.7,1.9-1.3,2.9-2l14.4,22C127.2,86.7,126.4,87.2,125.6,87.8z M230.1,76.3c-0.9-0.4-1.8-0.7-2.7-1l9.3-24.6
			c1.1,0.4,2.2,0.8,3.3,1.3L230.1,76.3z M149.1,75.4l-9.4-24.6c1.1-0.4,2.2-0.8,3.3-1.2l8.7,24.8C150.9,74.7,150,75,149.1,75.4z
			 M204.4,69.3c-0.9-0.1-1.9-0.3-2.8-0.4l3.1-26.1c1.2,0.1,2.3,0.3,3.5,0.5L204.4,69.3z M174.9,69l-3.2-26.1
			c1.2-0.1,2.3-0.3,3.5-0.4l2.5,26.2C176.8,68.8,175.9,68.9,174.9,69z"/>
	</g>
	<g>
		<defs>
			<path id="SVGID_5_" d="M198.4,159.7c0-11.2,9.1-20.3,20.3-20.3c11.2,0,20.3,9.1,20.3,20.3c0,11.2-9.1,20.3-20.3,20.3
				C207.5,180,198.4,170.9,198.4,159.7z M201.6,159.7c0,9.5,7.7,17.2,17.2,17.2s17.2-7.7,17.2-17.2s-7.7-17.2-17.2-17.2
				S201.6,150.2,201.6,159.7z"/>
		</defs>
		<use xlink:href="#SVGID_5_"  overflow="visible" fill="#262626"/>
		<clipPath id="SVGID_2_">
			<use xlink:href="#SVGID_5_"  overflow="visible"/>
		</clipPath>
	</g>
	<g>
		<defs>
			<path id="SVGID_7_" d="M141.7,159.2c0-11.2,9.1-20.3,20.3-20.3c11.2,0,20.3,9.1,20.3,20.3s-9.1,20.3-20.3,20.3
				C150.8,179.5,141.7,170.4,141.7,159.2z M144.8,159.2c0,9.5,7.7,17.2,17.2,17.2s17.2-7.7,17.2-17.2S171.5,142,162,142
				S144.8,149.7,144.8,159.2z"/>
		</defs>
		<use xlink:href="#SVGID_7_"  overflow="visible" fill="#262626"/>
		<clipPath id="SVGID_4_">
			<use xlink:href="#SVGID_7_"  overflow="visible"/>
		</clipPath>
	</g>
	<g>
		<polygon fill="#262626" points="212.5,196.8 187.4,195.7 187.6,192.6 206.8,193.4 190.7,167.2 193.4,165.6 		"/>
	</g>
	<g>
		<path fill="#262626" d="M191.5,221.3c-23.3,0-30.2-16.5-30.4-17.2l2.9-1.2c0.3,0.6,6.4,15.2,27.5,15.2c18.2,0,25.8-13.8,25.9-14
			l2.8,1.5C219.8,206.3,211.5,221.3,191.5,221.3z"/>
	</g>
	<g>
		<path fill="#262626" d="M158.1,126.6l-2.8-1.4c0.2-0.3,3.9-7.6,12-7.6c6.6,0,9.9,5.2,10.7,7.9l-3,0.9c-0.1-0.2-1.7-5.6-7.6-5.6
			C161.2,120.7,158.2,126.3,158.1,126.6z"/>
	</g>
	<g>
		<path fill="#262626" d="M208.1,126.6l-2.8-1.4c0.2-0.3,3.9-7.6,12-7.6c6.6,0,9.9,5.2,10.7,7.9l-3,0.9c-0.1-0.2-1.7-5.6-7.6-5.6
			C211.1,120.7,208.2,126.5,208.1,126.6z"/>
	</g>
	<g>
		<path fill="#262626" d="M228.1,151.7c3.3,0,6.4,1.2,8.8,3.2c0.4,1.5,0.6,3.1,0.6,4.8c0,8.8-6,16.1-14.1,18.2
			c-5.1-1.9-8.8-6.9-8.8-12.6C214.6,157.7,220.6,151.7,228.1,151.7z"/>
	</g>
	<g>
		<path fill="#262626" d="M171.4,151.2c3.3,0,6.4,1.2,8.8,3.2c0.4,1.5,0.6,3.1,0.6,4.8c0,8.8-6,16.1-14.1,18.2
			c-5.1-1.9-8.8-6.9-8.8-12.6C157.9,157.2,163.9,151.2,171.4,151.2z"/>
	</g>
</g>
</svg>
