<?xml version="1.0" encoding="utf-8"?>
<!-- Generator: Adobe Illustrator 19.2.1, SVG Export Plug-In . SVG Version: 6.00 Build 0)  -->
<svg version="1.1" id="Layer_1" xmlns="http://www.w3.org/2000/svg" xmlns:xlink="http://www.w3.org/1999/xlink" x="0px" y="0px"
	 viewBox="0 0 199.6 202.7" enable-background="new 0 0 199.6 202.7" xml:space="preserve">
<path fill="#FFEE5F" d="M194.9,101.3c0,9.7-12.3,17.3-15.1,26c-2.9,9,2.4,22.4-3.1,29.9c-5.5,7.6-19.9,6.6-27.5,12.1
	c-7.5,5.5-11,19.5-20,22.4c-8.7,2.8-19.7-6.4-29.4-6.4c-9.7,0-20.7,9.2-29.4,6.4c-9-2.9-12.5-16.9-20-22.4
	c-7.6-5.5-22-4.5-27.5-12.1c-5.5-7.5-0.1-20.9-3.1-29.9c-2.8-8.7-15.1-16.3-15.1-26c0-9.7,12.3-17.3,15.1-26
	c2.9-9-2.4-22.4,3.1-29.9c5.5-7.6,19.9-6.6,27.5-12.1c7.5-5.5,11-19.5,20-22.4c8.7-2.8,19.7,6.4,29.4,6.4c9.7,0,20.7-9.2,29.4-6.4
	c9,2.9,12.5,16.9,20,22.4c7.6,5.5,22,4.5,27.5,12.1c5.5,7.5,0.1,20.9,3.1,29.9C182.6,84.1,194.9,91.7,194.9,101.3z"/>
<g>
	<g>
		<path fill="#FF5029" d="M72.6,82.6c0,4.4-2.8,11.2-8.1,12.4C66.1,91.9,68,87,68,82c0-4.3-1.4-5.8-3.8-5.8c-5.4,0-12.2,7.4-12.2,16
			c0,6.1,3.3,8.9,6.1,11.5c4.8,4.5,7.2,7.2,7.2,11.6c0,6.4-5.2,10.9-11.2,10.9c-0.3,0-0.6,0-0.9-0.1v0.5c0,2.2-1.7,8.6-7.2,23.9
			c-0.3-0.3-0.2-0.8-0.2-1.2c0-3.6,1-7.5,5-23.6c-4.9-1.5-7.9-6.5-7.9-11.7c2.3,3.7,7.5,7.9,12.9,7.9c3.5,0,5.8-1.8,5.8-5
			c0-3.7-3.2-7-7.8-11.4C51.2,103,47,98.8,47,91.7c0-10.3,8.6-18.3,16.2-18.3l0.2-0.8c0.6-2.9,4.8-22.7,6.8-32.5
			c2.8,0,3.4,1.7,3.4,3.4c0,4.7-4,16.2-8.2,30.2C69.6,74.4,72.6,78,72.6,82.6z"/>
		<path fill="#FF5029" d="M87.9,95.5c2.5-1.7,4.6-2.7,7.3-2.7c7.4,0,12,6.9,12,15.2c0,12.2-9.9,24.3-21,24.3c-4.8,0-10-2.2-9.6-7.9
			c1.4,2.6,4.1,3.9,7.5,3.9c10.7,0,18.9-12.7,18.9-22.4c0-6.4-3.6-8.9-9-8.9c-2.7,0-6,0.6-9.3,2.2c-1.2-1.2-1.5-2.4-1.5-3.1
			c0-4.6,13.6-12.4,25.8-23.9c-5.5-0.2-12.5,1.5-17.2,1.5c-4.1,0-5.5-1.2-6.1-4.2c6.8,0.4,17.7-1.3,21.5-1.3c4,0,5.2,1.8,5.2,3.5
			C112.6,77.7,99.8,85.4,87.9,95.5z"/>
		<path fill="#FF5029" d="M113.6,111.9c0-17.8,10.8-43.5,24.4-43.5c7,0,13.1,6.7,13.1,19.8c0,16.2-9.4,44.1-23.9,44.1
			C119.8,132.3,113.6,125.4,113.6,111.9z M146,85.7c0-10.5-2.9-14-6.8-14c-10.1,0-20.6,24.4-20.6,42.9c0,10.9,3.6,14.2,7.4,14.2
			C136.1,128.8,146,104.8,146,85.7z"/>
	</g>
</g>
</svg>
