<?xml version="1.0" encoding="utf-8"?>
<!-- Generator: Adobe Illustrator 19.2.1, SVG Export Plug-In . SVG Version: 6.00 Build 0)  -->
<svg version="1.1" id="Layer_1" xmlns="http://www.w3.org/2000/svg" xmlns:xlink="http://www.w3.org/1999/xlink" x="0px" y="0px"
	 viewBox="0 0 2922.3 130.1" enable-background="new 0 0 2922.3 130.1" xml:space="preserve">
<path fill="#FFD6DB" d="M2960.9,113.3c-60.1,1.5-60.4-20-120.5-20c-60.1,0-60.1,20-120.2,20c-60.1,0-60.1-20-120.2-20
	c-60.1,0-60.1,20-120.2,20c-60.1,0-60.1-20-120.2-20c-60.1,0-60.1,20-120.2,20c-60.1,0-60.1-20-120.2-20c-60.1,0-60.1,20-120.2,20
	c-60.1,0-60.1-20-120.2-20c-60.1,0-60.1,20-120.2,20c-60.1,0-60.1-20-120.2-20c-60.1,0-60.1,20-120.2,20c-60.1,0-60.1-20-120.2-20
	c-60.1,0-60.1,20-120.2,20c-60.1,0-60.1-20-120.2-20c-60.1,0-60.1,20-120.2,20c-60.1,0-60.1-20-120.2-20c-60.1,0-60.1,20-120.2,20
	c-60.1,0-60.1-20-120.2-20c-60.1,0-60.1,20-120.2,20c-60.1,0-60.1-20-120.2-20c-60.1,0-60.1,20-120.2,20c-60.1,0-60.1-20-120.2-20
	c-60.1,0-60.1,20-120.2,20c-60.1,0-59.9-18.5-120-20c-1.5,0-10.3,8.5-10.3,6.9c0-1.5,20-1.5,20-3.1c0-1.5-20-1.5-20-3.1
	c0-1.5,20-1.5,20-3.1c0-1.5-20-1.5-20-3.1c0-1.5,20-1.5,20-3.1c0-1.5-20-1.5-20-3.1c0-1.5,20-1.5,20-3.1c0-1.5-20-1.5-20-3.1
	c0-1.5,20-1.5,20-3.1c0-1.5-20-1.5-20-3.1c0-1.5,20-1.5,20-3.1c0-1.5-20-1.5-20-3.1c0-1.5,20-1.5,20-3.1c0-1.5-20-1.5-20-3.1
	c0-1.5,20-1.5,20-3.1c0-1.5-20-1.5-20-3.1c0-1.5,20-1.5,20-3.1s-20-1.5-20-3.1c0-1.5,20-1.5,20-3.1c0-1.5-20-1.5-20-3.1
	c0-1.5,20-1.5,20-3.1c0-1.5-20-1.5-20-3.1c0-1.5,20-1.5,20-3.1s-11.8-13-10.3-13.1c60.1-1.5,60.4,20,120.5,20
	c60.1,0,60.1-20,120.2-20c60.1,0,60.1,20,120.2,20c60.1,0,60.1-20,120.2-20c60.1,0,60.1,20,120.2,20c60.1,0,60.1-20,120.2-20
	c60.1,0,60.1,20,120.2,20c60.1,0,60.1-20,120.2-20c60.1,0,60.1,20,120.2,20c60.1,0,60.1-20,120.2-20c60.1,0,60.1,20,120.2,20
	c60.1,0,60.1-20,120.2-20c60.1,0,60.1,20,120.2,20c60.1,0,60.1-20,120.2-20c60.1,0,60.1,20,120.2,20c60.1,0,60.1-20,120.2-20
	c60.1,0,60.1,20,120.2,20c60.1,0,60.1-20,120.2-20c60.1,0,60.1,20,120.2,20c60.1,0,60.1-20,120.2-20c60.1,0,60.1,20,120.2,20
	c60.1,0,60.1-20,120.2-20c60.1,0,60.1,20,120.2,20c60.1,0,60.1-20,120.2-20c60.1,0,59.9,18.5,120,20c1.5,0,10.3-8.5,10.3-6.9
	c0,1.5-20,1.5-20,3.1c0,1.5,20,1.5,20,3.1c0,1.5-20,1.5-20,3.1c0,1.5,20,1.5,20,3.1c0,1.5-20,1.5-20,3.1c0,1.5,20,1.5,20,3.1
	c0,1.5-20,1.5-20,3.1c0,1.5,20,1.5,20,3.1c0,1.5-20,1.5-20,3.1c0,1.5,20,1.5,20,3.1c0,1.5-20,1.5-20,3.1c0,1.5,20,1.5,20,3.1
	c0,1.5-20,1.5-20,3.1c0,1.5,20,1.5,20,3.1c0,1.5-20,1.5-20,3.1c0,1.5,20,1.5,20,3.1c0,1.5-20,1.5-20,3.1s20,1.5,20,3.1
	c0,1.5-20,1.5-20,3.1c0,1.5,20,1.5,20,3.1c0,1.5-20,1.5-20,3.1c0,1.5,20,1.5,20,3.1c0,1.5-20.1,2.7-19.9,4.2
	C2951.5,108,2962.5,113.3,2960.9,113.3z"/>
</svg>
