<?xml version="1.0" encoding="utf-8"?>
<!-- Generator: Adobe Illustrator 19.2.1, SVG Export Plug-In . SVG Version: 6.00 Build 0)  -->
<svg version="1.1" id="Layer_1" xmlns="http://www.w3.org/2000/svg" xmlns:xlink="http://www.w3.org/1999/xlink" x="0px" y="0px"
	 viewBox="0 0 109.4 112.7" enable-background="new 0 0 109.4 112.7" xml:space="preserve">
<g>
	<path fill="#11BB75" d="M103.7,56.3c0,4.1-7.2,7.2-8.2,10.9c-1,3.9,3.6,10.1,1.6,13.6c-2,3.5-9.7,2.6-12.6,5.4
		c-2.8,2.8-1.9,10.6-5.4,12.6c-3.4,2-9.7-2.7-13.6-1.6c-3.8,1-6.9,8.2-10.9,8.2c-4.1,0-7.2-7.2-10.9-8.2c-3.9-1-10.1,3.6-13.6,1.6
		c-3.5-2-2.6-9.7-5.4-12.6c-2.8-2.8-10.6-1.9-12.6-5.4c-2-3.4,2.7-9.7,1.6-13.6c-1-3.8-8.2-6.9-8.2-10.9c0-4.1,7.2-7.2,8.2-10.9
		c1-3.9-3.6-10.1-1.6-13.6c2-3.5,9.7-2.6,12.6-5.4c2.8-2.8,1.9-10.6,5.4-12.6c3.4-2,9.7,2.7,13.6,1.6c3.8-1,6.9-8.2,10.9-8.2
		c4.1,0,7.2,7.2,10.9,8.2c3.9,1,10.1-3.6,13.6-1.6c3.5,2,2.6,9.7,5.4,12.6c2.8,2.8,10.6,1.9,12.6,5.4c2,3.4-2.7,9.7-1.6,13.6
		C96.5,49.2,103.7,52.3,103.7,56.3z"/>
	<g>
		<path fill="#FFEC5F" d="M43.9,65.7c0.2,1.3,0.4,2.6,0.6,3.9c-3.1,1.2-6.3,2.1-9.5,2.6c-1-6-2-12-3-18c3.2-0.5,6.3-1.4,9.4-2.5
			c0.2,1.3,0.4,2.6,0.6,3.9c-1.7,0.6-3.4,1.2-5.2,1.7c0.2,1,0.3,2.1,0.5,3.1c1.3-0.3,2.6-0.7,3.8-1.2c0.2,1.1,0.4,2.2,0.5,3.3
			c-1.3,0.4-2.6,0.8-3.9,1.2c0.2,1.3,0.4,2.5,0.6,3.8C40.3,67,42.1,66.4,43.9,65.7z"/>
		<path fill="#FFEC5F" d="M54,43.5c1.1,6.9,2.1,13.7,3.2,20.6c-1,0.5-2,1-3,1.4c-0.1-0.4-0.1-0.8-0.2-1.3c-0.1,0-0.1,0-0.2,0.1
			c-0.3,1.2-1,2.3-2.3,2.9c-3,1.3-4.5-2.1-5-4.9c-0.5-3.4,0.3-7.6,2.7-8.7c1.5-0.7,2.6,0.3,3.1,1.4c0,0,0.1,0,0.1-0.1
			c-0.5-3.3-1.1-6.6-1.6-9.9C51.8,44.5,52.9,44,54,43.5z M53.1,59.5c0-0.2-0.1-0.4-0.1-0.6c-0.4-2-1.4-2.8-2.5-2.3
			c-1,0.5-1.6,1.8-1.2,4.4c0.4,2.6,1.3,3.3,2.3,2.8C52.6,63.4,53.4,61.8,53.1,59.5z"/>
		<path fill="#FFEC5F" d="M57.6,45c-0.2-1.3,0.6-2.8,1.9-3.3c1.3-0.6,2.4,0.1,2.6,1.4c0.2,1.4-0.6,2.8-1.9,3.3
			C58.9,46.9,57.8,46.3,57.6,45z M64.3,61.3c-1.1,0.5-2.2,0.9-3.3,1.4c-0.7-4.4-1.3-8.9-2-13.3c1-0.5,2-0.9,3.1-1.3
			C62.8,52.5,63.6,56.9,64.3,61.3z"/>
		<path fill="#FFEC5F" d="M76.8,56.7c0,0-0.9,0.9-2.6,1.3c-3.4,0.8-5-1.4-5.3-3.7c-0.3-1.9-0.6-3.8-1-5.7c-0.6,0.2-1.2,0.4-1.8,0.6
			c-0.1-0.8-0.3-1.7-0.4-2.5c0.6-0.2,1.2-0.4,1.8-0.6c-0.2-1.1-0.4-2.2-0.5-3.3c1.1-0.5,2.2-1,3.2-1.5c0.2,1.3,0.4,2.5,0.6,3.8
			c1.1-0.3,2.1-0.5,3.2-0.7c0.1,0.8,0.3,1.7,0.4,2.5c-1.1,0.2-2.2,0.4-3.3,0.7c0.3,1.9,0.6,3.8,0.8,5.7c0.2,1.3,1,1.7,1.9,1.5
			c0.9-0.2,1.5-0.9,1.5-0.9C75.8,54.8,76.3,55.8,76.8,56.7z"/>
	</g>
</g>
</svg>
