<?xml version="1.0" encoding="utf-8"?>
<!-- Generator: Adobe Illustrator 19.2.1, SVG Export Plug-In . SVG Version: 6.00 Build 0)  -->
<svg version="1.1" id="Layer_1" xmlns="http://www.w3.org/2000/svg" xmlns:xlink="http://www.w3.org/1999/xlink" x="0px" y="0px"
	 viewBox="0 0 1201 1228.5" enable-background="new 0 0 1201 1228.5" xml:space="preserve">
<g>
	<g>
		<path fill="#FFFFFF" d="M332.5,112.5c-9.3,33.2-20.1,61-39.1,61c-8.4,0-14.3-5.6-14-22.4c-5.2,13.8-12.7,22.4-24.2,22.4
			c-10.9,0-20.4-7.9-20.4-28.2c0-28.2,18.3-66.9,39.4-66.9c8.8,0,15.6,6.5,17.4,16.3c1.1-4.7,2.2-9.3,3-13.8
			c6.1-0.7,8.8,2.7,8.8,7.4c0,11.1-15.8,54.3-15.8,72.3c0,5,1.3,6.6,4.5,6.6c12.7,0,24.7-26.7,33.7-56.7c0.5-1.6,2-2.3,3.2-2.3
			C331.3,108.2,333,110.2,332.5,112.5z M288.6,106.4c-1.6-12.2-4.8-20.8-11.3-20.8c-13.4,0-31,36.9-31,66.9
			c0,10.4,2.2,15.1,7.7,15.1C268,167.5,280,138.5,288.6,106.4z M264.9,51.3c0-13.6,10.9-23.7,22.4-23.7c9.9,0,17.8,7.7,17.8,18.3
			c0,12.2-10.4,24-22.8,24c-3,0-7.7-0.7-9.9-3.8C268.5,65.5,264.9,59.2,264.9,51.3z M274.2,54.9c0,4.8,1.1,7.7,2.7,9.7
			c12.2-1.1,18.3-11.5,18.3-22.4c0-5.2-1.4-8.1-3.9-9.7C282.7,32,274.2,41.8,274.2,54.9z M293.4,32.9l1.3,0.4
			C294.3,33,293.8,32.9,293.4,32.9z"/>
	</g>
	<g>
		<path fill="#11BC75" d="M1166.2,586.4c0,16.7-20.8,87.3-33.3,142c-7-0.4-8.5-3.8-8.5-7.9c0-6.8,4-23.3,7.4-36.7
			c-10,25.9-22.5,47.5-37.3,47.5c-10.6,0-25.4-11.2-25.4-30.9c0-17.6,11.9-52.6,28.8-123.4c6.2,0.2,9.3,3,9.3,9.3
			c0,19.3-28.2,106-28.2,123.8c0,7,4.4,10.6,10.6,10.6c22.7,0,43.5-47.7,52.4-83.3c5.3-21.2,8.1-32,15-60.4
			C1163.2,577.1,1166.2,579.9,1166.2,586.4z M1105.3,565.8c7-9.7,21.2-23.8,25.9-24c2.3-0.2,7,1.5,8.9,7.9
			C1128.5,556.7,1109,569.2,1105.3,565.8z M1129.7,563.9c8.3-8.3,24.8-20.3,29.3-19.5c2.3,0.2,6.6,2.5,7.4,9.3
			C1154.1,558.8,1132.9,567.8,1129.7,563.9z"/>
	</g>
	<g>
		<path fill="#FFFFFF" d="M527.1,655.2c-5.9,6.2-20,10-28.7,11.6c9.3,7.6,19,14,24.9,19.2c-1.4,3.8-6.2,4.8-8.8,4.8
			c-10,0-18.1-12.8-21.6-18.8c-3.6,15.7-7.1,28.7-9.3,37.3c-6.4-2.1-8.3-5.7-8.3-10.9c0-8.1,4.3-17.6,10.7-27.6
			c-9,4.8-21.1,12.1-31.4,15.4c-1.7-7.1,1-11.2,4-13.3c6.4-4.8,21.9-7.4,27.3-8.8c-9.3-8.1-16.4-12.6-24-17.6
			c1.9-3.3,4.8-5.2,9.5-5.2c5.9,0,8.6,2.9,18.8,17.6c2.4-10,9.5-34.9,10.7-39c7.4,1.2,9.3,5.7,9.3,8.8c0,6.7-7.6,21.6-12.8,31.4
			c13.8-6.9,21.9-11.6,30.6-17.3C530.9,646.8,530.9,651.4,527.1,655.2z"/>
	</g>
	<path fill="#11BC75" d="M641,922c-8.8-0.7-19.1-1-29.6-1c-6.7,21.3-13.4,43-19.1,63.3c-3.8-0.2-5-4.1-5.3-6.2
		c-0.2-4.8,4.5-26.7,11.9-57.1l-32,0.7c-6.4,20.8-12.9,42.5-18.9,62.6c-3.8-0.2-5-3.8-5.3-6c-0.5-5,4.3-26.5,11.2-56.4
		c-4.3,0.2-8.1,0.2-10.7,0.2c-13.8,0-18.9-1.9-20.8-10c7.9,0.5,20.3,0.5,33.9,0.2c2.6-10.5,5.3-21.7,8.1-33.4
		c-3.6,0.2-6.7,0.2-8.8,0.2c-13.8,0-18.9-1.9-20.8-10c7.2,0.5,18.9,0.5,32.2,0.2c5.7-22.9,11.9-47.3,17.9-70.7
		c8.6,0,11.7,5,11.7,11.2c0,8.4-5.7,30.8-14.1,59.2c10-0.2,20.3-0.7,29.6-1c6-24.1,12.7-49.9,18.9-74.5c8.6,0,11.5,4.8,11.5,11.2
		c0,9.6-6.2,33.2-15,62.8c6.7-0.2,11.7-0.5,14.1-0.5c11,0,16.5,3.6,18.1,11.7c-10-0.7-22.4-1-35.3-1c-3.1,10.5-6.4,21.3-10,32.5
		c3.8-0.2,6.7-0.2,8.4-0.2C633.8,910.3,639.3,913.9,641,922z M601.6,911c2.4-10.3,5.3-21.3,8.1-32.7c-10.5,0-21,0.2-29.8,0.5
		l-10,33.4C581,911.8,592.3,911.3,601.6,911z"/>
	<path fill="#FFFFFF" d="M730.9,479.7c0-7.2,6.2-13.4,13.6-13.4c4.9,0,8.5,2.6,11.3,5.1c4.4,8.5-0.8,21.1-11.6,21.1
		C736.9,492.6,730.9,487.2,730.9,479.7z M754.4,434.4c0-12.4,14.9-57.4,42.7-142.8c10,0,11.8,5.7,11.8,11.6
		c-0.3,19.3-20.8,63.6-49.4,138.5C755.4,441.4,754.4,437.5,754.4,434.4z"/>
	<path fill="#FFFFFF" d="M100.7,388.7c0,34.3-56,56-56,92.7c0,11.2,5.1,20.8,17.5,20.8c17.5,0,37.6-19.4,46.2-41.8
		c2.8,4.4,4,8.4,4,13.1c0,20.8-22.4,39.2-44.4,39.2c-22.2,0-34.6-18.7-34.6-36.2c0-37.6,58.1-65.6,61.2-101.8
		C97.9,376.8,100.7,381,100.7,388.7z M114.7,342.7c0,6.5-5.6,12.1-12.4,12.1c-4.4,0-7.7-2.3-10.3-4.7c-4-7.7,0.7-19.1,10.5-19.1
		C109.3,331,114.7,335.9,114.7,342.7z"/>
	<path fill="#FF5029" d="M433.5,77c0,13.5,7,17.5,7,25.9c0,8.6-7.4,11.9-14.1,12.9c4.4,3,9.2,8.6,9.2,14.1
		c0,11.5-20.5,24.1-20.5,48.3c0,19.3,13.3,30.2,15.5,31.2c-12.9-4.8-25.3-15.3-25.3-35c0-26.9,22.7-39,22.7-46c0-3.8-7-4.6-10.7-7.6
		c-2.4-2-3.4-5.4-3-10.3c7.4-1.6,16.1-4.2,16.1-11.1c0-6.2-7.2-10.1-7.2-25.5c0-31,29.4-50.7,50.3-45.6
		C454.8,29.1,433.5,53.7,433.5,77z M430.9,209.3h-0.2H430.9z"/>
	<path fill="#FFFFFF" d="M497,367.9c0,18.7-12.1,47.8-34.4,52.7c6.9-13.1,15.1-33.7,15.1-55.3c0-18.3-5.9-24.9-16.4-24.9
		c-22.9,0-51.7,31.4-51.7,68.1c0,25.9,14.1,37.7,25.9,48.8c20.3,19,30.5,30.8,30.5,49.4c0,27.2-21.9,46.5-47.5,46.5
		c-1.3,0-2.6,0-3.9-0.3v2.3c0,9.5-7.2,36.7-30.5,101.5c-1.3-1.3-1-3.3-1-5.2c0-15.4,4.3-32.1,21.3-100.5
		c-21-6.5-33.4-27.5-33.4-49.8c9.8,15.7,31.8,33.7,54.7,33.7c14.7,0,24.6-7.5,24.6-21.3c0-15.7-13.4-29.8-33.1-48.5
		c-11.1-10.5-28.8-28.2-28.8-58.6c0-43.9,36.7-77.9,68.8-77.9l0.7-3.6c2.6-12.4,20.3-96.6,28.8-138.2c11.8,0,14.4,7.2,14.4,14.4
		c0,20-17,69.1-34.7,128.4C484.2,333.2,497,348.6,497,367.9z"/>
	<path fill="#FF5029" d="M897.5,335.5c8.9-0.4,16.8-0.7,20.7-0.7c8.7,0,12.5,2.5,13.7,8.4h-36.5c-1.1,4.3-1.8,8.7-2.5,13.2
		c9.3-0.4,17.3-0.7,21.4-0.7c8.7,0,12.5,2.5,13.7,8.4h-35.8c-0.2,2.9-0.4,5.9-0.4,8.7c0,22.8,6.6,33,20.5,33c9.8,0,21.4-5,27.5-11.4
		c-3.7,12.5-11.9,20.9-25.1,20.9c-20.7,0-32.6-20.7-32.6-49.9V364c-0.2,0-0.4,0-0.5,0c-8,0-13.2-1.2-14.8-7.7
		c5,0.2,10.3,0.2,15.7,0.2c0.4-4.5,1.1-8.9,2-13.4c-7.5-0.2-12.1-1.6-13.7-7.7c5,0.2,10.2,0.2,15.5,0.2
		c7.7-28.7,25.5-53.1,44.9-53.1c11.8,0,22.6,8.7,22.6,28c-5.9-11.4-11.1-19.4-20-19.4C920,291.1,905.4,310.2,897.5,335.5z"/>
	<path fill="#FF5029" d="M482.8,873.6c0,91.9-55.3,182.5-95.9,182.5c-21.9,0-39.3-23.6-35.7-66.9c-11.2,29.4-27.7,47.7-51.8,47.7
		c-23.2,0-43.3-16.5-43.3-59.8c0-59.8,38.8-141.9,83.9-141.9c18.7,0,33,13.8,36.6,34.4l6.7-29c12.9-1.8,18.7,5.4,18.7,15.6
		c0,32.6-61.1,182.5-22.3,182.5c33,0,80.3-110.2,80.3-187.8c0-62.9-30.8-90.1-76.7-90.1c-91.5,0-191.4,108-191.4,223.5
		c0,69.2,36.1,110.2,91.9,110.2c34.4,0,65.6-16.1,82.1-34.8c-8.9,31.2-37,59.3-75.4,59.3c-57.1,0-121.8-62.5-121.8-151.3
		c0-103.1,87.9-224.4,197.2-224.4C427,743.3,482.8,781.2,482.8,873.6z M370.4,894.1c-3.1-25.9-10.3-43.7-24.1-43.7
		c-28.6,0-65.6,78.5-65.6,142.3c0,21.9,4.5,31.7,16.1,31.7C326.6,1024.4,352.1,962.8,370.4,894.1z"/>
	<path fill="#FF5029" d="M591.2,599.5c0-22.1,17.6-38.3,35.8-38.3c16.2,0,29,12.5,29,29.6c0,19.6-16.9,38.8-36.7,38.8
		c-5,0-12.5-1.1-16-6.2C596.9,622.3,591.2,612.3,591.2,599.5z M717.5,565.1c0,14.1-75.3,107.9-121.6,167.4c-1.8-0.9-2.3-3-2.3-3.9
		c0-10,60.7-88.5,117.7-168.8C716,559.8,717.5,563,717.5,565.1z M603.7,605c0,8.9,2.7,13,5.9,16.2c21.9-1.1,32.8-17.1,32.8-34.7
		c0-9.1-3-14.1-8.2-17.3C619,567.6,603.7,584,603.7,605z M638.2,570.1l0.9,0.2L638.2,570.1z M721.2,691.9
		c0,19.6-16.9,38.8-36.7,38.8c-5,0-12.5-1.1-16-6.2c-6.4-1.1-12.1-11.2-12.1-23.9c0-22.1,17.6-38.3,35.8-38.3
		C708.4,662.2,721.2,674.8,721.2,691.9z M707.7,687.6c0-9.1-3-14.1-8.2-17.3C684.2,668.6,669,685,669,706c0,8.9,2.7,13,5.9,16.2
		C696.8,721.1,707.7,705.1,707.7,687.6z M703.4,671.1l0.9,0.2L703.4,671.1z"/>
	<path fill="#FFFFFF" d="M901.5,763.7c0,24.2-40.3,150.5-62.7,235.2c-13.9,0-26.1-6.9-32.1-29.6c-7.6-28.3-14.2-107.7-22-186.7
		c-12.3,56.7-31.8,131.6-52.3,216.3c-9.4,0-13.9-8.2-13.9-18.3c0-26.8,31.2-121.8,60.5-233.6c11.3,0,19.2,4.4,21.1,17.3
		c0,0.9,17.6,133.2,29,209.4c14.5-63,33.1-128.8,57.6-226.7C894.9,747,901.5,753.9,901.5,763.7z M983.7,928.6
		c-20.5-2.5-52.3,0.3-61.1,0.3c-13.9,0-20.2-6.9-19.5-16.7c20.5,4.1,49.7,0.6,59.8,0.6C977.1,912.9,985,919.5,983.7,928.6z
		 M1022.4,806.8c0,44.7-25.5,90.4-63,90.4c-26.8,0-43.8-23.3-43.8-59.5c0-44.4,25.8-89.7,63.6-89.7
		C1006.4,747.9,1022.4,771.5,1022.4,806.8z M1002.6,798.3c0-23.9-7.6-40-21.4-40c-24.2,0-45,47.5-45.7,88.5
		c-0.3,23.3,6.3,40,20.8,40C980.9,886.8,1002.6,839.2,1002.6,798.3z"/>
	<path fill="#FFFFFF" d="M131.7,1147.6H82.4c-6.7,13.3-14.5,29.1-23.6,47.1c-3.6-0.2-4-3.8-3.8-5.8c0.7-5.8,5.3-16.9,16.2-41.4H46.3
		c-8,0-13.1-1.6-14.7-9.6c8.2,0.7,26.5,0.4,44,0c2.7-5.8,5.6-12.2,8.7-19.3H50.8c-8,0-13.1-1.6-14.7-9.6c9.8,0.9,32.9,0.4,52.7-0.2
		c5.3-11.8,11.6-25.4,18.5-40.9c5.3,0,5.8,6.2,5.8,8c0,4.9-3.8,14.9-11.8,32.5c10.5-0.4,18.7-0.7,21.1-0.7c8.9,0,12.5,3.6,13.8,10.9
		H96.4c-2.7,5.8-5.8,12-9.1,18.9c14.9-0.4,27.4-0.9,30.7-0.9C126.8,1136.8,130.4,1140.3,131.7,1147.6z"/>
	<path fill="#FFFFFF" d="M764.8,64.6c-8.3,0-26,9.8-37.9,19c-4.3-16.4,15-27.1,32.4-27.1c23.1,0,21.7,19,30.5,19
		c6.2,0,21.7-9.5,35-16c-1.7,14-18.6,26.4-33.1,26.4C772.4,86.1,777.2,64.6,764.8,64.6z M769.6,37c-8.3,0-26,9.8-37.9,19
		c-4.3-16.4,15-27.1,32.4-27.1c23.1,0,21.7,19,30.5,19c6.2,0,21.7-9.5,35-16c-1.7,14-18.6,26.4-33.1,26.4
		C777.2,58.4,781.9,37,769.6,37z"/>
	<path fill="#FFFFFF" d="M1045.4,97.9c23.5,2.1,105.2-1.8,115.6-1.8c11.9,0,16.7,4.8,18.5,14.6h-114.4
		C1054.4,110.7,1047.5,108.6,1045.4,97.9z M1088.7,150.6c0-8.3,7.1-15.5,15.8-15.5c5.7,0,9.8,3,13.1,6c5.1,9.8-0.9,24.4-13.4,24.4
		C1095.6,165.5,1088.7,159.2,1088.7,150.6z M1110.5,61.5c0-8.3,7.1-15.5,15.8-15.5c5.7,0,9.8,3,13.1,6c5.1,9.8-0.9,24.4-13.4,24.4
		C1117.3,76.4,1110.5,70.2,1110.5,61.5z"/>
	<path fill="#FFFFFF" d="M510.1,1146.7c-5.9,17.5-12.9,37.2-20.4,58.1c-4.3,0-6.8-5.2-6.8-8.4c0-4.5,5.2-23.8,13.2-49
		c-13.9,0.9-24.5,2-32,2c-16.6,0-21.3-5.9-21.3-13.2c0-19.5,37-55.9,67.2-113.1c4.8,0.7,7.3,5.4,7.3,9.3
		c0,15.7-39.7,61.8-64.9,107.2c15.4,0.2,32.9-2.5,47.5-4.3c7.3-22.7,15.9-48.8,24.3-72.9c4.3,0.7,6.8,5.7,6.8,10.7
		c0,7.7-6.1,30-16.3,60.4c2.5,0,4.8-0.2,6.6-0.2c12.7,0,18.2,5.2,19.1,13.9C529.2,1146.5,519.2,1146.5,510.1,1146.7z"/>
	<path fill="#FFFFFF" d="M58.3,600.4c-5.4,16.7-13.5,40.2-17.3,57.2c6.6-6.4,14.1-9.6,23.1-9.6c20.3,0,32.3,16,32.3,37.2
		c0,30-24.2,59.7-50.3,59.7c-12,0-23.3-6.4-24.6-17.1c4.1,4.5,12,6.4,18.4,6.4c25.9,0,46-30.2,46-55c0-14.1-6.6-20.8-18.8-20.8
		c-8.1,0-18.6,3-29.5,8.4c-5.4-3.2-6.6-7.7-6.6-11.6c0-12.4,9.4-37.9,21.4-63.6c15.8,1.9,32.5-2.4,41.1-2.4
		c10.3,0,13.7,6.2,13.7,10.3c-13.5-2.8-27.4,2.6-40.4,2.6C62.8,602.1,60.4,601.5,58.3,600.4z"/>
	<path fill="#FFFFFF" d="M1171.3,315.1c-14.9,47.9-25.6,75.3-58.1,97.4c0.3,2.7,0.3,5.1,0.3,7.4c0,42.9-34.2,85.8-67.9,85.8
		c-20.5,0-33.7-15.8-33.7-34.5c0-36.3,48.2-41.1,85.2-61.6c0.9-0.3,1.5-0.9,2.4-1.5v-0.6c0-12.2-3.6-18.2-15.5-18.2
		c-10.1,0-27.7,4.2-43.5,16.1c-8.6-0.9-12.8-8.9-12.8-14.9c0-20,42.3-69.7,86.4-120.6c-10.7,3-25,9.2-40.2,9.2
		c-7.4,0-16.4-1.5-24.1-5.1c-2.7,11.9-5.7,24.4-10.4,41.1c-0.6,2.4-3,3.6-5.4,3.6c-3,0-6.8-2.4-5.7-6.8c4.5-14.9,8.3-30.4,11.6-44.1
		c-6-5.4-10.1-12.5-10.1-22.6c0-8.9,3.3-17.9,13.1-17.9c8.6,0,13.7,7.1,13.7,19.1c0,5.1-0.9,11.9-2.7,20c3.9,0.9,7.4,1.2,11,1.2
		c22.9,0,41.4-14.3,55.7-14.3c5.4,0,11,2.1,9.8,11.9c-32.5,49.1-59,75.3-84.6,127.4c14.6-14.9,26.8-21.1,37.2-21.1
		c15.8,0,24.4,13.7,28,28.9c28.9-22,37.8-52.7,49.1-88.4c0.9-2.7,3.3-3.9,5.4-3.9C1169.2,307.9,1172.2,311.2,1171.3,315.1z
		 M1098.3,421.4c-33.6,18.2-71.8,29.2-71.8,56.3c0,11.6,6.8,17.9,17.3,17.9C1070.6,495.5,1092.6,453.6,1098.3,421.4z"/>
	<path fill="#11BC75" d="M1162.1,1112.4c-13.2,42.7-25.7,74.8-48.8,74.8c-9.9,0-18.7-8.4-18.7-23.5c0-21.1,16.9-59.6,16.9-76.1
		c0-5.3-1.8-9-6.6-9c-10.8,0-32.1,19.6-42,43.6c-5.7,13.9-13,40.9-16.9,61.8c-7.5,0.7-10.8-7.3-10.8-14.3
		c0-14.3,14.1-57.4,22.9-96.1c6.6,0,10.3,4,10.3,10.3c0,4.6-2.2,12.5-4.6,21.6c9.5-17.2,22.2-34.8,40.3-34.8
		c12.8,0,20.9,9,20.9,22.4c0,19.4-17.4,60.7-17.4,78.5c0,6.8,2.6,7.9,4.8,7.9c15,0,29.3-32.3,41.6-69.5c0.7-2,2.4-2.9,4-2.9
		C1160.6,1107.1,1162.8,1109.5,1162.1,1112.4z M1069.1,1056.3c-2.9-15.2,10.8-28.4,24.4-28.4c15,0,15,16.1,21.1,16.1
		c4.2,0,15-7.3,24.4-13.2c-1.1,13-13.2,24.4-23.5,24.4c-13.2,0-11.2-18.5-19.1-18.5C1090,1036.7,1077.5,1047.7,1069.1,1056.3z"/>
	<g>
		<path fill="#FF5029" d="M1161.7,873.5c0,31-17.7,62.6-42.3,62.6c-5.1,0-9.6-1-13.5-2.9c-5.3,11.1-10.5,21.8-15.2,31.8
			c-1.6,0-2.1-3.9-1.6-6.8c0.8-3.5,4.7-13.7,10.9-29.1c-7.6-6.8-11.7-18.5-11.7-33.5c0-31,18.1-62.8,42.7-62.8
			c3.5,0,6.8,0.6,9.9,1.6c4.3-9.8,8.6-19.9,13.3-30.4c4.1,0,5.3,3.7,5.3,6.2c0,4.3-3.7,15-9.8,29.3
			C1157.6,846.2,1161.7,858.3,1161.7,873.5z M1103.7,920.1c8.8-20.7,20.7-48.6,34.7-80.3c-1.6-0.8-3.3-1.2-5.1-1.2
			c-17.4,0-31.8,33.2-32.4,62.6C1100.8,908.4,1101.8,915,1103.7,920.1z M1145.9,848.1c-9.9,22.6-23.8,51.7-37.1,79.2
			c2.1,1.8,4.7,2.7,7.6,2.7c17.4,0,32.2-32.8,32.8-62.4C1149.4,860,1148.2,853.2,1145.9,848.1z"/>
	</g>
	<g>
		<path fill="#FFFFFF" d="M600.9,123.9c-1.4,5.8-2.9,11.1-4.1,16.1c7-0.2,13-0.5,16.6-0.5c11.8,0,16.8,3.4,18.5,11.3h-38
			c-7.5,30-10.8,48.6-14.2,61.5c-7.2-0.7-8.9-5.8-8.9-9.4c0-6.3,5.5-26.9,12-52.2h-13.7c-10.8,0-17.8-1.7-20-10.3
			c11.5,0.5,24.5,0.2,36.1,0c1.4-5.5,2.6-11.1,4.1-16.6h-14.9c-10.8,0-17.8-1.7-20-10.3c10.8,0.5,22.8,0.2,33.7,0
			c-10.8-27.4-20.9-51.9-29.6-78.1c10.3-1.2,14.2,2.6,17.1,8.7c3.1,6.3,5.5,16.1,21.6,64.7c23.8-37.3,37.5-60.8,43.5-73.3
			c4.6,0.5,8.4,3.8,8.4,9.1c0,10.8-15.9,29.8-43,68.3c5.3,0,9.6-0.2,12.5-0.2c11.8,0,16.8,3.4,18.5,11.3H600.9z"/>
	</g>
	<g>
		<path fill="#FFFFFF" d="M371.7,272.4c-17.6,10.8-43.7,28.6-53.3,38.3c-3.7-0.6-5.1-4.5-5.1-7.1c0-11.6,28.9-23.8,43.7-31.8
			c-29.8,1.4-123,4.8-142.9,4.8c-18.1,0-26.6-2.8-29.5-12.5c63.5-0.3,137.8,0,172.6,0.3c-10.8-9.1-31.8-14.7-31.8-25.8
			c0-2.8,1.4-6.8,3.4-9.1C348.8,250.6,372.9,261.4,371.7,272.4z"/>
	</g>
	<g>
		<path fill="#11BC75" d="M886.4,574.5c-7.4,25.4-18,32.2-30,32.2c-4.6,0-8.3-0.9-11.4-3.1c5.3,9.4,9.2,19.5,9.2,36.1
			c0,30.9-13.6,52.7-30.4,52.7c-30.6,0-13.4-72.9-2.9-116.7c18.8-78.1,24.5-102.4,39.4-102.4c9.4,0,16.6,9.9,16.6,24.3
			c0,21.5-15.8,58.4-44.6,83c7.2,14.2,13.4,18.6,21.9,18.6c11,0,19.3-7.9,25.4-26.7c0.6-1.7,1.8-2.4,3.3-2.4
			C885.1,570.1,887,572.3,886.4,574.5z M844.8,635.7c0-14.9-3.5-26.5-16-48.6c-6.8,30.4-13.3,63.3-13.3,83.2
			c0,9.6,1.5,15.3,6.1,15.3C829.9,685.6,844.8,666.6,844.8,635.7z M831.7,574.2c0,0.2,0,0.4-0.2,0.6c21.7-22.5,35.9-61.9,35.9-85.4
			c0-5.9-0.9-9-3.5-9C855.7,480.3,845.9,512.9,831.7,574.2z"/>
	</g>
	<g>
		<path fill="#FF5029" d="M313.1,438.5c-8.6,27.8-17.6,51.1-32.9,51.1c-7.8,0-13.2-6-13.2-16.1c0-14.6,11.6-40.6,11.6-52.2
			c0-3.8-1.2-6-4.8-6c-14.4,0-34.6,34.9-40.3,72c-5,0.6-6.8-4.8-6.8-8.7c0-10.8,13.4-57.9,26.8-106.8c-9.8,0-20.3,0.8-30.1,1.5v0.6
			c0,11.3-16.4,68.6-28.1,113.4c-4.5-0.3-5.7-3.2-5.7-7.2c0-12.6,12-53.1,24.8-106.2c-7.8,0.8-14.4,1.2-18.9,1.2
			c-7.5,0-11-1.5-12.2-7.7c16.2,0.9,60.6-3,67.8-3c7.7,0,9.8,4.5,9.8,7.4c0,5.9-9.2,36.2-17.3,66.3c6.8-13.1,16.1-28.3,29.9-28.3
			c8.7,0,14.3,6.2,14.3,15.3c0,13.2-11.9,41.5-11.9,53.7c0,4.7,1.8,5.4,3.6,5.4c10.1,0,20.1-23.5,28.1-47.5c0.5-1.4,1.7-2,2.7-2
			C312,434.9,313.5,436.5,313.1,438.5z"/>
	</g>
	<g>
		<path fill="#FF5029" d="M749.5,1095.6c-7.8,30.2-18,67.1-18,81.1c0,6,1.8,8.2,5,8.2c8.4,0,17.2-14.8,26.8-31.8
			c-1.2,30-15.2,38.9-25,38.9c-8.4,0-18-6.2-18-20.2c0-11.8,6.6-36.7,16.6-75.5h-1.2c-8.8,0-12.8-4.4-12.4-10.6
			c4.8,1,10.6,1.2,16,1.2c3.2-12.2,6.6-25.8,10.2-40.7c3.8,0,8.8,1,8.8,8c0,5.2-2.8,17.4-6.6,32.2c4.2-0.2,7.6-0.4,9.6-0.4
			c9,0,14,4.2,13.2,10C767.1,1095,757.5,1095.2,749.5,1095.6z"/>
	</g>
	<g>
		<path fill="#FF5029" d="M812.2,183.8c-5.8,18.2-15,52-33.5,52c-8.4,0-13.5-7-13.5-16.7c0-13.6,10.1-37,10.1-44.4
			c0-6-6.4-8.4-12.7-11.9c-8.4,31.7-13.3,48-18.4,70.7c-1.2,0.3-5.7-0.5-5.7-7.8c0-11.3,10.4-39.3,18.7-66.4
			c-3.7-3.1-6.6-7.2-6.6-13.6c0-7.6,4-10.4,8-10.4c4.4,0,6.4,3.4,6.4,10.1c0,4.1-0.8,8-1.5,11.5c7.3,6.3,21.6,6.9,21.6,21.9
			c0,13.2-10.9,33.2-10.9,46c0,4.3,1.2,5.7,3.7,5.7c11.8,0,22.9-31.8,28.6-48.3c0.5-1.2,1.5-2,2.8-2
			C811.5,180.1,812.7,182.1,812.2,183.8z"/>
	</g>
	<g>
		<path fill="#11BC75" d="M646.8,1122.7c0,21.9-19.2,47.3-43.8,47.3c-3.3,0-6.5,0-6.2-2.1c13.9-2.1,31.9-15.7,34.9-35.2
			c-0.9,0.3-1.8,0.3-2.7,0.3c-9.8,0-17.2-6.8-17.2-15.7c0-8.9,7.7-16.3,17.4-16.3C639.1,1101.1,646.8,1108.8,646.8,1122.7z"/>
	</g>
	<g>
		<path fill="#11BC75" d="M151.9,137c0,64.2-52.3,131.8-92.9,131.8c-11.2,0-25.1-5.1-25.1-20.7c0-16.8,16.8-73.2,37.9-158.8
			c7.1,0,10.7,4.4,10.7,10.5c0,15.6-24.1,104.8-37.2,160.3c2.7,0.2,5.6,0.5,7.5,0.5c39.9,0,84.2-70.5,84.2-130.6
			c0-43.3-22.9-51.8-44-51.8c-27.5,0-46.9,14.1-56.4,32.3c-3.2-3.4-4.4-6.6-4.4-10.9C32.3,82,52.9,67,84.3,67
			C121.5,67,151.9,88.1,151.9,137z M80.2,28.3c1.9-2.7,5.4-4.1,8.3-4.1c7.8,0,10.7,10.2,15.3,22.9c9.2-10.9,19-23.4,27.7-23.4
			c4.4,0,9.2,3.2,10,7.5c-9.7,5.8-24.8,17-35.5,28.5C92.6,59.4,92.6,43.8,80.2,28.3z"/>
	</g>
	<path fill="#FFFFFF" d="M937.9,617.1c0-23,19.3-41.9,42.7-41.9c15.3,0,26.2,8.1,33,16.1c14.1,26.6-0.4,66.1-34.2,66.1
		C956.4,657.4,937.9,639.7,937.9,617.1z"/>
	<path fill="#11BC75" d="M905.6,86.4c-3.1-5.2-4.4-9.6-4.4-14.7c0-22.2,24-43.7,50.7-43.7c25.8,0,41.1,20.2,41.1,41.6
		c0,43.2-62.3,64.4-66.2,110.1c-5.9-5.4-8-10.1-8-16.8c0-15,10.1-49.4,27.7-104.2c8.3,0,12.4,3.9,11.9,11.9
		c-0.8,15.3-16.8,46.5-26.9,72.6c19.4-34.9,49.6-51.4,49.6-79.9c0-13.4-6.7-23.5-22.2-23.5C936.8,39.9,915.9,60.3,905.6,86.4z
		 M927.5,207.9c4.4,8.5-0.8,21.2-11.6,21.2c-7.5,0-13.4-5.4-13.4-12.9c0-7.2,6.2-13.4,13.7-13.4
		C921.1,202.7,924.7,205.3,927.5,207.9z"/>
	<path fill="#11BC75" d="M104.1,892c0,13.5-10.3,24.1-19,28.2c2.1-3.7,7.8-16.5,7.8-28c0-7.8-3.2-13.1-10.3-13.1
		c-16.7,0-34.4,28-34.4,61.9c0,19.5,6.4,28.7,16.3,28.7c10.5,0,21.1-8.7,27.3-17c-1.8,15.4-11.7,25.7-25.2,25.7
		c-1.6,0-3.2-0.2-4.8-0.5c0.2,0.7,0.2,1.6,0.2,2.3c0,6.6-5,25.7-21.3,71.1c-0.9-0.9-0.7-2.3-0.7-3.7c0-11,3.2-22.7,15.1-71.5
		c-11-4.8-20.6-17-20.6-38.3c0-31.9,21.5-66.2,48.1-66.2h1.4c0-0.7,0-1.4,0.2-2.1c1.8-8.7,14.2-67.6,20.2-96.7
		c8.3,0,10.1,5,10.1,10.1c0,14-11.9,48.4-24.3,89.9C98.4,875,104.1,881.9,104.1,892z"/>
	<path fill="#11BC75" d="M652.1,442.4c-5.9,27.1-25,52.7-53.7,52.7c-29.6,0-51.5-28.1-51.5-54.6c0-31.5,30.9-66.2,61.5-63.3
		c-27.5-12.5-36.5-34.3-36.5-56.2c0-42.1,33.7-73,70.5-73c22.5,0,43.1,11.5,43.1,33.7c0,19-15,35.6-27.5,42.8
		c7.2-17.5,9-30.3,9-39.3c0-16.8-6.6-25.3-20.9-25.3c-27.8,0-52.1,31.2-52.1,66.5c0,29.3,16.9,40.3,35.3,52.1
		c6.2,4.1,6.2,7.2,4.1,11.9c-4.7-2.2-8.4-3.1-13.7-3.1c-30.3,0-51.5,33.4-51.5,63.7c0,20.9,10.3,30.3,25.6,30.3
		c21.2,0,38.4-17.5,49.9-37.8c-8.4,0.9-15.9,1.9-19.7,1.9c-9.4,0-19.3-5-21.5-14.4c23.7,1.2,37.8-4.1,55.9-4.1
		c20.6,0,25.3,7.2,28.4,14C677.4,439.9,664.3,440.8,652.1,442.4z"/>
	<g>
		<path fill="#11BC75" d="M313,621.3c-17.5,57.1-27.7,84.8-47.9,84.8c-19.7,0-29.7-26.4-38.2-56.9c-11,19.5-22.9,39.4-32.4,57.4
			c-6.5-0.2-9.2-6-9.2-11.5c0-15,20.4-31.2,39.4-54.1l-5.2-20.2c-4.7-17-9.7-33.4-14.5-42.9c-2.7,13-5.5,25.4-10.7,43.4
			c-0.5,2-2.5,3-4.5,3c-2.5,0-5.7-2-4.7-5.7c4.5-14.7,8.2-30.2,11.2-43.1c1.2-4,4.5-7.2,10-7.2c14.5,0,20.4,21.7,27.7,47.4
			c1.2,4.2,2.2,8.5,3.5,12.2c11.7-21.2,20.2-40.1,27.9-56.4c5.7,0.2,10,4,10,11c0,15.5-20.7,35.2-35.7,53.6
			c14.7,53.6,16.5,61.1,22.2,61.1c12.2,0,26.7-32.7,41.9-78.6c0.7-2.2,2.7-3.2,4.5-3.2C311.3,615.3,313.8,618.1,313,621.3z"/>
	</g>
	<g>
		<path fill="#11BC75" d="M220.2,1178.6c0-7.5,6.6-13.8,14.1-13.8c5.3,0,8.8,2.8,11.9,5.3c4.4,8.8-0.9,22-12.2,22
			C226.4,1192.1,220.2,1186.4,220.2,1178.6z M274.1,1178.6c0-7.5,6.6-13.8,14.1-13.8c5.3,0,8.8,2.8,11.9,5.3c4.4,8.8-0.9,22-12.2,22
			C280.4,1192.1,274.1,1186.4,274.1,1178.6z M327.8,1178.6c0-7.5,6.6-13.8,14.1-13.8c5.3,0,8.8,2.8,11.9,5.3c4.4,8.8-0.9,22-12.2,22
			C334.1,1192.1,327.8,1186.4,327.8,1178.6z"/>
	</g>
	<g>
		<path fill="#FFFFFF" d="M960.4,1197c-11.7-9.5-27.3-34.4-27.3-78c0-72.5,43.4-123.5,65.4-136.9c3.3-1.9,6.5-3.5,12.5-2.7
			c-31.1,25.9-64.6,81-64.6,144.2c0,36,10.9,60.5,27.3,79.9C966.6,1202.8,964.2,1200,960.4,1197z"/>
	</g>
	<g>
		<path fill="#FFFFFF" d="M839.7,1183.7c0-8.2,9.7-39.2,18.1-66.3c3.7,0,4.3,2.6,4.3,5.2c0,8.8-6.7,32.3-15.7,69.9
			C840.7,1192.1,839.7,1186.7,839.7,1183.7z M861.2,1100.3c0-5.2,7.1-30.1,16.8-72.5c7.1,0,8.6,4.3,8.6,8c0,8.8-9.5,32.9-21.1,70.1
			C862,1105.6,861.2,1102.2,861.2,1100.3z"/>
	</g>
</g>
</svg>
