<?xml version="1.0" encoding="utf-8"?>
<!-- Generator: Adobe Illustrator 19.2.1, SVG Export Plug-In . SVG Version: 6.00 Build 0)  -->
<svg version="1.1" id="Layer_1" xmlns="http://www.w3.org/2000/svg" xmlns:xlink="http://www.w3.org/1999/xlink" x="0px" y="0px"
	 viewBox="0 0 184.5 186.2" enable-background="new 0 0 184.5 186.2" xml:space="preserve">
<path fill="#11BD75" d="M178.7,93.1c0,8.8-11.1,15.7-13.7,23.6c-2.7,8.2,2.2,20.4-2.8,27.2c-5,6.9-18.1,6-25,11
	c-6.8,5-10,17.7-18.2,20.4c-7.9,2.6-17.9-5.8-26.7-5.8c-8.8,0-18.8,8.4-26.7,5.8c-8.2-2.7-11.4-15.4-18.2-20.4c-6.9-5-20-4.1-25-11
	c-5-6.8-0.1-19-2.8-27.2c-2.6-7.9-13.7-14.9-13.7-23.6c0-8.8,11.1-15.7,13.7-23.6c2.7-8.2-2.2-20.4,2.8-27.2c5-6.9,18.1-6,25-11
	c6.8-5,10-17.7,18.2-20.4c7.9-2.6,17.9,5.8,26.7,5.8c8.8,0,18.8-8.4,26.7-5.8c8.2,2.7,11.4,15.4,18.2,20.4c6.9,5,20,4.1,25,11
	c5,6.8,0.1,19,2.8,27.2C167.6,77.4,178.7,84.3,178.7,93.1z"/>
<g>
	<path fill="#FFEE5F" d="M67.1,76.5c0,4-2.6,10.2-7.4,11.3c1.5-2.8,3.2-7.2,3.2-11.8c0-3.9-1.3-5.3-3.5-5.3
		c-4.9,0-11.1,6.7-11.1,14.6c0,5.5,3,8.1,5.5,10.4c4.3,4.1,6.5,6.6,6.5,10.6c0,5.8-4.7,9.9-10.2,9.9c-0.3,0-0.6,0-0.8-0.1v0.5
		c0,2-1.5,7.8-6.5,21.7c-0.3-0.3-0.2-0.7-0.2-1.1c0-3.3,0.9-6.9,4.6-21.5c-4.5-1.4-7.1-5.9-7.1-10.6c2.1,3.4,6.8,7.2,11.7,7.2
		c3.2,0,5.3-1.6,5.3-4.5c0-3.4-2.9-6.4-7.1-10.4c-2.4-2.2-6.2-6-6.2-12.5c0-9.4,7.8-16.7,14.7-16.7l0.1-0.8
		c0.6-2.7,4.3-20.7,6.2-29.5c2.5,0,3.1,1.5,3.1,3.1c0,4.3-3.6,14.8-7.4,27.4C64.3,69.1,67.1,72.4,67.1,76.5z"/>
	<path fill="#FFEE5F" d="M97.1,120.6c-10.2-0.6-17.8,0.6-20.9,0.6c-3.9,0-5-1.9-5-3.8c0-9.5,28.6-27.4,28.6-45c0-3.8-1.3-6.2-5-6.2
		c-6.7,0-13.4,7.8-16.4,15.9c-0.9-1.4-1.3-2.6-1.3-4.2c0-7.8,8-14.8,15.6-14.8c6.9,0,10.4,5.7,10.4,12c0,16.6-25.1,34.2-29.5,42.8
		c8.1-0.1,14.1-1.4,17.7-1.4C95.7,116.6,96.8,118.4,97.1,120.6z"/>
	<path fill="#FFEE5F" d="M105.2,102.7c0-16.2,9.8-39.6,22.2-39.6c6.4,0,11.9,6.1,11.9,18c0,14.8-8.5,40.1-21.8,40.1
		C110.9,121.3,105.2,115,105.2,102.7z M134.7,78.8c0-9.5-2.7-12.7-6.2-12.7c-9.2,0-18.8,22.2-18.8,39.1c0,9.9,3.3,12.9,6.7,12.9
		C125.7,118,134.7,96.3,134.7,78.8z"/>
</g>
</svg>
