<?xml version="1.0" encoding="utf-8"?>
<!-- Generator: Adobe Illustrator 19.2.1, SVG Export Plug-In . SVG Version: 6.00 Build 0)  -->
<svg version="1.1" id="Layer_1" xmlns="http://www.w3.org/2000/svg" xmlns:xlink="http://www.w3.org/1999/xlink" x="0px" y="0px"
	 viewBox="0 0 286.8 37.6" enable-background="new 0 0 286.8 37.6" xml:space="preserve">
<g>
	<g>
		<path fill="#FFFFFF" d="M12.1,8C12,15.4,12,22.9,11.9,30.3c-1.7-0.1-3.3-0.2-5-0.4C6.9,22.5,6.8,15,6.8,7.6
			C8.6,7.7,10.3,7.8,12.1,8z"/>
		<path fill="#FFFFFF" d="M35.2,20.2c0.4,1,0.7,1.9,1.1,2.9c-0.2-1-0.3-2-0.5-3c0-3.7,0-7.3,0-11c1.7,0.1,3.3,0.1,5,0.2
			c-0.1,7.5-0.1,14.9-0.2,22.4c-1.3,0-2.7-0.1-4-0.1c-1.9-3.9-3.8-7.7-5.7-11.6c-0.3-0.9-0.6-1.9-0.9-2.8c0.1,1,0.2,1.9,0.4,2.9
			c-0.1,3.8-0.2,7.5-0.3,11.3c-1.5-0.1-3.1-0.1-4.6-0.2c-0.1-7.5-0.1-14.9-0.2-22.4c1.5,0.1,2.9,0.1,4.4,0.2
			C31.5,12.7,33.4,16.5,35.2,20.2z"/>
		<path fill="#FFFFFF" d="M67.9,13.8c-1.7,0-3.4,0-5.1,0c0,6.1-0.1,12.2-0.1,18.2c-1.7,0-3.3,0-5,0c0-6.1-0.1-12.2-0.1-18.2
			c-1.7,0-3.4,0-5.1,0c0-1.4,0-2.8,0-4.2c5.1,0.1,10.3,0.1,15.4,0.1C67.9,11,67.9,12.4,67.9,13.8z"/>
		<path fill="#FFFFFF" d="M94.6,31.6c-1.8,0-3.6,0.1-5.4,0.1c-1-1.4-0.6-4.1-1.3-6.2c-0.4-1.3-1.4-2.2-3-2.4c0,2.9-0.1,5.8-0.1,8.7
			c-1.6,0-3.3,0.1-4.9,0.1c-0.1-7.4-0.1-14.8-0.2-22.2c2.2-0.6,3.8-0.8,5.2-0.8c5.4-0.1,9.2,2.2,9.2,6.8c0,2.9-2.2,5.1-4.8,5.8
			c1.4,0.4,2.5,1.5,3.1,2.5C93.7,26.5,93.3,29.9,94.6,31.6z M88.8,16.1c0-2-1.6-3.2-4-2.8c0,2,0,4.1-0.1,6.1
			C87.2,19.6,88.8,18.2,88.8,16.1z"/>
		<path fill="#FFFFFF" d="M106,20c0-7,3.4-11.7,8.4-11.8c4.9-0.2,8.3,4.3,8.3,11.3c0,7-3.4,12-8.3,12.1C109.4,31.7,106,27,106,20z
			 M117.7,19.7c0-4.1-1.2-6.7-3.4-6.6c-2.1,0.1-3.4,2.8-3.4,6.8c0,4,1.2,6.7,3.4,6.7C116.4,26.5,117.7,23.7,117.7,19.7z"/>
		<path fill="#FFFFFF" d="M135,8.4c8.1-2.6,15.5,0.2,15.5,9.9c0,10.7-9.1,13.2-15.3,12C135.1,23,135.1,15.7,135,8.4z M145.5,18.5
			c0-4.8-2.5-7-5.3-6.5c0,4.6,0,9.3-0.1,13.9C142.9,25.7,145.5,23,145.5,18.5z"/>
		<path fill="#FFFFFF" d="M162.5,6.8c1.7-0.1,3.3-0.1,5-0.2c0,4.5-0.1,8.9-0.1,13.4c0,3.3,1,4.6,2.9,4.5c1.9-0.1,2.9-1.4,2.9-4.7
			c0-4.4,0-8.9,0-13.3c1.7-0.1,3.4-0.1,5.1-0.2c-0.1,4.4-0.1,8.8-0.2,13.3c-0.1,6.8-3.5,9.8-7.7,9.9c-4.1,0.1-7.6-2.6-7.7-9.4
			C162.6,15.7,162.6,11.2,162.5,6.8z"/>
		<path fill="#FFFFFF" d="M206.2,22.6c-1.3,3.7-4.1,6-7.5,6.1c-5,0.1-8.4-5-8.4-11.6c0-6.7,3.4-11.7,8.3-11.8c3.5-0.1,6.1,2.3,7,6.2
			c-1.4,0.6-2.8,1.3-4.3,2c-0.4-1.9-1.2-3.2-2.8-3.1c-2,0-3.6,2.8-3.6,6.8c0,3.9,1.5,6.7,3.7,6.7c1.7,0,2.7-1.3,3.5-3
			C203.6,21.3,204.9,22,206.2,22.6z"/>
		<path fill="#FFFFFF" d="M223.2,5.6c-0.1,7.5-0.1,14.9-0.2,22.4c-1.7,0-3.3,0-5,0C218,20.5,218,13,217.9,5.6
			C219.7,5.6,221.4,5.5,223.2,5.6z"/>
		<path fill="#FFFFFF" d="M246.3,16.9c0.4,1,0.7,1.9,1.1,2.9c-0.2-1-0.3-2-0.5-3c0-3.7,0-7.3,0-11c1.7,0,3.3,0.1,5,0.2
			c-0.1,7.5-0.1,14.9-0.2,22.4c-1.3,0-2.7-0.1-4-0.1c-1.9-3.9-3.8-7.7-5.7-11.6c-0.3-0.9-0.6-1.8-0.9-2.8c0.1,1,0.2,1.9,0.4,2.9
			c-0.1,3.8-0.2,7.5-0.3,11.3c-1.5,0-3.1-0.1-4.6-0.1c-0.1-7.5-0.1-14.9-0.2-22.4c1.5,0,2.9,0,4.4,0.1
			C242.6,9.5,244.5,13.2,246.3,16.9z"/>
		<path fill="#FFFFFF" d="M271.9,29.9c-4.4-0.3-7.6-5.5-7.6-12.1c0-6.7,3.4-11.6,8.3-11.3c3.5,0.2,6.3,2.8,7.1,6.8
			c-1.4,0.5-2.8,1-4.3,1.6c-0.4-1.9-1.3-3.3-2.9-3.4c-2-0.1-3.6,2.5-3.6,6.5c0,4.1,1.4,7.2,3.7,7.3c1.3,0.1,2.4-1.1,2.9-2.8
			c-1-0.1-2.1-0.1-3.1-0.2c0-1.2,0-2.4,0-3.6c2.5,0.2,5,0.3,7.5,0.5c0,3.6,0,7.2,0,10.8c-1.1-0.1-2.2-0.2-3.3-0.2
			c0-1.4-0.1-2.9-0.1-4.3C276.1,28,274.5,30.1,271.9,29.9z"/>
	</g>
</g>
</svg>
