<?xml version="1.0" encoding="utf-8"?>
<!-- Generator: Adobe Illustrator 19.2.1, SVG Export Plug-In . SVG Version: 6.00 Build 0)  -->
<svg version="1.1" id="Layer_1" xmlns="http://www.w3.org/2000/svg" xmlns:xlink="http://www.w3.org/1999/xlink" x="0px" y="0px"
	 viewBox="0 0 132 136" enable-background="new 0 0 132 136" xml:space="preserve">
<g>
	<path fill="#FFFFFF" d="M123.7,68c0,4.8-8.4,8.5-9.6,12.9c-1.2,4.6,4.2,12,1.9,16c-2.4,4.1-11.5,3-14.8,6.3
		c-3.3,3.3-2.3,12.4-6.3,14.8c-4,2.3-11.4-3.1-16-1.9c-4.4,1.2-8.1,9.6-12.9,9.6c-4.8,0-8.5-8.4-12.9-9.6c-4.6-1.2-12,4.2-16,1.9
		c-4.1-2.4-3-11.5-6.3-14.8c-3.3-3.3-12.4-2.3-14.8-6.3c-2.3-4,3.1-11.4,1.9-16c-1.2-4.4-9.6-8.1-9.6-12.9c0-4.8,8.4-8.5,9.6-12.9
		c1.2-4.6-4.2-12-1.9-16c2.4-4.1,11.5-3,14.8-6.3c3.3-3.3,2.3-12.4,6.3-14.8c4-2.3,11.4,3.1,16,1.9c4.4-1.2,8.1-9.6,12.9-9.6
		c4.8,0,8.5,8.4,12.9,9.6c4.6,1.2,12-4.2,16-1.9c4.1,2.4,3,11.5,6.3,14.8c3.3,3.3,12.4,2.3,14.8,6.3c2.3,4-3.1,11.4-1.9,16
		C115.3,59.6,123.7,63.2,123.7,68z"/>
	<g>
		<path fill="#FFEC5F" d="M48.1,74.9c0.6,0.9,1.1,1.9,1.7,2.8c-0.4-1.1-0.7-2.1-1.1-3.2c-0.7-4.3-1.3-8.5-2-12.8
			c1.9-0.8,3.7-1.7,5.6-2.6c1.3,8.7,2.6,17.5,3.9,26.2c-1.5,0.7-3,1.5-4.4,2.1c-2.8-3.5-5.7-7.1-8.6-10.8c-0.5-1-1-1.9-1.6-2.9
			c0.3,1.1,0.6,2.1,0.9,3.2c0.6,4.4,1.2,8.9,1.8,13.3c-1.8,0.5-3.5,0.9-5.3,1.2c-1.5-8.7-2.9-17.4-4.4-26.1c1.7-0.3,3.4-0.6,5.1-1.1
			C42.5,67.9,45.3,71.4,48.1,74.9z"/>
		<path fill="#FFEC5F" d="M71.6,70.7c0.6,1.1,1.3,2.2,1.9,3.3c-1,2.4-3.4,4.2-4.8,5c-4.1,2.4-7.8,0.8-8.8-5.6
			c-1-6.3,1.6-11.9,5.5-14.2c2.8-1.6,5.7-1.2,6.3,2.7c0.7,4.1-2.2,7.4-4.8,9c-0.8,0.5-1.6,0.8-2.3,0.9c0.6,2.5,1.9,3.9,3.7,2.9
			C69.9,73.7,71.1,71.7,71.6,70.7z M64.3,69.4c0.3-0.1,0.6-0.3,1-0.4c2.1-1.2,3.4-3.6,3.2-5.2c-0.2-1-0.9-1.3-1.8-0.8
			C65.1,63.8,64.2,66.4,64.3,69.4z"/>
		<path fill="#FFEC5F" d="M85.6,61.1c-0.1-0.5-0.3-1-0.4-1.5c0,0.6,0,1.1,0.1,1.7c-0.7,3.1-1.3,6.2-2,9.4c-1.2,0.6-2.5,1.2-3.7,1.8
			c-1.8-5.8-3.6-11.6-5.5-17.3c1.4-0.8,2.8-1.5,4.3-2.2c0.9,3.1,1.8,6.3,2.7,9.4c0.1,0.7,0.1,1.4,0.2,2.1c0-0.7,0.1-1.5,0.1-2.2
			c0.6-3.5,1.3-6.9,1.9-10.4c0.4-0.2,0.8-0.3,1.2-0.5c1.6,2.6,3.2,5.2,4.8,7.8c0.3,0.6,0.6,1.2,0.9,1.8c-0.1-0.6-0.3-1.3-0.4-1.9
			c-0.1-3.4-0.3-6.9-0.4-10.3c1.5-0.4,3-0.7,4.5-1c0.1,6.4,0.2,12.7,0.3,19.1c-1.3,0.3-2.6,0.6-3.8,1C88.7,65.6,87.1,63.3,85.6,61.1
			z"/>
	</g>
</g>
</svg>
