<?xml version="1.0" encoding="utf-8"?>
<!-- Generator: Adobe Illustrator 19.2.1, SVG Export Plug-In . SVG Version: 6.00 Build 0)  -->
<svg version="1.1" id="Layer_1" xmlns="http://www.w3.org/2000/svg" xmlns:xlink="http://www.w3.org/1999/xlink" x="0px" y="0px"
	 viewBox="0 0 1580.6 1579.1" enable-background="new 0 0 1580.6 1579.1" xml:space="preserve">
<g>
	<g>
		<path fill="#FFD6DB" d="M968.3,372c0,206.1-168.6,324.5-376.6,324.5S215.2,588.7,215.2,372c0-208.6,168.6-324.9,376.6-324.9
			S968.3,154.9,968.3,372z"/>
	</g>
	<g>
		<g>
			<path fill="#FF5029" d="M340.3,302.9l-0.2,34.8h36.7v31.2h-37l-0.5,65.8h-37.2l-1.2-168.1h39.6H390v36.3H340.3z"/>
		</g>
		<g>
			<path fill="#FFFFFF" d="M526.1,445.4h-40.3c-11.5-16.1-3.6-66.8-37.5-69.2l-0.5,69.2h-37.2l-1.4-168.1c7.9-0.7,21.1-1.2,27.9-1.2
				c41.8,0,81.2,10.6,81.2,51.2c0,22.1-12.5,35.8-28.8,41.5C514.6,382.7,513.9,428.4,526.1,445.4z M478.6,329.9
				c0-12-8.9-19.5-23.3-19.5h-7.4l-0.5,38.9h8.9C469.5,349.4,478.6,341.9,478.6,329.9z"/>
		</g>
		<g>
			<path fill="#FF5029" d="M637.1,398.5v36.3h-61.7h-28.6l-1.2-168.1h39.6h49.5v36.3H585l-0.2,29.3h36.7v31.2h-37l-0.2,35.1H637.1z"
				/>
		</g>
		<g>
			<path fill="#FFFFFF" d="M748.5,293.2L732.4,321c-5.3-6.7-13-12.2-23.5-12.2c-12.5,0-17.5,7.9-17.5,15.1c0,7.9,6.5,13.7,21.1,22.3
				c18,10.8,40.3,23.1,40.3,53.6c0,30.3-21.6,49.5-52.4,49.5c-23.5,0-43.7-11.3-51.4-21.1l16.6-31.5c8.4,8.4,20.9,14.2,32.2,14.2
				c11,0,17.3-5.5,17.3-14.4c0-11.3-10.1-15.4-23.1-23.1c-19.9-11.8-37.7-26.2-37.7-52.4c0-27.1,19-47.6,49.2-47.6
				C721.6,273.5,737.5,280.7,748.5,293.2z"/>
		</g>
		<g>
			<path fill="#FF5029" d="M880.4,266.6l-1.2,168.1H842l-0.5-60.5H810l-0.5,60.5h-37.2l-1.2-168.1h39.6l-0.5,76.4h31l-0.5-76.4
				H880.4z"/>
		</g>
	</g>
	<g>
		<g>
			<path fill="#FF5029" d="M504.6,152.8c0,4.8-6.8,27-11.1,45.9c-1.8,0-3.1-1.5-3.1-3.8c0-5,5.8-22,9.6-35.5
				c-8.5,17.7-15.7,29.4-20.3,39.3c-3.8-0.4-4.4-4-4.9-9.3c-0.7-7.5-1.3-19.2-1.5-30c-2.3,9.8-6.2,24.5-9.5,39.3
				c-2,0-2.6-1.7-2.6-3.3c0-5.5,6.2-23.8,11.4-45.4c2.3,0,3.2,0.7,3.7,3.2c0.7,4,1.9,24.7,2.9,39.3c5.5-11.3,12.8-22.6,22.3-42.4
				C503.5,150,504.6,150.9,504.6,152.8z"/>
		</g>
		<g>
			<path fill="#FF5029" d="M536.9,178.9c-3.2,11.3-6.8,20.7-13.3,20.7c-2.9,0-4.9-1.9-4.8-7.6c-1.8,4.7-4.3,7.6-8.2,7.6
				c-3.7,0-6.9-2.7-6.9-9.6c0-9.6,6.2-22.7,13.4-22.7c3,0,5.3,2.2,5.9,5.5c0.4-1.6,0.7-3.2,1-4.7c2.1-0.2,3,0.9,3,2.5
				c0,3.8-5.4,18.5-5.4,24.5c0,1.7,0.4,2.3,1.5,2.3c4.3,0,8.4-9.1,11.4-19.2c0.2-0.5,0.7-0.8,1.1-0.8
				C536.5,177.5,537.1,178.2,536.9,178.9z M522,176.9c-0.5-4.1-1.6-7.1-3.8-7.1c-4.6,0-10.5,12.5-10.5,22.7c0,3.5,0.7,5.1,2.6,5.1
				C515,197.6,519.1,187.8,522,176.9z"/>
		</g>
		<g>
			<path fill="#FF5029" d="M566,178.9c-3.7,11.8-7.1,20.7-13.5,20.7c-2.7,0-4.6-2-4.6-7.6c-1.7,4.6-4.3,7.7-8.2,7.7
				c-3.8,0-7.5-3.1-7.5-10.7c0-10.3,6.7-21.6,13.7-21.6c3.1,0,5.5,2.3,6.2,5.6c3.5-13.6,4.3-16.6,6.6-26.6c1.5,0,2.6,0.6,2.6,2.5
				c0,5.7-10.5,38.8-10.5,46.5c0,1.5,0.4,2.2,1.4,2.2c4.1,0,8.1-9,11.5-19.2c0.2-0.5,0.7-0.8,1.1-0.8
				C565.6,177.5,566.2,178.2,566,178.9z M551,177.3c0.1-0.2,0.1-0.4,0.1-0.6c-0.5-4.2-1.9-6.9-4.1-6.9c-4.6,0-10.8,11.1-10.8,21.9
				c0,3.2,0.5,6,3.2,6C544.9,197.6,548.9,185.6,551,177.3z"/>
		</g>
		<g>
			<path fill="#FF5029" d="M590.5,178.9c-3.3,11.9-9.8,20.7-18,20.7c-5.2,0-10.8-3.9-10.8-12.5c0-10.5,7.5-19.8,14-19.8
				c4.1,0,6,3.7,6,7.2c0,6.2-5.8,12.3-11.6,12.3c-1.3,0-2.9-0.3-4.1-1c-0.1,1-0.2,2.1-0.2,3.2c0,5.5,2.1,8.6,5.5,8.6
				c5.4,0,12.4-6.7,16.8-19.2c0.2-0.8,0.8-1,1.2-1C590.1,177.5,590.7,178,590.5,178.9z M566.2,184.2c0.9,0.3,1.7,0.4,2.6,0.4
				c5.7,0,9.6-7.1,9.6-12.5c0-2.3-0.7-2.9-1.8-2.9C573.2,169.3,567.7,175.1,566.2,184.2z"/>
		</g>
		<g>
			<path fill="#FF5029" d="M648.7,178.9c-2.3,7.2-6,20.7-13.3,20.7c-3.3,0-5.4-2.8-5.4-6.6c0-5.4,4-14.7,4-17.7
				c0-2.4-2.4-3.3-4.8-4.8c-2.3,8-6.9,15.7-13.9,15.7c-1.5,0-3.2,0-5.1-1.8c3,4.8,5.7,8.2,5.7,16.1c0,10.2-4.5,17.4-10,17.4
				c-10.1,0-4.4-24.1-1-38.6c6.2-25.8,8.1-33.9,13-33.9c3.1,0,5.5,3.3,5.5,8c0,7.1-5.2,19.2-14.7,27.3c1.8,2.6,4.1,2.9,6.2,2.9
				c5.4,0,10.5-7,12.4-14.6c-1.5-1.2-2.6-2.9-2.6-5.5c0-3,1.6-4.1,3.2-4.1c1.8,0,2.6,1.3,2.6,4c0,1.6-0.3,3.2-0.6,4.6
				c2.8,2.5,8,2.9,8,8.8c0,5.2-4.3,13.2-4.3,18.3c0,1.7,0.5,2.3,1.5,2.3c4.7,0,9.1-12.7,11.4-19.2c0.2-0.5,0.6-0.8,1.1-0.8
				C648.4,177.5,648.9,178.3,648.7,178.9z M612.9,199.2c0-4.9-1.2-8.8-5.3-16.1c-2.3,10-4.4,20.9-4.4,27.5c0,3.2,0.5,5.1,2,5.1
				C608,215.7,612.9,209.4,612.9,199.2z M608.6,178.8c0,0.1,0,0.1-0.1,0.2c7.2-7.4,11.9-20.5,11.9-28.3c0-1.9-0.3-3-1.2-3
				C616.5,147.8,613.3,158.5,608.6,178.8z"/>
		</g>
		<g>
			<path fill="#FF5029" d="M678.5,178.9c-2.8,9.4-6.9,15.2-14,15.2c-0.4,0-0.9,0-1.2-0.1c-2.3,3.3-5.5,5.5-9.6,5.5
				c-5.7,0-9.6-4.4-9.6-11.6c0-10.3,7.9-20.6,12.5-19.5c0.9-0.7,1.9-1.1,3.2-1.1c4,0,7.9,4.6,7.9,12.2c0,4-1,8.5-3.1,12.4
				c7.7-0.5,10.4-9.7,11.7-13.7c0.2-0.5,0.7-0.8,1.1-0.8C678.2,177.5,678.7,178.2,678.5,178.9z M659.7,193.1c-4.1-2-7-6.7-7-13.3
				c0-3.9,1-7.9,2.9-10.2c-5.3,4.1-7.4,12.8-7.4,19.1c0,6.2,2.1,9.1,5.1,9.1C655.8,197.7,658,195.9,659.7,193.1z M656.2,181.5
				c0,4.4,1.3,8.2,4.5,9.8c1.9-4,3.2-9.3,3.2-14.2c0-6.3-1.9-7.9-3.2-7.9C658,169.2,656.2,176.4,656.2,181.5z"/>
		</g>
		<g>
			<path fill="#FF5029" d="M718.9,178.9c-3.7,11.8-7.1,20.7-13.5,20.7c-2.6,0-5.4-1.8-5.4-6.5c0-6.2,4.7-16.5,4.7-21.1
				c0-1.7-0.7-2.5-1.8-2.5c-3.1,0-7.3,5.9-10,14.9c-1.2,4.1-2.3,9.7-3.5,14.2c-2.3,0.3-3-1.5-3-3.5c0-5.7,5.4-18.2,5.4-23.4
				c0-1.6-0.5-2.3-1.6-2.3c-3.2,0-8.2,5.6-10.8,14.2c-0.7,2.4-2.3,8.2-3.8,15c-2.7,0-3-2.8-3-4.1c0-4.2,3-12.7,6.3-26.3
				c1.8-0.1,2.9,0.7,2.9,2.9c0,0.9-0.2,2.1-0.5,3.5c2.4-4.1,5.3-7.2,9.1-7.2c3,0,4.9,2,5.1,6c1.8-3.8,4.1-6,7.7-6
				c2.6,0,5.3,1.2,5.3,5.6c0,5.9-4.9,17.3-4.9,22.4c0,1.2,0.4,2.1,1.5,2.1c4.1,0,8.2-9,11.6-19.2c0.2-0.5,0.7-0.8,1.1-0.8
				C718.5,177.5,719.1,178.2,718.9,178.9z"/>
		</g>
	</g>
	<g>
		<g>
			<g>
				<path fill="#FF5338" d="M410.1,488.6c0.1,0.3,0.1,0.6,0.1,1c0,6.8-9.4,39.1-16.7,65.7c1.2,0.1,2.4,0.1,3.4,0.2
					c3.7,0.5,6.2,1.8,6.8,5.4c-6-1.3-13.7-0.8-18.1-1.5c-4.7-0.7-6.3-2.8-6.6-5.9c3.7,0.9,7,1.3,9.9,1.5c-0.1-0.4-0.1-0.8-0.1-1.1
					c0-8.1,7.7-32.6,15.7-65.4c-1,0-2.1,0-2.9-0.1c-4.7-0.5-6.3-2.5-6.6-5.6c8,1.7,14,0.9,17.9,1.3c3.7,0.3,6.2,1.6,6.8,5.2
					C416.8,488.7,413.3,488.6,410.1,488.6z"/>
			</g>
			<g>
				<path fill="#FF5338" d="M463.7,532.7c-5.7,18.4-11.1,32.2-21,31.8c-4.3-0.1-8.1-3.9-8.1-10.5c0-9.1,7.3-25.4,7.3-32.5
					c0-2.3-0.8-3.9-2.8-4c-4.6-0.2-13.8,7.7-18.1,17.7c-2.5,5.8-5.6,17.2-7.3,26c-3.2,0-4.6-3.6-4.6-6.6c0-6.2,6.1-24.2,9.9-40.5
					c2.8,0.2,4.5,2,4.5,4.8c0,2-0.9,5.3-2,9.1c4.1-7.1,9.6-14.3,17.3-14c5.5,0.2,9,4.2,9,10c0,8.4-7.5,25.9-7.5,33.6
					c0,2.9,1.1,3.5,2.1,3.5c6.4,0.2,12.6-13.6,17.9-29.6c0.3-0.9,1-1.2,1.7-1.2C463.1,530.4,464,531.4,463.7,532.7z"/>
			</g>
			<g>
				<path fill="#FF5338" d="M506.6,531.6c-5.2,16.9-11.8,26.8-25,34.1c-0.2,0.1-0.4,0.2-0.5,0.3c-3.4,12.8-8.2,27.3-18.7,27.3
					c-6.2,0-10.4-4.8-10.4-10.7c0-10.5,13.5-12.9,25.2-18.5c0.9-3.4,1.7-6.8,2.4-9.9c-2.7,6.2-6.8,10.8-12.7,10.8
					c-5.8,0-10.7-4.4-10.7-15.6c0-16.2,10.3-34.6,21-34.8c4.8-0.1,8.1,3.7,9,8.1c0.6-2.3,1-4.6,1.6-6.9c2.7-0.6,4.6,1.1,4.6,3.3
					c0,4.1-6.8,28.7-9.9,40.9c-0.1,0.5-0.2,1-0.4,1.4c11.7-7.3,17.1-18.7,20.8-30.6c0.3-0.9,1-1.3,1.7-1.3
					C506,529.4,506.9,530.4,506.6,531.6z M475.9,568.7c-10.1,5.1-19.2,8.7-19.2,16.2c0,3.5,2.1,5.1,4.6,5.2
					C467.8,590.1,472.5,579.8,475.9,568.7z M484.7,528.9c-0.8-5.7-2.3-10.6-5.9-10.6c-6.9,0.1-16.5,18.4-16.5,35.7
					c0,3.9,0.5,7.7,4.3,7.7C474.1,561.7,479.9,546.3,484.7,528.9z"/>
			</g>
			<g>
				<path fill="#FF5338" d="M540.9,529.6c-3.7,11.8-9.3,32.9-20.8,33.6c-5.1,0.3-8.2-3.9-8.2-9.9c0-8.3,6.3-23.3,6.3-27.8
					c0-3.8-4.2-5.1-8.1-7.1c-0.9,3.8-1.8,8-3.3,13.3c-0.2,0.8-0.9,1.2-1.7,1.2c-0.9,0-2.2-0.7-1.8-2.1c1.4-4.8,2.7-9.9,3.8-14.4
					c-2.4-1.8-4.1-4.2-4.1-8.2c0-4.7,2.5-6.5,4.9-6.7c2.7-0.1,4,1.9,4,6.1c0,2.6-0.5,5-0.9,7.2c4.5,3.7,13.4,3.5,13.4,12.8
					c0,8.2-6.7,21-6.7,28.9c0,2.7,0.8,3.5,2.2,3.4c7.4-0.4,14.2-20.3,17.8-31.1c0.3-0.8,0.9-1.3,1.7-1.4
					C540.5,527.3,541.2,528.5,540.9,529.6z"/>
			</g>
			<g>
				<path fill="#FF5338" d="M579,526.6c-5.2,19-15.3,33.5-27.9,34.4c-8.1,0.6-16.9-4.9-16.9-18.2c0-16.3,11.7-31.6,21.8-32.4
					c6.4-0.5,9.4,5,9.4,10.5c0,9.6-9.1,19.9-18.1,20.5c-2.1,0.2-4.5-0.1-6.3-1.2c-0.2,1.6-0.3,3.3-0.3,5c0,8.6,3.2,13.1,8.6,12.7
					c8.4-0.6,19.3-11.9,26.1-32c0.4-1.3,1.2-1.6,1.9-1.7C578.4,524.4,579.3,525.2,579,526.6z M541.2,537.8c1.4,0.4,2.7,0.5,4,0.4
					c8.9-0.7,14.9-12.2,14.9-20.6c0-3.6-1.1-4.4-2.7-4.2C552.1,513.8,543.6,523.4,541.2,537.8z"/>
			</g>
			<g>
				<path fill="#FF5338" d="M624.3,523c-5.7,18.8-11.1,33-20.9,33.8c-4.2,0.3-7.2-2.5-7.1-11.3c-2.7,7.3-6.7,12.5-12.8,13
					c-6,0.5-11.7-3.9-11.7-15.7c0-16,10.4-34.5,21.3-35.4c4.8-0.4,8.5,2.8,9.6,7.9c5.4-21.6,6.6-26.4,10.2-42.2
					c2.3-0.2,4.1,0.6,4.1,3.6c0,8.8-16.3,61.6-16.3,73.6c0,2.4,0.7,3.4,2.2,3.2c6.4-0.5,12.6-14.9,17.9-31.3c0.3-0.9,1-1.3,1.7-1.4
					C623.6,520.8,624.6,521.8,624.3,523z M601,522.3c0.1-0.3,0.2-0.6,0.2-1c-0.8-6.5-2.9-10.5-6.4-10.2
					c-7.2,0.6-16.9,18.6-16.9,35.4c0,5,0.9,9.2,5,8.9C591.5,554.7,597.7,535.5,601,522.3z"/>
			</g>
			<g>
				<path fill="#FF5338" d="M615.9,546.1c0-8.1,7.3-34.1,9.7-41.2c2.7-0.2,4.5,0.1,4.5,3.1c0,6.9-8.6,31.9-8.6,40.5
					c0,2.6,0.8,3.5,2.4,3.4c7.2-0.5,14.3-20.7,17.7-31.1c0.3-0.9,1-1.3,1.7-1.3c0.9-0.1,2.1,0.7,1.8,2.2
					c-4.4,13.9-9.9,32.8-20.8,33.6C618.7,555.7,615.9,551.1,615.9,546.1z M626.3,491.8c0-4.8,5.5-6.9,8.9-4.9c1.4,3,0.8,8.9-4.2,9.2
					C628.6,496.3,626.3,495,626.3,491.8z"/>
			</g>
			<g>
				<path fill="#FF5338" d="M683,520c-5.2,18.7-15.3,32.6-27.9,33.3c-8.1,0.4-16.9-5.1-16.9-18.4c0-16.3,11.7-31.5,21.8-32
					c6.4-0.3,9.4,5.4,9.4,10.9c0,9.6-9.1,19.5-18.1,20c-2.1,0.1-4.5-0.2-6.3-1.2c-0.2,1.6-0.3,3.3-0.3,5c0,8.6,3.2,13.2,8.6,12.9
					c8.4-0.5,19.3-11.3,26.1-31c0.4-1.2,1.2-1.5,1.9-1.6C682.4,517.8,683.3,518.6,683,520z M645.2,529.9c1.4,0.4,2.7,0.5,4,0.4
					c8.9-0.5,14.9-11.8,14.9-20.2c0-3.6-1.1-4.4-2.7-4.3C656.1,506.1,647.6,515.5,645.2,529.9z"/>
			</g>
			<g>
				<path fill="#FF5338" d="M728.3,520.3c-5.7,18.2-11.1,31.8-21,31.7c-4.3,0-8.1-3.6-8.1-10.2c0-9.1,7.3-25.7,7.3-32.8
					c0-2.3-0.8-3.9-2.8-3.9c-4.6,0-13.8,8.5-18.1,18.9c-2.5,6-5.6,17.8-7.3,26.8c-3.2,0.4-4.6-3-4.6-6c0-6.2,6.1-24.9,9.9-41.7
					c2.8-0.1,4.5,1.6,4.5,4.4c0,2-0.9,5.4-2,9.3c4.1-7.5,9.6-15.1,17.3-15.1c5.5,0,9,4,9,9.7c0,8.3-7.5,26.1-7.5,33.7
					c0,2.9,1.1,3.4,2.1,3.4c6.4,0,12.6-13.7,17.9-29.6c0.3-0.8,1-1.2,1.7-1.2C727.7,518,728.6,519.1,728.3,520.3z"/>
			</g>
			<g>
				<path fill="#FF5338" d="M752.3,521.8c-4.1,13.2-11.3,31.3-23.9,30.7c-5.4-0.2-8.5-4-8.5-9.7c0-5.8,3.1-17.5,7.9-35.6
					c-0.2,0-0.4,0-0.6,0c-4.2-0.2-6.1-2.3-5.9-5.2c2.3,0.5,5,0.7,7.6,0.8c1.5-5.7,3.1-12.1,4.8-19c1.8,0.1,4.2,0.7,4.2,4
					c0,2.5-1.3,8.2-3.1,15.1c2,0,3.6,0,4.5,0.1c4.3,0.3,6.6,2.4,6.3,5.1c-3.5-0.7-8.1-0.9-11.8-0.9c-3.7,14-8.5,31.4-8.5,38.2
					c0,2.8,0.9,3.7,2.7,3.8c8.5,0.3,16.6-15.2,20.7-28.4c0.4-1.2,1.1-1.4,1.8-1.4C751.9,519.5,752.6,521,752.3,521.8z"/>
			</g>
			<g>
				<path fill="#FF5338" d="M788.2,526.2c-3.8,12.4-9.5,20.2-18.6,20.8c-2.7,5.4-7.8,7.9-13.4,7.4c-7.3-0.7-13-6.3-13-13
					c0-3.4,1.5-5.4,4.4-5.2c4.1,0.3,10.1,5.4,16.5,6.8c0.7-2,1-4.4,1-7.3c0-12.6-7.2-16.6-10.6-22.2c-0.7,2.4-1.3,5.1-2.3,8.2
					c-0.2,0.7-0.9,1.1-1.7,1c-0.9-0.1-2.2-0.9-1.8-2.3c1.6-5.1,2.9-10.4,4-15c0.7-4,2.9-7.3,5.7-7.1c1.8,0.2,3.4,2,3.4,5.2
					c0,3.3-1.7,6.8-4.3,8.9c3.5,4.2,13.8,12.2,13.8,25.8c0,1.7-0.2,3.3-0.5,4.8c6.7-1.9,10.9-9.4,13.7-18.4c0.3-0.8,1-1.1,1.7-1
					C787.5,523.8,788.5,525,788.2,526.2z M762.7,546.1c-5.9-1.7-10.3-5.4-13.9-5.6c-1.4-0.1-2.1,0.4-2.1,1.9c0,3.2,2.8,7.5,7.8,7.9
					C757.6,550.6,760.6,549.3,762.7,546.1z"/>
			</g>
		</g>
		<g>
			<g>
				<path fill="#FF5029" d="M637.8,578.5c30.6-2,63.3-3.7,100.3-2c4.7,5.7-23.6,3.1-45.1,3.6c-46.1,0-107.7,7.4-183.1,11
					C506.8,588.9,568.5,584.1,637.8,578.5z"/>
			</g>
		</g>
	</g>
</g>
<g>
	<g>
		<rect x="836.1" y="743.8" fill="#11BD75" width="590.7" height="811"/>
	</g>
	<g>
		<path fill="#FFFFFF" d="M1402.5,1531.1H860.4V767.5h542.1V1531.1z M863.4,1528.1h536.1V770.5H863.4V1528.1z"/>
	</g>
	<g>
		<g>
			<g>
				<g>
					<path fill="#FFEE5F" d="M970.7,1039.5c12.8,33.9,27.2,66.8,41.8,99.4c-9,0.7-13.9-3.2-19.4-10.6c-10.9-14.9-19.6-37.1-31-81.3
						c-4,3.2-8,6.7-12.1,10.1c-7.3,27.9-15.1,58.1-21.5,85.8c-6.9,0.1-9.9-6.1-9.9-13.4c0-19.1,20.8-92.6,40.9-176.4
						c7.1,1.4,11.3,4.5,11.3,11.5c0,9.9-7.8,41.5-17.7,79.7c22.7-24.6,53.2-56.5,84.4-100.1c1.9,0.8,8.3,3.2,8.3,8
						C1045.9,963.1,1011.8,1002.7,970.7,1039.5z"/>
				</g>
				<g>
					<path fill="#FFEE5F" d="M1078,956.8c0.2,0.7,0.2,1.4,0.2,2.3c0,9.7-7.3,39.8-16.8,76.5c11.8-1.7,27.4-4.8,35-5.7
						c11.3-1.3,17,1.4,18.4,10.2c-11.8,0.4-34.7,4.9-46.8,6.2c-4,0.4-7.1,0.5-9.5,0.5c-6.9,26.2-14.4,54.9-20.8,81.4
						c13.2-2.4,27.4-6.9,39.9-8.3c18-2,21.5,3.7,24.1,10.3c-16.3,0.7-44.4,7.3-53.7,8.1c-17.7,1.7-20.8-11.1-20.8-19.1
						c0-19.6,17.7-76.5,37.3-162.2c-5.2-0.9-7.8-3.7-9-9.9c23.6-0.9,56.5-10.9,70.4-12.6c13.2-1.6,18.9,3.2,19.9,12.1
						C1112.5,948.5,1095.3,954.5,1078,956.8z"/>
				</g>
				<g>
					<path fill="#FFEE5F" d="M1180.6,945c0.2,0.7,0.2,1.4,0.2,2.3c0,9.7-7.3,39.8-16.8,76.6c11.8-1.9,27.4-5,35-5.8
						c11.3-1.2,17,1.5,18.4,10.3c-11.8,0.2-34.7,4.7-46.8,6.1c-4,0.5-7.1,0.6-9.5,0.6c-6.9,26.3-14.4,55.1-20.8,81.9
						c13.2-2.7,27.4-7.5,39.9-8.9c18-2,21.5,3.8,24.1,10.3c-16.3,0.5-44.4,7.4-53.7,8.5c-17.7,2.1-20.8-10.6-20.8-18.6
						c0-19.6,17.7-77,37.3-163c-5.2-0.8-7.8-3.6-9-9.8c23.6-1.4,56.5-11.1,70.4-12.4c13.2-1.3,18.9,3.7,19.9,12.6
						C1215.1,936.5,1197.8,942.6,1180.6,945z"/>
				</g>
				<g>
					<path fill="#FFEE5F" d="M1273.7,1046.1c-5.9,23.4-11.8,47.2-16.3,67c-3.8,0.3-9.5-0.1-9.5-12.7c0-20.3,14.7-69.7,36.4-157.9
						c7.1-0.5,10.4,3.8,10.4,9.5c0,9.5-9,45.7-18.9,85.4c43.3-7.4,69-46.1,69-77.8c0-24.3-15.4-32.9-35.2-32
						c-21.5,0.9-49.2,13.6-58.6,37.6c-3.1-3-4.7-6.2-4.7-11.2c0-19.8,26-35.1,54.8-36.6c38.3-2,58.4,20.6,58.4,50.1
						C1359.5,1010.6,1316.7,1042.2,1273.7,1046.1z"/>
				</g>
			</g>
			<g>
				<g>
					<path fill="#FFEE5F" d="M951,1316.5c0-53.2,33.8-131.1,78-135.1c24.6-2.2,44.4,19,44.4,59.7c0,49-29.1,135.6-76.3,139
						C971.6,1381.8,951,1358.1,951,1316.5z M1057.8,1235.1c0-32.6-10.2-45.5-24.6-44.2c-32.9,3.1-66.6,77.5-66.6,133
						c0,34,12.8,46.5,26.7,45.5C1025.9,1367.3,1057.8,1292.5,1057.8,1235.1z"/>
				</g>
				<g>
					<path fill="#FFEE5F" d="M1130.9,1187.2c0.2,0.7,0.2,1.6,0.2,2.8c0,10.4-8.3,44.5-18.2,85.3c11.8-1.8,26.9-5.1,34.3-5.9
						c11.3-1.3,17,1.3,18.4,10.1c-11.8,0.4-34.7,5-46.8,6.4c-3.5,0.4-6.4,0.5-8.7,0.5c-6.4,26.3-13.5,54.5-19.4,81.1
						c-6.9,0.8-9.9-5-9.9-12.6c0-18.4,18.4-84.7,38.1-167.4c-5.9-0.5-8.7-3.5-10.2-9.9c23.6-1.3,56.5-11.4,70.4-12.9
						c13.2-1.5,18.9,3.3,19.9,12.2C1165.4,1178.6,1148.1,1185,1130.9,1187.2z"/>
				</g>
				<g>
					<path fill="#FFEE5F" d="M1233,1175.9c0.2,0.7,0.2,1.6,0.2,2.8c0,10.4-8.3,44.3-18.2,85c11.8-1.7,26.9-4.6,34.3-5.2
						c11.3-1,17,1.9,18.4,10.8c-11.8-0.1-34.7,3.9-46.8,5.2c-3.5,0.4-6.4,0.4-8.7,0.4c-6.4,26.2-13.5,54.4-19.4,81
						c-6.9,0.8-9.9-5-9.9-12.6c0-18.4,18.4-84.8,38.1-167.2c-5.9-0.6-8.7-3.6-10.2-10.1c23.6-1.2,56.5-10.1,70.4-11
						c13.2-0.9,18.9,4.3,19.9,13.2C1267.5,1168.1,1250.2,1174,1233,1175.9z"/>
				</g>
			</g>
		</g>
		<g>
			<g>
				<g>
					<path fill="#11BD75" d="M966.2,1035c12.8,33.9,27.2,66.8,41.8,99.4c-9,0.7-13.9-3.2-19.4-10.6c-10.9-14.9-19.6-37.1-31-81.3
						c-4,3.2-8,6.7-12.1,10.1c-7.3,27.9-15.1,58.1-21.5,85.8c-6.9,0.1-9.9-6.1-9.9-13.4c0-19.1,20.8-92.6,40.9-176.4
						c7.1,1.4,11.3,4.5,11.3,11.5c0,9.9-7.8,41.5-17.7,79.7c22.7-24.6,53.2-56.5,84.4-100.1c1.9,0.8,8.3,3.2,8.3,8
						C1041.4,958.6,1007.3,998.2,966.2,1035z"/>
				</g>
				<g>
					<path fill="#11BD75" d="M1073.5,952.3c0.2,0.7,0.2,1.4,0.2,2.3c0,9.7-7.3,39.8-16.8,76.5c11.8-1.7,27.4-4.8,35-5.7
						c11.3-1.3,17,1.4,18.4,10.2c-11.8,0.4-34.7,4.9-46.8,6.2c-4,0.4-7.1,0.5-9.5,0.5c-6.9,26.2-14.4,54.9-20.8,81.4
						c13.2-2.4,27.4-6.9,39.9-8.3c18-2,21.5,3.7,24.1,10.3c-16.3,0.7-44.4,7.3-53.7,8.1c-17.7,1.7-20.8-11.1-20.8-19.1
						c0-19.6,17.7-76.5,37.3-162.2c-5.2-0.9-7.8-3.7-9-9.9c23.6-0.9,56.5-10.9,70.4-12.6c13.2-1.6,18.9,3.2,19.9,12.1
						C1108,944,1090.8,950,1073.5,952.3z"/>
				</g>
				<g>
					<path fill="#11BD75" d="M1176.1,940.5c0.2,0.7,0.2,1.4,0.2,2.3c0,9.7-7.3,39.8-16.8,76.6c11.8-1.9,27.4-5,35-5.8
						c11.3-1.2,17,1.5,18.4,10.3c-11.8,0.2-34.7,4.7-46.8,6.1c-4,0.5-7.1,0.6-9.5,0.6c-6.9,26.3-14.4,55.1-20.8,81.9
						c13.2-2.7,27.4-7.5,39.9-8.9c18-2,21.5,3.8,24.1,10.3c-16.3,0.5-44.4,7.4-53.7,8.5c-17.7,2.1-20.8-10.6-20.8-18.6
						c0-19.6,17.7-77,37.3-163c-5.2-0.8-7.8-3.6-9-9.8c23.6-1.4,56.5-11.1,70.4-12.4c13.2-1.3,18.9,3.7,19.9,12.6
						C1210.6,932,1193.3,938.1,1176.1,940.5z"/>
				</g>
				<g>
					<path fill="#11BD75" d="M1269.2,1041.6c-5.9,23.4-11.8,47.2-16.3,67c-3.8,0.3-9.5-0.1-9.5-12.7c0-20.3,14.7-69.7,36.4-157.9
						c7.1-0.5,10.4,3.8,10.4,9.5c0,9.5-9,45.7-18.9,85.4c43.3-7.4,69-46.1,69-77.8c0-24.3-15.4-32.9-35.2-32
						c-21.5,0.9-49.2,13.6-58.6,37.6c-3.1-3-4.7-6.2-4.7-11.2c0-19.8,26-35.1,54.8-36.6c38.3-2,58.4,20.6,58.4,50.1
						C1355,1006.1,1312.2,1037.7,1269.2,1041.6z"/>
				</g>
			</g>
			<g>
				<g>
					<path fill="#11BD75" d="M946.5,1312c0-53.2,33.8-131.1,78-135.1c24.6-2.2,44.4,19,44.4,59.7c0,49-29.1,135.6-76.3,139
						C967.1,1377.3,946.5,1353.6,946.5,1312z M1053.3,1230.6c0-32.6-10.2-45.5-24.6-44.2c-32.9,3.1-66.6,77.5-66.6,133
						c0,34,12.8,46.5,26.7,45.5C1021.4,1362.8,1053.3,1288,1053.3,1230.6z"/>
				</g>
				<g>
					<path fill="#11BD75" d="M1126.3,1182.7c0.2,0.7,0.2,1.6,0.2,2.8c0,10.4-8.3,44.5-18.2,85.3c11.8-1.8,26.9-5.1,34.3-5.9
						c11.3-1.3,17,1.3,18.4,10.1c-11.8,0.4-34.7,5-46.8,6.4c-3.5,0.4-6.4,0.5-8.7,0.5c-6.4,26.3-13.5,54.5-19.4,81.1
						c-6.9,0.8-9.9-5-9.9-12.6c0-18.4,18.4-84.7,38.1-167.4c-5.9-0.5-8.7-3.5-10.2-9.9c23.6-1.3,56.5-11.4,70.4-12.9
						c13.2-1.5,18.9,3.3,19.9,12.2C1160.9,1174.1,1143.6,1180.5,1126.3,1182.7z"/>
				</g>
				<g>
					<path fill="#11BD75" d="M1228.4,1171.4c0.2,0.7,0.2,1.6,0.2,2.8c0,10.4-8.3,44.3-18.2,85c11.8-1.7,26.9-4.6,34.3-5.2
						c11.3-1,17,1.9,18.4,10.8c-11.8-0.1-34.7,3.9-46.8,5.2c-3.5,0.4-6.4,0.4-8.7,0.4c-6.4,26.2-13.5,54.4-19.4,81
						c-6.9,0.8-9.9-5-9.9-12.6c0-18.4,18.4-84.8,38.1-167.2c-5.9-0.6-8.7-3.6-10.2-10.1c23.6-1.2,56.5-10.1,70.4-11
						c13.2-0.9,18.9,4.3,19.9,13.2C1263,1163.5,1245.7,1169.5,1228.4,1171.4z"/>
				</g>
			</g>
		</g>
	</g>
	<g>
		<g>
			<g>
				<path fill="#FFFFFF" d="M962.7,1031.5c12.8,33.9,27.2,66.8,41.8,99.4c-9,0.7-13.9-3.2-19.4-10.6c-10.9-14.9-19.6-37.1-31-81.3
					c-4,3.2-8,6.7-12.1,10.1c-7.3,27.9-15.1,58.1-21.5,85.8c-6.9,0.1-9.9-6.1-9.9-13.4c0-19.1,20.8-92.6,40.9-176.4
					c7.1,1.4,11.3,4.5,11.3,11.5c0,9.9-7.8,41.5-17.7,79.7c22.7-24.6,53.2-56.5,84.4-100.1c1.9,0.8,8.3,3.2,8.3,8
					C1037.9,955.1,1003.8,994.7,962.7,1031.5z"/>
			</g>
			<g>
				<path fill="#FFFFFF" d="M1070,948.8c0.2,0.7,0.2,1.4,0.2,2.3c0,9.7-7.3,39.8-16.8,76.5c11.8-1.7,27.4-4.8,35-5.7
					c11.3-1.3,17,1.4,18.4,10.2c-11.8,0.4-34.7,4.9-46.8,6.2c-4,0.4-7.1,0.5-9.5,0.5c-6.9,26.2-14.4,54.9-20.8,81.4
					c13.2-2.4,27.4-6.9,39.9-8.3c18-2,21.5,3.7,24.1,10.3c-16.3,0.7-44.4,7.3-53.7,8.1c-17.7,1.7-20.8-11.1-20.8-19.1
					c0-19.6,17.7-76.5,37.3-162.2c-5.2-0.9-7.8-3.7-9-9.9c23.6-0.9,56.5-10.9,70.4-12.6c13.2-1.6,18.9,3.2,19.9,12.1
					C1104.5,940.5,1087.3,946.5,1070,948.8z"/>
			</g>
			<g>
				<path fill="#FFFFFF" d="M1172.6,937c0.2,0.7,0.2,1.4,0.2,2.3c0,9.7-7.3,39.8-16.8,76.6c11.8-1.9,27.4-5,35-5.8
					c11.3-1.2,17,1.5,18.4,10.3c-11.8,0.2-34.7,4.7-46.8,6.1c-4,0.5-7.1,0.6-9.5,0.6c-6.9,26.3-14.4,55.1-20.8,81.9
					c13.2-2.7,27.4-7.5,39.9-8.9c18-2,21.5,3.8,24.1,10.3c-16.3,0.5-44.4,7.4-53.7,8.5c-17.7,2.1-20.8-10.6-20.8-18.6
					c0-19.6,17.7-77,37.3-163c-5.2-0.8-7.8-3.6-9-9.8c23.6-1.4,56.5-11.1,70.4-12.4c13.2-1.3,18.9,3.7,19.9,12.6
					C1207.1,928.5,1189.8,934.6,1172.6,937z"/>
			</g>
			<g>
				<path fill="#FFFFFF" d="M1265.7,1038.1c-5.9,23.4-11.8,47.2-16.3,67c-3.8,0.3-9.5-0.1-9.5-12.7c0-20.3,14.7-69.7,36.4-157.9
					c7.1-0.5,10.4,3.8,10.4,9.5c0,9.5-9,45.7-18.9,85.4c43.3-7.4,69-46.1,69-77.8c0-24.3-15.4-32.9-35.2-32
					c-21.5,0.9-49.2,13.6-58.6,37.6c-3.1-3-4.7-6.2-4.7-11.2c0-19.8,26-35.1,54.8-36.6c38.3-2,58.4,20.6,58.4,50.1
					C1351.5,1002.6,1308.7,1034.1,1265.7,1038.1z"/>
			</g>
		</g>
		<g>
			<g>
				<path fill="#FFFFFF" d="M943,1308.5c0-53.2,33.8-131.1,78-135.1c24.6-2.2,44.4,19,44.4,59.7c0,49-29.1,135.6-76.3,139
					C963.5,1373.8,943,1350.1,943,1308.5z M1049.8,1227.1c0-32.6-10.2-45.5-24.6-44.2c-32.9,3.1-66.6,77.5-66.6,133
					c0,34,12.8,46.5,26.7,45.5C1017.9,1359.3,1049.8,1284.5,1049.8,1227.1z"/>
			</g>
			<g>
				<path fill="#FFFFFF" d="M1122.8,1179.2c0.2,0.7,0.2,1.6,0.2,2.8c0,10.4-8.3,44.5-18.2,85.3c11.8-1.8,26.9-5.1,34.3-5.9
					c11.3-1.3,17,1.3,18.4,10.1c-11.8,0.4-34.7,5-46.8,6.4c-3.5,0.4-6.4,0.5-8.7,0.5c-6.4,26.3-13.5,54.5-19.4,81.1
					c-6.9,0.8-9.9-5-9.9-12.6c0-18.4,18.4-84.7,38.1-167.4c-5.9-0.5-8.7-3.5-10.2-9.9c23.6-1.3,56.5-11.4,70.4-12.9
					c13.2-1.5,18.9,3.3,19.9,12.2C1157.3,1170.6,1140.1,1177,1122.8,1179.2z"/>
			</g>
			<g>
				<path fill="#FFFFFF" d="M1224.9,1167.9c0.2,0.7,0.2,1.6,0.2,2.8c0,10.4-8.3,44.3-18.2,85c11.8-1.7,26.9-4.6,34.3-5.2
					c11.3-1,17,1.9,18.4,10.8c-11.8-0.1-34.7,3.9-46.8,5.2c-3.5,0.4-6.4,0.4-8.7,0.4c-6.4,26.2-13.5,54.4-19.4,81
					c-6.9,0.8-9.9-5-9.9-12.6c0-18.4,18.4-84.8,38.1-167.2c-5.9-0.6-8.7-3.6-10.2-10.1c23.6-1.2,56.5-10.1,70.4-11
					c13.2-0.9,18.9,4.3,19.9,13.2C1259.4,1160,1242.2,1166,1224.9,1167.9z"/>
			</g>
		</g>
	</g>
	<g>
		<g>
			<path fill="#FFEE5F" d="M1066.2,872.6h-7.8l-0.3-34.7c3.4-0.9,6-1.1,8.2-1.1c8.7,0,14.6,4.4,14.6,12.1c0,8.2-7.6,12-14.6,11
				L1066.2,872.6z M1066.1,853.8c4.2,0.4,6.4-1.6,6.4-5.2c0-3.1-1.9-5.7-6.3-4.9L1066.1,853.8z"/>
		</g>
		<g>
			<path fill="#FFEE5F" d="M1102.9,866.1l0,6.5h-17.4l0-6.5l-0.2-28.5h8.3l-0.2,28.5H1102.9z"/>
		</g>
		<g>
			<path fill="#FFEE5F" d="M1125.2,865.1v7.6h-18.8l-0.2-35h18.6v7.6h-10.4l0,6.1h7.7v6.5h-7.7l0,7.3H1125.2z"/>
		</g>
		<g>
			<path fill="#FFEE5F" d="M1144.3,865.7h-7.5l-1.4,7h-8.1l8.8-35h9.1l8.8,35h-8.3L1144.3,865.7z M1143,859.2l-1.9-9.2l-0.5-4.3
				l-0.6,4.3l-1.9,9.2H1143z"/>
		</g>
		<g>
			<path fill="#FFEE5F" d="M1176.3,840.9l-3.4,5.8c-1.1-1.4-2.7-2.6-4.9-2.6c-2.6,0-3.7,1.7-3.7,3.2c0,1.7,1.4,2.9,4.4,4.7
				c3.8,2.3,8.4,4.8,8.4,11.2c0,6.3-4.5,10.3-10.9,10.3c-4.9,0-9.1-2.4-10.7-4.4l3.5-6.6c1.8,1.8,4.4,3,6.7,3c2.3,0,3.6-1.2,3.6-3
				c0-2.4-2.1-3.2-4.8-4.8c-4.2-2.5-7.9-5.5-7.9-10.9c0-5.7,4-9.9,10.3-9.9C1170.6,836.8,1174,838.3,1176.3,840.9z"/>
		</g>
		<g>
			<path fill="#FFEE5F" d="M1200,865.1v7.6h-18.8l-0.2-35h18.6v7.6h-10.4l0,6.1h7.7v6.5h-7.7l0,7.3H1200z"/>
		</g>
	</g>
	<g>
		<g>
			<path fill="#FFEE5F" d="M1042.6,1423.1h-7.9l-0.2,28.5h-7.8l-0.2-28.5h-7.9l0-6.5h24.1L1042.6,1423.1z"/>
		</g>
		<g>
			<path fill="#FFEE5F" d="M1068.7,1416.6l-0.3,35h-7.8l-0.1-12.6h-6.6l-0.1,12.6h-7.8l-0.2-35h8.3l-0.1,15.9h6.5l-0.1-15.9H1068.7z
				"/>
		</g>
		<g>
			<path fill="#FFEE5F" d="M1093.4,1444.1v7.6h-18.8l-0.2-35h18.6v7.6h-10.4l0,6.1h7.7v6.5h-7.7l0,7.3H1093.4z"/>
		</g>
		<g>
			<path fill="#FFEE5F" d="M1119.3,1452.4c-6.9,0-11.8-7.9-11.8-18.3c0-10.5,5.3-18.4,13-18.4c5.5,0,9.8,3.7,11.2,9.8l-6.7,3
				c-0.7-3-2-5-4.6-5c-3.2,0-5.6,4.3-5.6,10.6c0,6.5,2.3,11.1,5.8,11.1c2.1,0,3.8-1.9,4.5-4.8h-4.9v-5.7h11.8v16.9h-5.2l-0.1-6.8
				C1125.9,1448.9,1123.4,1452.4,1119.3,1452.4z"/>
		</g>
		<g>
			<path fill="#FFEE5F" d="M1162.6,1451.6h-8.4c-1.6-2.2-1-6.5-2.1-9.8c-0.7-2.1-2.2-3.6-4.8-3.9l-0.2,13.7h-7.7l-0.3-34.7
				c3.4-0.9,6-1.1,8.2-1.1c8.5,0,14.3,3.7,14.3,10.9c0,4.6-3.5,8-7.6,8.9c2.3,0.7,4,2.5,4.8,4
				C1161.2,1443.6,1160.6,1448.9,1162.6,1451.6z M1153.5,1427.1c0-3.2-2.5-5.1-6.2-4.5l-0.1,9.6
				C1151,1432.5,1153.5,1430.5,1153.5,1427.1z"/>
		</g>
		<g>
			<path fill="#FFEE5F" d="M1181.4,1444.7h-7.5l-1.4,7h-8.1l8.8-35h9.1l8.8,35h-8.3L1181.4,1444.7z M1180.1,1438.2l-1.9-9.2
				l-0.5-4.3l-0.6,4.3l-1.9,9.2H1180.1z"/>
		</g>
		<g>
			<path fill="#FFEE5F" d="M1213.3,1419.9l-3.4,5.8c-1.1-1.4-2.7-2.6-4.9-2.6c-2.6,0-3.7,1.7-3.7,3.2c0,1.7,1.4,2.9,4.4,4.7
				c3.8,2.3,8.4,4.8,8.4,11.2c0,6.3-4.5,10.3-10.9,10.3c-4.9,0-9.1-2.4-10.7-4.4l3.5-6.6c1.8,1.8,4.4,3,6.7,3c2.3,0,3.6-1.2,3.6-3
				c0-2.4-2.1-3.2-4.8-4.8c-4.2-2.5-7.9-5.5-7.9-10.9c0-5.7,4-9.9,10.3-9.9C1207.7,1415.8,1211,1417.3,1213.3,1419.9z"/>
		</g>
		<g>
			<path fill="#FFEE5F" d="M1237,1419.9l-3.4,5.8c-1.1-1.4-2.7-2.6-4.9-2.6c-2.6,0-3.7,1.7-3.7,3.2c0,1.7,1.4,2.9,4.4,4.7
				c3.8,2.3,8.4,4.8,8.4,11.2c0,6.3-4.5,10.3-10.9,10.3c-4.9,0-9.1-2.4-10.7-4.4l3.5-6.6c1.8,1.8,4.4,3,6.7,3c2.3,0,3.6-1.2,3.6-3
				c0-2.4-2.1-3.2-4.8-4.8c-4.2-2.5-7.9-5.5-7.9-10.9c0-5.7,4-9.9,10.3-9.9C1231.4,1415.8,1234.7,1417.3,1237,1419.9z"/>
		</g>
	</g>
</g>
<g>
	<g>
		<g id="XMLID_1_">
			<g>
				<g>
					<path fill="#B4ECFA" d="M1560,404.2v215.7c-22.7,0-41.1,18.4-41.1,41.1h-426.4c0-22.7-18.4-41.1-41.1-41.1V404.2
						c22.7,0,41.1-18.4,41.1-41.1h426.4C1518.9,385.8,1537.3,404.2,1560,404.2z"/>
				</g>
			</g>
		</g>
		<g>
			<path fill="#FFFFFF" d="M1560,612.5c-2.8,0-5-2.2-5-5v-1c0-2.8,2.2-5,5-5s5,2.2,5,5v1C1565,610.3,1562.7,612.5,1560,612.5z
				 M1560,593.5c-2.8,0-5-2.2-5-5v-1c0-2.8,2.2-5,5-5s5,2.2,5,5v1C1565,591.3,1562.7,593.5,1560,593.5z M1560,574.5
				c-2.8,0-5-2.2-5-5v-1c0-2.8,2.2-5,5-5s5,2.2,5,5v1C1565,572.3,1562.7,574.5,1560,574.5z M1560,555.5c-2.8,0-5-2.2-5-5v-1
				c0-2.8,2.2-5,5-5s5,2.2,5,5v1C1565,553.3,1562.7,555.5,1560,555.5z M1560,536.5c-2.8,0-5-2.2-5-5v-1c0-2.8,2.2-5,5-5s5,2.2,5,5v1
				C1565,534.3,1562.7,536.5,1560,536.5z M1560,517.5c-2.8,0-5-2.2-5-5v-1c0-2.8,2.2-5,5-5s5,2.2,5,5v1
				C1565,515.3,1562.7,517.5,1560,517.5z M1560,498.5c-2.8,0-5-2.2-5-5v-1c0-2.8,2.2-5,5-5s5,2.2,5,5v1
				C1565,496.3,1562.7,498.5,1560,498.5z M1560,479.5c-2.8,0-5-2.2-5-5v-1c0-2.8,2.2-5,5-5s5,2.2,5,5v1
				C1565,477.3,1562.7,479.5,1560,479.5z M1560,460.5c-2.8,0-5-2.2-5-5v-1c0-2.8,2.2-5,5-5s5,2.2,5,5v1
				C1565,458.3,1562.7,460.5,1560,460.5z M1560,441.5c-2.8,0-5-2.2-5-5v-1c0-2.8,2.2-5,5-5s5,2.2,5,5v1
				C1565,439.3,1562.7,441.5,1560,441.5z M1560,422.5c-2.8,0-5-2.2-5-5v-1c0-2.8,2.2-5,5-5s5,2.2,5,5v1
				C1565,420.3,1562.7,422.5,1560,422.5z"/>
		</g>
		<g>
			<path fill="#FFFFFF" d="M1051.4,612.5c-2.8,0-5-2.2-5-5v-1c0-2.8,2.2-5,5-5s5,2.2,5,5v1C1056.4,610.3,1054.1,612.5,1051.4,612.5z
				 M1051.4,593.5c-2.8,0-5-2.2-5-5v-1c0-2.8,2.2-5,5-5s5,2.2,5,5v1C1056.4,591.3,1054.1,593.5,1051.4,593.5z M1051.4,574.5
				c-2.8,0-5-2.2-5-5v-1c0-2.8,2.2-5,5-5s5,2.2,5,5v1C1056.4,572.3,1054.1,574.5,1051.4,574.5z M1051.4,555.5c-2.8,0-5-2.2-5-5v-1
				c0-2.8,2.2-5,5-5s5,2.2,5,5v1C1056.4,553.3,1054.1,555.5,1051.4,555.5z M1051.4,536.5c-2.8,0-5-2.2-5-5v-1c0-2.8,2.2-5,5-5
				s5,2.2,5,5v1C1056.4,534.3,1054.1,536.5,1051.4,536.5z M1051.4,517.5c-2.8,0-5-2.2-5-5v-1c0-2.8,2.2-5,5-5s5,2.2,5,5v1
				C1056.4,515.3,1054.1,517.5,1051.4,517.5z M1051.4,498.5c-2.8,0-5-2.2-5-5v-1c0-2.8,2.2-5,5-5s5,2.2,5,5v1
				C1056.4,496.3,1054.1,498.5,1051.4,498.5z M1051.4,479.5c-2.8,0-5-2.2-5-5v-1c0-2.8,2.2-5,5-5s5,2.2,5,5v1
				C1056.4,477.3,1054.1,479.5,1051.4,479.5z M1051.4,460.5c-2.8,0-5-2.2-5-5v-1c0-2.8,2.2-5,5-5s5,2.2,5,5v1
				C1056.4,458.3,1054.1,460.5,1051.4,460.5z M1051.4,441.5c-2.8,0-5-2.2-5-5v-1c0-2.8,2.2-5,5-5s5,2.2,5,5v1
				C1056.4,439.3,1054.1,441.5,1051.4,441.5z M1051.4,422.5c-2.8,0-5-2.2-5-5v-1c0-2.8,2.2-5,5-5s5,2.2,5,5v1
				C1056.4,420.3,1054.1,422.5,1051.4,422.5z"/>
		</g>
	</g>
	<g>
		<path fill="#FF5029" d="M1496.7,619.7h-382c-6.8,0-12.3-5.5-12.3-12.3V416.6c0-6.8,5.5-12.3,12.3-12.3h382
			c6.8,0,12.3,5.5,12.3,12.3v190.8C1509,614.2,1503.5,619.7,1496.7,619.7z M1114.7,407.3c-5.1,0-9.3,4.2-9.3,9.3v190.8
			c0,5.1,4.2,9.3,9.3,9.3h382c5.1,0,9.3-4.2,9.3-9.3V416.6c0-5.1-4.2-9.3-9.3-9.3H1114.7z"/>
	</g>
	<g>
		<g>
			<path fill="#FF5338" d="M1211.9,505.8c-5.6-0.7-6-6.2-6-14.9c0-3.9,0.1-8,0.2-12.3c-6.7,0.2-14,1-17,1c-4.4,8.9-8.6,18-12.1,26.3
				c-1.9,0-2.6-3.3-2.6-5.3c0-4.7,3.6-12.9,8.7-22.7c-1-1.1-1.4-2.7-1.4-4.5c1.1,0.2,2.3,0.4,3.4,0.5c7.5-14.2,17.3-30.7,23.6-44
				c3.4,1.3,4.9,3.7,4.9,9.2C1213.6,445.5,1211.7,482.1,1211.9,505.8z M1206.2,476.3c0.4-11,1-23.4,2.1-36.2
				c-4.6,9.9-10.7,21.9-16.6,34.1c3.3,0.1,6.1,0,7.5,0C1203.6,474.1,1205.3,475.1,1206.2,476.3z"/>
		</g>
		<g>
			<path fill="#FF5338" d="M1273.9,474.9c-5.7,18.5-11.1,32.3-21,32.3c-4.2,0-7.2-3.1-7.1-11.9c-2.7,7.1-6.8,12-12.8,12
				c-6,0-11.7-4.9-11.7-16.7c0-16.1,10.5-33.8,21.4-33.8c4.9,0,8.6,3.5,9.6,8.8c5.4-21.2,6.7-26,10.3-41.6c2.3,0,4.1,1,4.1,3.9
				c0,8.8-16.4,60.6-16.4,72.6c0,2.4,0.7,3.4,2.2,3.4c6.5,0,12.7-14,18-30.1c0.3-0.9,1-1.2,1.7-1.2
				C1273.2,472.6,1274.2,473.6,1273.9,474.9z M1250.5,472.3c0.1-0.3,0.2-0.6,0.2-1c-0.8-6.6-2.9-10.8-6.5-10.8
				c-7.2,0-16.9,17.3-16.9,34.2c0,5,0.9,9.3,5,9.3C1241,504.1,1247.1,485.3,1250.5,472.3z"/>
		</g>
		<g>
			<path fill="#FF5338" d="M1336.9,474.9c-5.7,18.5-11.1,32.3-21.1,32.3c-4.1,0-8.5-2.8-8.5-10.2c0-9.7,7.3-25.8,7.3-32.9
				c0-2.7-1-3.9-2.9-3.9c-4.9,0-11.4,9.2-15.6,23.3c-1.9,6.5-3.6,15.2-5.5,22.3c-3.6,0.5-4.7-2.3-4.7-5.4c0-8.9,8.5-28.4,8.5-36.6
				c0-2.6-0.9-3.5-2.5-3.5c-5,0-12.7,8.8-16.9,22.2c-1.1,3.7-3.5,12.7-5.9,23.4c-4.2,0-4.7-4.4-4.7-6.5c0-6.6,4.7-19.9,9.9-41.1
				c2.8-0.1,4.5,1,4.5,4.5c0,1.4-0.3,3.3-0.8,5.4c3.7-6.5,8.3-11.3,14.2-11.3c4.8,0,7.6,3.1,8,9.4c2.9-5.9,6.5-9.4,12-9.4
				c4.1,0,8.3,1.9,8.3,8.8c0,9.2-7.6,27-7.6,35c0,1.8,0.6,3.3,2.4,3.3c6.5,0,12.7-14,18.1-30.1c0.3-0.9,1-1.2,1.7-1.2
				C1336.3,472.6,1337.2,473.6,1336.9,474.9z"/>
		</g>
		<g>
			<path fill="#FF5338" d="M1328.5,497.4c0-8.1,7.3-33.7,9.7-40.6c2.8,0,4.5,0.4,4.5,3.4c0,6.9-8.7,31.4-8.7,40.1
				c0,2.6,0.8,3.6,2.4,3.6c7.2,0,14.4-19.8,17.8-30.1c0.3-0.9,1-1.2,1.7-1.2c1,0,2.1,0.9,1.8,2.3c-4.4,13.7-9.9,32.3-20.9,32.3
				C1331.3,507.2,1328.5,502.5,1328.5,497.4z M1338.9,443.7c0-4.9,5.5-6.6,8.9-4.3c1.4,3.1,0.8,8.9-4.2,8.9
				C1341.2,448.3,1338.9,446.8,1338.9,443.7z"/>
		</g>
		<g>
			<path fill="#FF5338" d="M1381.7,474.9c-4.1,13.6-11.3,32.3-24,32.3c-5.4,0-8.6-3.7-8.6-9.4c0-5.8,3.1-17.6,7.9-36.1h-0.6
				c-4.2,0-6.1-2.1-5.9-5c2.3,0.5,5,0.6,7.6,0.6c1.5-5.8,3.1-12.3,4.9-19.3c1.8,0,4.2,0.5,4.2,3.8c0,2.5-1.3,8.3-3.1,15.3
				c2-0.1,3.6-0.2,4.6-0.2c4.3,0,6.7,2,6.3,4.8c-3.5-0.5-8.1-0.4-11.9-0.2c-3.7,14.3-8.6,31.9-8.6,38.7c0,2.9,0.9,3.7,2.8,3.7
				c8.6,0,16.6-16.2,20.8-29.8c0.4-1.2,1.1-1.5,1.8-1.5C1381.4,472.6,1382,474,1381.7,474.9z"/>
		</g>
		<g>
			<path fill="#FF5338" d="M1209.1,569.2c0-21.4,13.6-52.4,31.4-52.4c9.9,0,17.9,9.4,17.9,25.8c0,19.8-11.7,53.2-30.7,53.2
				C1217.4,595.7,1209.1,585.9,1209.1,569.2z M1252.1,539.5c0-13.1-4.1-18.7-9.9-18.7c-13.2,0-26.8,29.3-26.8,51.7
				c0,13.7,5.1,18.9,10.8,18.9C1239.3,591.3,1252.1,562.6,1252.1,539.5z"/>
		</g>
		<g>
			<path fill="#FF5338" d="M1312.8,563.4c-5.7,18.5-11.1,32.3-21.1,32.3c-4.3,0-8.1-3.6-8.1-10.2c0-9.1,7.3-25.8,7.3-32.9
				c0-2.3-0.8-3.9-2.9-3.9c-4.7,0-13.9,8.5-18.2,18.8c-2.5,6-5.6,17.7-7.3,26.7c-3.2,0.3-4.7-3.1-4.7-6.2c0-6.2,6.1-24.8,9.9-41.6
				c2.9,0,4.5,1.7,4.5,4.5c0,2-1,5.4-2,9.3c4.1-7.4,9.6-15,17.4-15c5.5,0,9,3.9,9,9.7c0,8.4-7.5,26.3-7.5,34c0,2.9,1.1,3.4,2.1,3.4
				c6.5,0,12.7-14,18-30.1c0.3-0.9,1-1.2,1.7-1.2C1312.2,561.1,1313.1,562.1,1312.8,563.4z"/>
		</g>
		<g>
			<path fill="#FF5338" d="M1351.1,563.4c-5.2,18.6-15.3,32.3-28.1,32.3c-8.2,0-16.9-6.1-16.9-19.5c0-16.4,11.7-30.9,21.9-30.9
				c6.5,0,9.4,5.8,9.4,11.3c0,9.6-9.1,19.2-18.2,19.2c-2.1,0-4.5-0.5-6.4-1.6c-0.2,1.6-0.3,3.3-0.3,5c0,8.7,3.2,13.4,8.7,13.4
				c8.5,0,19.4-10.5,26.3-30.1c0.4-1.2,1.2-1.5,1.9-1.5C1350.4,561.1,1351.4,561.9,1351.1,563.4z M1313.1,571.6
				c1.4,0.5,2.7,0.7,4,0.7c8.9,0,14.9-11.1,14.9-19.5c0-3.6-1.1-4.5-2.8-4.5C1324,548.3,1315.5,557.4,1313.1,571.6z"/>
		</g>
	</g>
	<g>
		<rect x="1449.9" y="405.8" fill="#FF5029" width="3" height="212.4"/>
	</g>
	<g>
		<g>
			<path fill="#FFFFFF" d="M1465.2,450.8c0.3-4.8-0.3-8.4-0.3-9.9c0-1.8,0.9-2.4,1.8-2.4c4.5,0,13,13.6,21.3,13.6
				c1.8,0,2.9-0.6,2.9-2.4c0-3.2-3.7-6.4-7.5-7.8c0.7-0.4,1.2-0.6,2-0.6c3.7,0,7,3.8,7,7.4c0,3.3-2.7,4.9-5.7,4.9
				c-7.9,0-16.2-11.9-20.3-14c0.1,3.8,0.7,6.7,0.7,8.4C1467.1,450.1,1466.3,450.7,1465.2,450.8z"/>
		</g>
		<g>
			<path fill="#FFFFFF" d="M1490.9,468c-1.9,0-12.5-6.9-25.5-13.4c0.3-0.5,0.9-1,1.7-1c3.2,0,13,6.7,23.8,12.7
				c-0.1-2.4-0.8-5.4-0.8-7.6c0-1.3,0.3-2.3,1.9-2.6c-0.2,3.2,0.5,7.5,0.5,9.2C1492.5,467.2,1491.5,468,1490.9,468z"/>
		</g>
		<g>
			<path fill="#FFFFFF" d="M1490.9,480.3c-1.9,0-12.5-6.9-25.5-13.4c0.3-0.5,0.9-1,1.7-1c3.2,0,13,6.7,23.8,12.7
				c-0.1-2.4-0.8-5.4-0.8-7.6c0-1.3,0.3-2.3,1.9-2.6c-0.2,3.2,0.5,7.5,0.5,9.2C1492.5,479.5,1491.5,480.3,1490.9,480.3z"/>
		</g>
		<g>
			<path fill="#FFFFFF" d="M1480.8,482.7c0.7,1.1,1.2,2,1.2,3.2c0,3.2-3,5.2-6.5,5.2c-5.3,0-10.5-4.3-10.5-9.1c0-2.1,1-4.3,3.4-4.1
				c-1.1,0.6-1.7,1.8-1.7,3.3c0,4.6,5.5,8.2,9.7,8.2c2.8,0,3.8-1.6,3.8-3.9c0-1.2-0.3-2.6-1-4c0.5-0.5,1-0.6,1.3-0.6
				c2,0,5.3,5.9,10.3,11.1c0.1-2.4-0.6-5.4-0.6-7.4c0-1.8,0.5-2.4,1.8-2.6c-0.2,3,0.6,7.6,0.6,9.3c0,1.7-0.8,2.3-1.5,2.3
				C1488.5,493.3,1485.1,487.8,1480.8,482.7z"/>
		</g>
		<g>
			<path fill="#FFFFFF" d="M1475.3,494.9c-0.1,3.3,0.1,7.4,0.1,8.9c0,1.6-0.5,2.3-1.6,2.6v-8.7
				C1473.8,496.2,1474.1,495.2,1475.3,494.9z"/>
		</g>
		<g>
			<path fill="#FFFFFF" d="M1477.9,519.4c-2,1.8-4.1,2.5-6.1,2.5c-3.7,0-6.9-2.8-6.9-6.2c0-2.8,2.1-5.4,5.3-5.4
				c3.6,0,6.3,3.3,7.7,6.3c1.2-1.2,3.3-3.4,6.9-3.4c4.3,0,7.6,3.2,7.6,7c0,3.1-2.2,5.3-5.6,5.3
				C1483.2,525.7,1480.2,523.3,1477.9,519.4z M1471.4,519.8c2,0,4.1-1,5.7-2.3c-1.7-2.7-4-4.9-7.4-4.9c-2.6,0-3.6,1.3-3.6,2.8
				C1466.2,517.7,1468.5,519.8,1471.4,519.8z M1487.3,523.6c2.2,0,3.8-0.8,3.8-2.7c0-2.8-3.3-5.3-6.6-5.3c-2.7,0-4.2,1.6-5.5,2.9
				C1480.9,522,1484.3,523.6,1487.3,523.6z"/>
		</g>
		<g>
			<path fill="#FFFFFF" d="M1473.9,536.4c-2.6-0.9-5.4-1.9-8.5-3c0-0.6,0.8-1,1.2-1c0.7,0,3.5,0.8,7.2,1.9c-0.1-2-0.3-3.6-0.3-4.7
				c0-2.4,0.9-3.1,1.9-3.1c2.9,0,8.2,5.4,16.5,9.8c-0.1,0.7-0.8,1.1-1.4,1.1c-2.3,0-9-5.8-15.7-9.5c0,2.3,0.4,4.8,0.6,6.9
				c3.3,1.1,7.1,2.3,10.7,3.6c-0.1,0.6-0.8,1-1.6,1c-1.1,0-4.4-0.9-8.8-2.4c0,0.4,0,0.7,0,1c0,1.9-0.8,2.7-2,2.8
				C1473.9,539.2,1473.9,537.8,1473.9,536.4z"/>
		</g>
		<g>
			<path fill="#FFFFFF" d="M1474.7,555.9c-4.6,0-9.8-2.8-9.8-7.4c0-3.7,3.2-5.8,7.9-5.8c7.4,0,19.6,5.3,19.6,11.7
				c0,1.6-0.8,2.8-1.6,3.1c1.9-5.1-5.8-10-13.2-11.9c2.5,1.2,3.9,2.9,3.9,5.1C1481.6,553.4,1479.2,555.9,1474.7,555.9z
				 M1475.7,553.9c3.1,0,4.5-1.1,4.5-2.9c0-2.5-2.9-5.3-6.7-6.3c-0.6,0-1.2-0.1-1.7-0.1c-3.3,0-5.3,1-5.3,3.1
				C1466.4,551,1470.7,553.9,1475.7,553.9z"/>
		</g>
		<g>
			<path fill="#FFFFFF" d="M1480.8,562.3c0.7,1.1,1.2,2,1.2,3.2c0,3.2-3,5.2-6.5,5.2c-5.3,0-10.5-4.3-10.5-9.1c0-2.1,1-4.3,3.4-4.1
				c-1.1,0.6-1.7,1.8-1.7,3.3c0,4.6,5.5,8.2,9.7,8.2c2.8,0,3.8-1.6,3.8-3.9c0-1.2-0.3-2.6-1-4c0.5-0.5,1-0.6,1.3-0.6
				c2,0,5.3,5.9,10.3,11.1c0.1-2.4-0.6-5.4-0.6-7.4c0-1.8,0.5-2.4,1.8-2.6c-0.2,3,0.6,7.6,0.6,9.3c0,1.7-0.8,2.3-1.5,2.3
				C1488.5,573,1485.1,567.4,1480.8,562.3z"/>
		</g>
		<g>
			<path fill="#FFFFFF" d="M1484.6,588c-7.4,0-19.6-5.3-19.6-11.7c0-1.6,0.8-2.8,1.6-3.1c-1.9,5.1,5.8,10,13.2,11.9
				c-2.5-1.2-3.9-2.9-3.9-5.1c0-2.8,2.4-5.3,6.9-5.3c4.6,0,9.8,2.8,9.8,7.4C1492.5,585.8,1489.2,588,1484.6,588z M1484,585.9
				c0.6,0,1.2,0.1,1.7,0.1c3.3,0,5.3-1,5.3-3.1c0-3.2-4.3-6.1-9.3-6.1c-3.1,0-4.5,1.1-4.5,2.9C1477.2,582,1480.1,584.9,1484,585.9z"
				/>
		</g>
	</g>
</g>
<g>
	<g>
		<path fill="#FFEE5F" d="M755.3,1174.3c0,18.7-23.7,33.4-29.2,50.3c-5.7,17.5,4.7,43.3-5.9,57.9c-10.7,14.7-38.5,12.8-53.3,23.5
			c-14.6,10.6-21.3,37.7-38.8,43.4c-16.9,5.5-38.2-12.3-56.9-12.3c-18.7,0-40,17.8-56.9,12.3c-17.5-5.7-24.2-32.8-38.8-43.4
			c-14.7-10.7-42.5-8.8-53.3-23.5c-10.6-14.6-0.3-40.4-5.9-57.9c-5.5-16.9-29.2-31.6-29.2-50.3c0-18.7,23.7-33.4,29.2-50.3
			c5.7-17.5-4.7-43.3,5.9-57.9c10.7-14.7,38.5-12.8,53.3-23.5c14.6-10.6,21.3-37.7,38.8-43.4c16.9-5.5,38.2,12.3,56.9,12.3
			c18.7,0,40-17.8,56.9-12.3c17.5,5.7,24.2,32.8,38.8,43.4c14.7,10.7,42.5,8.8,53.3,23.5c10.6,14.6,0.3,40.4,5.9,57.9
			C731.5,1140.9,755.3,1155.6,755.3,1174.3z"/>
	</g>
	<g>
		<g>
			<g>
				<path fill="#FFFFFF" d="M489.4,1098.4c1.3,2.2,1.3,4.5-0.2,6.2c-2.1,2.5-6.1,2-9.4-0.8c-3.3-2.8-4.3-6.5-2.3-9
					c1.4-1.7,3.7-2.1,6-0.8l-0.8,2.9c-1.1-0.6-2.1-0.7-2.8,0c-0.9,1-0.1,2.9,1.9,4.6c2,1.6,4,2.1,4.9,1c0.7-0.8,0.5-1.8,0-3
					L489.4,1098.4z"/>
			</g>
			<g>
				<path fill="#FFFFFF" d="M489.7,1092.5c-3.1-3.4-3.4-7.1-1-9.2c2.4-2.2,6-1.4,9.1,1.9c3.1,3.4,3.5,7.2,1.2,9.3
					C496.6,1096.7,492.8,1095.9,489.7,1092.5z M495.4,1087.5c-1.8-2-3.5-2.7-4.6-1.8c-1,0.9-0.4,2.8,1.3,4.7
					c1.7,1.9,3.5,2.7,4.6,1.8C497.8,1091.3,497.2,1089.4,495.4,1087.5z"/>
			</g>
			<g>
				<path fill="#FFFFFF" d="M507.6,1078.1l1.6,1.1l-1.3-1.4l-4-5.9l2.7-1.8l8.1,12.1l-2.1,1.5l-7.2-4l-1.5-1.1l1.2,1.4l4,6.2
					l-2.5,1.7l-8.3-12l2.4-1.6L507.6,1078.1z"/>
			</g>
			<g>
				<path fill="#FFFFFF" d="M523.3,1078c-2.6,1.3-5.8-0.8-7.8-4.6c-1.9-3.9-1.4-7.8,1.5-9.2c2-1,4.3-0.4,6,1.6l-1.9,2.3
					c-0.8-1-1.7-1.5-2.6-1c-1.2,0.6-1.3,2.6-0.1,5c1.2,2.4,2.9,3.7,4.2,3.1c0.8-0.4,1.1-1.4,0.8-2.6l-1.8,0.9l-1-2.1l4.4-2.2
					l3.1,6.3l-1.9,0.9l-1.3-2.5C525.1,1075.4,524.8,1077.2,523.3,1078z"/>
			</g>
			<g>
				<path fill="#FFFFFF" d="M541.7,1070.3l-3.3,1.1c-0.9-0.6-1.2-2.4-2.1-3.6c-0.6-0.7-1.3-1.1-2.4-0.9l1.7,5.4l-3,1l-4.7-13.6
					c1.2-0.8,2.2-1.2,3.1-1.5c3.3-1.1,6.1-0.4,7.1,2.4c0.6,1.8-0.3,3.6-1.8,4.5c1,0,1.9,0.5,2.4,0.9
					C540.1,1067.4,540.6,1069.5,541.7,1070.3z M534.9,1061.9c-0.4-1.3-1.7-1.7-3-1l1.2,3.8C534.7,1064.4,535.4,1063.2,534.9,1061.9z
					"/>
			</g>
			<g>
				<path fill="#FFFFFF" d="M551.6,1065.2l-3.1,0.6l0,2.9l-3.3,0.6l0.8-15l3.7-0.7l6.3,13.6l-3.4,0.6L551.6,1065.2z M550.5,1062.7
					l-1.5-3.6l-0.5-1.7l0.1,1.8l0,3.9L550.5,1062.7z"/>
			</g>
			<g>
				<path fill="#FFFFFF" d="M568.6,1054.5l-3.3,0.2l0.6,11.8l-3.2,0.2l-0.8-11.8l-3.3,0.2l-0.2-2.7l10-0.6L568.6,1054.5z"/>
			</g>
			<g>
				<path fill="#FFFFFF" d="M574.4,1051.8l3.3,0.2l-0.6,8.7c-0.2,2.1,0.4,3,1.7,3.1c1.2,0.1,1.9-0.7,2.1-2.9l0.6-8.6l3.3,0.2
					l-0.7,8.6c-0.4,4.4-2.7,6.1-5.4,5.9c-2.7-0.2-4.8-2.2-4.6-6.6L574.4,1051.8z"/>
			</g>
			<g>
				<path fill="#FFFFFF" d="M596.3,1066.5l-0.5,2.6l-7.1-1.4l0.5-2.7l2.2-11.6l3.4,0.7l-2.3,11.6L596.3,1066.5z"/>
			</g>
			<g>
				<path fill="#FFFFFF" d="M606.7,1069.3l-3-1l-1.4,2.6l-3.2-1l7.9-12.7l3.6,1.2l-1,15l-3.3-1.1L606.7,1069.3z M607,1066.6l0.4-3.9
					l0.3-1.7l-0.8,1.6l-1.9,3.4L607,1066.6z"/>
			</g>
			<g>
				<path fill="#FFFFFF" d="M626.7,1068.1l-3-1.4l-5.1,10.7l-2.9-1.4l5-10.7l-3-1.4l1.1-2.5l9,4.3L626.7,1068.1z"/>
			</g>
			<g>
				<path fill="#FFFFFF" d="M635.9,1070.4l-7.6,12.4l-2.8-1.7l7.4-12.5L635.9,1070.4z"/>
			</g>
			<g>
				<path fill="#FFFFFF" d="M636.9,1079.5c2.8-3.6,6.3-4.6,8.9-2.7c2.5,1.9,2.5,5.6-0.3,9.3c-2.8,3.6-6.4,4.8-9,2.8
					C634,1086.9,634.1,1083.1,636.9,1079.5z M642.9,1084.1c1.6-2.1,2-3.9,0.9-4.8c-1.1-0.8-2.8,0.1-4.4,2.1c-1.6,2-2.1,4-0.9,4.8
					C639.6,1087.2,641.3,1086.2,642.9,1084.1z"/>
			</g>
			<g>
				<path fill="#FFFFFF" d="M654.3,1094.4l-0.8,1.8l1.1-1.6l5.1-5l2.3,2.3l-10.5,10.1l-1.8-1.9l2.7-7.9l0.9-1.7l-1.2,1.5l-5.4,5
					l-2.1-2.1l10.3-10.3l2,2L654.3,1094.4z"/>
			</g>
			<g>
				<path fill="#FFFFFF" d="M670.2,1104.5l-2.8,0.3c0.2-0.7,0.2-1.5-0.4-2.3c-0.7-0.9-1.5-0.8-2-0.4c-0.5,0.4-0.6,1.2-0.4,2.6
					c0.2,1.8,0.5,4-1.6,5.6c-2.1,1.6-4.5,1.1-6.1-1c-1.2-1.6-1.5-3.6-1.2-4.6l3-0.5c-0.1,1,0.1,2.2,0.7,3c0.6,0.8,1.3,0.9,1.9,0.4
					c0.8-0.6,0.5-1.5,0.4-2.8c-0.2-2-0.2-4,1.6-5.3c1.9-1.4,4.3-1.2,5.9,0.9C670.1,1101.6,670.5,1103.1,670.2,1104.5z"/>
			</g>
		</g>
		<g>
			<g>
				<path fill="#FFFFFF" d="M654.6,1248.3c-1.3-2.1-1.4-4.5,0-6.2c2-2.5,6-2.1,9.4,0.6c3.4,2.7,4.5,6.4,2.5,8.9
					c-1.4,1.7-3.7,2.1-6,1l0.8-2.9c1.1,0.6,2.1,0.7,2.8-0.1c0.8-1,0.1-2.9-2-4.5c-2-1.6-4-2-4.9-0.9c-0.7,0.9-0.5,1.8,0.1,3
					L654.6,1248.3z"/>
			</g>
			<g>
				<path fill="#FFFFFF" d="M654.4,1254.2c3.1,3.3,3.6,7,1.2,9.2c-2.3,2.2-5.9,1.6-9.1-1.7c-3.1-3.3-3.7-7.1-1.4-9.3
					S651.3,1250.8,654.4,1254.2z M648.9,1259.3c1.8,1.9,3.6,2.6,4.6,1.6c1-1,0.4-2.8-1.4-4.7c-1.8-1.9-3.6-2.6-4.6-1.7
					C646.4,1255.6,647.1,1257.4,648.9,1259.3z"/>
			</g>
			<g>
				<path fill="#FFFFFF" d="M636.9,1269l-1.6-1.1l1.4,1.4l4.1,5.8l-2.7,1.9l-8.4-11.9l2.1-1.5l7.3,3.9l1.5,1.1l-1.3-1.4l-4.1-6.1
					l2.5-1.8l8.6,11.8l-2.3,1.7L636.9,1269z"/>
			</g>
			<g>
				<path fill="#FFFFFF" d="M621.2,1269.5c2.5-1.3,5.9,0.6,7.9,4.5c2,3.8,1.6,7.8-1.2,9.3c-2,1.1-4.3,0.5-6-1.5l1.9-2.4
					c0.8,1,1.7,1.5,2.7,1c1.2-0.6,1.2-2.7,0-5c-1.2-2.4-3-3.6-4.3-3c-0.8,0.4-1,1.4-0.7,2.6l1.8-0.9l1.1,2.1l-4.3,2.3l-3.3-6.2
					l1.9-1l1.4,2.5C619.5,1272.1,619.7,1270.3,621.2,1269.5z"/>
			</g>
			<g>
				<path fill="#FFFFFF" d="M603,1277.6l3.3-1.2c0.9,0.6,1.3,2.4,2.2,3.5c0.6,0.7,1.3,1.1,2.4,0.9l-1.9-5.4l3-1.1l5,13.5
					c-1.2,0.8-2.2,1.3-3,1.6c-3.3,1.2-6.1,0.6-7.1-2.2c-0.6-1.8,0.2-3.6,1.7-4.5c-1,0.1-1.9-0.4-2.4-0.9
					C604.7,1280.5,604.1,1278.4,603,1277.6z M610,1285.8c0.5,1.3,1.7,1.6,3.1,0.9l-1.3-3.7C610.2,1283.4,609.5,1284.5,610,1285.8z"
					/>
			</g>
			<g>
				<path fill="#FFFFFF" d="M593.2,1282.9l3-0.7l0-2.9l3.3-0.7l-0.5,15l-3.7,0.8l-6.7-13.4l3.4-0.7L593.2,1282.9z M594.3,1285.4
					l1.6,3.6l0.6,1.7l-0.2-1.8l-0.1-3.9L594.3,1285.4z"/>
			</g>
			<g>
				<path fill="#FFFFFF" d="M576.5,1294l3.3-0.3l-0.9-11.8l3.2-0.3l1.1,11.8l3.3-0.3l0.2,2.7l-10,0.8L576.5,1294z"/>
			</g>
			<g>
				<path fill="#FFFFFF" d="M570.7,1296.9l-3.3-0.1l0.4-8.7c0.1-2.1-0.5-3-1.8-3.1c-1.2-0.1-1.9,0.8-2,2.9l-0.4,8.7l-3.3-0.1
					l0.5-8.6c0.3-4.4,2.5-6.2,5.3-6c2.7,0.1,4.9,2.1,4.7,6.5L570.7,1296.9z"/>
			</g>
			<g>
				<path fill="#FFFFFF" d="M548.5,1282.7l0.5-2.7l7.1,1.2l-0.4,2.7l-1.9,11.7l-3.4-0.6l2.1-11.7L548.5,1282.7z"/>
			</g>
			<g>
				<path fill="#FFFFFF" d="M538.1,1280.1l3,0.9l1.4-2.6l3.2,1l-7.6,12.9l-3.6-1.1l0.6-15l3.3,1L538.1,1280.1z M537.8,1282.8
					l-0.3,3.9l-0.3,1.8l0.7-1.6l1.8-3.4L537.8,1282.8z"/>
			</g>
			<g>
				<path fill="#FFFFFF" d="M518,1281.8l3,1.3l4.9-10.8l2.9,1.3l-4.7,10.9l3,1.3l-1.1,2.5l-9.1-4.1L518,1281.8z"/>
			</g>
			<g>
				<path fill="#FFFFFF" d="M508.8,1279.7l7.3-12.6l2.8,1.6l-7.1,12.7L508.8,1279.7z"/>
			</g>
			<g>
				<path fill="#FFFFFF" d="M507.6,1270.6c-2.7,3.7-6.2,4.8-8.8,2.9s-2.6-5.6,0.1-9.3c2.7-3.7,6.3-4.9,8.9-3
					S510.3,1266.9,507.6,1270.6z M501.5,1266.1c-1.6,2.1-2,4-0.8,4.8c1.1,0.8,2.8-0.1,4.3-2.2c1.5-2.1,2-4,0.8-4.8
					C504.8,1263,503.1,1264,501.5,1266.1z"/>
			</g>
			<g>
				<path fill="#FFFFFF" d="M489.9,1256.1l0.8-1.8l-1.1,1.6l-5,5.1l-2.3-2.3l10.2-10.4l1.9,1.8l-2.5,7.9l-0.8,1.7l1.1-1.5l5.2-5.2
					l2.2,2.1l-10,10.5l-2-2L489.9,1256.1z"/>
			</g>
			<g>
				<path fill="#FFFFFF" d="M473.8,1246.4l2.8-0.4c-0.2,0.7-0.1,1.5,0.4,2.3c0.7,0.8,1.5,0.8,2,0.4c0.5-0.4,0.6-1.2,0.4-2.6
					c-0.2-1.8-0.6-4,1.5-5.6c2-1.6,4.5-1.2,6.2,0.9c1.3,1.6,1.6,3.6,1.3,4.6l-3,0.6c0.1-1-0.2-2.2-0.8-2.9c-0.6-0.7-1.3-0.9-1.9-0.4
					c-0.8,0.6-0.5,1.5-0.3,2.8c0.3,2,0.3,4-1.5,5.4c-1.8,1.5-4.2,1.3-5.9-0.8C473.9,1249.3,473.5,1247.8,473.8,1246.4z"/>
			</g>
		</g>
	</g>
	<g>
		<g>
			<path fill="#FF5338" d="M510.8,1139.3c0,10.6-19.4,42.4-30.1,63.9c-3.4-1.5-4.5-3.2-4.5-9.4c0-5.2,0.8-23.5,1.9-45.5
				c-5.8,16.2-16,37-24.9,55c-3.3-1.3-4.5-3.4-4.5-8.6c0-5.3,1.3-39.1,1.6-60.1c5.4,0.5,6,4.7,6,11.8c0,12.8-2,30-3,48.9
				c7.5-16.5,18.3-41,24.9-60.6c5.1,0.6,5.3,5.3,5.3,10.7c0,14.3-1.8,31.8-3,50.5c7.6-16.6,19.7-41.4,27.8-61.2
				C510.2,1134.5,510.8,1137.5,510.8,1139.3z"/>
		</g>
		<g>
			<path fill="#FF5338" d="M505.9,1195.7c0-7.3,6.6-30.4,8.8-36.7c2.5,0,4,0.3,4,3.1c0,6.3-7.8,28.3-7.8,36.1c0,2.3,0.7,3.3,2.1,3.3
				c6.5,0,13-17.9,16.1-27.1c0.3-0.8,0.9-1.1,1.5-1.1c0.9,0,1.9,0.8,1.6,2.1c-4,12.4-8.9,29.2-18.9,29.2
				C508.4,1204.5,505.9,1200.2,505.9,1195.7z M515.3,1147.1c0-4.4,5-5.9,8.1-3.9c1.3,2.8,0.7,8.1-3.8,8.1
				C517.4,1151.3,515.3,1150,515.3,1147.1z"/>
		</g>
		<g>
			<path fill="#FF5338" d="M573.3,1175.3c-5.2,16.7-10,29.2-19.1,29.2c-3.9,0-7.3-3.3-7.3-9.2c0-8.2,6.6-23.3,6.6-29.7
				c0-2.1-0.7-3.5-2.6-3.5c-4.2,0-12.5,7.6-16.4,17c-2.2,5.4-5.1,16-6.6,24.1c-2.9,0.3-4.2-2.8-4.2-5.6c0-5.6,5.5-22.4,8.9-37.5
				c2.6,0,4,1.5,4,4c0,1.8-0.9,4.9-1.8,8.4c3.7-6.7,8.7-13.6,15.7-13.6c5,0,8.2,3.5,8.2,8.8c0,7.6-6.8,23.7-6.8,30.7
				c0,2.7,1,3.1,1.9,3.1c5.8,0,11.4-12.6,16.2-27.1c0.3-0.8,0.9-1.1,1.5-1.1C572.7,1173.2,573.5,1174.2,573.3,1175.3z"/>
		</g>
		<g>
			<path fill="#FF5338" d="M614.3,1175.3c-5.2,16.7-10,29.2-19.1,29.2c-3.9,0-7.3-3.3-7.3-9.2c0-8.2,6.6-23.3,6.6-29.7
				c0-2.1-0.7-3.5-2.6-3.5c-4.2,0-12.5,7.6-16.4,17c-2.2,5.4-5.1,16-6.6,24.1c-2.9,0.3-4.2-2.8-4.2-5.6c0-5.6,5.5-22.4,8.9-37.5
				c2.6,0,4,1.5,4,4c0,1.8-0.9,4.9-1.8,8.4c3.7-6.7,8.7-13.6,15.7-13.6c5,0,8.2,3.5,8.2,8.8c0,7.6-6.8,23.7-6.8,30.7
				c0,2.7,1,3.1,1.9,3.1c5.8,0,11.4-12.6,16.2-27.1c0.3-0.8,0.9-1.1,1.5-1.1C613.7,1173.2,614.6,1174.2,614.3,1175.3z"/>
		</g>
		<g>
			<path fill="#FF5338" d="M648.8,1175.3c-4.7,16.8-13.8,29.2-25.3,29.2c-7.4,0-15.3-5.5-15.3-17.6c0-14.8,10.6-27.9,19.7-27.9
				c5.8,0,8.5,5.2,8.5,10.2c0,8.7-8.2,17.3-16.4,17.3c-1.9,0-4-0.4-5.8-1.5c-0.2,1.5-0.3,3-0.3,4.6c0,7.8,2.9,12.1,7.8,12.1
				c7.6,0,17.5-9.4,23.7-27.1c0.3-1.1,1.1-1.4,1.7-1.4C648.2,1173.2,649.1,1174,648.8,1175.3z M614.6,1182.8
				c1.3,0.4,2.4,0.6,3.6,0.6c8.1,0,13.5-10,13.5-17.6c0-3.3-1-4-2.5-4C624.4,1161.7,616.7,1169.9,614.6,1182.8z"/>
		</g>
		<g>
			<path fill="#FF5338" d="M679.9,1175.3c-3.3,10.5-8.4,29.2-18.9,29.2c-4.6,0-7.5-4-7.5-9.4c0-7.6,5.7-20.8,5.7-24.9
				c0-3.4-3.8-4.8-7.4-6.9c-0.8,3.4-1.6,7.1-3,11.9c-0.2,0.7-0.9,1-1.5,1c-0.9,0-2-0.7-1.6-2c1.3-4.3,2.5-8.8,3.4-12.9
				c-2.1-1.7-3.7-3.9-3.7-7.6c0-4.3,2.2-5.8,4.5-5.8c2.5,0,3.6,1.9,3.6,5.7c0,2.3-0.4,4.5-0.9,6.4c4.1,3.5,12.1,3.9,12.1,12.3
				c0,7.4-6.1,18.6-6.1,25.8c0,2.4,0.7,3.2,2,3.2c6.7,0,12.9-17.6,16.1-27.1c0.3-0.7,0.9-1.1,1.5-1.1
				C679.5,1173.2,680.2,1174.4,679.9,1175.3z"/>
		</g>
		<g>
			<path fill="#FF5338" d="M677.9,1200.1c0-2.4,2.1-4.5,4.6-4.5c1.6,0,2.8,0.9,3.8,1.7c1.5,2.8-0.3,7-3.9,7
				C679.9,1204.4,677.9,1202.6,677.9,1200.1z M685.4,1185.1c0-4.1,5-19.1,14.3-47.7c3.3,0,3.9,1.9,3.9,3.9
				c-0.1,6.4-7,21.2-16.5,46.2C685.8,1187.4,685.4,1186.1,685.4,1185.1z"/>
		</g>
	</g>
</g>
<g>
	<g>
		<path fill="#262626" d="M15.6,917.2c228.2-14.4,456.9-15.2,685.2-2.4c14.9-21.3,29.9-42.6,45.1-63.8c-12.4-23-25-45.9-37.7-68.7
			c-233.5-13-467.5-12.2-700.9,2.5C27.8,851.4,15.5,917.2,15.6,917.2z"/>
	</g>
	<g>
		<g>
			<path fill="#FFFFFF" d="M121.8,843.2c-2.8,10.7-5.9,19.8-11.8,20c-3,0.1-5.2-2.1-5.4-5.9c-0.3-5.6,3.7-15.7,3.5-20.1
				c-0.1-1.4-0.6-2.3-2-2.2c-5.6,0.3-12.7,13.9-14.2,28.2c-1.9,0.3-2.7-1.7-2.8-3.2c-0.2-4.1,4.1-22.3,8.3-41.2
				c-3.8,0.2-7.8,0.7-11.6,1.1c0,0.1,0,0.2,0,0.2c0.2,4.3-5,26.4-8.7,43.7c-1.7,0-2.3-1.1-2.3-2.6c-0.3-4.8,3.6-20.5,7.5-40.9
				c-3,0.4-5.6,0.7-7.3,0.8c-2.9,0.2-4.3-0.4-4.9-2.7c6.3,0,23.4-2.3,26.2-2.5c3-0.1,3.9,1.5,3.9,2.6c0.1,2.2-2.9,14-5.5,25.6
				c2.4-5.1,5.7-11.1,11-11.3c3.4-0.2,5.6,2.1,5.8,5.6c0.2,5-3.9,16-3.6,20.7c0.1,1.8,0.8,2,1.5,2c3.9-0.2,7.3-9.3,10-18.6
				c0.2-0.5,0.6-0.8,1-0.8C121.4,841.9,122,842.5,121.8,843.2z"/>
		</g>
		<g>
			<path fill="#FFFFFF" d="M117.3,857c-0.2-4.9,3.6-20.5,4.8-24.7c1.7-0.1,2.7,0.1,2.8,1.9c0.2,4.2-4.5,19.1-4.2,24.3
				c0.1,1.5,0.6,2.2,1.5,2.1c4.4-0.2,8.2-12.3,10-18.6c0.2-0.5,0.6-0.8,1-0.8c0.6,0,1.3,0.5,1.2,1.3c-2.3,8.4-5.2,19.7-11.9,20
				C119.3,862.9,117.4,860.1,117.3,857z M122.2,824.4c-0.1-2.9,3.2-4.1,5.4-2.8c1,1.9,0.7,5.4-2.3,5.5
				C123.7,827.1,122.3,826.3,122.2,824.4z"/>
		</g>
		<g>
			<path fill="#FFFFFF" d="M156.5,841.8c-2,7.9-5.3,13.3-10.8,14.6c-1.5,3.5-4.5,5.5-7.9,5.7c-4.4,0.2-8.1-2.9-8.2-6.9
				c-0.1-2.1,0.8-3.4,2.5-3.4c2.5-0.1,6.3,2.5,10.2,2.8c0.4-1.3,0.5-2.8,0.5-4.5c-0.3-7.6-4.8-9.4-7-12.5c-0.3,1.5-0.7,3.2-1.2,5.2
				c-0.1,0.5-0.6,0.7-1,0.7c-0.6,0-1.4-0.4-1.2-1.3c0.9-3.2,1.5-6.5,2-9.4c0.3-2.5,1.6-4.7,3.3-4.7c1.1,0,2.1,0.9,2.2,2.8
				c0.1,2-0.9,4.3-2.4,5.7c2.2,2.3,8.7,6.1,9.1,14.3c0,1,0,2-0.2,2.9c4-1.8,6.4-6.8,7.9-12.6c0.2-0.5,0.6-0.8,1-0.8
				C156,840.5,156.6,841.1,156.5,841.8z M141.4,856.5c-3.6-0.5-6.4-2.4-8.6-2.3c-0.9,0-1.3,0.4-1.2,1.3c0.1,1.9,1.9,4.3,4.9,4.2
				C138.4,859.7,140.2,858.6,141.4,856.5z"/>
		</g>
		<g>
			<path fill="#FFFFFF" d="M212.6,839.9c-2,8.3-6.2,12-10.8,12.1c-1.2,0-2.4-0.2-3.4-0.6c-3.2,4.9-7.4,8.7-11.8,8.8
				c-3.1,0.1-5.4-1.6-5.7-6.2c-1.2,3.7-3.7,6.5-7.2,6.6c-3.1,0.1-5.5-1.9-5.6-5.7c-0.2-4.6,2.7-16.4,5-23.9c1.7-0.1,2.6,0.8,2.6,2.1
				c0.1,3.4-4.4,18-4.2,23.1c0,1.1,0.3,2.3,1.9,2.3c4.5-0.2,8.6-10.6,11.2-22.6c1.7-0.1,2.6,0.7,2.6,2.3c0.1,3.2-3,12.9-2.8,17.8
				c0,1.4,0.4,2.2,1.5,2.2c2.5-0.1,6.4-3.9,9.3-9.1c-2.2-2.5-3.6-6.1-3.8-10.3c-0.2-6.5,2.7-10.4,6.2-10.5c3.3-0.1,5.4,3.3,5.5,7.8
				c0.1,4.1-1.4,9.2-3.9,13.5c0.6,0.2,1.2,0.3,1.9,0.2c4.1-0.1,7.3-3.4,9.2-10.5c0.2-0.6,0.6-0.8,1-0.8
				C212.1,838.6,212.8,839.1,212.6,839.9z M196.2,847.3c2.2-4.3,3.8-9.3,3.7-13.7c-0.1-2.8-0.8-3.6-1.8-3.6c-1.9,0.1-4,3.5-3.8,9.8
				C194.4,842.7,195,845.5,196.2,847.3z"/>
		</g>
		<g>
			<path fill="#FFFFFF" d="M239.5,839.2c-2.8,10.7-6,19.6-12.1,19.8c-2.7,0.1-4.7-1.7-4.7-7c-1.6,4.5-3.9,7.3-7.6,7.4
				c-3.5,0.1-6.7-2.3-6.9-8.8c-0.3-9,5.3-21.5,12.2-21.7c2.8-0.1,5.1,1.9,5.8,5.1c0.3-1.5,0.6-3,0.9-4.4c2-0.3,2.9,0.8,2.9,2.3
				c0.1,3.6-4.7,17.5-4.5,23.2c0,1.6,0.5,2.1,1.5,2.1c4.1-0.1,7.8-8.7,10.4-18.4c0.2-0.5,0.6-0.8,1-0.8
				C239.1,837.9,239.7,838.5,239.5,839.2z M225.3,837.7c-0.6-3.9-1.7-6.6-3.8-6.6c-4.4,0.1-9.7,12.1-9.4,21.7
				c0.1,3.3,0.8,4.8,2.6,4.7C219.1,857.4,222.7,848,225.3,837.7z"/>
		</g>
		<g>
			<path fill="#FFFFFF" d="M266.4,838.7c-2.9,10-7.3,15.9-15.1,20.2c-2,7.9-5.2,16.9-11.7,17.1c-3.7,0.1-6.4-2.7-6.5-6.3
				c-0.2-6.5,8.2-8.2,15.4-11.7c0.7-2.7,1.3-5.3,1.7-7.6c-2.3,4.9-5.6,8.2-9.9,8.3c-3.2,0.1-5.6-1.7-5.7-5.7
				c-0.1-4.4,2.4-13.6,5.3-24.7c2.4-0.3,2.8,1,2.8,2.1c0.1,4.6-4.9,18.5-4.7,24c0,1.9,0.7,2.4,1.7,2.4c3.2-0.1,8.7-5.4,11.3-13.7
				c0.8-2.6,2.2-8.5,3.7-15.1c1.6,0,2.7,0.3,2.8,2.2c0.1,3.4-3.2,15.7-5.4,25.5c-0.1,0.1-0.1,0.2-0.1,0.4c6.6-4.4,10.1-11,12.2-17.9
				c0.2-0.5,0.6-0.8,1-0.8C265.9,837.3,266.5,837.9,266.4,838.7z M247.7,860.8c-6.2,3.1-11.8,5.6-11.7,10.2c0.1,2.1,1.3,3.1,2.9,3
				C242.9,873.9,245.7,867.6,247.7,860.8z"/>
		</g>
		<g>
			<path fill="#FFFFFF" d="M297.3,838.2c-2.4,8.2-6.6,19.6-14.3,19.7c-3.3,0.1-5.2-2.1-5.3-5.6c-0.1-3.5,1.7-10.6,4.4-21.8
				c-0.1,0-0.2,0-0.3,0c-2.6,0-3.7-1.2-3.7-3c1.4,0.3,3.1,0.3,4.7,0.3c0.9-3.5,1.8-7.4,2.8-11.7c1.1,0,2.6,0.2,2.6,2.3
				c0,1.5-0.7,5-1.8,9.3c1.2-0.1,2.2-0.1,2.8-0.2c2.6,0,4.1,1.1,3.9,2.8c-2.2-0.3-4.9-0.2-7.3,0c-2.1,8.6-4.9,19.3-4.8,23.4
				c0,1.7,0.6,2.2,1.7,2.2c5.2-0.1,10-9.9,12.4-18.1c0.2-0.7,0.7-0.9,1.1-0.9C297.1,836.8,297.5,837.6,297.3,838.2z"/>
		</g>
		<g>
			<path fill="#FFFFFF" d="M325.7,837.8c-2.6,8.9-6.4,14.4-13.2,14.5c-0.4,0-0.8,0-1.2,0c-2.2,3.1-5.2,5.3-9,5.3
				c-5.4,0.1-9.1-4.1-9.2-10.8c-0.1-9.7,7.2-19.5,11.6-18.6c0.9-0.6,1.8-1.1,3-1.1c3.8,0,7.5,4.3,7.6,11.4c0,3.7-0.9,8-2.8,11.7
				c7.3-0.5,9.8-9.3,11-13c0.2-0.5,0.6-0.8,1-0.8C325.4,836.5,325.9,837.1,325.7,837.8z M308,851.3c-4-1.8-6.7-6.2-6.8-12.5
				c0-3.7,0.8-7.4,2.7-9.6c-5,4-6.9,12.2-6.8,18c0.1,5.8,2.1,8.5,5,8.5C304.3,855.7,306.3,854,308,851.3z M304.5,840.5
				c0.1,4.1,1.4,7.7,4.4,9.2c1.8-3.7,2.9-8.7,2.9-13.4c-0.1-5.9-1.9-7.4-3.2-7.4C306,828.9,304.4,835.7,304.5,840.5z"/>
		</g>
		<g>
			<path fill="#FFFFFF" d="M356.7,837.6c-2.5,8.2-6.8,19.5-14.5,19.6c-3.3,0-5.2-2.2-5.2-5.6c0-3.5,1.8-10.6,4.7-21.8
				c-0.1,0-0.2,0-0.3,0c-2.6,0-3.7-1.2-3.6-3c1.4,0.3,3.1,0.3,4.7,0.3c0.9-3.5,1.9-7.4,2.9-11.7c1.1,0,2.6,0.3,2.6,2.3
				c0,1.5-0.8,5-1.9,9.2c1.2-0.1,2.2-0.1,2.8-0.1c2.6,0,4.1,1.2,3.8,2.8c-2.2-0.3-4.9-0.2-7.3-0.1c-2.2,8.6-5.1,19.2-5.1,23.4
				c0,1.7,0.5,2.2,1.7,2.2c5.2,0,10.1-9.8,12.6-18c0.2-0.7,0.7-0.9,1.1-0.9C356.4,836.3,356.8,837.1,356.7,837.6z"/>
		</g>
		<g>
			<path fill="#FFFFFF" d="M384.3,837.6c-3.3,10.6-6.8,19.5-12.7,19.5c-3,0-5.1-2.3-5.1-6.1c0-5.6,4.4-15.5,4.4-19.9
				c0-1.4-0.5-2.3-1.9-2.3c-5.6,0-13.3,13.3-15.5,27.5c-2,0.2-2.6-1.9-2.6-3.3c0-4.2,6.4-27.1,11.1-46.1c1.8,0,2.5,1,2.5,2.5
				c0,3.3-4,16.5-7.2,28.1c2.6-5,6.2-10.8,11.5-10.8c3.4,0,5.5,2.3,5.5,5.8c0,5-4.6,15.8-4.6,20.5c0,1.8,0.7,2.1,1.4,2.1
				c3.9,0,7.7-8.9,10.8-18.1c0.2-0.5,0.6-0.7,1-0.7C383.9,836.2,384.5,836.8,384.3,837.6z"/>
		</g>
		<g>
			<path fill="#FFFFFF" d="M407.6,837.7c-3.3,11.2-9.4,19.4-17.2,19.4c-5,0-10.3-3.7-10.3-11.8c0-9.9,7.2-18.6,13.4-18.6
				c4,0,5.7,3.5,5.7,6.8c0,5.8-5.6,11.6-11.1,11.6c-1.3,0-2.7-0.3-3.9-1c-0.1,1-0.2,2-0.2,3c0,5.2,2,8.1,5.3,8.1
				c5.1,0,11.8-6.3,16.1-18.1c0.2-0.7,0.8-0.9,1.2-0.9C407.2,836.3,407.8,836.8,407.6,837.7z M384.5,842.6c0.9,0.3,1.6,0.4,2.4,0.4
				c5.4,0,9.1-6.7,9.1-11.7c0-2.2-0.7-2.7-1.7-2.7C391.2,828.5,385.9,834,384.5,842.6z"/>
		</g>
		<g>
			<path fill="#FFFFFF" d="M435.2,836.5c4.5,1,8.3,4.4,8.3,8.8c-0.1,5.6-6.6,12.1-15.1,12c-3.7,0-6.9-1.3-6.8-4.8
				c0-4.1,4.4-18.5,9.4-37.4c1.7,0,2.6,1.1,2.5,2.5c0,2.1-2,10-4.3,18.8c12-3.7,16.2-12.2,16.3-17.2c0.1-4.4-3.2-6.7-8.4-6.8
				c-6.4-0.1-12.3,3.4-14.6,7.6c-0.7-0.7-1-1.6-1-2.6c0-4.4,6.5-7.6,13.7-7.5c9.8,0.1,13.9,6.1,13.9,11.3
				C448.8,826.9,443.2,833.3,435.2,836.5z M433.3,838.5c-1.4,0-3.3,0.1-4.9,0.6c-1.4,5.5-2.9,11.3-4.1,16c0.9,0.1,1.7,0.2,2.3,0.2
				c8.6,0.1,13.1-7,13.2-11.7C439.8,840.7,438,838.6,433.3,838.5z"/>
		</g>
		<g>
			<path fill="#FFFFFF" d="M479.6,838.5c-3.2,10.6-6.8,19.4-12.9,19.3c-2.7,0-4.6-1.8-4.4-7.2c-1.7,4.4-4.2,7.1-7.9,7.1
				c-3.5,0-6.6-2.6-6.5-9.1c0.1-9,6.2-21.3,13-21.2c2.8,0,5,2.1,5.6,5.3c0.4-1.5,0.7-3,1.1-4.4c2-0.2,2.8,0.9,2.8,2.4
				c-0.1,3.6-5.4,17.3-5.5,23c0,1.6,0.4,2.1,1.4,2.1c4.1,0.1,8.1-8.4,11.2-17.9c0.2-0.5,0.7-0.7,1.1-0.7
				C479.2,837.1,479.8,837.7,479.6,838.5z M465.4,836.3c-0.5-3.9-1.5-6.7-3.6-6.7c-4.4-0.1-10.2,11.7-10.3,21.2
				c0,3.3,0.6,4.8,2.4,4.8C458.5,855.7,462.5,846.5,465.4,836.3z"/>
		</g>
		<g>
			<path fill="#FFFFFF" d="M494.3,838.7c-2.7,8.1-7.3,19.4-15,19.2c-3.3-0.1-5.2-2.3-5.1-5.8c0.1-3.5,2.1-10.6,5.2-21.6
				c-0.1,0-0.2,0-0.3,0c-2.6,0-3.7-1.3-3.6-3.1c1.4,0.3,3.1,0.4,4.6,0.4c1-3.5,2-7.4,3.2-11.6c1.1,0,2.6,0.3,2.5,2.3
				c0,1.5-0.9,5-2.1,9.2c1.2,0,2.2-0.1,2.8-0.1c2.6,0,4,1.3,3.8,2.9c-2.1-0.3-4.9-0.3-7.3-0.2c-2.4,8.6-5.6,19.1-5.6,23.2
				c0,1.7,0.5,2.2,1.6,2.3c5.2,0.1,10.3-9.6,13-17.7c0.2-0.7,0.7-0.9,1.1-0.9C494.1,837.4,494.5,838.2,494.3,838.7z"/>
		</g>
		<g>
			<path fill="#FFFFFF" d="M521.9,839.3c-3.6,10.5-7.2,19.3-13.1,19.2c-3-0.1-5-2.4-5-6.2c0.1-5.6,4.8-15.4,4.9-19.8
				c0-1.4-0.4-2.3-1.8-2.3c-5.6-0.1-13.6,13-16.1,27.1c-2,0.2-2.6-2-2.5-3.3c0.1-4.2,7.1-27,12.2-45.8c1.7,0,2.5,1.1,2.5,2.5
				c-0.1,3.3-4.4,16.4-7.8,27.9c2.7-4.9,6.4-10.7,11.8-10.5c3.4,0.1,5.5,2.5,5.4,6c-0.1,5-4.9,15.7-5,20.4c0,1.8,0.6,2.1,1.3,2.1
				c3.9,0.1,8-8.8,11.3-17.9c0.2-0.5,0.7-0.7,1.1-0.7C521.5,838,522.1,838.6,521.9,839.3z"/>
		</g>
		<g>
			<path fill="#FFFFFF" d="M542.9,839.9c-2.5,6.9-6.2,19.3-13.3,19.1c-3.1-0.1-5-2.8-4.9-6.4c0.1-5,4.2-13.8,4.2-16.5
				c0.1-2.3-2.5-3.3-4.9-4.7c-0.6,2.3-1.2,4.7-2.2,7.9c-0.1,0.5-0.6,0.7-1.1,0.7c-0.6,0-1.3-0.5-1.1-1.3c0.9-2.8,1.8-5.9,2.5-8.5
				c-1.4-1.2-2.4-2.7-2.4-5.1c0.1-2.9,1.6-3.9,3.1-3.8c1.7,0,2.4,1.3,2.3,3.8c0,1.5-0.4,3-0.7,4.3c2.7,2.4,8.1,2.8,8,8.4
				c-0.1,4.9-4.4,12.3-4.6,17.1c0,1.6,0.4,2.1,1.3,2.2c4.5,0.1,9-11.5,11.4-17.8c0.2-0.5,0.6-0.7,1.1-0.7
				C542.7,838.5,543.1,839.3,542.9,839.9z"/>
		</g>
		<g>
			<path fill="#FFFFFF" d="M571.3,840.8c-3,8.7-7,14.1-13.8,13.9c-0.4,0-0.8,0-1.2-0.1c-2.3,3-5.4,5.1-9.2,4.9
				c-5.4-0.2-9-4.4-8.8-11.2c0.3-9.7,8-19.2,12.4-18.1c0.9-0.6,1.9-1,3.1-0.9c3.8,0.1,7.4,4.6,7.1,11.7c-0.1,3.7-1.2,8-3.3,11.5
				c7.4-0.2,10.1-8.9,11.5-12.5c0.2-0.5,0.7-0.7,1.1-0.7C571,839.4,571.5,840.1,571.3,840.8z M553,853.5c-3.9-2-6.5-6.5-6.3-12.7
				c0.1-3.7,1.1-7.4,3.1-9.5c-5.2,3.7-7.4,11.9-7.6,17.7c-0.2,5.8,1.7,8.6,4.6,8.7C549.1,857.7,551.3,856.1,553,853.5z M550,842.5
				c-0.1,4.1,1,7.8,4,9.4c2-3.7,3.3-8.6,3.4-13.3c0.2-5.9-1.6-7.5-2.9-7.5C552,831,550.1,837.8,550,842.5z"/>
		</g>
		<g>
			<path fill="#FFFFFF" d="M599.8,841.8c-3,8.7-7.1,14.1-13.8,13.8c-0.4,0-0.8,0-1.2-0.1c-2.3,3-5.4,5-9.3,4.9
				c-5.4-0.2-8.9-4.5-8.7-11.2c0.3-9.7,8.1-19.1,12.5-18c0.9-0.6,1.9-1,3.1-0.9c3.8,0.1,7.3,4.6,7.1,11.8c-0.1,3.7-1.3,8-3.4,11.5
				c7.4-0.2,10.2-8.8,11.6-12.5c0.2-0.5,0.7-0.7,1.1-0.7C599.5,840.4,600,841.1,599.8,841.8z M581.4,854.4c-3.9-2-6.4-6.5-6.2-12.8
				c0.1-3.7,1.2-7.4,3.1-9.5c-5.2,3.7-7.5,11.9-7.7,17.7c-0.2,5.8,1.7,8.6,4.6,8.7C577.5,858.6,579.6,857,581.4,854.4z M578.4,843.4
				c-0.1,4.1,1,7.8,4,9.4c2-3.7,3.3-8.6,3.5-13.2c0.2-5.9-1.6-7.5-2.8-7.6C580.5,831.9,578.6,838.7,578.4,843.4z"/>
		</g>
		<g>
			<path fill="#FFFFFF" d="M638.2,843.3c-4,11-7.6,19.2-13.7,18.9c-2.5-0.1-5.1-1.9-4.9-6.3c0.2-5.8,5.1-15.3,5.3-19.6
				c0.1-1.6-0.5-2.4-1.6-2.4c-3-0.1-7.2,5.3-10.1,13.6c-1.3,3.8-2.6,9.1-3.9,13.3c-2.2,0.2-2.8-1.5-2.7-3.4c0.2-5.4,5.8-16.9,6-21.9
				c0.1-1.5-0.4-2.1-1.4-2.2c-3.1-0.1-8,5-10.8,12.9c-0.8,2.2-2.4,7.6-4.1,14c-2.5-0.1-2.7-2.7-2.7-4c0.1-4,3.3-11.9,7-24.5
				c1.7,0,2.7,0.7,2.6,2.8c0,0.9-0.3,2-0.6,3.2c2.4-3.8,5.3-6.6,8.9-6.5c2.9,0.1,4.6,2.1,4.7,5.9c1.9-3.5,4.2-5.5,7.6-5.4
				c2.5,0.1,5,1.4,4.8,5.5c-0.2,5.6-5.3,16.1-5.5,20.9c0,1.1,0.3,2,1.4,2.1c3.9,0.2,8.1-8.1,11.8-17.6c0.2-0.5,0.7-0.7,1.1-0.7
				C637.9,842,638.4,842.6,638.2,843.3z"/>
		</g>
		<g>
			<path fill="#FFFFFF" d="M694.6,850.4c-3.7,2-9.2,5.3-11.3,7.1c-0.7-0.2-1-1-1-1.5c0.1-2.3,6.2-4.5,9.3-5.9
				c-6.1-0.1-25.2-0.3-29.2-0.5c-3.7-0.2-5.4-0.8-5.9-2.8c13,0.6,28.2,1.4,35.3,1.8c-2.1-2-6.3-3.3-6.2-5.6c0-0.6,0.4-1.4,0.8-1.8
				C690.1,845.8,694.9,848.2,694.6,850.4z"/>
		</g>
	</g>
</g>
<g>
	<circle fill="#FF5029" cx="1144.7" cy="154.3" r="82.5"/>
</g>
<g>
	<path fill="#FF5029" d="M1157.1,283.7l-2.4-24.9c0.9-0.1,1.8-0.2,2.7-0.3l3,24.8C1159.3,283.5,1158.2,283.6,1157.1,283.7z
		 M1129.1,283.4c-1.1-0.1-2.2-0.3-3.3-0.4l3.6-24.7c0.9,0.1,1.8,0.2,2.7,0.4L1129.1,283.4z M1187.7,277l-8.3-23.6
		c0.9-0.3,1.7-0.6,2.6-0.9l8.9,23.4C1189.8,276.3,1188.7,276.7,1187.7,277z M1098.6,275.9c-1.1-0.4-2.1-0.8-3.1-1.2l9.5-23.1
		c0.8,0.3,1.7,0.7,2.5,1L1098.6,275.9z M1215.8,263.2l-13.7-20.9c0.8-0.5,1.5-1,2.3-1.5l14.2,20.6
		C1217.7,261.9,1216.7,262.5,1215.8,263.2z M1070.9,261.3c-0.9-0.6-1.8-1.3-2.7-1.9l14.7-20.2c0.7,0.5,1.5,1.1,2.2,1.6L1070.9,261.3
		z M1239.7,243l-18.3-17.1c0.6-0.7,1.2-1.3,1.8-2l18.7,16.6C1241.3,241.3,1240.5,242.2,1239.7,243z M1047.4,240.6
		c-0.7-0.8-1.5-1.7-2.2-2.5l19.1-16.1c0.6,0.7,1.2,1.4,1.8,2.1L1047.4,240.6z M1258.2,217.7l-21.8-12.2c0.4-0.8,0.9-1.6,1.3-2.4
		l22.1,11.6C1259.3,215.7,1258.8,216.7,1258.2,217.7z M1029.6,214.8c-0.5-1-1-2-1.5-3l22.4-11.1c0.4,0.8,0.8,1.6,1.2,2.4
		L1029.6,214.8z M1270.1,188.7l-24.1-6.6c0.2-0.9,0.5-1.8,0.7-2.6l24.3,6C1270.7,186.5,1270.4,187.6,1270.1,188.7z M1018.5,185.5
		c-0.3-1.1-0.5-2.2-0.8-3.3l24.4-5.4c0.2,0.9,0.4,1.8,0.6,2.7L1018.5,185.5z M1274.6,157.7l-25-0.7c0-0.9,0-1.8,0-2.7v-0.2h25v0.2
		C1274.7,155.4,1274.7,156.6,1274.6,157.7z M1014.7,154.6l0-0.3c0-1.1,0-2.2,0-3.2l25,0.6c0,0.8,0,1.7,0,2.5c0,0.1,0,0.1,0,0.2h-25
		h11.1L1014.7,154.6z M1247.2,131.6c-0.2-0.9-0.4-1.8-0.6-2.6l24.3-6c0.3,1.1,0.5,2.2,0.8,3.3L1247.2,131.6z M1042.7,129.3
		l-24.3-5.9c0.3-1.1,0.5-2.2,0.8-3.3l24.1,6.6C1043.1,127.5,1042.9,128.4,1042.7,129.3z M1238.8,107.8c-0.4-0.8-0.8-1.6-1.2-2.4
		l22.1-11.7c0.5,1,1,2,1.5,3L1238.8,107.8z M1051.6,105.6L1029.5,94c0.5-1,1.1-2,1.6-3l21.8,12.2
		C1052.5,104,1052,104.8,1051.6,105.6z M1224.9,86.6c-0.6-0.7-1.2-1.4-1.8-2l18.7-16.6c0.7,0.8,1.5,1.7,2.2,2.6L1224.9,86.6z
		 M1066,84.8l-18.7-16.6c0.7-0.8,1.5-1.7,2.3-2.5l18.3,17C1067.2,83.4,1066.6,84.1,1066,84.8z M1206.4,69.4
		c-0.7-0.5-1.5-1.1-2.2-1.6l14.2-20.6c0.9,0.6,1.8,1.3,2.7,1.9L1206.4,69.4z M1084.9,68l-14.2-20.5c0.9-0.6,1.8-1.3,2.8-1.9
		l13.7,20.9C1086.4,66.9,1085.7,67.4,1084.9,68z M1184.3,57c-0.8-0.3-1.7-0.7-2.5-1l8.8-23.4c1.1,0.4,2.1,0.8,3.1,1.2L1184.3,57z
		 M1107.3,56.2l-8.9-23.4c1-0.4,2.1-0.8,3.2-1.2l8.3,23.6C1109,55.5,1108.1,55.8,1107.3,56.2z M1159.9,50.4
		c-0.9-0.1-1.8-0.2-2.7-0.4l2.9-24.8c1.1,0.1,2.2,0.3,3.3,0.4L1159.9,50.4z M1131.9,50.1l-3-24.8c1.1-0.1,2.2-0.3,3.3-0.4l2.4,24.9
		C1133.7,49.9,1132.7,50,1131.9,50.1z"/>
</g>
<g>
	<defs>
		<path id="SVGID_1_" d="M1173.5,155.7c-10.7,0-19.3-8.7-19.3-19.3s8.7-19.3,19.3-19.3s19.3,8.7,19.3,19.3
			S1184.2,155.7,1173.5,155.7z M1173.5,120c-9,0-16.3,7.3-16.3,16.3s7.3,16.3,16.3,16.3s16.3-7.3,16.3-16.3S1182.5,120,1173.5,120z"
			/>
	</defs>
	<use xlink:href="#SVGID_1_"  overflow="visible" fill="#262626"/>
	<clipPath id="SVGID_2_">
		<use xlink:href="#SVGID_1_"  overflow="visible"/>
	</clipPath>
</g>
<g>
	<defs>
		<path id="SVGID_3_" d="M1119.6,155.2c-10.7,0-19.3-8.7-19.3-19.3s8.7-19.3,19.3-19.3s19.3,8.7,19.3,19.3
			S1130.2,155.2,1119.6,155.2z M1119.6,119.5c-9,0-16.3,7.3-16.3,16.3s7.3,16.3,16.3,16.3s16.3-7.3,16.3-16.3
			S1128.6,119.5,1119.6,119.5z"/>
	</defs>
	<use xlink:href="#SVGID_3_"  overflow="visible" fill="#262626"/>
	<clipPath id="SVGID_4_">
		<use xlink:href="#SVGID_3_"  overflow="visible"/>
	</clipPath>
</g>
<g>
	<polygon fill="#262626" points="1167.6,171.7 1143.7,170.6 1143.9,167.6 1162.1,168.4 1146.8,143.5 1149.4,142 	"/>
</g>
<g>
	<path fill="#262626" d="M1147.6,195c-22.2,0-28.7-15.7-29-16.3l2.8-1.1c0.2,0.6,6.1,14.5,26.2,14.5c17.3,0,24.5-13.2,24.6-13.3
		l2.6,1.4C1174.5,180.7,1166.7,195,1147.6,195z"/>
</g>
<g>
	<path fill="#262626" d="M1115.9,104.8l-2.7-1.3c0.1-0.3,3.7-7.2,11.4-7.2c6.3,0,9.4,4.9,10.1,7.5l-2.9,0.8
		c-0.1-0.2-1.6-5.3-7.2-5.3C1118.8,99.3,1116,104.6,1115.9,104.8z"/>
</g>
<g>
	<path fill="#262626" d="M1163.4,104.8l-2.7-1.3c0.1-0.3,3.7-7.2,11.4-7.2c6.3,0,9.4,4.9,10.1,7.5l-2.9,0.8
		c-0.1-0.2-1.6-5.3-7.2-5.3C1166.3,99.3,1163.5,104.8,1163.4,104.8z"/>
</g>
<g>
	<path fill="#262626" d="M1164.6,128.7c-3.2,0-6.1,1.2-8.3,3.1c-0.4,1.5-0.6,3-0.6,4.5c0,8.3,5.7,15.3,13.4,17.3
		c4.9-1.8,8.4-6.5,8.4-12C1177.5,134.5,1171.7,128.7,1164.6,128.7z"/>
</g>
<g>
	<path fill="#262626" d="M1110.7,128.3c-3.2,0-6.1,1.2-8.3,3.1c-0.4,1.5-0.6,3-0.6,4.5c0,8.3,5.7,15.3,13.4,17.3
		c4.9-1.8,8.4-6.5,8.4-12C1123.5,134,1117.8,128.3,1110.7,128.3z"/>
</g>
</svg>
