<svg xmlns="http://www.w3.org/2000/svg" width="877" height="299" viewBox="0 0 877 299"><path d="M439 165v11.014c36 0 31.505 40.445 7.124 40.445-20.373 0-36.829-30.626-36.829-68.405s16.481-68.405 36.855-68.405c24.173 0 43.85 21.645 46.85 50.987v1.364h12v-61h-11.828c0 27-18.601-.122-48.769-.122-45.789 0-76.064 26.634-76.064 77.159s30.276 77.356 76.064 77.356c26.226 0 49.149-23.507 49.149 2.607h11.448v-63h-66zM566.17 96.986c0-11.954 8.316-17.405 20.065-17.405 15.512 0 42.175 12.419 42.175 36.419h11.59v-45h-11.59c0 27-13.073-.155-45.859-.155-40.828 0-60.881 25.149-56.685 50.892 8.623 52.904 76.845 35.514 78.399 77.049.431 11.512-6.943 17.984-22.505 17.984-19.82 0-47.266-14.133-47.266-52.32l-11.494-.069v63.297000000000004l11.492-.117c0-26.291 19.749-1.513 48.013-1.513 28.028 0 67.994-10.126 63.951-51.29-5.523-56.251-80.286-33.858-80.286-77.772zM788.308 165c-3.448 29-23.054 52.113-45.701 52.113-29.385 0-37.021-30.947-37.021-68.719 0-37.914 16.421-68.747 36.867-68.747 22.647 0 41.547 21.625 45.547 51.072v1.281h12v-61h-11.692c0 27-18.955-.199-47.533-.199-34.163 0-76.309 19.902-76.335 77.394.026 50.598 27.246 77.558 76.335 77.558 25.488 0 47.533-23.866 47.533 2.248h11.555l.137-63.001h-11.692zM355.363 196.202s-27.677-86.865-32.374-99.872c-3.272-9.059-2.218-17.68 6.493-19.221l-1.878-9.7-65.659 9.537 2.48 10.026c8.199-1.22 11.912 1.887 8.07 15.012l-31.374 94.264c-3.348 11.705-9.165 20.539-21.653 20.539l.007 11.213h43.101l-.03-11.214c-9.248 0-15.535-1.627-12.112-12.075l10.689-30.711h46.388c5.295 17 9.54 31.708 9.54 31.708 2.554 7.401-1.05 10.918-11.05 10.918v11.374h69v-11.375c-10.001 0-15.02-8.151-19.638-20.423zm-91.692-31.202c8.029-25 16.811-51.691 20.27-62.338 4.973 13.002 13.494 38.338 20.69 62.338h-40.96zM180.866 172c9.399 0 22.905-4.033 30.706-11.007 4.513-4.035 6.898-8.841 6.897-13.891 0-6.394-3.931-11.737-10.257-13.939-7.622-2.653-19.003-.671-27.251 9.741-3.628 4.579-6.702 11.785-8.436 19.771-.531 2.448-.876 4.671-1.081 6.685-.443 1.087-2.241 5.32-5.033 9.63-3.184 4.916-6.448 8.056-9.354 9.04.04-.585.121-1.356.271-2.367.376-2.54 1.049-5.783 1.901-9.889.951-4.584 2.136-10.289 3.289-16.956 1.964-11.351 1.221-18.335-2.408-22.646-1.568-1.862-4.495-4.082-9.538-4.082-3.581 0-8.715 1.596-14.287 8.415l5.512-26.83c1.796.702 3.598 1.445 5.4 2.233 10.22 4.466 20.257 7.053 29.834 7.689 7.774.517 15.257-.243 22.245-2.259 12.1-3.489 18.606-9.607 18.877-9.866l-6.522-6.833.019-.018c-.053.05-5.447 5.004-15.515 7.789-5.9 1.632-12.248 2.216-18.867 1.735-8.369-.608-17.213-2.927-26.289-6.893-14.032-6.132-28.092-9.866-40.659-10.799-13.278-.985-24.842 1.182-33.441 6.267-10.248 6.061-16.291 16.144-17.474 29.16l9.407.855c.91-10.007 5.242-17.37 12.875-21.885 6.93-4.099 16.59-5.82 27.934-4.978l.688.056-19.551 89.297 9.227 2.02 19.712-90.031c4.257.801 8.646 1.906 13.106 3.298l-17.427 84.831 9.239 1.965c4.686-21.313 10.088-37.014 16.055-46.669 4.149-6.712 7.835-9.104 9.902-9.104 1.706 0 2.131.504 2.312.72.727.863 2.213 4.048.327 14.952-1.127 6.512-2.293 12.131-3.23 16.647-1.042 5.021-1.866 8.988-2.215 12.08-.362 3.21-.424 6.84 1.864 9.427 1.012 1.144 2.819 2.437 5.818 2.437.294 0 .6-.012.918-.039 6.104-.505 11.879-4.692 17.18-12.446 3.014 5.804 8.971 9.983 15.655 10.84.871.112 1.75.167 2.634.167 3.643 0 7.365-.943 10.901-2.776 4.745-2.461 9.205-6.499 13.256-12.005l-7.608-5.598c-5.702 7.748-12.088 11.599-17.982 10.843-4.517-.579-7.707-3.759-8.864-6.663-.791-1.984-1.028-5.122-.824-8.122l.152.001zm7.499-23.231c4.095-5.169 9.215-7.227 13.329-7.227 1.25 0 2.407.19 3.413.54 3.237 1.127 3.916 3.349 3.916 5.016 0 2.318-1.261 4.62-3.747 6.843-3.069 2.744-7.775 5.149-13.252 6.773-3.363.997-6.833 1.619-9.741 1.779 1.381-5.348 3.536-10.511 6.082-13.724z"/></svg>