<?xml version="1.0" encoding="utf-8"?>
<!-- Generator: Adobe Illustrator 19.2.1, SVG Export Plug-In . SVG Version: 6.00 Build 0)  -->
<svg version="1.1" id="Layer_1" xmlns="http://www.w3.org/2000/svg" xmlns:xlink="http://www.w3.org/1999/xlink" x="0px" y="0px"
	 viewBox="0 0 877 299" enable-background="new 0 0 877 299" xml:space="preserve">
<g>
	<path d="M439,165v11.014c36,0,31.505,40.445,7.124,40.445c-20.373,0-36.829-30.626-36.829-68.405s16.481-68.405,36.855-68.405
		c24.173,0,43.85,21.645,46.85,50.987V132h12V71h-11.828c0,27-18.601-0.122-48.769-0.122c-45.789,0-76.064,26.634-76.064,77.159
		s30.276,77.356,76.064,77.356c26.226,0,49.149-23.507,49.149,2.607H505v-54.271V165h-11.448H439z"/>
	<path d="M566.17,96.986c0-11.954,8.316-17.405,20.065-17.405C601.747,79.581,628.41,92,628.41,116H640V71h-11.59
		c0,27-13.073-0.155-45.859-0.155c-40.828,0-60.881,25.149-56.685,50.892c8.623,52.904,76.845,35.514,78.399,77.049
		c0.431,11.512-6.943,17.984-22.505,17.984c-19.82,0-47.266-14.133-47.266-52.32L523,164.381v0.145v63.152l11.492-0.117
		c0-26.291,19.749-1.513,48.013-1.513c28.028,0,67.994-10.126,63.951-51.29C640.933,118.507,566.17,140.9,566.17,96.986z"/>
	<path d="M788.308,165c-3.448,29-23.054,52.113-45.701,52.113c-29.385,0-37.021-30.947-37.021-68.719
		c0-37.914,16.421-68.747,36.867-68.747c22.647,0,41.547,21.625,45.547,51.072V132h12v-0.869v-0.001V71h-11.692
		c0,27-18.955-0.199-47.533-0.199c-34.163,0-76.309,19.902-76.335,77.394c0.026,50.598,27.246,77.558,76.335,77.558
		c25.488,0,47.533-23.866,47.533,2.248h11.555L800,165H788.308z"/>
	<path d="M355.363,196.202c0,0-27.677-86.865-32.374-99.872c-3.272-9.059-2.218-17.68,6.493-19.221l-1.878-9.7l-65.659,9.537
		l2.48,10.026c8.199-1.22,11.912,1.887,8.07,15.012l-31.374,94.264c-3.348,11.705-9.165,20.539-21.653,20.539L219.475,228h43.101
		l-0.03-11.214c-9.248,0-15.535-1.627-12.112-12.075L261.123,174h46.388c5.295,17,9.54,31.708,9.54,31.708
		c2.554,7.401-1.05,10.918-11.05,10.918V228h69v-11.375C365,216.625,359.981,208.474,355.363,196.202z M263.671,165
		c8.029-25,16.811-51.691,20.27-62.338C288.914,115.664,297.435,141,304.631,165H263.671z"/>
	<path d="M180.866,172c9.399,0,22.905-4.033,30.706-11.007c4.513-4.035,6.898-8.841,6.897-13.891
		c0-6.394-3.931-11.737-10.257-13.939c-7.622-2.653-19.003-0.671-27.251,9.741c-3.628,4.579-6.702,11.785-8.436,19.771
		c-0.531,2.448-0.876,4.671-1.081,6.685c-0.443,1.087-2.241,5.32-5.033,9.63c-3.184,4.916-6.448,8.056-9.354,9.04
		c0.04-0.585,0.121-1.356,0.271-2.367c0.376-2.54,1.049-5.783,1.901-9.889c0.951-4.584,2.136-10.289,3.289-16.956
		c1.964-11.351,1.221-18.335-2.408-22.646c-1.568-1.862-4.495-4.082-9.538-4.082c-3.581,0-8.715,1.596-14.287,8.415l5.512-26.83
		c1.796,0.702,3.598,1.445,5.4,2.233c10.22,4.466,20.257,7.053,29.834,7.689c7.774,0.517,15.257-0.243,22.245-2.259
		c12.1-3.489,18.606-9.607,18.877-9.866l-6.522-6.833l0.019-0.018c-0.053,0.05-5.447,5.004-15.515,7.789
		c-5.9,1.632-12.248,2.216-18.867,1.735c-8.369-0.608-17.213-2.927-26.289-6.893c-14.032-6.132-28.092-9.866-40.659-10.799
		c-13.278-0.985-24.842,1.182-33.441,6.267c-10.248,6.061-16.291,16.144-17.474,29.16l9.407,0.855
		c0.91-10.007,5.242-17.37,12.875-21.885c6.93-4.099,16.59-5.82,27.934-4.978c0.228,0.017,0.458,0.037,0.688,0.056l-19.551,89.297
		l9.227,2.02l19.712-90.031c4.257,0.801,8.646,1.906,13.106,3.298l-17.427,84.831l9.239,1.965
		c4.686-21.313,10.088-37.014,16.055-46.669c4.149-6.712,7.835-9.104,9.902-9.104c1.706,0,2.131,0.504,2.312,0.72
		c0.727,0.863,2.213,4.048,0.327,14.952c-1.127,6.512-2.293,12.131-3.23,16.647c-1.042,5.021-1.866,8.988-2.215,12.08
		c-0.362,3.21-0.424,6.84,1.864,9.427c1.012,1.144,2.819,2.437,5.818,2.437c0.294,0,0.6-0.012,0.918-0.039
		c6.104-0.505,11.879-4.692,17.18-12.446c3.014,5.804,8.971,9.983,15.655,10.84c0.871,0.112,1.75,0.167,2.634,0.167
		c3.643,0,7.365-0.943,10.901-2.776c4.745-2.461,9.205-6.499,13.256-12.005l-7.608-5.598c-5.702,7.748-12.088,11.599-17.982,10.843
		c-4.517-0.579-7.707-3.759-8.864-6.663c-0.791-1.984-1.028-5.122-0.824-8.122C180.765,172,180.815,172,180.866,172z
		 M188.365,148.769c4.095-5.169,9.215-7.227,13.329-7.227c1.25,0,2.407,0.19,3.413,0.54c3.237,1.127,3.916,3.349,3.916,5.016
		c0,2.318-1.261,4.62-3.747,6.843c-3.069,2.744-7.775,5.149-13.252,6.773c-3.363,0.997-6.833,1.619-9.741,1.779
		C183.664,157.145,185.819,151.982,188.365,148.769z"/>
</g>
<g>
</g>
<g>
</g>
<g>
</g>
<g>
</g>
<g>
</g>
<g>
</g>
<g>
</g>
<g>
</g>
<g>
</g>
<g>
</g>
<g>
</g>
<g>
</g>
<g>
</g>
<g>
</g>
<g>
</g>
</svg>
